<?xml version="1.0" encoding="utf-8"?>
<!-- Generator: Adobe Illustrator 17.1.0, SVG Export Plug-In . SVG Version: 6.00 Build 0)  -->
<!DOCTYPE svg PUBLIC "-//W3C//DTD SVG 1.1//EN" "http://www.w3.org/Graphics/SVG/1.1/DTD/svg11.dtd">
<svg version="1.1" id="kids" xmlns="http://www.w3.org/2000/svg" xmlns:xlink="http://www.w3.org/1999/xlink" x="0px" y="0px"
	 viewBox="0 0 1009.9998 900.1621" enable-background="new 0 0 1009.9998 900.1621" xml:space="preserve">
<g id="kids-kids">
	<path fill="#323B5A" d="M441.7798,737.9052c2.9888,5.749,8.9136,9.3535,15.3833,9.3535h143.2871v135.586
		c0,9.582,7.7705,17.3174,17.3174,17.3174h107.1572h19.374h16.2285h71.5547c9.5821,0,17.3174-7.7354,17.3174-17.3174v-135.586
		h143.2861c6.4708,0,12.3956-3.6045,15.3848-9.3535c2.9531-5.7314,2.4962-12.6582-1.2314-17.915L881.2393,541.541V435.6318
		c0-61.9561-36.2881-115.438-88.6446-140.7373c37.9932-22.9961,63.5205-64.5406,63.5205-112.0801
		c0-14.4692-2.4609-28.3408-6.8213-41.4038c3.3057-3.2525,5.2569-7.6475,5.2217-12.3594l-0.826-111.8691
		c-0.0704-5.8194-2.9883-11.1992-7.8594-14.3638c-4.834-3.1645-10.9883-3.6919-16.2969-1.4414l-89.9453,38.5024
		c-3.2354,1.3716-5.5566,3.7803-7.3496,6.5054c-3.3574-1.2837-6.9795-2.0395-10.7949-2.022
		c-3.375,0.0352-6.5577,0.7383-9.5821,1.8111c-1.8281-2.6724-4.0781-5.0283-7.2773-6.3999L619.5078,3.0292
		c-5.3623-2.3208-11.5332-1.7578-16.456,1.4595c-4.8526,3.2525-7.7881,8.7378-7.7178,14.5747l0.8086,111.8867
		c0.0351,4.1841,1.582,8.0874,4.2539,11.1641c-4.2188,12.8516-6.5567,26.4946-6.5567,40.7002
		c0,47.5395,25.4922,89.084,63.4327,112.0625c-52.3564,25.3169-88.662,78.7988-88.662,140.7549V541.541L443.0103,719.9902
		C439.3008,725.247,438.8262,732.1738,441.7798,737.9052z M635.085,747.2587h72.7333c-0.0352,0.3516-0.211,0.6504-0.211,1.0196
		v117.249H635.085V747.2587z M821.4805,182.8144c0,53.1831-43.3028,96.4331-96.5557,96.4331
		c-53.1826,0-96.4502-43.25-96.4502-96.4331c0-15.6118,3.832-30.3452,10.4258-43.4253l66.6152-26.3018
		c4.8164-1.916,8.1397-5.7666,9.7744-10.2319c2.0928,0.4746,4.3077,0.7735,6.5928,0.7383
		c3.9033-0.0352,7.5957-0.8613,10.9883-2.2329c1.8457,3.0063,4.4131,5.6963,7.9648,7.1557l68.8125,28.1299
		C817.1563,150.3598,821.4805,166.0771,821.4805,182.8144z M603.2461,435.6318c0-67.125,54.5713-121.7495,121.6787-121.7495
		s121.6786,54.6245,121.6786,121.7495v99.6328H603.2461V435.6318z M814.7646,865.5273h-54.2373h-16.2285h-2.0566v-117.249
		c0-0.3692-0.1934-0.668-0.1934-1.0196h72.7158V865.5273z M724.9248,338.5136c9.5459,0,17.3174,7.771,17.3174,17.335
		c0,9.5464-7.7715,17.2822-17.3174,17.2822c-9.582,0-17.3174-7.7358-17.3174-17.2822
		C707.6074,346.2846,715.3428,338.5136,724.9248,338.5136z M707.6074,425.0834c0,9.564,7.7354,17.3003,17.3174,17.3003
		c9.5459,0,17.3174-7.7363,17.3174-17.3003c0-9.5644-7.7715-17.3178-17.3174-17.3178
		C715.3428,407.7656,707.6074,415.519,707.6074,425.0834z M707.6074,494.3173c0,9.5645,7.7354,17.3184,17.3174,17.3184
		c9.5459,0,17.3174-7.7539,17.3174-17.3184c0-9.5634-7.7715-17.3164-17.3174-17.3164
		C715.3428,477.0009,707.6074,484.7539,707.6074,494.3173z M724.9248,58.9199c8.2979,0,14.9971,6.7158,14.9971,14.9965
		c0,8.316-6.6992,15.0147-14.9971,15.0147c-8.2803,0-14.9971-6.6987-14.9971-15.0147
		C709.9277,65.6357,716.6445,58.9199,724.9248,58.9199z"/>
	<path fill="#323B5A" d="M0,438.2509v212.2403c0,9.582,7.7354,17.3183,17.3174,17.3183h47.6797v215.0352
		c0,9.5644,7.7363,17.3174,17.3178,17.3174h134.5489h17.2998h76.0913c9.5815,0,17.3174-7.753,17.3174-17.3174V667.8095h47.5923
		c9.5644,0,17.2998-7.7363,17.2998-17.3183V438.2509c0-82.6484-51.3897-153.3423-123.8594-182.2285
		c39.5752-24.3672,66.0703-67.9336,66.0703-117.6533c0-76.3023-62.1143-138.3638-138.3994-138.3638
		c-76.2847,0-138.3462,62.0615-138.3462,138.3638c0,49.7197,26.4775,93.251,66,117.6533C51.4248,284.8911,0,355.6025,0,438.2509z
		 M196.2759,242.0278c-57.209,0-103.7114-46.5196-103.7114-103.6587c0-57.209,46.5024-103.729,103.7114-103.729
		c57.2095,0,103.7641,46.52,103.7641,103.729C300.04,195.5082,253.4854,242.0278,196.2759,242.0278z M213.5586,667.8095h79.3789
		v197.7178h-58.7739h-17.2998h-3.3052V667.8095z M178.9409,484.7011c0-9.5644,7.7007-17.2998,17.2822-17.2998
		c9.5645,0,17.3179,7.7354,17.3179,17.2998c0,9.5811-7.7534,17.3174-17.3179,17.3174
		C186.6416,502.0185,178.9409,494.2822,178.9409,484.7011z M178.9409,415.4663c0-9.5464,7.7007-17.3174,17.2822-17.3174
		c9.5645,0,17.3179,7.771,17.3179,17.3174c0,9.5644-7.7534,17.3002-17.3179,17.3002
		C186.6416,432.7665,178.9409,425.0307,178.9409,415.4663z M178.9409,346.2138c0-9.5464,7.7007-17.2998,17.2822-17.2998
		c9.5645,0,17.3179,7.7534,17.3179,17.2998c0,9.5645-7.7534,17.3003-17.3179,17.3003
		C186.6416,363.5141,178.9409,355.7783,178.9409,346.2138z M99.6323,667.8095h79.291v197.7178h-79.291V667.8095z"/>
</g>
</svg>
