<?xml version="1.0" encoding="UTF-8" standalone="no"?>
<!-- Generator: Adobe Illustrator 16.0.0, SVG Export Plug-In . SVG Version: 6.00 Build 0)  -->

<svg
   xmlns:dc="http://purl.org/dc/elements/1.1/"
   xmlns:cc="http://creativecommons.org/ns#"
   xmlns:rdf="http://www.w3.org/1999/02/22-rdf-syntax-ns#"
   xmlns:svg="http://www.w3.org/2000/svg"
   xmlns="http://www.w3.org/2000/svg"
   xmlns:sodipodi="http://sodipodi.sourceforge.net/DTD/sodipodi-0.dtd"
   xmlns:inkscape="http://www.inkscape.org/namespaces/inkscape"
   version="1.1"
   id="Layer_1"
   x="0px"
   y="0px"
   width="797.065"
   height="389.98099"
   viewBox="0 0 797.06502 389.981"
   enable-background="new 0 0 850.394 425.197"
   xml:space="preserve"
   inkscape:version="0.48.2 r9819"
   sodipodi:docname="AJAX1.svg"><metadata
   id="metadata37"><rdf:RDF><cc:Work
       rdf:about=""><dc:format>image/svg+xml</dc:format><dc:type
         rdf:resource="http://purl.org/dc/dcmitype/StillImage" /></cc:Work></rdf:RDF></metadata><defs
   id="defs35" /><sodipodi:namedview
   pagecolor="#ffffff"
   bordercolor="#666666"
   borderopacity="1"
   objecttolerance="10"
   gridtolerance="10"
   guidetolerance="10"
   inkscape:pageopacity="0"
   inkscape:pageshadow="2"
   inkscape:window-width="1280"
   inkscape:window-height="1004"
   id="namedview33"
   showgrid="false"
   fit-margin-top="0"
   fit-margin-left="0"
   fit-margin-right="0"
   fit-margin-bottom="0"
   inkscape:zoom="0.83255528"
   inkscape:cx="646.23775"
   inkscape:cy="149.31528"
   inkscape:window-x="-8"
   inkscape:window-y="-8"
   inkscape:window-maximized="1"
   inkscape:current-layer="Layer_1"
   showguides="true"
   inkscape:guide-bbox="true" />
<path
   d="m 76.667996,328.382 -8.582,61.599 H -3.9449046e-6 L 51.744996,4.2724598e-7 H 142.528 L 195.713,389.981 H 121.25 l -6.319,-61.599 H 76.667996 z m 20.468,-199.225 -14.525,130.231 H 108.884 L 97.134996,136.832"
   id="path3"
   inkscape:connector-curvature="0"
   style="fill:#2da24a;stroke:none" />
<path
   style="fill:#2da24a;stroke:none"
   d="m 206.529,112.321 27.688,113.476 21.788,0 0,-225.797 -23.603,0 0,117.768 L 209.706,0 l -25.418,0 0,225.797 22.241,0 z"
   id="polygon5"
   inkscape:connector-curvature="0" />
<path
   style="fill:#2da24a;stroke:none"
   d="m 270.53,0 59.008,0 0,225.797 -59.008,0 z"
   id="rect7"
   inkscape:connector-curvature="0" />
<path
   style="fill:#8bc641;stroke:none"
   d="m 494.762,112.321 119.831,27.235 0,86.241 -269.622,0 0,-57.645 170.671,0 -170.671,-40.398 0,-38.128 167.039,-35.406 -166.132,0 0,-54.22 270.531,0 0,91.442 z"
   id="polygon9"
   inkscape:connector-curvature="0" />
<path
   d="m 650.786,184.947 -3.632,40.85 H 624.785 L 645.665,4.2724596e-7 H 674.51 L 695.39,225.797 h -22.062 l -3.63,-40.85 h -18.912 z m 8.89,-118.017 -8.17,90.782 h 16.341 L 659.676,66.93"
   id="path11"
   inkscape:connector-curvature="0"
   style="fill:#2da24a;stroke:none" />
<path
   style="fill:#2da24a;stroke:none"
   d="m 797.065,181.316 -40.852,0 0,-181.316 -50.837,0 0,225.797 91.689,0 z"
   id="polygon13"
   inkscape:connector-curvature="0" />
<path
   d="m 251.913,238.79 c 36.469,0 43.129,20.271 43.129,31.296 0,6.34 0,26.101 0,35.191 0,9.87 -3.166,17.063 -8.666,22.875 -5.5,5.812 -15.079,10.215 -23.435,10.215 -8.356,0 -17.83,0 -17.83,0 v 51.614 H 205.166 V 238.79 c 0.001,0 30.065,0 46.747,0 z m -6.802,29.676 v 39.036 c 0,0 8.939,2.062 12.841,-3.137 3.394,-4.523 3.003,-9.433 3.003,-17.604 0,-8.17 -0.032,-12.25 -4.572,-15.881 -4.538,-3.63 -11.272,-2.414 -11.272,-2.414 z"
   id="path15"
   inkscape:connector-curvature="0"
   style="fill:#297c47;stroke:none" />
<path
   style="fill:#297c47;stroke:none"
   d="m 380.376,358.339 -35.405,0 0,-119.549 -39.944,0 0,151.191 75.349,0 z"
   id="polygon17"
   inkscape:connector-curvature="0" />
<path
   d="m 438.477,289.346 8.17,51.743 h -16.341 l 8.171,-51.743 z M 415.781,238.79 385.823,389.981 h 39.035 l 3.632,-18.93 h 19.973 l 3.632,18.93 H 491.13 L 461.172,238.79 h -45.391 z"
   id="path19"
   inkscape:connector-curvature="0"
   style="fill:#297c47;stroke:none" />
<path
   style="fill:#297c47;stroke:none"
   d="m 534.705,321.12 41.76,68.861 31.773,0 0,-151.191 -36.312,0 0,72.343 -38.128,-72.343 -34.498,0 0,151.191 35.405,0 z"
   id="polygon21"
   inkscape:connector-curvature="0" />
<path
   style="fill:#297c47;stroke:none"
   d="m 695.69,360.155 -37.521,0 0,-33.588 37.521,0 0,-28.144 -37.521,0 0,-29.957 37.521,0 0,-29.676 -77.465,0 0,151.191 77.465,0 z"
   id="polygon23"
   inkscape:connector-curvature="0" />
<path
   style="fill:#297c47;stroke:none"
   d="m 730.794,389.981 39.944,0 0,-122.422 26.327,0 0,-28.769 -91.689,0 0,28.769 25.418,0 z"
   id="polygon25"
   inkscape:connector-curvature="0" />

</svg>