<?xml version="1.0" encoding="utf-8"?>
<!-- Generator: Adobe Illustrator 19.0.0, SVG Export Plug-In . SVG Version: 6.00 Build 0)  -->
<svg version="1.1"
	 id="Layer_1" xmlns:inkscape="http://www.inkscape.org/namespaces/inkscape" xmlns:sodipodi="http://sodipodi.sourceforge.net/DTD/sodipodi-0.dtd" xmlns:svg="http://www.w3.org/2000/svg" xmlns:rdf="http://www.w3.org/1999/02/22-rdf-syntax-ns#" xmlns:dc="http://purl.org/dc/elements/1.1/" xmlns:cc="http://creativecommons.org/ns#" sodipodi:docname="AJAX1.svg" inkscape:version="0.48.2 r9819"
	 xmlns="http://www.w3.org/2000/svg" xmlns:xlink="http://www.w3.org/1999/xlink" x="0px" y="0px" viewBox="-80 86 797.1 390"
	 style="enable-background:new -80 86 797.1 390;" xml:space="preserve">
<style type="text/css">
	.st0{fill:#757575;}
	.st1{fill:#A6A6A6;}
	.st2{fill:#5D5D5D;}
</style>
<sodipodi:namedview  id="namedview33" showguides="true" inkscape:cy="149.31528" inkscape:cx="646.23775" inkscape:zoom="0.83255528" fit-margin-left="0" fit-margin-top="0" showgrid="false" guidetolerance="10" gridtolerance="10" objecttolerance="10" borderopacity="1" bordercolor="#666666" pagecolor="#ffffff" inkscape:guide-bbox="true" inkscape:current-layer="Layer_1" inkscape:window-maximized="1" inkscape:window-y="-8" inkscape:window-x="-8" fit-margin-bottom="0" fit-margin-right="0" inkscape:window-width="1280" inkscape:window-height="1004" inkscape:pageshadow="2" inkscape:pageopacity="0">
	</sodipodi:namedview>
<path id="path3" inkscape:connector-curvature="0" class="st0" d="M-3.3,414.4l-8.6,61.6H-80l51.7-390h90.8l53.2,390H41.3l-6.3-61.6
	H-3.3z M17.1,215.2L2.6,345.4h26.3L17.1,222.9"/>
<path id="polygon5" inkscape:connector-curvature="0" class="st0" d="M126.5,198.3l27.7,113.5H176V86h-23.6v117.8L129.7,86h-25.4
	v225.8h22.2L126.5,198.3z"/>
<path id="rect7" inkscape:connector-curvature="0" class="st0" d="M190.5,86h59v225.8h-59V86z"/>
<path id="polygon9" inkscape:connector-curvature="0" class="st1" d="M414.8,198.3l119.8,27.2v86.2H265v-57.6h170.7L265,213.8v-38.1
	l167-35.4H265.9V86h270.5v91.4L414.8,198.3z"/>
<path id="path11" inkscape:connector-curvature="0" class="st0" d="M570.8,271l-3.6,40.9h-22.4L565.7,86h28.8l20.9,225.8h-22.1
	l-3.6-40.9H570.8L570.8,271z M579.7,152.9l-8.2,90.8h16.3L579.7,152.9"/>
<path id="polygon13" inkscape:connector-curvature="0" class="st0" d="M717.1,267.3h-40.9V86h-50.8v225.8h91.7L717.1,267.3z"/>
<path id="path15" inkscape:connector-curvature="0" class="st2" d="M171.9,324.8c36.5,0,43.1,20.3,43.1,31.3c0,6.3,0,26.1,0,35.2
	c0,9.9-3.2,17.1-8.7,22.9c-5.5,5.8-15.1,10.2-23.4,10.2c-8.4,0-17.8,0-17.8,0V476h-39.9V324.8C125.2,324.8,155.2,324.8,171.9,324.8z
	 M165.1,354.5v39c0,0,8.9,2.1,12.8-3.1c3.4-4.5,3-9.4,3-17.6c0-8.2,0-12.3-4.6-15.9C171.8,353.3,165.1,354.5,165.1,354.5z"/>
<path id="polygon17" inkscape:connector-curvature="0" class="st2" d="M300.4,444.4H265V324.8H225V476h75.3V444.4z"/>
<path id="path19" inkscape:connector-curvature="0" class="st2" d="M358.5,375.4l8.2,51.7h-16.3L358.5,375.4z M335.8,324.8
	l-30,151.2h39l3.6-18.9h20l3.6,18.9h39l-30-151.2H335.8z"/>
<path id="polygon21" inkscape:connector-curvature="0" class="st2" d="M454.7,407.1l41.8,68.9h31.8V324.8h-36.3v72.3l-38.1-72.3
	h-34.5V476h35.4L454.7,407.1z"/>
<path id="polygon23" inkscape:connector-curvature="0" class="st2" d="M615.7,446.2h-37.5v-33.6h37.5v-28.1h-37.5v-30h37.5v-29.7
	h-77.5V476h77.5L615.7,446.2z"/>
<path id="polygon25" inkscape:connector-curvature="0" class="st2" d="M650.8,476h39.9V353.6h26.3v-28.8h-91.7v28.8h25.4L650.8,476z
	"/>
</svg>
