<?xml version="1.0" encoding="iso-8859-1"?>
<!-- Generator: Adobe Illustrator 19.0.0, SVG Export Plug-In . SVG Version: 6.00 Build 0)  -->
<svg version="1.1" id="Layer_1" xmlns="http://www.w3.org/2000/svg" xmlns:xlink="http://www.w3.org/1999/xlink" x="0px" y="0px"
	 viewBox="0 0 512 512" style="enable-background:new 0 0 512 512;" xml:space="preserve">
<path style="fill:#666666;" d="M236.28,98.776v351.212H59.794c-16.028,0-29.021-12.993-29.021-29.021V127.785
	c0-16.016,12.993-29.009,29.021-29.009C59.794,98.776,236.28,98.776,236.28,98.776z"/>
<polygon style="fill:#999999;" points="236.28,98.776 236.28,449.989 77.77,449.989 176.23,98.776 "/>
<circle style="fill:#4D4D4D;" cx="144.807" cy="423.132" r="8.859"/>
<rect x="30.768" y="154.139" style="fill:#F94B54;" width="205.507" height="239.169"/>
<polygon style="fill:#F98791;" points="236.28,154.137 236.28,393.306 93.657,393.306 160.71,154.137 "/>
<polygon style="fill:#9BD7F4;" points="481.225,63.49 481.225,0 233.198,0 233.198,189.872 233.198,224.125 233.198,262.2 
	146.389,262.2 233.198,313.892 233.198,512 481.225,512 481.225,98.924 "/>
<g>
	<rect x="262.733" y="348.661" style="fill:#61BCE0;" width="188.971" height="35.517"/>
	<rect x="262.733" y="108.547" style="fill:#61BCE0;" width="188.971" height="70.478"/>
	<polyline style="fill:#61BCE0;" points="333.521,416.222 451.696,416.222 451.696,486.7 262.727,486.7 262.727,416.222 
		302.22,416.222 	"/>
	<polyline style="fill:#61BCE0;" points="430.374,214.554 451.696,214.554 451.696,312.849 262.727,312.849 262.727,214.554 
		397.302,214.554 	"/>
</g>
<rect x="233.204" style="fill:#F94B54;" width="248.028" height="65.045"/>
<circle style="fill:#F9C573;" cx="264.492" cy="33.071" r="8.859"/>
<circle style="fill:#61BCE0;" cx="321.778" cy="33.071" r="8.859"/>
<circle style="fill:#FFFFFF;" cx="293.135" cy="33.071" r="8.859"/>
<rect x="233.204" y="59.14" style="fill:#61BCE0;" width="248.028" height="11.811"/>
<g>
	<rect x="262.733" y="340.393" style="fill:#F2F2F2;" width="188.971" height="35.517"/>
	<rect x="262.733" y="100.279" style="fill:#F2F2F2;" width="188.971" height="70.478"/>
</g>
<g>
	<polyline style="fill:#F9C573;" points="333.521,407.954 451.696,407.954 451.696,478.432 262.727,478.432 262.727,407.954 
		302.22,407.954 	"/>
	<polyline style="fill:#F9C573;" points="430.374,206.286 451.696,206.286 451.696,304.581 262.727,304.581 262.727,206.286 
		397.302,206.286 	"/>
</g>
<g>
</g>
<g>
</g>
<g>
</g>
<g>
</g>
<g>
</g>
<g>
</g>
<g>
</g>
<g>
</g>
<g>
</g>
<g>
</g>
<g>
</g>
<g>
</g>
<g>
</g>
<g>
</g>
<g>
</g>
</svg>
