<?xml version="1.0" encoding="utf-8"?>
<!-- Generator: Adobe Illustrator 19.0.0, SVG Export Plug-In . SVG Version: 6.00 Build 0)  -->
<svg version="1.1" id="Layer_1" xmlns="http://www.w3.org/2000/svg" xmlns:xlink="http://www.w3.org/1999/xlink" x="0px" y="0px"
	 viewBox="-242 44.3 473.7 473.7" style="enable-background:new -242 44.3 473.7 473.7;" xml:space="preserve">
<style type="text/css">
	.st0{fill:#3F4F7F;}
	.st1{fill:#FCFCFC;}
	.st2{fill:#FFFFFF;}
</style>
<circle class="st0" cx="-5.2" cy="281.2" r="236.8"/>
<g>
	<path class="st1" d="M-36.8,166.1c12.6,41,22,115.4-1.7,122.7c0,0-19-55.3-31.6-96.2c-12.6-41-25-88.1-25-88.1
		C-84,101-49.4,125.1-36.8,166.1z"/>
	<path class="st1" d="M39.5,450.2c1.4,4.5-4.6,10.3-13.3,13l0,0c-8.7,2.7-16.9,1.2-18.3-3.3l-63.8-235.2c-1.4-4.5,1.1-9.3,5.7-10.7
		l0,0c4.5-1.4,9.3,1.2,10.7,5.7L39.5,450.2z"/>
</g>
<path class="st2" d="M-95.1,104.4c0,0,12.4,47.1,25,88.1c12.6,41,31.6,96.2,31.6,96.2c0,0,0,0,0,0L7.9,459.9c1.4,4.5,9.6,6,18.3,3.3
	c8.7-2.7,14.7-8.5,13.3-13C39.5,450.2-84,101-95.1,104.4z"/>
<g>
	<path class="st1" d="M-38.3,455.3c-1.7,4.4-10,5.2-18.5,1.9l0,0c-8.5-3.3-14-9.6-12.3-14l96.6-223.8c1.7-4.4,6.7-6.5,11.1-4.8l0,0
		c4.4,1.7,6.5,6.7,4.8,11.1L-38.3,455.3z"/>
	<path class="st1" d="M116.4,130c1.6-4,0.6-8.2-2.3-9.3s-6.4,1.2-8,5.3l-28.1,71.5c-2.9-1.9-6.7-4.1-11.7-6.6l27.5-69.8
		c1.6-4,0.6-8.2-2.3-9.3c-2.8-1.1-6.4,1.2-8,5.3l-27.3,69.3c-2.5-1-5.1-2.1-8-3.1c-1.5-0.5-2.9-1-4.2-1.5l27.1-69
		c1.6-4,0.6-8.2-2.3-9.3c-2.8-1.1-6.4,1.2-8,5.3l-27.4,69.7c-5.5-1.5-10-2.5-13.7-3.1l28.4-72.2c1.6-4,0.6-8.2-2.3-9.3
		c-2.8-1.1-6.4,1.2-8,5.3L8,175.4c-0.3,0.6-0.4,1.3-0.5,1.9C-7.1,215.4-6.1,237.1,24.3,249c30.3,11.9,45.7-3.1,61-40.7
		c0.4-0.6,0.8-1.3,1.1-2.1L116.4,130z"/>
</g>
<path class="st2" d="M44.1,181.7l27.1-69c1.6-4,0.6-8.2-2.3-9.3c-2.8-1.1-6.4,1.2-8,5.3l-27.4,69.7c-5.5-1.5-10-2.5-13.7-3.1
	l28.4-72.2c1.6-4,0.6-8.2-2.3-9.3c-2.8-1.1-6.4,1.2-8,5.3L8,175.4c-0.3,0.6-0.4,1.3-0.5,1.9c-13.2,34.5-13.6,55.5,8.9,68
	l-85.5,197.9c-1.7,4.4,3.8,10.6,12.3,14c8.5,3.3,16.8,2.5,18.5-1.9c0,0,76.2-237.6,85.7-272.4C47.4,182.9,44.2,181.7,44.1,181.7z"/>
</svg>
