<?xml version="1.0" encoding="utf-8"?>
<!-- Generator: Adobe Illustrator 19.0.0, SVG Export Plug-In . SVG Version: 6.00 Build 0)  -->
<svg version="1.1" id="Layer_1" xmlns="http://www.w3.org/2000/svg" xmlns:xlink="http://www.w3.org/1999/xlink" x="0px" y="0px"
	 viewBox="-225 27 508 508" style="enable-background:new -225 27 508 508;" xml:space="preserve">
<style type="text/css">
	.st0{fill:#637097;}
	.st1{fill:#3F4F7F;}
	.st2{fill:#FFFFFF;}
	.st3{fill:#2B3B4E;}
	.st4{fill:#FFD130;}
</style>
<path class="st0" d="M283,281c0,140.4-113.6,254-254,254s-254-113.6-254-254S-111.4,27,29,27c110.8,0,204.8,70.8,239.6,169.6
	c7.6,21.2,12,43.6,13.6,66.8C283,269.4,283,275,283,281z"/>
<path class="st1" d="M-151.4,459.8c46,46.4,110,75.2,180.4,75.2s134.4-28.8,180.4-75.2"/>
<path class="st1" d="M122.6,382.2h-222c-2.8,0-4.8,2-4.8,4.8l0,0c0,2.8,2,4.8,4.8,4.8H123c15.6,0,29.2,12,30,27.6
	c0.8,16.8-12.4,30.4-29.2,30.4H-99.4c-2.8,0-4.8,2-4.8,4.8l0,0c0,2.8,2,4.8,4.8,4.8h223.2c10.8,0,20.4-4.4,27.2-11.2
	c7.2-7.2,11.6-16.8,11.2-28C162.2,399.4,143.8,382.2,122.6,382.2z"/>
<path class="st2" d="M123.4,391.8H-95v58.4h218.4c16,0,29.2-13.2,29.2-29.2C152.6,405,139.8,391.8,123.4,391.8z"/>
<path class="st3" d="M89.8,382.2H-35.4c-3.2,0-5.6-2.4-5.6-5.6v-70.8c0-3.2,2.4-5.6,5.6-5.6H89.8c3.2,0,5.6,2.4,5.6,5.6V377
	C95,379.8,92.6,382.2,89.8,382.2z"/>
<path class="st2" d="M98.6,382.2H-44.6c-3.2,0-5.6-2.4-5.6-5.6v-5.2c0-3.2,2.4-5.6,5.6-5.6H98.6c3.2,0,5.6,2.4,5.6,5.6v5.6
	C104.2,379.8,101.8,382.2,98.6,382.2z"/>
<path class="st4" d="M39.8,205.4h-8h-4.4h-8c0,0,2,72.8-36.8,94.8h44.8h4.4h44.8C37.4,278.2,39.8,205.4,39.8,205.4z"/>
<g>
	<path class="st4" d="M18.6,222.6h21.6c-0.8-10.4-0.8-17.2-0.8-17.2H19C19.4,205.4,19.4,212.2,18.6,222.6z"/>
	<path class="st4" d="M71.4,191.4c-2,0-3.6-1.6-3.6-3.6s1.6-3.6,3.6-3.6c22.8,0,40.4-6,51.6-17.6s17.2-28.8,17.2-51.6
		c-14,9.2-45.6,4.8-49.2,4.4c-2-0.4-3.2-2-3.2-4c0.4-2,2-3.2,4-3.2c9.2,1.6,35.2,3.6,44.4-3.6c2-1.6,2.8-3.2,3.2-5.2
		c0.4-2,2-3.2,3.6-3.2c2,0,3.2,1.6,3.6,3.6v6.8c0.8,26.8-5.6,47.2-19.2,60.8C115.4,184.6,96.2,191.4,71.4,191.4z"/>
	<path class="st4" d="M-12.6,191.4c-24.8,0-44-6.8-56.8-20c-13.6-13.6-20-34.4-19.2-60.8v-6.8c0-2,1.6-3.6,3.6-3.6s3.6,1.2,3.6,3.2
		c0.4,2,1.2,3.6,3.2,5.2c9.6,7.2,35.2,4.8,44.4,3.6c2-0.4,4,1.2,4,3.2c0.4,2-1.2,4-3.2,4c-3.6,0.4-34.8,5.2-49.2-4.4
		c0,22.4,6,40,17.2,51.6c11.6,11.6,28.8,17.6,51.6,17.6c2,0,3.6,1.6,3.6,3.6C-9,189.8-10.6,191.4-12.6,191.4z"/>
</g>
<path class="st4" d="M-41.8,99c-2.8,8.8-4,18.8-4,28.8c0,48.8,33.6,88,75.2,88s75.2-39.6,75.2-88c0-10-1.6-19.6-4-28.8H-41.8z"/>
</svg>
