<?xml version="1.0" encoding="utf-8"?>
<!-- Generator: Adobe Illustrator 19.1.0, SVG Export Plug-In . SVG Version: 6.00 Build 0)  -->
<svg version="1.1" id="Layer_3" xmlns="http://www.w3.org/2000/svg" xmlns:xlink="http://www.w3.org/1999/xlink" x="0px" y="0px"
	 viewBox="0 0 250 174" style="enable-background:new 0 0 250 174;" xml:space="preserve">
<style type="text/css">
	.st0{fill:#333;}
	.st1{fill-rule:evenodd;clip-rule:evenodd;fill:#D9D9D9;}
	.st2{fill:#FFFFFF;}
	.st3{fill:#EF4A5F;stroke:#FFFFFF;stroke-miterlimit:10;}
	.st4{fill:#D9D9D9;stroke:#FFFFFF;stroke-miterlimit:10;}
	.st5{fill:none;}
	.st6{fill:none;stroke:#000000;stroke-miterlimit:10;}
</style>
<g>
	<g>
		<g>
			<g>
				<g>
					<path class="st0" d="M92.5,43.6c-19.8,0-35.8,16-35.8,35.8c0,19.8,16,35.8,35.8,35.8c19.8,0,35.8-16,35.8-35.8
						C128.3,59.7,112.3,43.6,92.5,43.6z M112.6,55.6c0.1-0.4,0.9,0.1,1.2,0.7s0.8,1.2,1.7,2c0.9,0.8,0.7,1.4,0.9,2.2
						c0.2,0.8,1.1,1.9,1.6,3c0.5,1.1,0.4,2.1-0.2,1.7c-0.6-0.4-1.1-0.7-1.4-1.3c-0.3-0.6-0.9-1.3-1.1-1.9c-0.1-0.6-1.2-1.4-1.4-1.7
						c-0.3-0.3-0.3-1.3-0.2-1.7c0.1-0.4-0.2-1.4-0.4-1.5C113.1,56.9,112.5,56,112.6,55.6z M94.8,44.4c1.4-0.1,7.5,1.4,8.6,2
						c1,0.6,1.9,1.2,1.9,1.2s0.5,0.8,0.7,1.1c0.1,0.3-0.6,0.4-1.1-0.1c-0.5-0.4-1.4-1.1-2.4-1.4c-1-0.3-1.8-0.8-2.1-0.6
						s-0.1,0.2-0.5,0.3c-0.4,0.1-0.8,0-0.7,0.3s1,0.6,1.1,0.8c0.1,0.3-0.1,0.5-0.7,0.5c-0.6-0.1-1.7-0.4-2.3-0.8
						c-0.7-0.4-1.2-0.9-1.8-0.9c-0.7,0.1-1.1-0.2-0.7-0.4c0.4-0.2,1.2-0.2,0.8-0.5c-0.4-0.4-0.8-0.4-0.6-0.6s-0.6-0.2-0.7-0.3
						S93.4,44.5,94.8,44.4z M73.9,51.7c0.8-0.4,2-1.2,2.6-1.7c0.6-0.5,1.6-0.9,2.1-1.3c0.6-0.4,2-1.1,2.8-1.4c0.9-0.3,0.9-0.5,1.2-1
						c0.3-0.5,1.7-0.5,2.6-0.8s2.4-0.3,3.1-0.4c0.7-0.1,1.4,0.2,1.9,0.3c0.5,0.1,1,0,1.5,0c0.5,0,0.3,0.6,0.1,0.9
						c-0.2,0.3,0,0.4,0.3,0.5s0.1,0.4-0.2,0.5c-0.3,0.2-0.7,0.5-1.3,0.5s-1.1,0.1-1.5,0.1s-0.8-0.2-1-0.4s-1.3,0-1.8,0.4
						s-1.6,0.1-2.1,0.2c-0.5,0.1-0.8,0-1.5,0.2c-0.7,0.2-0.9,0.6-1.3,0.8c0,0-0.8,0-0.5-0.3c0.2-0.3,0.6-0.5,0.4-0.8
						c-0.2-0.2-0.7,0.3-1.3,0.6c-0.6,0.3-0.2,0.8-0.4,1.3c-0.3,0.5-0.5,0.5-1.1,0.8s-1,0.6-1.7,1.2c-0.7,0.6-0.6,0.2-1.4,0.2
						c-0.8-0.1-1,0.4-1.9,0.8c-0.9,0.4-1.2,0.4-1.7,0.2C71.6,52.6,73.1,52.1,73.9,51.7z M87.4,67c0.1,0.3,0.2,0.5,0,0.7
						c-0.1,0.2-0.2,0.7-0.2,0.8c0,0.1,0.1,0.2,0.2,0c0.1-0.2,0.1-0.6,0.4-0.7c0.2-0.1,0.5,0,0.4,0.2c-0.1,0.2,0,0.3,0.1,0.3
						s0.3,0,0.3,0.1s0.2,0.3-0.1,0.2s-0.3-0.2-0.4-0.1c-0.1,0.1-0.3,0.1-0.3,0.3c0,0.2,0.2,0.5,0.1,0.5c-0.1,0-0.4,0-0.5-0.2
						C87.2,69,87,68.9,86.9,69c-0.1,0.1-0.4,0.1-0.6,0.1c-0.2,0-0.4-0.1-0.5,0c-0.1,0.1-0.2,0.5-0.3,0.6c-0.1,0.1-0.3,0.7-0.4,0.8
						c-0.1,0.1-0.3,0.4-0.4,0.3c-0.1-0.1-0.2-0.2-0.1-0.6s0.2-0.3,0.2-0.6c0-0.2,0.1-0.4-0.1-0.5c-0.2-0.1-0.5-0.2-0.9-0.1
						c-0.3,0.1-0.8,0.1-1,0.4s-0.5,0.5-0.8,0.6s-0.6,0.3-0.5,0.5c0,0.1,0,0.4-0.1,0.4c-0.1,0-0.1-0.3-0.4-0.2
						c-0.2,0.1-0.5,0.4-0.4,0.1c0.1-0.2,0.2-0.5,0.3-0.7c0.1-0.2,0.1-0.4,0-0.3c-0.1,0.1-0.2,0.5-0.4,0.5s-0.2,0-0.5,0.2
						c-0.3,0.2-0.4,0.3-0.5,0.3c-0.1,0-0.1-0.1-0.1-0.2c0-0.1,0.1-0.1,0.3-0.5c0.2-0.4,0.4-0.9,0.8-0.8c0.4,0.2,0.3,0.4,0.8,0.3
						s1-0.2,0.9-0.5c-0.1-0.3-0.5-1.4,0-1.7c0.5-0.3,1.1-0.2,1.4-0.8c0.3-0.5,0.7-1.1,1.2-0.8c0.5,0.3,0.8,0.7,1.2,0.3
						c0.4-0.4,0.2-1.1,0.6-0.8c0.4,0.3,0.8,0.4,0.8,0.1c0-0.3-0.3-0.9,0.1-0.9c0.4,0,0.3,0.2,0.2,0.2c-0.1,0.1-0.2,0.3,0,0.3
						c0.1,0,0.3,0,0.7,0s0.5-0.1,0.6,0c0.1,0.1,0.2,0.2,0.3,0.1s0.1-0.4,0.2-0.3c0.2,0.1,0.2,0.2,0.4,0.1c0.1-0.1,0.2-0.1,0.2,0
						c0,0.1,0.1,0.1,0,0.2c-0.1,0.1-0.1,0.2-0.2,0.4c-0.1,0.1-0.2,0.3-0.4,0.3c-0.3,0-0.3,0-0.5,0.1s-0.3,0.1-0.5,0.1
						s-0.5-0.1-0.7,0.1C87.6,66.3,87.2,66.7,87.4,67z M81,78c-0.3,0.1-0.5-0.1-0.4-0.4c0.1-0.4-0.2-0.6-0.3-0.2
						c-0.1,0.3-0.5,0.7-0.6,1.1c-0.2,0.3-0.5,0.9-0.7,1.1s-0.7,0.6-0.9,1s-0.3,0.9-0.6,1c-0.2,0.1-0.5,0.3-0.6,0
						c-0.1-0.2,0.2-0.4,0.2-0.4s0.7-0.7,0.9-1.1s0.5-0.8,0.9-1.1s0.4-0.6,0.6-1.1c0.2-0.4,0.4-0.8,0.6-1s0.5-0.2,0.7-0.5
						c0.2-0.3,0.4-0.6,0.4-0.4c0,0.2-0.2,0.5-0.3,0.8S81.3,77.9,81,78z M72.6,81.5c0,0.3-0.3,0.1-0.5,0.1c-0.1,0-0.1-0.2-0.2-0.3
						c-0.1-0.1-0.2,0-0.3-0.1c-0.1-0.1-0.4,0-0.5-0.1c-0.2-0.1-0.3-0.4-0.3-0.5c0-0.1-0.2-0.2-0.3-0.2s-0.3-0.6-0.3-0.8
						c0-0.2,0.2-0.2,0.3-0.3s0.2-0.6,0.1-0.8c-0.1-0.2,0-0.5,0.2-0.7c0.1-0.2,0.2-0.5,0.3-0.8s-0.1-0.8,0.1-1.1
						c0.1-0.3,0.2-0.6,0.2-0.8c0-0.2,0-0.3,0.1-0.4c0.1-0.2-0.1-0.8-0.1-0.9c0-0.1,0.2-0.4,0.2-0.3c0,0,0.6,0.2,0.6,0.1
						c0-0.1,0.4-0.1,0.6-0.2c0.2-0.1-0.1,0.3-0.2,0.4c-0.1,0.1,0,0.2,0.2,0.2c0.2,0,0.1,0.2,0,0.3c-0.1,0.1-0.2,0.3-0.1,0.3
						s0.1,0.3,0.1,0.5c0.1,0.2,0.5,0.3,0.6,0.4s0.3,0.2,0.6,0.1s-0.1,0.4-0.2,0.6c-0.1,0.2,0.2,0.6,0.4,0.7c0.2,0.1,0.1,0.3,0,0.5
						c-0.1,0.2,0,0.6,0.1,0.7c0.1,0.1,0.2,0.4,0.2,0.5s0.2,0.3,0.5,0.5c0.3,0.2,0,0.4-0.2,0.3s-0.2,0.3-0.2,0.5
						c0,0.3-0.2,0.2-0.4,0.1c-0.1-0.1-0.3,0.2-0.4,0.2c-0.1,0.1-0.2,0.1-0.4,0.2c-0.2,0.1-0.2,0.4-0.2,0.6c-0.1,0.2-0.3,0.1-0.4,0.2
						C72.5,81.1,72.7,81.2,72.6,81.5z M72.3,68.9c0.1,0.1,0.2-0.1,0.3-0.2c0.1-0.1,0.1,0.1,0.1,0.3c0,0.2,0.1,0.3,0.3,0.4
						s0.1,0.3,0,0.3c-0.1,0.1-0.2,0-0.3,0s-0.1-0.3-0.1-0.5s-0.2,0.1-0.3,0.3c0,0.2-0.1-0.2-0.2-0.3s-0.2-0.4-0.2-0.4
						c0-0.1,0.4-0.3,0.4-0.3S72.2,68.8,72.3,68.9z M73.4,68.1c0.1,0.1,0,0.2,0,0.3c0,0.1-0.1-0.1-0.2-0.2s-0.2-0.1-0.3,0
						c-0.1,0.1-0.1-0.1-0.2-0.2c-0.1-0.1,0.2,0,0.2-0.2c0.1-0.1-0.2-0.1-0.3-0.2c-0.2,0-0.1-0.1-0.1-0.2c0.1,0,0.1-0.1,0.2-0.2
						c0,0,0.2-0.1,0.2,0c0,0.1,0.1,0.2,0.3,0.3c0.2,0,0,0.2-0.1,0.3S73.3,68,73.4,68.1z M73.8,68.3L73.8,68.3
						c-0.1-0.1,0.4-0.1,0.4,0c0,0.1,0.2,0.4,0.4,0.6s0,0.3-0.1,0.4c-0.1,0.1,0.2,0.4,0.4,0.5c0.2,0.1-0.1,0.4-0.2,0.3
						s-0.2,0.2-0.5,0.4s-0.4-0.4-0.5-0.6s0-0.7,0.1-0.8C74,68.9,73.9,68.5,73.8,68.3z M74.6,75.6c-0.3-0.3-0.1-0.7-0.1-0.9
						s0.3-0.4,0.7-0.7c0.3-0.2,0.7-1.2,1-1c0.3,0.2-0.3,0.9-0.7,1.2c-0.4,0.3-0.4,0.6-0.2,1.2c0.1,0.6,0.7-1,1-1.4
						c0.3-0.4,0.2,0.4,0.1,0.7c-0.1,0.3-0.3,0.9-0.2,0.8s0.4,0,0.6,0.2c0.2,0.2,0.5,0.2,1,0.1c0.4-0.1,0.2,0.4,0,0.6
						c-0.1,0.2-0.2,0.4-0.5,0.2c-0.3-0.2-0.5-0.1-0.6-0.3s-0.3,0-0.4,0.3c-0.1,0.3,0.6,0.6,0.9,0.8c0.3,0.3,0.2,0.6,0,0.9
						s-0.4-0.6-0.6-0.8c-0.1-0.2-0.4-0.1-0.7,0.1c-0.3,0.2-0.2-0.3-0.4-0.6s-0.2-0.6-0.2-0.8C75.2,76,74.9,75.9,74.6,75.6z M78.6,74
						c0,0,0.1-0.2,0.2-0.4c0.1-0.1,0.2-0.2,0.4-0.1c0.1,0,0.1,0.3,0,0.5c-0.1,0.2-0.4,0.2-0.5,0.2S78.5,74.1,78.6,74z M63.2,72.1
						c-0.1,0-0.2,0.4-0.3,0.5c-0.1,0.2-0.3,0.1-0.2-0.3c0.1-0.3,0.4-0.7,0.3-0.7s-0.9,0.3-1,0.5c-0.1,0.3-0.7,0.6-1,1
						c-0.3,0.4,0,1-0.3,1.2c-0.3,0.3-0.5,0.5-0.7,1c-0.2,0.4-0.2,2.1-0.4,2.1c-0.2,0,0-1.2,0-1.4c0-0.2-0.1-0.4-0.2-0.6
						c-0.1-0.2-0.3-0.2-0.5-0.4s0.1-0.8,0.2-1c0.1-0.2,0-0.3-0.4-0.2c-0.3,0.1,0.3-1,0.4-1.2c0.1-0.3,0-0.6-0.1-0.7
						c-0.1-0.1-0.2-0.4-0.1-0.6c0.1-0.2,0.1-1.4,0.2-1.7c0.1-0.3,0.4-0.6,0.4-0.9s0.8-0.9,0.9-1.1c0.2-0.2,0-0.4-0.2-0.4
						c-0.2-0.1,0-1.2,0.1-1.9c0-0.6,1.3-1.9,1.6-2.1c0.3-0.2,0.3-0.8,0.3-1c0.1-0.2,0.2-0.2,0.6-0.4c0.3-0.1,0.5-0.9,0.6-1
						s1-0.5,1.2-0.6c0.2-0.1,0.5-0.1,0.5,0.2c0,0.2,0.4-0.2,0.6-0.1c0.1,0.1-0.3,0.4-0.5,0.5s-0.3-0.1-0.4,0s-0.2,0.5-0.3,0.6
						c0,0.2-0.6,1.4-0.7,1.6c-0.1,0.2,0.3,0.4,0.6,0.2c0.3-0.2,0.2-0.3,0.3-0.5c0.1-0.2,0.3-0.1,0.4-0.3c0.2-0.2,0.4,0.4,0.5,0.5
						c0.2,0.1,0.3,0.5,0.4,0.5c0.2,0,0.2-0.3,0.2-0.4c0-0.1-0.1-0.3,0-0.4c0.1-0.1,0.4-0.1,0.6-0.2c0.2-0.1,0.3-0.1,0.4-0.2
						s0.5,0,0.7-0.1c0.2-0.1,0.5-0.5,0.7-0.7c0.2-0.2,0.5-0.5,0.6-0.6c0.1-0.1,0.2-0.3,0.3-0.4c0.1-0.1,0.2-0.3,0.3-0.4
						c0.1-0.1,0.1-0.2,0.1-0.3c0-0.1,0.1-0.1,0-0.2c0-0.2-0.1-0.1-0.2-0.2s-0.4,0-0.5,0c-0.1,0,0.3-0.2,0.4-0.2
						c0.2,0,0.3-0.1,0.3-0.2s0.2-0.2,0.3-0.1c0.1,0.1,0,0.3-0.1,0.3c0,0.1,0.1,0.1,0.2,0.1c0.1,0,0.3-0.2,0.4-0.3
						c0.1-0.1,0.6-0.1,0.6-0.1c0-0.1,0-0.3,0.1-0.3c0.1-0.1,0.1-0.3,0-0.4c0-0.1,0.1-0.3,0.1-0.3c0.1-0.1-0.2-0.2-0.2-0.3
						c0-0.1,0.1-0.2,0.3-0.3c0.2-0.1,0-0.2,0-0.3c0-0.1,0.1-0.2,0.2-0.3c0-0.1,0-0.1-0.1-0.2c-0.1-0.1-0.2,0-0.3-0.1
						c-0.1-0.1,0.3-0.2,0.3-0.3c0-0.1-0.3,0.1-0.5,0.2c-0.2,0.1-0.2,0-0.1-0.1c0.1-0.1,0.4-0.3,0.5-0.4s-0.1,0-0.3,0.1
						c-0.2,0.1-0.4,0.2-0.5,0.3s-0.3,0.2-0.5,0.3c-0.2,0.1,0.1-0.1,0.2-0.2c0.2-0.1,0.4-0.3,0.5-0.4c0.1-0.1-0.1,0-0.2,0
						s-0.4,0.3-0.6,0.4c-0.2,0.1-0.3,0.1-0.4,0.2c-0.1,0,0.2-0.1,0.3-0.2c0.2-0.1,0.2-0.2,0.4-0.4c0.2-0.2,0.3-0.1,0.5-0.1
						c0.2,0,0.5,0,0.7-0.1c0.2-0.1,0.3,0,0.3,0.1c0,0.1-0.2,0.2-0.2,0.2s0.3,0,0.5-0.1c0.2-0.1,0.5-0.1,0.8-0.3
						c0.3-0.1,0.3,0.1,0.4,0.2c0.1,0,0.2-0.3,0.2-0.4c0-0.1,0.2-0.2,0.3-0.3c0.2-0.1,0.4,0,0.6-0.2c0.1-0.1,0.3,0,0.5-0.1
						c0.2,0,0.2-0.1,0.4-0.2c0.1-0.1,0.3-0.1,0.4-0.2c0.2,0,0.1-0.1,0.1-0.2c0.1-0.1,0.2-0.2,0.1-0.2c-0.1-0.1-0.3,0.1-0.5,0.2
						c-0.2,0.1-0.2,0-0.2-0.1c0-0.1,0.3-0.1,0.4-0.2c0.1,0,0.2,0,0.1-0.1s0-0.1,0-0.2c0-0.1-0.1-0.3-0.2-0.5
						c-0.2-0.1-0.3-0.1-0.3-0.2c-0.1-0.1,0.3-0.1,0.4-0.2c0.1-0.1,0-0.1-0.1-0.1c-0.1,0,0.1-0.1,0.2-0.2s0.5-0.1,0.6-0.1
						c0.1,0,0.3-0.1,0.5,0s0.4,0.3,0.5,0.3c0.1,0,0.3,0.2,0.3,0.3s0.4,0.2,0.5,0.3s0.1-0.1,0.1-0.2c0-0.1,0.1-0.1,0.2-0.2
						c0.1,0,0.3,0,0.4-0.1c0.1,0,0.1,0.1,0,0.2c0,0,0.1,0.2,0.2,0.3c0.1,0.1,0.3,0,0.3-0.1c0-0.1,0-0.2,0.1-0.3
						c0.1-0.1,0.1-0.2,0.1-0.3s0-0.2,0-0.3c-0.1-0.1,0-0.2,0.1-0.2s0.4-0.2,0.5-0.2c0.1,0,0.2,0,0.2,0c0.1,0,0.1,0,0.2,0
						s0.1,0.1,0.1,0.1s0.1,0.1,0.1,0s0.1-0.1,0.2-0.1c0.1,0,0-0.1-0.1-0.2s0.1-0.1,0.1-0.2c0-0.1,0-0.1-0.1-0.1c-0.1,0,0-0.1,0-0.2
						c0-0.1-0.1,0-0.3,0.1c-0.2,0-0.3,0.1-0.3,0.2s-0.2,0.1-0.4,0.2c-0.2,0.1-0.4,0.1-0.5,0.2c-0.1,0-0.3,0.1-0.5,0.1
						c-0.1,0-0.2,0-0.2-0.1c0,0-0.1,0-0.3,0c-0.1,0-0.2,0-0.2-0.1c0-0.1,0.2-0.5,0.3-0.6s0.5-0.3,0.6-0.4c0.1-0.1-0.1,0.2-0.1,0.3
						c-0.1,0.1-0.1,0.1,0,0.2c0.1,0,0.1,0.1,0.1,0.2c0,0.1,0.2,0.1,0.3,0.1c0.1,0,0.2,0.1,0.3,0c0,0,0-0.2-0.1-0.2
						c-0.1,0-0.2,0-0.2,0c0,0,0-0.2-0.1-0.2c-0.1,0-0.1-0.1,0-0.2s0.2-0.2,0.3-0.3s0.5-0.3,0.6-0.3s0.4-0.2,0.5-0.2s0.6,0,0.6,0
						c0.1,0,0.2,0,0.3,0c0.1,0,0.4,0,0.5,0c0.1,0,0.5-0.1,0.6-0.2c0.1,0,0.6,0,0.7,0c0.1,0,0.4,0,0.5,0c0.1,0,0.3,0.1,0.3,0.1
						s0.2,0.1,0.3,0.2c0.1,0,0.4,0.1,0.5,0.1c0.1,0,0.4-0.1,0.6-0.1c0.1,0,0.9,0,1.1,0c0.1,0,0.1,0,0.1,0.1c0,0,0,0.1,0,0.1
						c0.1,0,0,0.1-0.1,0.2s0,0.1,0.1,0.2c0.1,0.1,0,0.1-0.1,0.1c-0.1,0-0.2,0-0.3,0s-0.2-0.1-0.3-0.1c-0.1,0-0.1,0-0.2,0
						c-0.1,0-0.1,0-0.3,0c-0.1,0-0.3,0.1-0.3,0.1c0,0-0.1,0.1-0.1,0.2s0.2,0,0.3,0c0.1,0,0.3,0.1,0.4,0.1c0.1,0,0.5,0,0.6,0
						c0.1,0,0.2,0,0.3,0.1c0.1,0,0.3,0,0.4,0c0.1,0,0,0.1,0,0.1c0,0,0,0.1,0,0.2c0,0.1,0.3,0,0.3,0.1c0.1,0.1-0.1,0-0.2,0
						c-0.1,0-0.2,0-0.3,0c-0.1,0-0.2,0-0.3,0c-0.1,0-0.4,0-0.5,0s-0.4,0-0.5,0s0,0.1,0.1,0.1c0.1,0,0.4,0,0.5,0.1
						c0.1,0,0.6,0,0.8,0.1s-0.2,0.1-0.3,0.2c-0.1,0-0.4,0.1-0.6,0.1c-0.2,0-0.4,0.1-0.6,0.1s-0.3,0.1-0.4,0.1
						c-0.2,0-0.2-0.1-0.3-0.2c-0.1-0.1-0.2,0-0.3,0.1s-0.2,0-0.4,0c-0.1,0-0.3,0-0.5,0c-0.2,0-0.3,0.2-0.4,0.2
						c-0.1,0.1-0.3,0.2-0.5,0.3c-0.2,0.1-0.2-0.1-0.3-0.1c0-0.1,0.1-0.2,0.1-0.3c0,0-0.1-0.1-0.2,0c-0.2,0-0.2,0-0.3-0.1
						c-0.1-0.1-0.1-0.2-0.2-0.2c-0.1,0-0.2-0.1-0.3-0.1s0.2-0.1,0.2-0.2s-0.1-0.1-0.2-0.1c0,0-0.1,0-0.2,0s-0.1,0.1-0.2,0.1
						c-0.1,0.1-0.2,0-0.2,0c0,0-0.1,0.1-0.2,0.1c-0.1,0-0.2,0-0.2,0.1c0,0.1,0.3,0.1,0.3,0.1c0.1,0,0,0.2-0.1,0.3
						c-0.1,0-0.1,0.2-0.2,0.3s-0.3,0-0.4,0.1c-0.1,0,0.2,0.2,0.1,0.2c-0.1,0-0.1,0.1-0.3,0.1c-0.1,0-0.2,0-0.3,0
						c-0.1,0-0.3,0.1-0.4,0.2c-0.1,0.1,0.2,0,0.3,0c0.1,0,0,0.1-0.1,0.2c-0.1,0.1-0.2,0.2-0.3,0.3c-0.1,0.1-0.4,0-0.6,0
						c-0.1,0-0.3,0.1-0.3,0.1s0.1,0,0.1,0c0.1,0,0.2,0.1,0.4,0.1c0.2,0,0.4-0.1,0.5-0.2c0.1,0,0.1,0.1,0,0.1c0,0.1-0.2,0.3-0.3,0.4
						c-0.1,0.1-0.3,0.2-0.4,0.2c-0.1,0-0.1,0.1-0.2,0.2c-0.1,0.1-0.1,0.2-0.2,0.1c-0.1,0-0.1,0-0.1,0.1c0,0.1,0.3,0,0.2,0.1
						c-0.1,0.1-0.1,0.1-0.2,0.2c-0.1,0-0.2,0.1-0.3,0.1s0,0.1-0.1,0.2s-0.2,0.2-0.2,0.4s-0.3,0.8-0.4,1.1c-0.1,0.4,0.3,0.4,0.4,0.4
						c0.1,0,0.3-0.1,0.3-0.1c0,0,0.2,0.1,0.2,0.2c0,0.1,0.2,0.2,0.2,0.2c0.1,0,0.1,0.1,0.2,0.1c0.1,0,0.2-0.1,0.3-0.1
						c0.1-0.1,0.3-0.1,0.4-0.1s0.4-0.1,0.5-0.1c0.1,0,0.3,0.1,0.4,0.1c0.1,0,0.2,0.1,0.4,0.1s0.4,0,0.6,0s0.3,0.1,0.3,0.1
						s0.3,0,0.3-0.1s0.3-0.1,0.4-0.2c0.1,0,0.3,0,0.5-0.2s0.2,0.2,0.2,0.2c0,0.1,0,0.2,0.1,0.2c0.1,0,0.2,0.3,0.2,0.3s0.2,0,0.3,0
						c0.1,0,0.2,0,0.2,0s0.1,0.1,0.2,0.1c0.1,0,0.1,0.1,0.1,0.1c0.1,0.1-0.1,0-0.2,0c0,0-0.1,0-0.2,0c-0.1,0,0,0.1,0,0.2
						c0,0.1-0.1,0.1-0.1,0.1c0,0-0.1,0.1-0.2,0.2s-0.2,0.1-0.3,0.1c-0.1,0-0.1,0.2-0.1,0.4s-0.3,0.3-0.4,0.4c0,0,0,0.2,0.1,0.3
						c0.1,0.2-0.1,0.3-0.1,0.3c-0.1,0-0.2,0.2-0.3,0.2s-0.2,0-0.3,0c0,0-0.1,0.3-0.1,0.4c0,0.1-0.2,0.1-0.2,0.1s-0.1,0.1-0.1,0
						c0,0-0.1,0-0.2,0c-0.1,0-0.1-0.2-0.1-0.2c-0.1,0-0.2-0.1-0.3,0c-0.1,0-0.1,0.2-0.1,0.3c0,0.1-0.3,0.4-0.4,0.5s-0.1,0.2-0.1,0.2
						c0.1,0.1,0,0.2-0.1,0.2c-0.1,0.1,0,0.1,0,0.2c0,0-0.2,0.2-0.2,0.3c0,0.1,0,0.2-0.1,0.2s-0.3,0.1-0.3,0.2c0,0.1-0.1,0.1-0.2,0
						c-0.1,0-0.1-0.2-0.2-0.3c0-0.1-0.2-0.1-0.4-0.1c-0.2,0-0.3-0.1-0.4-0.1c-0.1,0-0.1,0.1-0.2,0.1c-0.1,0-0.2,0-0.2,0
						c-0.1,0-0.2,0-0.2,0c0,0-0.1-0.1-0.1-0.1c-0.1,0-0.2-0.2-0.3-0.2c-0.1-0.1-0.2,0-0.3,0.1c0,0.1-0.1,0-0.2,0.1
						c-0.1,0-0.1,0.1-0.2,0.2c0,0.1-0.1,0-0.2,0c-0.1-0.1-0.2-0.2-0.2-0.2s0-0.2,0-0.3c0-0.1,0-0.2,0-0.2s-0.1-0.1-0.1-0.2
						c-0.1-0.1,0.1-0.3,0.1-0.4s-0.1,0-0.2-0.1c-0.1,0-0.2,0-0.2-0.1c0-0.1,0.1-0.2,0.1-0.2c0,0,0-0.2-0.1-0.1
						c-0.1,0.1-0.1,0-0.2-0.1c-0.1,0-0.2,0.1-0.4,0.2s-0.4,0.3-0.5,0.4S74.7,62,74.6,62c-0.1,0,0.2-0.2,0.2-0.2c0,0,0-0.1,0.1-0.1
						c0.1,0,0.1-0.1,0.1-0.2c0-0.1,0.1-0.1,0.1-0.2c0-0.1-0.1-0.1,0.1-0.2s0.1-0.1,0-0.2c0-0.1-0.2,0-0.3,0.1c-0.1,0-0.2,0-0.3-0.1
						c-0.1-0.1-0.3,0.1-0.4,0.1c-0.1,0.1-0.2,0-0.3,0c-0.1,0-0.1-0.2-0.2-0.2c-0.1-0.1-0.1,0.1-0.2,0.1c-0.1,0-0.1,0.1-0.2,0.2
						s-0.2,0-0.2,0.1c-0.1,0,0,0.2,0.1,0.2c0.1,0,0.1,0,0.1,0.1c0,0,0,0.1,0.2,0.2c0.2,0,0.1,0.4,0.1,0.5c0,0.1-0.2,0.2-0.2,0.2
						c-0.1,0-0.1,0.1-0.2,0.2c-0.1,0.1-0.3-0.1-0.3-0.1s0,0.3,0.1,0.4c0.1,0.2,0,0.2-0.1,0.2s-0.2-0.1-0.2-0.2c-0.1-0.1-0.1,0-0.2,0
						c-0.1,0-0.1,0-0.1-0.1c0-0.1-0.2,0-0.3,0s0-0.2,0-0.3c0-0.1-0.1-0.1-0.2-0.1c-0.1-0.1-0.2-0.1-0.4-0.1c-0.2,0-0.1,0.1-0.2,0.2
						c0,0.1-0.1-0.1-0.1-0.1c0-0.1-0.1-0.1-0.2,0c0,0.1,0,0.2-0.1,0.2c-0.1,0-0.3,0-0.4,0.1s0,0.2,0,0.3c0,0.1-0.1-0.1-0.2-0.1
						c-0.1,0-0.1,0.2-0.1,0.2c0,0.1-0.2,0.1-0.3,0.2c-0.1,0.1-0.2,0.2-0.2,0.2c0,0.1,0,0.2,0.1,0.2S70,64,70,64c0.1,0,0.1,0,0.1,0.1
						c0,0.1-0.1,0.2-0.2,0.3c0,0,0.1,0.3,0.1,0.4c0,0.1,0.1,0.1,0.1,0.1s0.1,0.2,0.2,0.5c0.1,0.2,0.1,0.5,0.1,0.6s0.2,0.2,0.3,0.3
						s0.1,0.3,0.1,0.4c0,0.1,0.1,0.1,0.2,0.2s0,0.3,0.1,0.4c0.1,0.1-0.1,0.1-0.2,0.1s-0.1,0.1-0.1,0.2s0.2,0.2,0.3,0.3
						c0.1,0.1,0.1,0.1,0.2,0.2s0.2-0.1,0.2-0.1c0,0,0-0.1,0-0.1s0-0.1,0-0.1c0.1,0,0-0.1,0.1-0.2c0.1-0.1,0.2,0,0.2,0
						c0.1,0,0-0.1,0-0.1c0,0,0-0.1,0.1-0.1c0.1,0,0.1-0.1,0.2-0.1c0.1,0-0.1,0.2-0.1,0.2s0.1,0.1,0.1,0.1s0.1,0,0.1,0.1
						s0.1,0,0.2-0.1c0.1-0.1,0.1,0.1,0.1,0.2c0,0.1-0.1,0-0.2,0c0,0-0.2,0-0.2,0.1c0,0.1-0.1-0.1-0.4-0.1c-0.2,0-0.1,0.1,0,0.2
						c0.1,0.1-0.1,0.1-0.2,0.1s-0.2,0.1-0.3,0.3s-0.2,0.1-0.3,0s0-0.3-0.1-0.3s0,0.2-0.1,0.3c-0.1,0.1-0.2-0.1-0.3-0.2
						c-0.1-0.1-0.2-0.3-0.1-0.4c0.1,0,0-0.2-0.1-0.3c-0.1,0-0.2-0.1-0.3-0.3s-0.5-0.2-0.8-0.3c-0.3-0.1-0.6,0-0.8,0.1
						c-0.2,0.2-0.4,0.7-0.4,0.9s-0.1,0.3-0.3,0.3c-0.2,0-0.3-0.1-0.3-0.3s0-0.4,0-0.4c-0.1-0.1-0.2-0.3-0.3-0.4
						c-0.1-0.1-0.4-0.4-0.6-0.4c-0.2,0-0.1,0.3,0,0.5c0.1,0.1,0.3,0.2,0.5,0.3c0.2,0.1,0,0.3-0.1,0.3s-0.2,0-0.3-0.1
						s-0.2,0.1-0.4,0.2c-0.2,0.1-0.2,0.5-0.2,0.7s0.2-0.2,0.2-0.3s0.1,0.1,0.1,0.2c0,0.1,0.2,0.2,0.3,0.1c0.1,0,0.2,0,0.3-0.1
						c0.1-0.1,0.2,0.1,0.1,0.3c-0.1,0.2,0.1,0.2,0.2,0.1c0.1-0.1,0,0.2-0.1,0.3s0,0.2-0.1,0.3s-0.1,0.2-0.1,0.3
						c0,0.1-0.2,0.2-0.2,0.3c-0.1,0.2-0.2,0.1-0.2,0c0-0.1,0.3-0.3,0.3-0.4s-0.1-0.1-0.2,0s-0.2,0.1-0.4,0.1s-0.7,0.2-0.9,0.3
						c-0.2,0,0-0.2,0.1-0.3c0.1-0.1,0.1-0.4,0-0.6c0-0.1,0.2-0.4,0.3-0.5c0.1-0.1,0.4-1.1,0.4-1.2c0-0.1-0.2,0-0.5,0.1
						s-0.5,0.7-0.9,0.9c-0.3,0.2-0.8,0.1-1.1,0.1s-0.7,0.3-0.8,0.4c-0.1,0.2-0.3,0.4-0.6,0.6c-0.3,0.2-0.5,0.7-0.5,0.8s1-0.8,1.3-1
						s0.5,0.1,0.5,0.2s-0.1,0.2-0.1,0.4c-0.1,0.2-0.3,0.2-0.4,0.2s0,0.2,0.1,0.2c0.1,0,0.2,0.1,0.3,0s-0.2,0.3-0.2,0.4
						s0.1,0.1,0.1,0.3c0,0.2,0.2,0.4,0.3,0.4c0.1,0,0.1,0.2,0.2,0.2s0.4,0.1,0.5,0s0-0.2,0.1-0.3c0.1-0.1,0.1-0.3,0.2-0.6
						c0-0.2,0.2-0.1,0.2,0c0,0.1,0,0.3,0.1,0.4s0,0.2-0.2,0.3c-0.2,0.1-0.3,0.3-0.5,0.5C63.7,71.9,63.3,72.1,63.2,72.1z M80.9,54.9
						c0,0,0.1-0.1,0.1-0.1c0,0,0.1,0,0.1-0.1c0.1-0.1,0.2-0.2,0.3-0.1c0.1,0,0,0.2-0.1,0.4c-0.1,0.2-0.2,0.2-0.2,0.1
						S81,55.1,81,55.1c-0.1,0-0.1-0.1-0.1-0.1C80.9,55,80.9,54.9,80.9,54.9z M81.2,54.2c-0.1,0-0.1-0.1-0.2-0.1c-0.1,0-0.2,0-0.2,0
						s-0.1,0.1-0.1,0.2c0,0.1-0.1,0.2-0.2,0.2c-0.1,0.1-0.1,0.2-0.3,0.3s-0.1-0.1-0.3-0.1c-0.1-0.1-0.3,0.2-0.5,0.2
						c-0.2,0,0.2-0.3,0.3-0.3s0-0.1-0.1-0.1c-0.1-0.1,0-0.1,0-0.2c0-0.1-0.1-0.2-0.1-0.3c0-0.1,0.1-0.1,0.2-0.2s0.1-0.1,0.2-0.1
						c0.1,0,0.1,0.1,0.2,0.2c0.1,0.1,0.2,0,0.3,0c0.1,0,0.1,0,0.2,0c0.1,0,0.2,0,0.5-0.1c0.2,0,0.1,0.1,0.2,0.2s0.3-0.1,0.4-0.1
						c0.1,0,0.1,0.1,0.1,0.1c-0.1,0-0.1,0.1-0.2,0.2C81.5,54.2,81.3,54.2,81.2,54.2z M68.3,86.1C68,86,68,85.9,67.7,85.7
						c-0.3-0.2-0.4-0.1-0.7-0.2s-0.4-0.2-0.6-0.4c-0.2-0.2-1,0-1.1-0.2s0.6-0.2,0.9-0.2c0.3,0,0.7,0.3,1,0.6
						c0.3,0.3,1.1,0.4,1.4,0.5C68.8,85.7,68.7,86.1,68.3,86.1z M75.5,82.9c-0.3,0.2-0.4,0.6-0.7,0.9s-0.5,0.4-0.8,0.5
						c-0.3,0.1-0.5,0.6-0.7,0.7s-0.4,0.3-0.6,0.5c-0.2,0.2-0.2,0-0.3-0.1c-0.1-0.1-0.2,0.1-0.4,0.3c-0.2,0.2-0.1-0.3-0.2-0.4
						s-0.4,0-0.6,0.1c-0.2,0.1-0.4,0.1-0.7,0c-0.3-0.1-0.3,0-0.4,0.2c0,0.1-0.3,0-0.5-0.1c-0.2-0.1-0.5,0-0.7,0
						c-0.2,0-0.5-0.2-0.6-0.4c-0.2-0.1-0.5-0.2-0.6-0.3s-0.3-0.2-0.6-0.2s-0.5-0.4-0.5-0.5s-0.3,0-0.4,0.1c-0.1,0.1-0.2,0-0.3-0.2
						c-0.1-0.2-0.4-0.2-0.4-0.1c0,0.1-0.2,0.1-0.3,0c-0.1-0.1-0.4-0.2-0.6-0.3s0-0.3,0.1-0.3s0.2-0.2,0.3-0.3s0.3-0.1,0.4,0
						c0.1,0.1,0.7,0,0.9,0c0.2,0.1,0.5,0,0.6-0.1c0.1-0.2,0.4,0,0.7,0c0.2,0,0.1-0.1,0.2-0.3c0.1-0.2,0.2-0.2,0.1-0.3
						s-0.2-0.1-0.5,0c-0.3,0-0.5,0-0.8-0.1s-0.4-0.3-0.6-0.5c-0.2-0.2-0.2-0.3-0.3-0.6c-0.1-0.2-0.1-0.1-0.3,0
						c-0.1,0.1-0.1-0.2-0.2-0.3c-0.1-0.1-0.2-0.3-0.3-0.3s-0.3-0.2-0.4-0.3c-0.1-0.1-0.2-0.2-0.4-0.2c-0.2,0,0-0.5,0.1-0.7
						c0.1-0.2,0.3,0.2,0.3,0.2s0.1-0.1,0.1-0.2c0-0.1,0.2-0.2,0.2-0.2s0,0.5,0.2,0.6c0.2,0,0.2,0.4,0.2,0.5c0.1,0.1,0.3,0.2,0.4,0
						c0.1-0.2,0.7,0,1.1,0.1c0.4,0.1,0.6,1,0.7,1.1c0.1,0.1,0.3,0,0.4,0.1c0.1,0.1,0.3,0.3,0.6,0.3c0.3,0,0.4,0.4,0.6,0.6
						c0.1,0.1,0.3-0.1,0.5-0.1c0.2,0,0.3,0.2,0.5,0.1c0.2-0.2,0.6,0,0.5,0.2c-0.1,0.1,0.1,0.4,0.3,0.5c0.2,0.2,0.1-0.4,0.2-0.7
						c0.1-0.4,0.4-0.1,0.5,0.1c0.1,0.2-0.1,0.7-0.2,0.9c-0.1,0.2,0.3,0.6,0.5,0.8c0.2,0.2,0.5,0.1,0.6,0c0.1-0.2,0.5-0.2,0.7-0.2
						c0.2-0.1,0.4-0.3,0.7-0.5c0.2-0.2,0-0.3,0-0.5c0-0.2,0.3-0.3,0.7-0.5s0.4-0.5,0.6-0.8s0.2,0.1,0.2,0.2c0,0.1-0.3,0.4-0.1,0.5
						c0.2,0.1,0.3-0.2,0.5-0.4c0.1-0.2,0.3-0.1,0.5-0.2s0.3-0.3,0.4-0.4c0.1-0.1,0.1,0.3,0,0.3s-0.3,0.3-0.3,0.5c0,0.1-0.2,0-0.5,0
						C75.7,82.4,75.9,82.7,75.5,82.9z M106.1,105.5c-0.2,0-1,0.2-1.4,0.2c-0.4,0-0.8,0.8-1.4,1c-0.5,0.2-1.5,0-1.9,0.2
						c-0.4,0.2,0,0.5,0.5,0.7c0.5,0.1,0,0.6-0.3,1.1c-0.2,0.4-1.8,1.1-2.3,1.3c-0.6,0.3-0.6,0.6-1.1,1.3c-0.5,0.7-1.3,0.9-1.8,0.9
						c-0.5,0-1.3,0.1-1.7,0.1c-0.4,0.1-0.7,0.2-0.8,0s1.2-0.4,0.6-0.8c-0.2-0.1-0.6-0.4-0.9-0.5c-0.3-0.1-0.5-0.3-0.8-0.5
						c-0.2-0.2-0.5-0.5-1.1-0.5c-0.5,0-0.8-0.2-1.2-0.4s-1.4-0.2-2.1-0.2c-0.7,0-0.8-0.3-1.4-0.6s-0.9-0.3-1.4-0.3
						c-0.5,0-1-0.2-1.5-0.1c-0.5,0.1-0.6-0.1-0.7-0.4c-0.1-0.2,0.4-0.3,0.7-0.5s0-0.8,0.1-1.1c0.1-0.3,0.2-0.7,0-1.1
						c-0.1-0.4-0.8-0.4-1.5-0.5c-0.7-0.1-1-1-1.1-1.2c-0.2-0.2-1-0.8-1.7-1.2c-0.7-0.4-0.6-0.1-0.9-0.3s0-0.5,0.3-0.7
						s1.1-0.3,1.2-0.4c0.2-0.1,0.2-0.4,0-0.5c-0.3-0.2-1.2,0.1-1.7,0s-0.4-0.3-0.8-0.6c-0.4-0.3-0.4-0.6-0.4-0.9
						c0-0.3,0.2-0.8,0.1-1.1c0-0.3-0.2-0.3-0.6-0.4c-0.4-0.1-0.5,0.2-0.9-0.1c-0.4-0.3,0.2-0.8,0.5-1c0.3-0.2,0.9-0.4,1.3-0.6
						s0.5-0.2,1-0.3c0.5-0.2,0.3-0.3,0.4-0.6s0.1-0.5,0.3-0.7s0.5-0.8,0.6-1.1c0.1-0.3,0.4-0.4,0.8-0.4s0.4-0.4,0.5-0.5
						s0.4-0.2,0.6,0c0.3,0.2,0.7,0.3,1,0.2c0.2,0,0.9,0.1,1.3,0.2c0.4,0.1,0.7-0.1,0.9-0.4c0.2-0.3,1.1-0.7,1.3-1s0.2-0.9,0.2-1.2
						c0-0.3-0.1-0.7-0.4-1c-0.3-0.3-0.9-0.6-1.3-0.8s-0.6-0.5-0.7-0.7s-0.4-0.3-0.6-0.9c-0.2-0.6-0.4-1-0.2-1.2
						c0.2-0.3,0.1-1.1,0-1.5s-0.1-1,0-1.4c0.1-0.4,0.6-0.1,0.9-0.3s-0.1-1.5-0.1-2c0-0.4,0.3-0.2,0.4,0.1c0.1,0.3,0.6,0.9,0.8,0.8
						c0.2-0.1,0-0.8,0-1c0-0.2,0-0.9,0.1-1c0.1,0,0.1-0.7,0.4-0.8c0.4-0.1,0.8,0.2,1,0.2c0.2,0,0.6,0,0.9-0.2s0.7,0.2,0.7,0.4
						c0,0.2,0.1,0.4,0.2,0.7c0.2,0.4,0,0.6-0.1,0.8c-0.1,0.2,0.1,0.8,0.3,1c0.2,0.2,0.6,0.2,0.9,0.9c0.4,0.7,1.2,0.5,1.5,0.4
						c0.3-0.1,0.2-0.5,0.4-0.8c0.2-0.4,0.8-0.3,1-0.3c0.3,0,0.5,0,0.9,0.2c0.3,0.3-0.1,0.9-0.4,1.1c-0.2,0.2-0.4,0.5-0.3,0.6
						s-0.1,0.7-0.2,0.9s0.2,0.6,0.6,0.9c0.4,0.3-0.2,1.1-0.2,1.3s0.4,0.5,0.7,0.5c0.4,0,0.5,0.4,0.7,0.6c0.2,0.2,0.4,0.1,0.9,0.1
						s-0.2,0.7-0.6,0.8c-0.4,0.1-0.6,0.1-0.7,0.5s-0.2,0.5-0.4,0.8c-0.3,0.3,0,0.7-0.3,1.1c-0.4,0.5-1.8,1.8-2.3,2.5
						c-0.5,0.7,0.1,1.7,0.5,1.9s1.5,0.9,2.1,1.1c0.6,0.2,0.8,0.6,1.3,0.9c0.6,0.3,2.4,1,3,1.4c0.6,0.3,1.3,0.4,2,0.4
						c0.7-0.1,0.8,0.9,1.6,1.1c0.7,0.2,1,0,1.5,0.1s0.6,0.8,1.2,1.1s0.8,0.4,1,0.8c0.2,0.3,0,0.6,0.2,0.9s0.3,0.7,0.2,1.2
						c-0.2,0.4,0.3,1.1,0.6,1.3C107,105.5,106.3,105.5,106.1,105.5z M102.8,73.8c0.2-0.2,0.8,0.2,0.8,0.4c0,0.2,0.2,0.5,0.5,0.8
						c0.3,0.2,0.1,0.4,0.3,1c0.2,0.6,1.2,0.9,1.4,0.8c0.2-0.1,0.6,0.2,0.6,0.5s0,0.4,0.2,0.8c0.2,0.5-0.4,0.7-0.7,0.5
						c-0.3-0.3-0.9-0.2-1.3-0.3s-0.1-0.5-0.4-1s-0.6-0.4-1.1-0.5c-0.5-0.2-0.7-0.7-0.8-1c-0.1-0.3,0.3-0.8,0.4-1
						C102.9,74.5,102.5,74.1,102.8,73.8z M113.8,71.1c-0.3,0.2-0.6,0.5-0.8,0.9c-0.2,0.4-0.5,0.4-1,0.8c-0.5,0.4-0.5,0.7-0.9,1
						c-0.3,0.3-0.5,0.5-0.9,0.4s-0.7-0.3-1-0.4c-0.3-0.1-0.3-0.4-0.1-0.6c0.1-0.2-0.2-0.2-0.3-0.5c-0.2-0.3,0.1-0.3,0.2-0.5
						c0.2-0.3,0-0.7-0.1-0.9c-0.1-0.2,0.1-0.6,0.2-0.8s1.1-0.4,1.4-0.6c0.3-0.1,0.3-0.8,0.2-1.1c-0.1-0.3,0.1-0.9,0.1-1.1
						s-0.1-0.4-0.4-0.7c0,0-0.2,0.2-0.5,0.2c-0.2,0.1-0.5,0.3-0.8,0.5c-0.3,0.2-0.6,0.1-1-0.1c-0.4-0.2-0.8-0.8-1.1-1.1
						s-0.4-0.3-0.9-0.3s-0.4,0-0.6-0.2s-0.9-0.2-1.1-0.2c-0.2,0.1-0.7,0.1-0.8-0.1c-0.1-0.2-0.4-0.4-1-0.4c-0.6,0-0.3-0.2-0.6-0.3
						s-0.5,0.2-0.9,0.3c-0.4,0-0.6-0.2-1.2-0.1c-0.6,0.1-0.6-0.4-1.2-0.7c-0.5-0.3-0.7-1.3-0.9-1.6c-0.2-0.3-0.4,0.2-0.9,0.3
						c-0.5,0.1-0.3-0.1-0.4-0.3c-0.1-0.2-0.2-0.4-0.1-0.5s0.2-0.3,0.1-0.6c-0.2-0.3-0.2-0.4-0.2-0.5s-0.1-0.4-0.3-0.8
						c-0.2-0.3,0.1-0.6,0.3-0.8s0.1-0.5-0.1-0.5s-0.3,0.3-0.7,0.4c-0.4,0.1-0.3-0.6-0.6-0.8c-0.3-0.1-0.4-0.3-0.6-0.7
						c-0.2-0.3-0.7-0.5-1.1-0.7c-0.4-0.2-0.1-0.6-0.1-0.9c-0.1-0.3-0.2-0.3-0.4-0.5s-0.3-0.4-0.3-0.6s-0.3-0.3-0.6-0.5
						c-0.4-0.2-0.3-0.4-0.3-0.5c0-0.2-0.1-0.5-0.4-0.8c-0.3-0.3-0.5-0.4-0.7-0.7c-0.2-0.3-0.3-0.5-0.1-0.6c0.2-0.2,0-1,0.1-1.2
						s0.2-0.5,0-0.8c-0.1-0.3,0.5-0.4,0.8-0.5c0.3-0.1,0.3-0.5,0.6-0.8c0.3-0.3,1-0.4,1.2-0.4s1.2,0.1,1.7,0.2
						c0.5,0.1,1.3,0.1,1.8,0.1c0.5,0,0.7,0.2,0.8,0.5c0.1,0.3,0.2,0.3,0.5,0.3c0.3,0,0.3,0.3,0.4,0.5c0.1,0.3,0.4,0.2,0.7,0.3
						s0.7,0.5,0.9,0.5c0.3-0.1,0.9,0.3,0.9,0c0-0.3-0.3-0.5-0.6-0.7c-0.3-0.1-0.2-0.2-0.5-0.4s0.3-0.1,0.5-0.2
						c0.2-0.1,0.4-0.3,0.2-0.4c-0.2-0.1-0.1-0.3,0.2-0.5c0.3-0.2,2,0.5,2.6,1.2c0.5,0.7,3.7,2.2,4.2,2.5s2.5,2.1,3.1,2.3
						c0.5,0.2,0.5,1.1,0.5,1.7c-0.1,0.5,0.2,1.6,0.5,2.5s1.1,1,1.9,1.9c0.8,0.9,0.2,1.1,0.1,1.6s0.2,1,0.6,1.6
						c0.4,0.6,0.5,1,0.4,1.5c-0.1,0.4,0.1,1.3,0.2,1.8c0.1,0.5-0.1,1.5-0.2,2C114.4,70.3,114.1,70.9,113.8,71.1z M122.8,93.6
						c-0.4,0.2-0.7,0.1-1.3,0.8s-1,0.6-1.6,0.6c-0.6,0-1.4,1.8-1.7,2.5c-0.4,0.7-0.6,0.4-0.6,0s-0.1-1.2-0.8-1.6
						c-0.7-0.4-0.8-1.2-0.9-2c-0.1-0.8-1-1.5-1.4-1.9s0.2-1,0.5-0.8c0.2,0.2,0.6,0.1,1-0.1s0.8,0.1,1.7,0.1c0.9,0,0.4-0.3,0.5-0.7
						c0.1-0.4,0.2-1.1,0.5-1.5c0.3-0.4,1-1.9,0.9-2.7c-0.1-0.8,0.4-1.8,0.6-2.4c0.1-0.7,0.5-1.5,0.2-2.3c-0.3-0.8,0.1-1.6,0.2-2.5
						c0.1-0.9,0-1.9-0.4-2.4c-0.3-0.5-0.2-1.1,0.4-1.1c0.6,0,0.3-1.1,0.6-1.7c0.3-0.6,0.1-2.7-0.1-3.2c-0.2-0.5,0-1.5,0-2.2
						s0.4-1.9,1.2-4.7c0.3-1.2,2.7,6,3.7,10.7s0.1,10.2-0.1,12.3S123.3,93.5,122.8,93.6z"/>
				</g>
			</g>
			<path id="Discovery_4_" class="st0" d="M193.5,70.8c0,26.6-20.4,47.1-49.9,47.1H115c5.8-3.8,10.6-9,14-15h14.5
				c19.7,0,32.6-13.3,32.6-31.8c0-18.5-12.9-32.1-32.6-32.1h-18.5v13.8c-2.7-3.4-5.9-6.4-9.5-8.9c-2.2-1.5-4.6-2.8-7-3.9V24h35
				C173.1,24,193.5,44.2,193.5,70.8z"/>
		</g>
		<g>
			<path class="st0" d="M64.4,139.1c4.5,0,7.4-3,7.4-7.2c0-4.2-2.9-7.2-7.4-7.2h-4.2v14.4L64.4,139.1z M56.5,142.5v-21.2h7.9
				c6.7,0,11.3,4.6,11.3,10.6c0,6-4.6,10.6-11.3,10.6L56.5,142.5z"/>
			<rect x="77.8" y="126.7" class="st0" width="3.7" height="16"/>
			<path class="st0" d="M95,134.7c-0.5-0.4-1-0.7-1.6-0.9c-0.6-0.2-1.2-0.5-1.8-0.6c-0.5-0.2-0.9-0.3-1.3-0.5
				c-0.4-0.1-0.8-0.3-1.2-0.5c-0.3-0.2-0.6-0.4-0.8-0.6c-0.2-0.2-0.3-0.5-0.3-0.7v-0.1c0-0.5,0.2-0.8,0.6-1.2
				c0.4-0.3,0.9-0.5,1.7-0.5c0.7,0,1.4,0.1,2.2,0.4c0.8,0.3,1.6,0.6,2.3,1.1l1.5-2.6c-0.8-0.6-1.8-1-2.8-1.3c-1-0.3-2.1-0.5-3.1-0.5
				c-0.8,0-1.5,0.1-2.2,0.3c-0.7,0.2-1.3,0.5-1.8,1c-0.5,0.4-0.9,0.9-1.2,1.5c-0.3,0.6-0.4,1.3-0.4,2v0.1c0,0.8,0.2,1.4,0.5,1.9
				c0.3,0.5,0.7,1,1.2,1.3c0.5,0.4,1,0.6,1.6,0.9c0.6,0.2,1.2,0.4,1.8,0.6c0.5,0.1,0.9,0.3,1.3,0.4c0.4,0.1,0.8,0.3,1.2,0.5
				c0.3,0.2,0.6,0.4,0.8,0.6c0.2,0.2,0.3,0.5,0.3,0.8v0.1c0,0.5-0.2,0.9-0.7,1.3c-0.4,0.3-1,0.5-1.8,0.5c-0.8,0-1.7-0.2-2.6-0.5
				c-0.9-0.3-1.8-0.8-2.7-1.5l-1.6,2.5c1,0.8,2.1,1.4,3.3,1.8c1.2,0.4,2.3,0.6,3.5,0.6c0.8,0,1.6-0.1,2.3-0.3
				c0.7-0.2,1.4-0.5,1.9-0.9c0.5-0.4,1-0.9,1.3-1.6c0.3-0.6,0.5-1.4,0.5-2.2v-0.1c0-0.7-0.2-1.3-0.5-1.8
				C95.9,135.5,95.5,135.1,95,134.7z"/>
			<path class="st0" d="M130.4,131.4c0.4,1,0.6,2.1,0.6,3.2v0.1c0,1.1-0.2,2.2-0.7,3.2c-0.4,1-1,1.9-1.8,2.7
				c-0.8,0.8-1.7,1.4-2.7,1.8c-1.1,0.4-2.2,0.7-3.4,0.7c-1.2,0-2.3-0.2-3.4-0.7c-1-0.4-1.9-1-2.7-1.8c-0.8-0.7-1.3-1.6-1.8-2.6
				c-0.4-1-0.6-2.1-0.6-3.2v-0.1c0-1.2,0.2-2.2,0.7-3.2c0.4-1,1-1.9,1.8-2.7c0.8-0.8,1.7-1.4,2.7-1.8c1-0.4,2.2-0.7,3.4-0.7
				c1.2,0,2.4,0.2,3.4,0.7c1,0.4,1.9,1,2.7,1.8C129.4,129.5,130,130.4,130.4,131.4z M127.4,134.7c0-0.7-0.1-1.4-0.4-2
				c-0.2-0.6-0.6-1.2-1-1.6c-0.4-0.5-0.9-0.8-1.5-1.1c-0.6-0.3-1.3-0.4-2-0.4c-0.7,0-1.4,0.1-2,0.4c-0.6,0.3-1.1,0.6-1.5,1.1
				c-0.4,0.5-0.7,1-1,1.6c-0.2,0.6-0.3,1.3-0.3,2v0.1c0,0.7,0.1,1.3,0.4,2c0.2,0.6,0.6,1.2,1,1.7c0.4,0.5,0.9,0.8,1.5,1.1
				c0.6,0.3,1.2,0.4,2,0.4c0.7,0,1.4-0.1,2-0.4c0.6-0.3,1.1-0.6,1.5-1.1c0.4-0.5,0.7-1,1-1.6C127.3,136.1,127.4,135.4,127.4,134.7
				L127.4,134.7z"/>
			<polygon class="st0" points="139.5,138.4 135.2,126.7 131.2,126.7 137.8,142.8 141.1,142.8 147.6,126.7 143.8,126.7 			"/>
			<path class="st0" d="M163,131.6c0.3,1,0.5,2.1,0.5,3.3c0,0.2,0,0.3,0,0.5c0,0.2,0,0.3,0,0.5h-11.8c0.2,1.3,0.7,2.3,1.6,3
				c0.8,0.7,1.9,1,3,1c0.9,0,1.7-0.2,2.4-0.5c0.7-0.3,1.3-0.8,2-1.4l2.2,1.9c-0.8,0.9-1.7,1.6-2.7,2.2c-1.1,0.5-2.3,0.8-3.8,0.8
				c-1.2,0-2.2-0.2-3.2-0.6c-1-0.4-1.9-1-2.6-1.7c-0.7-0.7-1.3-1.6-1.7-2.6c-0.4-1-0.6-2.1-0.6-3.4v-0.1c0-1.1,0.2-2.2,0.6-3.2
				c0.4-1,0.9-1.9,1.6-2.7c0.7-0.8,1.5-1.4,2.5-1.8c0.9-0.4,2-0.7,3.2-0.7c1.3,0,2.4,0.2,3.3,0.7c1,0.5,1.8,1.1,2.4,1.9
				C162.2,129.7,162.7,130.6,163,131.6z M159.8,133.2c-0.1-0.6-0.2-0.8-0.4-1.3c-0.2-0.5-0.5-1-0.8-1.3c-0.3-0.4-0.8-0.7-1.2-0.9
				c-0.5-0.2-1-0.3-1.6-0.3c-1.1,0-2.1,0.4-2.8,1.2c-0.7,0.8-1.2,1.4-1.3,2.7H159.8z"/>
			<path class="st0" d="M106.8,139.8c-2.8,0-4.8-2.3-4.8-5.2c0-2.8,1.9-5.1,4.6-5.1c1.8,0,3,0.8,4.2,2l2.3-2.5
				c-1.5-1.6-3.4-2.8-6.4-2.8c-4.8,0-8.3,3.8-8.3,8.4c0,4.6,3.5,8.3,8.3,8.3c3.1,0,5-1.2,6.5-3l-2.2-2.2
				C109.8,139,108.5,139.8,106.8,139.8z"/>
			<path class="st0" d="M169.9,129.3v-2.6h-3.7v16h3.7v-6.1c0-1.1,0.1-2,0.4-2.8c1.1-2.9,4.2-3.7,5.8-4l-1.3-3.1
				C173.5,127,171.3,127.6,169.9,129.3z"/>
			<path class="st0" d="M189,126.7l-4.1,11.7l-3.8-11.7h-3.9l5.9,15.9l0,0.1c0,0-1.2,3.2-2.3,4c-0.8,0.4-2.8,0.4-3.5,0.3v3
				c1.3,0,4.3,0.1,5.3-0.5c1.2-0.8,1.5-1.1,2.3-2.8c0.9-1.9,7.9-20,7.9-20H189z"/>
		</g>
	</g>
</g>
</svg>
