<?xml version="1.0" encoding="utf-8"?>
<!-- Generator: Adobe Illustrator 19.0.0, SVG Export Plug-In . SVG Version: 6.00 Build 0)  -->
<svg version="1.1" id="Layer_1" xmlns="http://www.w3.org/2000/svg" xmlns:xlink="http://www.w3.org/1999/xlink" x="0px" y="0px"
	 viewBox="-223 25 512 512" style="enable-background:new -223 25 512 512;" xml:space="preserve">
<style type="text/css">
	.st0{fill:#3F4F7F;}
	.st1{fill:#7C8AAB;}
	.st2{fill:#FFD130;}
	.st3{opacity:0.1;fill:#FFD130;enable-background:new    ;}
	.st4{opacity:5.000000e-002;fill:#231F20;enable-background:new    ;}
	.st5{opacity:0.2;}
	.st6{opacity:5.000000e-002;}
	.st7{fill:#231F20;}
	.st8{fill:#F5BA3D;}
	.st9{opacity:0.1;fill:#F5BA3D;enable-background:new    ;}
</style>
<g id="Layer_1_1_">
	<circle class="st0" cx="34.7" cy="288.3" r="243"/>
</g>
<g id="Layer_2">
	<g id="Favorite">
	</g>
	<g>
		<path class="st1" d="M275.7,220c-0.8,5.6-2,11.4-3.4,17.3c-7.2,29.6-21,60.2-30.2,78.1c-11,21.4-31.2,42.2-39.7,50.1
			c-1.6,10.4-4,37.8,17.8,79.9c-37.2,43.9-89.8,74.5-149.4,83.3c-10.2-36.5-23-84.6-24.2-90.5c-14.1,1.8-73.3,7.3-82.5-4.9
			c-9.2-12.2-14.1-30-9.2-47.7c-7.3-7.3-9.8-15.9-9.2-25.7c-4.3-3.7-7.9-18.9-3.1-30c0-7.9-3.9-10.4-3.9-10.4s-23-8-27.3-9.8
			c-4.3-1.8-7.3-15.3-3.7-20.8s34.3-41.9,40.1-52.1c0,0-0.9-10.2-4.6-20c-3.7-9.8-7.9-50.1,0-69.1c7.9-18.9,26.9-70.3,69.1-89.2
			c10.6-4.8,22.8-9.2,35.7-13c38-11.2,81.3-16.5,105.5-7.8c32.4,11.6,81.9,34.8,100.8,70.9C273.2,144.8,280.6,185.8,275.7,220z"/>
		<g>
			<path class="st2" d="M81.3,136.3c-0.1,3.2,0.4,6.3,1.3,9.1l-57.2-1c-2,0-3.5-1.8-3.5-3.8l0.2-10.7c0-2.1,1.6-3.7,3.6-3.7l57.2,1
				C81.9,130.1,81.3,133.2,81.3,136.3z"/>
			<path class="st3" d="M81.3,136.3c-0.1,3.2,0.4,6.3,1.3,9.1l-57.2-1c-2,0-3.5-1.8-3.5-3.8l0.2-10.7c0-2.1,1.6-3.7,3.6-3.7l57.2,1
				C81.9,130.1,81.3,133.2,81.3,136.3z"/>
		</g>
		<g>
			<path class="st2" d="M197.9,133l-0.2,10.7c0,2.1-1.6,3.7-3.6,3.7l-57.2-1c1-2.8,1.6-5.9,1.6-9.1c0-0.5,0-1,0-1.5
				c-0.1-2.7-0.5-5.2-1.3-7.6l57.2,1C196.3,129.2,197.9,130.9,197.9,133z"/>
			<path class="st3" d="M197.9,133l-0.2,10.7c0,2.1-1.6,3.7-3.6,3.7l-57.2-1c1-2.8,1.6-5.9,1.6-9.1c0-0.5,0-1,0-1.5
				c-0.1-2.7-0.5-5.2-1.3-7.6l57.2,1C196.3,129.2,197.9,130.9,197.9,133z"/>
		</g>
		<g>
			<path class="st2" d="M118.5,164.1l-1,57.2c0,2-1.7,3.5-3.8,3.5l-10.6-0.2c-2.1,0-3.7-1.6-3.7-3.6l1-57.2c2.8,1,5.9,1.6,9.1,1.6
				C112.6,165.5,115.6,165,118.5,164.1z"/>
			<path class="st3" d="M118.5,164.1l-1,57.2c0,2-1.7,3.5-3.8,3.5l-10.6-0.2c-2.1,0-3.7-1.6-3.7-3.6l1-57.2c2.8,1,5.9,1.6,9.1,1.6
				C112.6,165.5,115.6,165,118.5,164.1z"/>
		</g>
		<g>
			<path class="st2" d="M120.4,52.6l-1,57.2c-2.8-1-5.9-1.6-9.1-1.6c-3.2-0.1-6.3,0.4-9.1,1.3l1-57.2c0-2,1.7-3.5,3.8-3.5l10.6,0.2
				C118.8,49.1,120.5,50.7,120.4,52.6z"/>
			<path class="st3" d="M120.4,52.6l-1,57.2c-2.8-1-5.9-1.6-9.1-1.6c-3.2-0.1-6.3,0.4-9.1,1.3l1-57.2c0-2,1.7-3.5,3.8-3.5l10.6,0.2
				C118.8,49.1,120.5,50.7,120.4,52.6z"/>
		</g>
		<g>
			<path class="st2" d="M97.6,111c-1.5,0.7-3,1.6-4.4,2.6c0,0,0,0,0,0c-3.6,2.6-6.6,6-8.7,10L44.7,82.5c-1.4-1.4-1.2-3.7,0.3-5.2
				l7.7-7.4c1.5-1.5,3.8-1.5,5.2-0.1L97.6,111z"/>
			<path class="st3" d="M97.6,111c-1.5,0.7-3,1.6-4.4,2.6c0,0,0,0,0,0c-3.6,2.6-6.6,6-8.7,10L44.7,82.5c-1.4-1.4-1.2-3.7,0.3-5.2
				l7.7-7.4c1.5-1.5,3.8-1.5,5.2-0.1L97.6,111z"/>
		</g>
		<g>
			<path class="st2" d="M174.8,196.4l-7.7,7.4c-1.5,1.5-3.8,1.5-5.2,0.1l-39.8-41.2c5.6-2.7,10.2-7.1,13.1-12.6l39.8,41.2
				C176.4,192.6,176.3,194.9,174.8,196.4z"/>
			<path class="st3" d="M174.8,196.4l-7.7,7.4c-1.5,1.5-3.8,1.5-5.2,0.1l-39.8-41.2c5.6-2.7,10.2-7.1,13.1-12.6l39.8,41.2
				C176.4,192.6,176.3,194.9,174.8,196.4z"/>
		</g>
		<g>
			<path class="st2" d="M96.7,162.2l-3.3,3.2L64,193.8l-8.5,8.2c-1.4,1.4-3.7,1.3-5.2-0.3l-7.4-7.7c-1.4-1.5-1.5-3.8-0.1-5.2
				l8.4-8.1l4.6-4.5l25-24.2l3.1-3C86.7,154.8,91.2,159.4,96.7,162.2z"/>
			<path class="st3" d="M96.7,162.2l-3.3,3.2L64,193.8l-8.5,8.2c-1.4,1.4-3.7,1.3-5.2-0.3l-7.4-7.7c-1.4-1.5-1.5-3.8-0.1-5.2
				l8.4-8.1l4.6-4.5l25-24.2l3.1-3C86.7,154.8,91.2,159.4,96.7,162.2z"/>
		</g>
		<g>
			<path class="st2" d="M176.9,84.8l-12.4,12l-28.7,27.8c-2.7-5.6-7.1-10.2-12.6-13.1l41.2-39.8c1.4-1.4,3.7-1.3,5.2,0.3l7.4,7.7
				C178.2,81.1,178.3,83.4,176.9,84.8z"/>
			<path class="st3" d="M176.9,84.8l-12.4,12l-28.7,27.8c-2.7-5.6-7.1-10.2-12.6-13.1l41.2-39.8c1.4-1.4,3.7-1.3,5.2,0.3l7.4,7.7
				C178.2,81.1,178.3,83.4,176.9,84.8z"/>
		</g>
		<path class="st4" d="M69,81.4c-0.9,0.6-1.7,1.2-2.6,1.8c-4.1,3-7.9,6.3-11.3,10.1l28.2,29.2c2.6-3.6,5.9-6.7,9.8-8.9c0,0,0,0,0,0
			c1.4-1,2.8-1.9,4.4-2.6L69,81.4z M119.2,70.5c-3.1-0.5-6.4-0.8-9.6-0.8c-2.6,0-5.1,0-7.6,0.3l-0.7,39.6c2.9-0.9,5.9-1.4,9.1-1.3
			s6.2,0.6,9.1,1.6l0.7-39.2C119.8,70.6,119.5,70.6,119.2,70.5z M152.2,84.6c-0.3-0.2-0.5-0.4-0.8-0.6l-28.4,27.4
			c5.5,2.9,10,7.5,12.6,13.1l28.7-27.8C160.9,92.2,156.8,88.2,152.2,84.6z M178.8,131.2c-0.1-0.8-0.2-1.5-0.3-2.3l-41.3-0.7
			c0.8,2.4,1.2,5,1.3,7.6c0.2,1.3,0.2,2.7,0.2,4.1c0,2.2-0.3,4.4-0.8,6.5l41,0.7c0.2-2.1,0.4-4.3,0.4-6.5
			C179.4,137.4,179.2,134.3,178.8,131.2z M117.5,167.9c-3,0.9-6.3,1.4-9.7,1.4c-2.6,0-5.2-0.4-7.6-1.1l-0.7,40.5
			c2.5,0.3,5,0.5,7.6,0.5c3.3,0.1,6.5-0.1,9.7-0.5c0.3,0,0.6-0.1,0.9-0.1l0.7-41C118.1,167.7,117.8,167.8,117.5,167.9z M80.9,152.3
			C80.9,152.2,80.9,152.2,80.9,152.3l-25.1,24.1l-4.6,4.5c3.6,4.9,7.9,9.2,12.7,13l29.4-28.4C88,162.4,83.6,157.8,80.9,152.3z
			 M136.3,151.1c-0.3,0.7-0.6,1.4-1,2.1c-2.5,4.8-6.4,8.8-11,11.6l28.2,29.2c4.3-3.4,8.2-7.2,11.7-11.5c0.4-0.5,0.8-1,1.1-1.5
			L136.3,151.1z M80.6,127.2l-42.1-0.7c-0.1,0.7-0.3,1.5-0.4,2.2c-0.5,3.1-0.8,6.3-0.8,9.5c0,2.2,0,4.3,0.2,6.5l41,0.7
			c-0.4-2.1-0.6-4.3-0.6-6.5c0.1-3.3,0.7-6.5,1.7-9.5C80,128.7,80.3,128,80.6,127.2z"/>
		<path class="st2" d="M173.1,114.8c-3.9-11.1-10.5-20.7-19-28.2c-4.6-4-9.7-7.4-15.2-10.1c-10.1-4.9-21.6-7.3-33.3-6.5
			c-3,0.2-6,0.6-9,1.2c-3,0.6-6,1.4-8.8,2.4c-11.1,3.9-20.7,10.5-28.2,19c-4,4.6-7.4,9.7-10.1,15.2c-4.9,10.1-7.3,21.5-6.5,33.3
			c0.2,3,0.6,6,1.2,9c0.6,3,1.4,6,2.4,8.8c3.9,11.1,10.5,20.7,19,28.2c4.6,4,9.7,7.4,15.2,10.1c10.1,4.9,21.5,7.3,33.3,6.5
			c3-0.2,6-0.6,9-1.2s6-1.4,8.8-2.4c11.1-3.9,20.7-10.5,28.2-18.9c4-4.6,7.4-9.7,10.1-15.2c4.9-10.1,7.3-21.5,6.5-33.3
			c-0.2-3-0.6-6-1.2-9C174.9,120.5,174.1,117.6,173.1,114.8z M137.5,144.3c-1.6,6-5.2,11.3-10.1,15.2c-1,0.8-2.1,1.6-3.3,2.2
			c-2.6,1.5-5.5,2.6-8.6,3.2c-3.1,0.6-6.2,0.7-9.2,0.4c-1.3-0.2-2.6-0.4-3.9-0.8c-6-1.6-11.3-5.2-15.2-10.1c-0.8-1-1.6-2.1-2.2-3.3
			c-1.5-2.6-2.6-5.5-3.3-8.6s-0.7-6.2-0.4-9.2c0.2-1.3,0.4-2.6,0.8-3.9c1.6-6,5.2-11.3,10.1-15.2c1-0.8,2.1-1.6,3.3-2.2
			c2.6-1.5,5.5-2.6,8.6-3.3s6.2-0.7,9.2-0.4c1.3,0.2,2.6,0.4,3.9,0.8c6,1.6,11.3,5.2,15.2,10.1c0.8,1,1.5,2.1,2.2,3.3
			c1.5,2.6,2.6,5.5,3.3,8.6c0.6,3.1,0.7,6.2,0.4,9.2C138.1,141.7,137.9,143,137.5,144.3z"/>
		<g>
			<path class="st2" d="M100.4,90.1c-25.8,5.2-42.6,30.4-37.3,56.2c5.2,25.8,30.4,42.5,56.2,37.3c25.8-5.2,42.5-30.4,37.3-56.2
				C151.4,101.5,126.3,84.8,100.4,90.1z M115.5,164.9C100,168,84.9,158,81.8,142.5c-3.1-15.5,6.9-30.6,22.4-33.7
				c15.5-3.1,30.6,6.9,33.7,22.4C141.1,146.7,131,161.8,115.5,164.9z"/>
			<g class="st5">
				<path class="st2" d="M100.4,90.1c-25.8,5.2-42.6,30.4-37.3,56.2c5.2,25.8,30.4,42.5,56.2,37.3c25.8-5.2,42.5-30.4,37.3-56.2
					C151.4,101.5,126.3,84.8,100.4,90.1z M115.5,164.9C100,168,84.9,158,81.8,142.5c-3.1-15.5,6.9-30.6,22.4-33.7
					c15.5-3.1,30.6,6.9,33.7,22.4C141.1,146.7,131,161.8,115.5,164.9z"/>
			</g>
		</g>
		<g class="st6">
			<path class="st2" d="M81.8,142.5c-3-14.7,5.9-29.1,20.2-33.2c-0.8,0.1-1.5,0.2-2.3,0.4c-15.5,3.1-25.5,18.2-22.4,33.7
				c3.1,15.5,18.2,25.5,33.7,22.4c0.8-0.2,1.5-0.3,2.2-0.5C98.6,167,84.8,157.2,81.8,142.5z"/>
			<g>
				<path class="st7" d="M81.8,142.5c-3-14.7,5.9-29.1,20.2-33.2c-0.8,0.1-1.5,0.2-2.3,0.4c-15.5,3.1-25.5,18.2-22.4,33.7
					c3.1,15.5,18.2,25.5,33.7,22.4c0.8-0.2,1.5-0.3,2.2-0.5C98.6,167,84.8,157.2,81.8,142.5z"/>
			</g>
		</g>
		<path class="st4" d="M100.4,90.1c-1,0.2-2,0.4-3,0.7c24.8-3.4,48.2,13,53.2,37.8s-10.2,49.1-34.4,55.5c1-0.1,2-0.3,3-0.5
			c25.8-5.2,42.5-30.4,37.3-56.2C151.4,101.5,126.3,84.8,100.4,90.1z"/>
		<g>
			<path class="st2" d="M20.2,285.3c-1.2,2.6-1.9,5.3-2.2,8l-46.6-21.1c-1.6-0.7-2.3-2.7-1.5-4.4l3.9-8.7c0.8-1.7,2.7-2.5,4.3-1.8
				l46.6,21.1C22.9,280.4,21.4,282.7,20.2,285.3z"/>
			<path class="st3" d="M20.2,285.3c-1.2,2.6-1.9,5.3-2.2,8l-46.6-21.1c-1.6-0.7-2.3-2.7-1.5-4.4l3.9-8.7c0.8-1.7,2.7-2.5,4.3-1.8
				l46.6,21.1C22.9,280.4,21.4,282.7,20.2,285.3z"/>
		</g>
		<g>
			<path class="st2" d="M117,324l-3.9,8.7c-0.8,1.7-2.7,2.5-4.3,1.8l-46.6-21.1c1.8-2,3.4-4.3,4.6-6.9c0.2-0.4,0.4-0.8,0.5-1.2
				c0.9-2.2,1.4-4.5,1.6-6.7l46.6,21.1C117.1,320.3,117.8,322.3,117,324z"/>
			<path class="st3" d="M117,324l-3.9,8.7c-0.8,1.7-2.7,2.5-4.3,1.8l-46.6-21.1c1.8-2,3.4-4.3,4.6-6.9c0.2-0.4,0.4-0.8,0.5-1.2
				c0.9-2.2,1.4-4.5,1.6-6.7l46.6,21.1C117.1,320.3,117.8,322.3,117,324z"/>
		</g>
		<g>
			<path class="st2" d="M40.9,321.3l-21.1,46.6c-0.7,1.6-2.7,2.3-4.4,1.5l-8.7-3.9c-1.7-0.8-2.5-2.7-1.8-4.3L26,314.6
				c2,1.8,4.3,3.4,6.9,4.6C35.5,320.3,38.2,321,40.9,321.3z"/>
			<path class="st3" d="M40.9,321.3l-21.1,46.6c-0.7,1.6-2.7,2.3-4.4,1.5l-8.7-3.9c-1.7-0.8-2.5-2.7-1.8-4.3L26,314.6
				c2,1.8,4.3,3.4,6.9,4.6C35.5,320.3,38.2,321,40.9,321.3z"/>
		</g>
		<g>
			<path class="st2" d="M82,230.5l-21.1,46.6c-2-1.8-4.3-3.4-6.9-4.6c-2.6-1.2-5.3-1.9-8-2.2l21.1-46.6c0.7-1.6,2.7-2.3,4.4-1.5
				l8.7,3.9C82,227,82.8,228.9,82,230.5z"/>
			<path class="st3" d="M82,230.5l-21.1,46.6c-2-1.8-4.3-3.4-6.9-4.6c-2.6-1.2-5.3-1.9-8-2.2l21.1-46.6c0.7-1.6,2.7-2.3,4.4-1.5
				l8.7,3.9C82,227,82.8,228.9,82,230.5z"/>
		</g>
		<g>
			<path class="st2" d="M42.5,270.3c-1.5,0.1-3,0.2-4.5,0.6c0,0,0,0,0,0c-3.9,0.8-7.6,2.6-10.7,5.1l-18-47.9c-0.6-1.6,0.3-3.5,2-4.1
				l8.9-3.3c1.7-0.7,3.7,0.1,4.3,1.8L42.5,270.3z"/>
			<path class="st3" d="M42.5,270.3c-1.5,0.1-3,0.2-4.5,0.6c0,0,0,0,0,0c-3.9,0.8-7.6,2.6-10.7,5.1l-18-47.9c-0.6-1.6,0.3-3.5,2-4.1
				l8.9-3.3c1.7-0.7,3.7,0.1,4.3,1.8L42.5,270.3z"/>
		</g>
		<g>
			<path class="st2" d="M75.6,367.7l-8.9,3.3c-1.7,0.7-3.7-0.1-4.3-1.8l-18-47.9c5.5-0.2,10.9-2.2,15.2-5.7l18,47.9
				C78.2,365.2,77.3,367.1,75.6,367.7z"/>
			<path class="st3" d="M75.6,367.7l-8.9,3.3c-1.7,0.7-3.7-0.1-4.3-1.8l-18-47.9c5.5-0.2,10.9-2.2,15.2-5.7l18,47.9
				C78.2,365.2,77.3,367.1,75.6,367.7z"/>
		</g>
		<g>
			<path class="st2" d="M23.6,312l-3.8,1.4l-34.2,12.9l-9.8,3.7c-1.6,0.6-3.5-0.3-4.2-2l-3.3-8.9c-0.7-1.7,0.1-3.7,1.8-4.3l9.7-3.7
				l5.4-2l29.1-10.9l3.6-1.4C18.1,302.3,20.1,307.7,23.6,312z"/>
			<path class="st3" d="M23.6,312l-3.8,1.4l-34.2,12.9l-9.8,3.7c-1.6,0.6-3.5-0.3-4.2-2l-3.3-8.9c-0.7-1.7,0.1-3.7,1.8-4.3l9.7-3.7
				l5.4-2l29.1-10.9l3.6-1.4C18.1,302.3,20.1,307.7,23.6,312z"/>
		</g>
		<g>
			<path class="st2" d="M116.9,276.9l-14.4,5.4l-33.4,12.6c-0.2-5.6-2.2-10.9-5.7-15.2l47.9-18c1.6-0.6,3.5,0.3,4.2,2l3.3,8.9
				C119.4,274.4,118.6,276.3,116.9,276.9z"/>
			<path class="st3" d="M116.9,276.9l-14.4,5.4l-33.4,12.6c-0.2-5.6-2.2-10.9-5.7-15.2l47.9-18c1.6-0.6,3.5,0.3,4.2,2l3.3,8.9
				C119.4,274.4,118.6,276.3,116.9,276.9z"/>
		</g>
		<path class="st4" d="M29.6,235.8c-0.9,0.2-1.8,0.3-2.7,0.5c-4.4,1-8.7,2.4-12.8,4.3l12.8,34c3.4-2.1,7.2-3.4,11.2-3.8c0,0,0,0,0,0
			c1.5-0.3,3-0.5,4.5-0.6L29.6,235.8z M74.7,244.7c-2.4-1.5-5-2.9-7.6-4.1c-2.1-0.9-4.2-1.8-6.3-2.5l-14.6,32.2c2.7,0.3,5.4,1,8,2.2
			c2.6,1.2,4.9,2.7,6.9,4.6l14.5-31.9C75.1,245,74.9,244.9,74.7,244.7z M96.7,268c-0.1-0.3-0.3-0.5-0.4-0.8l-33,12.4
			c3.5,4.3,5.5,9.7,5.7,15.2l33.4-12.6C101.2,277.4,99.2,272.6,96.7,268z M102,315.7c0.2-0.7,0.4-1.3,0.5-2l-33.7-15.3
			c-0.2,2.3-0.8,4.5-1.6,6.7c-0.3,1.2-0.8,2.3-1.3,3.5c-0.8,1.8-1.8,3.5-3,5l33.4,15.2c1-1.7,1.8-3.4,2.6-5.2
			C100.3,321,101.3,318.4,102,315.7z M38.7,324c-2.8-0.3-5.7-1.1-8.4-2.3c-2.1-1-4.1-2.2-5.9-3.6L9.5,351c1.9,1.1,4,2.2,6.1,3.1
			c2.7,1.2,5.4,2.2,8.1,3c0.3,0.1,0.5,0.2,0.8,0.2l15.1-33.4C39.3,324.1,39,324,38.7,324z M14.3,298.2
			C14.3,298.2,14.3,298.2,14.3,298.2l-29.1,10.9l-5.4,2c1.3,5.3,3.2,10.4,5.8,15.2l34.2-12.9C16.5,309,14.5,303.7,14.3,298.2z
			 M60.1,316.9c-0.5,0.5-1,0.9-1.6,1.4c-3.8,3-8.4,5-13.2,5.6l12.8,34c4.7-1.2,9.3-3,13.6-5.3c0.5-0.3,1-0.5,1.4-0.8L60.1,316.9z
			 M22.9,277.6L-11.3,262c-0.4,0.6-0.7,1.1-1.1,1.7c-1.5,2.4-2.8,4.9-4,7.5c-0.8,1.8-1.5,3.6-2.1,5.4l33.4,15.2
			c0.4-1.9,1-3.7,1.8-5.5c1.2-2.7,2.9-5.1,4.8-7.1C21.9,278.6,22.4,278,22.9,277.6z"/>
		<path class="st2" d="M103.1,300.2c0.8-10.5-1.3-20.7-5.5-29.8c-2.3-4.9-5.3-9.5-8.9-13.6c-6.6-7.6-15.1-13.6-25-17.2
			c-2.5-0.9-5.1-1.7-7.8-2.2c-2.7-0.6-5.4-1-8.1-1.2c-10.5-0.8-20.7,1.3-29.8,5.5c-4.9,2.3-9.5,5.3-13.6,8.9
			c-7.6,6.6-13.6,15.1-17.2,25c-0.9,2.5-1.7,5.1-2.2,7.8c-0.6,2.7-1,5.4-1.2,8.1c-0.8,10.5,1.3,20.7,5.5,29.8
			c2.3,4.9,5.3,9.5,8.9,13.6c6.6,7.6,15.1,13.6,25,17.2c2.5,0.9,5.1,1.7,7.8,2.2c2.7,0.6,5.4,1,8.1,1.2c10.5,0.8,20.7-1.3,29.8-5.5
			c4.9-2.3,9.5-5.3,13.6-8.9c7.6-6.6,13.6-15.1,17.2-25c0.9-2.5,1.7-5.1,2.2-7.8C102.6,305.6,102.9,302.9,103.1,300.2z M63.5,311.8
			c-3.5,4.3-8.3,7.5-13.6,8.9c-1.1,0.3-2.3,0.5-3.5,0.6c-2.7,0.3-5.4,0.2-8.2-0.4c-2.8-0.6-5.4-1.6-7.7-3c-1-0.6-2-1.3-2.9-2
			c-4.3-3.5-7.5-8.3-8.9-13.6c-0.3-1.1-0.5-2.3-0.6-3.5c-0.3-2.7-0.2-5.4,0.4-8.2c0.6-2.8,1.6-5.4,3-7.7c0.6-1,1.3-2,2-2.9
			c3.5-4.4,8.3-7.5,13.6-8.9c1.1-0.3,2.3-0.5,3.5-0.6c2.7-0.3,5.4-0.2,8.2,0.4s5.4,1.6,7.7,3c1,0.6,2,1.3,2.9,2
			c4.3,3.5,7.5,8.3,8.9,13.6c0.3,1.1,0.5,2.3,0.6,3.5c0.3,2.7,0.2,5.4-0.4,8.2c-0.6,2.8-1.6,5.4-3,7.7
			C64.9,309.9,64.2,310.8,63.5,311.8z"/>
		<g>
			<path class="st2" d="M52.3,254.1c-23-4.9-45.7,9.8-50.6,32.9c-4.9,23,9.8,45.7,32.9,50.6c23,4.9,45.7-9.8,50.6-32.9
				C90.1,281.6,75.4,259,52.3,254.1z M38.2,320.9c-13.8-2.9-22.6-16.5-19.7-30.3s16.5-22.6,30.3-19.7c13.8,2.9,22.6,16.5,19.7,30.3
				C65.6,315,52,323.8,38.2,320.9z"/>
			<g class="st5">
				<path class="st2" d="M52.3,254.1c-23-4.9-45.7,9.8-50.6,32.9c-4.9,23,9.8,45.7,32.9,50.6c23,4.9,45.7-9.8,50.6-32.9
					C90.1,281.6,75.4,259,52.3,254.1z M38.2,320.9c-13.8-2.9-22.6-16.5-19.7-30.3s16.5-22.6,30.3-19.7c13.8,2.9,22.6,16.5,19.7,30.3
					C65.6,315,52,323.8,38.2,320.9z"/>
			</g>
		</g>
		<g class="st6">
			<path class="st2" d="M18.4,290.5c2.8-13.1,15.2-21.8,28.3-20.1c-0.6-0.2-1.3-0.4-2-0.5c-13.8-2.9-27.4,5.9-30.3,19.7
				s5.9,27.4,19.7,30.3c0.7,0.1,1.3,0.3,2,0.3C23.5,316.6,15.7,303.7,18.4,290.5z"/>
			<g>
				<path class="st7" d="M18.4,290.5c2.8-13.1,15.2-21.8,28.3-20.1c-0.6-0.2-1.3-0.4-2-0.5c-13.8-2.9-27.4,5.9-30.3,19.7
					s5.9,27.4,19.7,30.3c0.7,0.1,1.3,0.3,2,0.3C23.5,316.6,15.7,303.7,18.4,290.5z"/>
			</g>
		</g>
		<path class="st4" d="M52.3,254.1c-0.9-0.2-1.8-0.4-2.7-0.5c21.5,6,34.9,27.8,30.2,49.9S54.1,340.2,32,336.9
			c0.9,0.2,1.8,0.5,2.7,0.7c23,4.9,45.7-9.8,50.6-32.9C90.1,281.6,75.4,259,52.3,254.1z"/>
		<g>
			<path class="st8" d="M170.5,278.6c1,1.9,2.2,3.6,3.7,5.1l-34.7,17.4c-1.2,0.6-2.7,0-3.3-1.2l-3.2-6.5c-0.6-1.3-0.2-2.8,1-3.4
				l34.7-17.4C168.9,274.7,169.6,276.7,170.5,278.6z"/>
			<path class="st9" d="M170.5,278.6c1,1.9,2.2,3.6,3.7,5.1l-34.7,17.4c-1.2,0.6-2.7,0-3.3-1.2l-3.2-6.5c-0.6-1.3-0.2-2.8,1-3.4
				l34.7-17.4C168.9,274.7,169.6,276.7,170.5,278.6z"/>
		</g>
		<g>
			<path class="st8" d="M239.5,240l3.2,6.5c0.6,1.3,0.2,2.8-1,3.4l-34.7,17.4c-0.3-2-0.9-4-1.9-6c-0.2-0.3-0.3-0.6-0.5-0.9
				c-0.9-1.6-2-3-3.2-4.2l34.7-17.4C237.4,238.2,238.9,238.8,239.5,240z"/>
			<path class="st9" d="M239.5,240l3.2,6.5c0.6,1.3,0.2,2.8-1,3.4l-34.7,17.4c-0.3-2-0.9-4-1.9-6c-0.2-0.3-0.3-0.6-0.5-0.9
				c-0.9-1.6-2-3-3.2-4.2l34.7-17.4C237.4,238.2,238.9,238.8,239.5,240z"/>
		</g>
		<g>
			<path class="st8" d="M201.6,283.6l17.4,34.7c0.6,1.2,0.1,2.7-1.2,3.3l-6.4,3.2c-1.3,0.6-2.8,0.2-3.4-1l-17.4-34.7
				c2-0.3,4-0.9,6-1.9C198.5,286.3,200.2,285.1,201.6,283.6z"/>
			<path class="st9" d="M201.6,283.6l17.4,34.7c0.6,1.2,0.1,2.7-1.2,3.3l-6.4,3.2c-1.3,0.6-2.8,0.2-3.4-1l-17.4-34.7
				c2-0.3,4-0.9,6-1.9C198.5,286.3,200.2,285.1,201.6,283.6z"/>
		</g>
		<g>
			<path class="st8" d="M167.7,216.1l17.4,34.7c-2,0.3-4,0.9-6,1.9c-1.9,1-3.6,2.2-5.1,3.7l-17.4-34.7c-0.6-1.2-0.1-2.7,1.2-3.3
				l6.4-3.2C165.6,214.4,167.2,214.9,167.7,216.1z"/>
			<path class="st9" d="M167.7,216.1l17.4,34.7c-2,0.3-4,0.9-6,1.9c-1.9,1-3.6,2.2-5.1,3.7l-17.4-34.7c-0.6-1.2-0.1-2.7,1.2-3.3
				l6.4-3.2C165.6,214.4,167.2,214.9,167.7,216.1z"/>
		</g>
		<g>
			<path class="st8" d="M172.3,258.3c-0.7,0.9-1.3,1.9-1.8,2.9c0,0,0,0,0,0c-1.4,2.7-2.1,5.7-2.1,8.8l-36.8-12.2
				c-1.3-0.4-1.9-1.8-1.5-3.2l2.3-6.8c0.4-1.3,1.8-2.1,3.1-1.7L172.3,258.3z"/>
			<path class="st9" d="M172.3,258.3c-0.7,0.9-1.3,1.9-1.8,2.9c0,0,0,0,0,0c-1.4,2.7-2.1,5.7-2.1,8.8l-36.8-12.2
				c-1.3-0.4-1.9-1.8-1.5-3.2l2.3-6.8c0.4-1.3,1.8-2.1,3.1-1.7L172.3,258.3z"/>
		</g>
		<g>
			<path class="st8" d="M245.5,285.3l-2.3,6.8c-0.4,1.3-1.8,2.1-3.1,1.7l-36.8-12.2c2.5-3.4,3.9-7.5,3.9-11.7l36.8,12.2
				C245.3,282.5,246,283.9,245.5,285.3z"/>
			<path class="st9" d="M245.5,285.3l-2.3,6.8c-0.4,1.3-1.8,2.1-3.1,1.7l-36.8-12.2c2.5-3.4,3.9-7.5,3.9-11.7l36.8,12.2
				C245.3,282.5,246,283.9,245.5,285.3z"/>
		</g>
		<g>
			<path class="st8" d="M187.9,289.3l-1,2.9l-8.7,26.3l-2.5,7.6c-0.4,1.3-1.8,1.9-3.2,1.5l-6.8-2.3c-1.3-0.4-2.1-1.8-1.7-3.1
				l2.5-7.5l1.4-4.1l7.4-22.4l0.9-2.8C179.6,288,183.7,289.3,187.9,289.3z"/>
			<path class="st9" d="M187.9,289.3l-1,2.9l-8.7,26.3l-2.5,7.6c-0.4,1.3-1.8,1.9-3.2,1.5l-6.8-2.3c-1.3-0.4-2.1-1.8-1.7-3.1
				l2.5-7.5l1.4-4.1l7.4-22.4l0.9-2.8C179.6,288,183.7,289.3,187.9,289.3z"/>
		</g>
		<g>
			<path class="st8" d="M211.7,217.6l-3.7,11.1l-8.5,25.7c-3.4-2.5-7.5-3.9-11.7-3.9l12.2-36.8c0.4-1.3,1.8-1.9,3.2-1.5l6.8,2.3
				C211.4,215,212.1,216.4,211.7,217.6z"/>
			<path class="st9" d="M211.7,217.6l-3.7,11.1l-8.5,25.7c-3.4-2.5-7.5-3.9-11.7-3.9l12.2-36.8c0.4-1.3,1.8-1.9,3.2-1.5l6.8,2.3
				C211.4,215,212.1,216.4,211.7,217.6z"/>
		</g>
		<path class="st4" d="M145.9,249.5c-0.3,0.6-0.7,1.2-1,1.9c-1.5,3.1-2.7,6.3-3.6,9.6l26.1,8.7c0.4-3,1.4-5.9,3.1-8.4c0,0,0,0,0,0
			c0.5-1,1.1-2,1.8-2.9L145.9,249.5z M172.6,227.2c-2,0.7-4.1,1.5-6,2.5c-1.6,0.8-3.1,1.6-4.5,2.6l12,24c1.4-1.4,3.1-2.7,5.1-3.7
			s3.9-1.6,6-1.9L173.2,227C173,227.1,172.8,227.1,172.6,227.2z M196.9,225.3c-0.2,0-0.4-0.1-0.7-0.1l-8.4,25.3
			c4.2,0,8.3,1.4,11.7,3.9l8.5-25.7C204.5,227.1,200.7,226,196.9,225.3z M227.5,244.9c-0.3-0.4-0.6-0.8-0.9-1.3l-25,12.6
			c1.2,1.2,2.3,2.6,3.2,4.2c0.5,0.8,1,1.6,1.4,2.4c0.7,1.3,1.2,2.7,1.5,4.1l24.9-12.5c-0.5-1.4-1.1-2.7-1.8-4
			C229.8,248.5,228.7,246.6,227.5,244.9z M202.2,286.2c-1.5,1.5-3.3,2.8-5.4,3.9c-1.6,0.8-3.2,1.4-4.9,1.7l12.3,24.5
			c1.6-0.6,3.2-1.3,4.7-2.1c2-1,3.9-2.1,5.6-3.3c0.2-0.1,0.3-0.2,0.5-0.4l-12.5-24.8C202.5,285.9,202.3,286,202.2,286.2z
			 M175.3,288.3C175.3,288.3,175.3,288.3,175.3,288.3l-7.5,22.3l-1.4,4.1c3.7,1.8,7.7,3.1,11.7,3.8l8.7-26.3
			C182.7,292.1,178.7,290.8,175.3,288.3z M208.2,270.2c0,0.5,0.1,1.1,0.1,1.6c0,3.7-1.1,7.3-3,10.4l26.1,8.7
			c1.5-3.4,2.7-6.9,3.4-10.6c0.1-0.4,0.2-0.8,0.2-1.2L208.2,270.2z M167.3,273.3l-25.5,12.8c0.2,0.5,0.3,1,0.5,1.5
			c0.7,2,1.5,4,2.5,5.9c0.7,1.3,1.4,2.6,2.1,3.8l24.9-12.5c-0.9-1.1-1.7-2.4-2.4-3.7c-1-2-1.6-4.1-1.9-6.2
			C167.4,274.4,167.3,273.9,167.3,273.3z"/>
		<path class="st8" d="M218.9,236.8c-5.8-5.5-12.8-9.1-20.2-11c-4-1-8.1-1.4-12.3-1.3c-7.6,0.2-15.2,2.4-22,6.5
			c-1.7,1.1-3.4,2.2-5,3.6c-1.6,1.3-3.1,2.7-4.5,4.2c-5.5,5.8-9.1,12.8-11,20.2c-1,4-1.4,8.1-1.3,12.3c0.2,7.6,2.4,15.2,6.5,22
			c1.1,1.7,2.2,3.4,3.6,5.1s2.7,3.1,4.2,4.5c5.8,5.5,12.8,9.1,20.2,11c4,1,8.1,1.4,12.3,1.3c7.6-0.2,15.2-2.4,22-6.5
			c1.7-1.1,3.4-2.2,5.1-3.6s3.1-2.7,4.5-4.2c5.5-5.8,9.1-12.8,11-20.2c1-4,1.4-8.1,1.3-12.3c-0.2-7.6-2.4-15.2-6.5-22
			c-1.1-1.7-2.2-3.4-3.6-5.1C221.8,239.7,220.4,238.2,218.9,236.8z M206.8,265.7c0.9,4.1,0.5,8.4-1.3,12.3c-0.4,0.8-0.8,1.6-1.3,2.4
			c-1.1,1.7-2.5,3.3-4.2,4.7c-1.7,1.4-3.5,2.4-5.4,3.1c-0.8,0.3-1.7,0.6-2.6,0.8c-4.1,0.9-8.4,0.5-12.3-1.3
			c-0.8-0.4-1.6-0.8-2.4-1.3c-1.7-1.1-3.3-2.5-4.7-4.2c-1.4-1.7-2.4-3.5-3.1-5.4c-0.3-0.8-0.6-1.7-0.8-2.6
			c-0.9-4.1-0.5-8.4,1.3-12.3c0.4-0.8,0.8-1.6,1.3-2.4c1.1-1.7,2.5-3.3,4.2-4.7c1.7-1.4,3.5-2.4,5.4-3.1c0.8-0.3,1.7-0.6,2.6-0.8
			c4.1-0.9,8.4-0.5,12.3,1.3c0.8,0.4,1.6,0.8,2.4,1.3c1.7,1.1,3.3,2.5,4.7,4.2c1.4,1.7,2.4,3.5,3.1,5.4
			C206.3,264,206.6,264.8,206.8,265.7z"/>
		<g>
			<path class="st8" d="M167.5,244.8c-13.9,11.2-16,31.6-4.8,45.5c11.2,13.9,31.6,16,45.5,4.7c13.9-11.2,16-31.6,4.7-45.5
				C201.7,235.7,181.4,233.6,167.5,244.8z M200.1,285c-8.3,6.7-20.5,5.5-27.3-2.8c-6.7-8.3-5.5-20.5,2.8-27.3
				c8.3-6.7,20.5-5.5,27.3,2.8C209.7,266,208.4,278.3,200.1,285z"/>
			<g class="st5">
				<path class="st8" d="M167.5,244.8c-13.9,11.2-16,31.6-4.8,45.5c11.2,13.9,31.6,16,45.5,4.7c13.9-11.2,16-31.6,4.7-45.5
					C201.7,235.7,181.4,233.6,167.5,244.8z M200.1,285c-8.3,6.7-20.5,5.5-27.3-2.8c-6.7-8.3-5.5-20.5,2.8-27.3
					c8.3-6.7,20.5-5.5,27.3,2.8C209.7,266,208.4,278.3,200.1,285z"/>
			</g>
		</g>
		<g class="st6">
			<path class="st2" d="M172.8,282.1c-6.4-7.9-5.6-19.3,1.7-26.3c-0.4,0.3-0.8,0.6-1.2,0.9c-8.3,6.7-9.6,19-2.8,27.3
				c6.7,8.3,19,9.6,27.3,2.9c0.4-0.3,0.8-0.7,1.2-1C190.6,291.6,179.2,290.1,172.8,282.1z"/>
			<g>
				<path class="st7" d="M172.8,282.1c-6.4-7.9-5.6-19.3,1.7-26.3c-0.4,0.3-0.8,0.6-1.2,0.9c-8.3,6.7-9.6,19-2.8,27.3
					c6.7,8.3,19,9.6,27.3,2.9c0.4-0.3,0.8-0.7,1.2-1C190.6,291.6,179.2,290.1,172.8,282.1z"/>
			</g>
		</g>
		<path class="st4" d="M167.5,244.8c-0.5,0.4-1.1,0.9-1.6,1.4c13.8-9.8,33-7.3,43.8,6c10.8,13.3,9.3,32.7-3.2,44.1
			c0.6-0.4,1.1-0.8,1.7-1.3c13.9-11.2,16-31.6,4.7-45.5C201.7,235.7,181.4,233.6,167.5,244.8z"/>
	</g>
</g>
</svg>
