<?xml version="1.0" encoding="utf-8"?>
<!-- Generator: Adobe Illustrator 19.0.0, SVG Export Plug-In . SVG Version: 6.00 Build 0)  -->
<svg version="1.1" id="Capa_1" xmlns="http://www.w3.org/2000/svg" xmlns:xlink="http://www.w3.org/1999/xlink" x="0px" y="0px"
	 viewBox="-229 31 500 500" style="enable-background:new -229 31 500 500;" xml:space="preserve">
<style type="text/css">
	.st0{fill:#3F4F7F;}
	.st1{fill:#FFFFFF;}
	.st2{fill:#7C8AAB;}
</style>
<g id="ipad">
	<g>
		<path class="st0" d="M21,31c-138.1,0-250,111.9-250,250c0,138.1,111.9,250,250,250c138.1,0,250-111.9,250-250
			C271,142.9,159.1,31,21,31z"/>
		<g id="_x33_">
			<path class="st1" d="M109.2,144.4H-67.2c-9.4,0-17.2,7.7-17.2,17.2v238.9c0,9.4,7.7,17.2,17.2,17.2h176.4
				c9.4,0,17.2-7.7,17.2-17.2V161.6C126.4,152.1,118.6,144.4,109.2,144.4z M20.6,151.8c1.5,0,2.7,1.2,2.7,2.7c0,1.5-1.2,2.7-2.7,2.7
				c-1.5,0-2.7-1.2-2.7-2.7C17.9,153,19.1,151.8,20.6,151.8z M34.3,405.7c0,1.4-1.1,2.5-2.5,2.5h-20c-1.4,0-2.5-1.1-2.5-2.5v-1.2
				c0-1.4,1.1-2.5,2.5-2.5h20c1.4,0,2.5,1.1,2.5,2.5V405.7z"/>
			<path class="st2" d="M20.6,150c2.5,0,4.5,2,4.5,4.5c0,2.5-2,4.6-4.5,4.6c-2.5,0-4.6-2-4.6-4.6C16.1,152,18.1,150,20.6,150z"/>
			<path class="st2" d="M34.3,405.7c0,1.4-1.1,2.5-2.5,2.5h-20c-1.4,0-2.5-1.1-2.5-2.5v-1.2c0-1.4,1.1-2.5,2.5-2.5h20
				c1.4,0,2.5,1.1,2.5,2.5V405.7z"/>
			<rect x="-65.5" y="174" class="st2" width="173" height="213.9"/>
		</g>
	</g>
</g>
<g id="Layer_1">
</g>
</svg>
