<?xml version="1.0" encoding="utf-8"?>
<!-- Generator: Adobe Illustrator 19.0.0, SVG Export Plug-In . SVG Version: 6.00 Build 0)  -->
<svg version="1.1" id="Capa_1" xmlns="http://www.w3.org/2000/svg" xmlns:xlink="http://www.w3.org/1999/xlink" x="0px" y="0px"
	 viewBox="43.1 290.4 237 94.6" style="enable-background:new 43.1 290.4 237 94.6;" xml:space="preserve">
<style type="text/css">
	.st0{fill:#1C3F95;}
</style>
<g transform="translate(0,248) scale(0.080000,-0.080000)">
	<path class="st0" d="M918-551.7c-55-30.3-54.7-111.2,0.8-140.3c18.2-9.8,55.4-10.6,72.9-1.6c19.7,10.2,30,21.6,25.1,27.9
		c-5.7,7.1-14.8,6.7-22.8-1.2c-17.8-16.9-48.6-18.5-70.2-3.5c-13.7,9.4-25.8,38.5-22.8,56.6c6.5,40.9,51.6,64.1,82.4,42.4
		c7.2-5.1,14.8-10.2,17.1-11.8c2.3-1.2,8,0.4,12.5,3.5c8.4,6.3,8.4,6.7,1.5,14.1C994.7-542.2,947.7-535.6,918-551.7z"/>
	<path class="st0" d="M2082.8-545.4c-1.5-1.2-2.7-36.5-2.7-78.6v-75.8h39.9c56.6,0,76.3,10.2,80.5,42c1.5,11.8-0.4,18.1-7.6,29.1
		c-8,12.2-8.7,15.3-4.2,20c2.7,2.8,6.1,10.6,7.6,16.9c3,16.1-11.4,37.7-28.9,44C2153.4-542.6,2087-540.7,2082.8-545.4z
		 M2159.9-568.2c8.7-4.7,11.4-8.6,11.4-17.7c0-15.7-9.9-20.4-41-18.9l-25.4,1.2l-1.1,17.3c-0.8,11,0.4,18.5,3.8,20.4
		C2115.8-560.3,2148.1-561.9,2159.9-568.2z M2170.9-638.5c6.5-7.1,8.4-12.6,6.5-19.6c-3.8-16.5-17.1-22.4-46.3-21.2l-26.2,1.2
		l-1.1,24.8l-1.1,24.4h30C2159.1-629.1,2163.3-630.3,2170.9-638.5z"/>
	<path class="st0" d="M2957.9-569c0.8-3.9,3.8-7.1,6.8-7.1s6.1,3.1,6.8,7.1c0.8,4.7-1.1,6.7-6.8,6.7S2957.1-564.3,2957.9-569z"/>
	<path class="st0" d="M2982.5-565c-4.2-4.3-3-8.3,3.4-10.6c7.2-2.8,17.8,4.7,14.4,9.8C2998.1-561.5,2986-561.1,2982.5-565z"/>
	<path class="st0" d="M1127.2-586.7c-56.2-29.5-35.3-113.2,28.1-113.2c35.7,0,59.2,24.4,59.2,61.3c0,16.9-1.9,22-13.3,36.2
		C1180.4-577.2,1155.3-572.1,1127.2-586.7z M1172.8-599.6c15.9-8.6,22.8-20.8,22.8-41.7c0-15.7-1.9-20.8-11.8-30.6
		c-9.5-9.8-14.8-12.2-27.7-12.2c-39.1,0-58.1,47.9-29.6,75.4C1143.2-592.5,1154.9-590.2,1172.8-599.6z"/>
	<path class="st0" d="M1276-581.5c-3.4-2.4-4.6-17.7-3.8-59.7l1.1-56.6l46.7-1.2c44.4-0.8,46.3-0.8,46.3,7.1c0,7.5-2.3,7.9-38,7.9
		h-38v48.7C1290.5-586.3,1287.4-574.5,1276-581.5z"/>
	<path class="st0" d="M1429.8-580.8c-1.5-1.2-2.7-28.7-2.7-60.9v-58.5l48.6,1.2c39.9,1.2,48.2,2.4,48.2,7.1c0,4.7-7.2,6.3-38.7,7.1
		l-39.1,1.2v17.3v17.3l29.6,1.2c22.8,0.8,29.2,2.4,29.2,7.1c0,4.7-6.5,6.3-28.5,7.9l-28.5,2l-1.1,15.3c-1.5,19.6,2.7,22.4,35.3,21.6
		c14.8-0.4,28.9-0.4,31.5,0c6.5,0.4,5.7,11-1.5,13.8C1504.2-577.2,1432.8-577.2,1429.8-580.8z"/>
	<path class="st0" d="M1603.7-585.9c-22-11.4-32.3-29.1-32.3-55.8c0-18.1,1.9-24.4,9.9-34.6c13.7-16.9,28.1-23.6,50.1-23.6
		c12.9,0,22.4,2.8,31.5,9c11.8,8.3,12.9,10.6,14,31.4l1.1,22.8l-22-1.2c-16.7-0.8-22-2.8-22-7.1c0-3.1,4.2-6.7,9.5-7.1
		c12.9-2,19-7.9,16.3-15.7c-3.8-11.4-13.3-16.5-30.8-16.5c-13.7,0-18.6,2-27.7,12.2c-19.4,21.6-17.8,47.9,4.2,68.4
		c11,10.6,38,10.6,49,0.4c8.4-7.9,19.4-5.9,19.4,3.5c0,7.9-28.1,21.2-43.7,21.6C1624.2-578,1612-581.5,1603.7-585.9z"/>
	<path class="st0" d="M1743.4-580.8c-3.8-1.6-4.9-17.3-4.9-60.9c0-58.5,0-58.5,8.7-57.4c8.4,1.2,8.4,2.4,9.5,58.5
		C1757.8-581.9,1756.3-576,1743.4-580.8z"/>
	<path class="st0" d="M1850.4-583.5c-35.3-15.7-48.2-61.7-26.2-91.9c12.9-16.9,27.7-24.4,50.1-24.4c47.1,0,74.8,50.7,50.1,91.9
		C1909.7-582.7,1876.3-571.7,1850.4-583.5z M1904.7-611.4c13.7-15.3,15.6-30.6,6.5-49.1c-8-16.1-20.1-23.6-38.3-23.6
		c-19.4,0-33.4,10.6-39.5,29.9c-5.3,16.5-3,27.9,8,42.4C1858.4-589,1884.6-589,1904.7-611.4z"/>
	<path class="st0" d="M2281.3-583.5c-2.7-3.5-3.8-24.4-3-59.7c1.1-51.5,1.5-54.6,8.7-54.6c7.2,0,7.6,3.1,8.7,57.4
		c0.8,47.5,0,58.2-4.6,59.7C2288.2-579.6,2284-580.8,2281.3-583.5z"/>
	<path class="st0" d="M2359.9-580.4c-1.5-1.6-2.7-29.1-2.7-61.3v-58.5l46.7,1.2c38,1.2,46.3,2.4,46.3,7.1c0,4.7-7.6,6.3-38,7.9
		l-38,2l-1.9,50.7C2370.6-584.3,2367.9-572.5,2359.9-580.4z"/>
	<path class="st0" d="M2511.8-580.8c-1.5-1.2-2.7-27.9-2.7-58.9c0-47.2,1.1-57,5.7-58.9c3.4-1.2,6.8-1.2,8,0
		c2.7,2.8,2.3,112-0.4,116.7S2515.2-576.8,2511.8-580.8z"/>
	<path class="st0" d="M2591.5-580.8c-1.5-1.2-2.7-28.7-2.7-60.9c0-55.4,0.4-58.2,7.6-58.2c7.2,0,7.6,2.8,7.6,43.2
		c0,25.1,1.5,43.2,3.8,43.2c1.9,0,19.4-18.9,38.3-42c27.7-33.8,36.8-42.4,44.8-42.4h9.9l1.1,56.6c1.1,57.4-0.8,65.6-13.3,60.5
		c-3.8-1.6-4.9-12.6-4.9-44.8c0-32.6-1.1-42-4.6-40.5c-2.7,1.2-16.7,17.3-31.5,35.8C2612.4-585.9,2598.3-573.3,2591.5-580.8z"/>
	<path class="st0" d="M2799.6-582.3c-6.5-1.6-17.5-9.8-24.7-17.3c-12.5-13.4-13.3-15.7-13.3-41.3c0-23.2,1.1-28.3,9.5-37.3
		c14-15.3,27.7-21.6,48.6-21.6c13.3,0,22.4,2.8,31.5,9c12.1,8.3,12.9,10.2,12.9,30.3v21.6h-20.9c-15.9,0-20.9-1.2-20.9-5.9
		c0-3.9,4.9-6.7,13.3-7.9c9.9-1.6,13.7-3.9,14.4-10.6c2.7-19.3-38-28.7-57.3-13c-11.4,9.4-19.4,31.8-16.3,45.2
		c3.8,15.7,20.5,33,34.5,35.8c9.5,1.6,17.5,0,28.9-5.9c8.4-4.7,17.1-7.5,19-6.3c7.6,5.1,2.7,13.4-12.9,21.2
		C2828.4-577.6,2818.2-576.4,2799.6-582.3z"/>
	<path class="st0" d="M2931.3-582.7c-3-3.1-4.6-20-4.6-47.5v-42.8l12.9-13.4c12.1-12.6,14.4-13.4,38.3-13.4
		c23.9,0,26.2,0.8,38.3,13.4l12.9,13.4v45.2c0,45.2-1.9,51.5-14,47.2c-3.8-1.2-4.9-14.1-4.9-46c0-52.7-3-58.2-32.3-58.2
		c-28.9,0-32.3,5.9-32.3,55.8c0,30.3-1.5,43.6-4.9,46.8C2937-579.2,2934.3-579.6,2931.3-582.7z"/>
	<path class="st0" d="M3090-640.9v-58.9h47.5c44.8,0,47.5,0.4,47.5,7.9c0,7.5-2.7,7.9-37.6,7.9h-37.6l-1.5,13.4
		c-2.3,20.8-0.8,22,26.6,22c14,0,27.7,1.6,30.8,3.5c10.6,7.1-0.4,12.2-26.2,12.2c-27,0-30.8,2.4-32.3,17.3c-1.5,19.3,3.4,22,39.9,22
		c27.7,0,34.2,1.2,34.2,5.9c0,5.1-7.6,5.9-45.6,5.9H3090V-640.9z"/>
	<path class="st0" d="M1031.6-841.3c-17.1-13.8-27-44.4-28.9-89.6l-1.5-40.1l-27-29.9c-47.8-53.4-90.4-76.2-140.8-76.2
		c-33.8,0-50.1,4.7-72.9,20.8c-26.6,18.1-41,47.9-38.3,78.2c2.3,27.1,12.9,46.4,32.3,58.5c11.4,7.5,19.4,9,44.4,9.4
		c27,0,33-1.6,55.8-13.4c13.7-7.1,35.7-21.6,48.2-32.2c12.9-10.6,25.1-19.3,27-19.3c7.6,0,41.8,19.6,41.8,24c0,2.8-2.7,3.1-6.5,1.6
		c-18.6-8.3-23.9-6.7-49.4,13c-34.5,26.3-52.8,35.8-78.2,40.1c-67.6,11.4-123-26.3-127.2-86.4c-4.2-60.5,37.6-107.7,100.2-113.2
		c52.8-4.3,99.8,18.5,154.9,74.7c20.5,21.2,38.7,37.3,40.2,36.5c6.5-3.9,15.9-63.3,14-85.3c-1.1-12.6-0.8-22.8,0.8-22.8
		c1.5,0,26.2,29.1,55,64.8c48.2,60.5,62.6,75.1,57.7,58.2c-9.9-33-23.9-126.9-19-126.9c1.9,0,12.9,3.5,24.3,8.3
		c22.8,9,34.9,18.1,19,14.1c-16.7-4.3-20.1,1.6-17.5,27.1c4.2,34.2,17.1,95.1,25.4,117.9c9.5,25.5,34.2,55.4,50.1,59.7
		c13.7,3.9,25.4-0.4,25.4-9.4c0-17.7,18.6,16.5,19,35c0,5.9-18.2,2.4-36.4-7.1c-23.5-12.2-36.1-25.5-112.4-119.8
		c-34.2-42-63.4-76.2-65.3-76.6c-2.3,0-5.7,11.4-8.4,25.5c-2.7,14.1-7.6,35.4-10.6,47.2l-5.7,21.6l12.5,21.6
		c17.5,31,25.1,52.7,25.1,71.9C1058.9-833.8,1048.6-827.1,1031.6-841.3z M1042.9-869.6c1.5-17.7-12.9-58.2-20.9-58.2
		c-5.3,0-5.7,4.3-3.8,27.9C1021.7-858.6,1040.3-835.8,1042.9-869.6z"/>
	<path class="st0" d="M2328.8-844.8c-70.6-21.2-123.8-71.1-142.7-134.4c-12.5-42-8.4-73.1,13.3-97.5c23.9-26.7,58.5-31.4,93.8-13
		c34.2,17.7,68.7,71.5,62.6,97.1c-3.4,13.4-9.9,12.6-9.9-1.2c0-36.5-30.8-79.8-61.1-86.1c-33.8-7.1-66.1,7.9-79.7,36.5
		c-17.5,38.1-0.8,98.6,39.5,140.3c39.9,41.3,103.6,63.3,157.9,54.2c34.2-5.5,59.2-19.3,67.6-37.7c11.4-24.8-5.3-52.7-37.6-62.9
		c-17.8-5.5-22.4-5.1-57.3,2.4c-21.3,4.3-39.5,8.6-41,9.8c-3.8,2.4-61.1,13.4-70.2,13.4c-9.1,0-24.3-12.2-24.3-19.6
		c0-3.1,3-3.9,8-2.8c8.7,2.4,29.6-0.8,82.8-12.6c46.7-10.6,84.3-10.6,106.7,0c59.6,27.9,66.8,88.8,13.3,114
		C2429.4-835,2361.4-835,2328.8-844.8z"/>
	<path class="st0" d="M1729-855c-10.3-5.1-15.9-9.4-12.1-9.4c3.8-0.4,7.6-3.1,8.7-5.9c1.1-3.1-11.8-40.1-28.9-81.7
		c-45.2-109.2-52.8-135.6-41.8-142.6c9.9-6.3,52,16.1,44.4,24c-1.5,1.6-4.9,0.8-7.2-1.6c-6.5-6.7-18.2-5.9-18.2,1.2
		c0,9.8,11.4,40.5,39.9,108.1c28.9,68,44,110,41,115.1C1752.5-844,1750.2-844.4,1729-855z"/>
	<path class="st0" d="M1971.9-854.2c-24.3-10.2-23.9-9.8-14-16.9c8.7-6.3,8.7-5.1-6.1-45.6l-9.5-26.3l-25.1-8.6
		c-63-21.6-120.7-84.5-117.3-127.7c1.1-13.4,2.7-15.3,11.4-16.5c32.6-3.9,100.6,64.8,97.2,98.2l-1.5,13l-4.9-11.8
		c-11.8-28.7-17.5-38.9-33-56.6c-9.1-10.6-22-21.2-28.5-24c-10.6-4.7-12.5-4.7-17.5,2.4c-13.7,19.3,13.3,68.8,51.6,93.5
		c20.1,13.4,50.1,23.2,54.7,18.5c3.4-3.5-8.4-41.3-16.3-53.4c-5.7-8.3-27.7-77-25.4-79c3-3.5,40.2,10.6,45.2,16.9
		c3,3.9,1.5,4.7-8,2.8c-13.7-3.1-14-1.2-5.7,24.8c14.4,44,36.1,89.6,42.5,89.6c5.7,0,6.5,2,3,12.6c-1.9,5.5,3,22.8,14.8,52.7
		c9.5,24.4,15.9,45.6,14.4,46.8C1992.1-847.6,1982.6-849.9,1971.9-854.2z"/>
	<path class="st0" d="M1267.7-898.3c-3.8-4.3-3.8-7.5-0.8-10.6c5.7-5.9,16.7-0.8,15.2,7.5C1280.6-892.4,1273.8-890.8,1267.7-898.3z"
		/>
	<path class="st0" d="M3124.2-923.8c-2.7-6.7-9.5-14.5-14.8-17.7c-5.3-3.1-7.6-5.5-4.9-5.9c8.4,0,4.9-12.6-20.1-69.6
		c-25.4-57.8-29.2-73.1-18.6-77.4c8.7-3.5,33.4,4.3,44,13.8c7.6,7.1,7.6,7.9,1.1,5.5c-17.5-6.7-24.7-6.7-27-0.8
		c-2.7,7.5,47.1,124.6,53.9,127.3c2.3,0.8,4.6,5.5,4.6,10.2c0,4.7,1.1,12.6,2.7,17.7c2.3,7.5,1.5,8.6-6.8,8.6
		C3131.4-912,3127.6-915.2,3124.2-923.8z"/>
	<path class="st0" d="M1237.3-950.9c-18.6-7.9-24.7-16.1-9.5-13.4c13.7,2.8,12.5-3.5-10.3-54.6c-19.4-43.6-27.7-72.3-22-75.8
		c3.8-2.4,38,10.6,38,14.5c0,1.6-2.3,3.1-5.3,3.1c-12.9,0-10.3,11.4,15.9,70.7c12.5,28.7,19.7,49.5,19.7,57.4
		C1263.9-941.9,1258.2-942.3,1237.3-950.9z"/>
	<path class="st0" d="M1385.4-947.8c-60.7-12.2-132.9-83.3-132.9-130.9c0-29.5,26.2-25.5,69.5,11.4c12.1,10.2,22.8,17.7,23.9,16.9
		c2.3-2.8-16.3-55.8-27.3-78.6c-17.5-35.8-47.5-62.1-70.6-62.1c-4.6,0-13.7,2.8-19.7,5.9c-14.4,7.9-22,1.6-11.8-9.8
		c14.8-16.9,61.5-2,93.8,30.6c15.9,15.7,39.1,59.7,52.8,99.8c8.7,25.9,8.7,26.7,1.9,31.8c-6.8,5.1-6.8,5.9-1.1,14.9
		c7.2,10.2,8.7,35,2.7,35c-2.3,0-4.9-3.1-6.5-6.7c-10.6-33-43.7-77.8-66.1-89.6c-9.1-5.1-11.4-5.1-16.3,0.4
		c-8.4,8.6-7.6,18.9,3.8,42.4c23.2,48.3,56.9,69.2,118.4,72.7c21.3,1.2,40.6,2,42.5,1.2c6.5-2.4,4.2-9.8-12.9-47.2
		c-20.5-43.6-29.6-69.2-26.6-77.4c6.1-15.7,40.2-1.6,65.7,27.1c15.2,16.5,20.1,13.8,13.7-8.3c-3-10.2-4.2-20-2.7-21.6
		c3.8-3.9,42.9,12.6,40.2,16.9c-0.8,1.6-4.2,2.4-7.2,1.2c-15.2-6.3-6.8,26.3,22.8,90c8,16.5,13.3,31.4,11.8,33
		c-6.5,7.1-21.3-8.3-34.2-35.4c-28.5-58.9-79.7-110-88.1-87.2c-1.5,3.1,8.4,28.3,20.9,55.4c22,46,31.1,72.3,25.4,72.3
		c-1.1,0-8.7-2.8-17.1-6.3c-14-5.5-15.9-5.5-23.9,0C1421.1-943.1,1411.6-942.7,1385.4-947.8z"/>
	<path class="st0" d="M1615.4-953.7c-38.7-21.2-73.3-69.9-77.1-109.6c-2.3-24.4,4.6-37.3,19.7-37.3c23.5,0,85.4,51.1,85.4,70.3
		c0,11-5.3,10.2-10.6-1.2c-6.1-14.1-30.8-41.3-42.9-47.9c-14.8-7.9-21.3-7.1-28.1,3.9c-11,17.3,3.8,60.5,31.9,93.5
		c18.6,22,39.5,31,49,21.6c5.3-5.5,4.6-7.5-7.6-20c-9.1-9.4-18.2-14.5-29.2-16.5c-17.1-2.8-21.3-9.4-6.1-9.4
		c20.5,0,61.1,28.7,67.6,47.5C1673.2-941.1,1643.9-938.3,1615.4-953.7z"/>
	<path class="st0" d="M2029.3-953.7c-39.1-21.2-73.7-71.1-77.4-112c-1.9-22,5.3-35,20.1-35c23.5,0,78.2,44.4,83.5,68
		c3.8,14.9-2.7,13.4-11-3.1c-9.5-18.1-36.8-44-50.1-47.5c-15.2-3.9-25.4,9.8-22,29.5c6.8,38.5,39.5,86.1,64.5,94.7
		c29.2,10.2,29.2-16.5-0.4-31.4c-8.7-4.3-19.4-7.9-23.9-7.9c-4.6,0-8.4-1.6-8.4-3.9c0-11.4,40.6,2.8,60,21.2
		c13.7,12.6,20.5,27.5,14.8,33.4C2071.8-940.3,2049-943.1,2029.3-953.7z"/>
	<path class="st0" d="M2520.5-955.2c-39.1-22-71.4-69.6-75.2-110.4c-1.9-22,5.3-35,20.1-35c22.8,0,77.8,43.6,83.5,65.6
		c3.8,16.1-0.4,14.5-12.5-3.9c-14.8-21.6-35.7-41.3-49-44.4c-14.4-3.9-24.3,9.4-21.3,29.1c7.2,52.3,63.8,114.7,84.3,93.5
		c5.7-6.3,4.9-7.9-8-20c-9.1-8.6-19.7-14.5-29.6-16.1c-16.7-2.8-20.9-9.4-5.7-9.4c13.3,0,43.3,16.5,56.2,30.6
		C2590-947,2560.4-932.8,2520.5-955.2z"/>
	<path class="st0" d="M2596.4-956.4c-17.5-10.6-19.4-13-12.1-13.8c5.3-0.8,8.4-3.9,8.4-9c0-8.6-11.4-44-27-84.1
		c-6.1-15.3-9.5-28.7-7.6-30.6c6.5-6.7,18.6,5.1,24.7,24.8c11.8,36.9,25.1,62.1,43.3,82.9c16.3,18.1,20.5,20.8,38,23.2
		c27.3,3.5,30-0.4,23.5-34.6c-2.7-14.5-10.3-41.7-17.1-60.5c-6.8-19.3-10.6-34.6-8.7-34.6c12.5,0,60.7,32.6,84.7,57
		c26.6,27.1,54.7,75.4,49.4,84.5c-2.7,4.3-47.1,5.1-53.5,0.8c-4.2-2.8-16.7-25.5-16.7-30.3c0-1.6,4.6,1.2,9.9,5.5
		c6.5,5.1,15.6,8.3,24.7,8.3c12.5,0,14.8-1.2,14.8-7.9c0-13.4-13.7-37.3-32.3-56.6c-18.2-18.5-50.1-40.5-53.5-36.5
		c-1.1,1.2,3,18.1,9.5,37.3c11.8,35.4,15.9,76.2,8,81.3c-1.9,1.2-12.5,3.1-23.2,3.9c-16.7,1.6-21.6,0.4-35.7-9.8
		c-8.7-6.3-17.1-14.1-18.2-17.7c-1.5-3.1-4.9-5.9-8-5.9c-4.9,0-5.3,3.5-3.4,17.7c1.1,9.8,1.5,17.7,0.8,17.3
		C2618.1-943.8,2607.8-949.3,2596.4-956.4z"/>
	<path class="st0" d="M2896.4-949.7c-33-9-60.4-25.1-85.4-49.1c-33.4-32.6-55-77.8-43.7-91.9c10.6-13.4,33.4-4.7,69.5,26.7
		c9.9,8.6,19,14.5,20.1,13.4c1.5-1.2-0.8-10.2-4.2-20c-8.7-23.2-5.7-26.7,15.2-19.6c19.7,7.1,31.9,18.9,17.1,16.5
		c-8.4-1.2-9.5,0-8.4,10.6c0.8,6.7,3.8,15.7,6.8,20.4c6.8,11.4,6.8,16.9-0.4,16.9c-7.2,0-7.2,0.8,0.8,24c4.9,14.1,5.7,20,2.3,23.6
		c-3,3.1-7.6-3.5-17.8-25.1c-20.5-44.4-62.6-85.3-77.8-75.4c-12.1,7.5,1.9,46.8,26.6,74.7c28.9,32.2,71,48.3,114.7,43.6
		c23.9-2.8,25.4-3.5,25.4-12.6c0-9.8-19-60.9-37.2-99c-5.3-11-8.7-21.2-7.6-22.4c5.7-6.3,21.6,9,32.6,31.4
		c13.7,27.1,50.5,71.1,74.4,89.2c27,20,28.1,13,4.2-32.6c-22-43.2-37.2-84.9-31.9-88.4c5.3-3.1,35.7,8.6,41.8,16.5
		c4.2,5.1,3.4,5.5-5.3,3.5c-15.2-3.9-13.7,3.5,14,60.1c23.5,47.9,26.6,55.8,25.4,66.8c-1.5,15.3-41.4-5.5-75.2-39.7
		c-22-22-24.3-19.6-12.1,12.6c10.6,29.1,8.4,33.4-13.3,25.1c-15.9-6.3-17.5-6.3-24.3,0C2934.3-942.3,2924.1-941.9,2896.4-949.7z"/>
	<path class="st0" d="M3215.3-952.1c-23.2-12.2-57.3-47.9-68.3-71.9c-11.8-26.3-14.8-60.9-5.7-70.3c5.3-5.1,10.3-6.3,20.5-4.3
		c26.2,5.1,71.4,42.4,78.2,64.8c3.4,11-1.5,15.7-7.2,6.3c-32.6-57-78.2-76.6-78.2-34.2c0,22.8,23.9,71.1,44,88.8
		c21.6,19.3,43.3,22.4,43.3,6.7c0-14.1-26.6-32.2-47.8-32.2c-5.3,0-8.4-1.6-7.2-3.9c11-18.5,81.2,26.7,77.1,49.9
		C3262-941.5,3236.1-941.5,3215.3-952.1z"/>
	<path class="st0" d="M3319.7-946.2c-21.3-5.5-43.7-34.2-43.7-55.8c0-7.1,3.4-19.3,7.6-27.9c10.3-20.8,9.5-32.2-2.3-44.8
		c-12.5-12.6-30-13.4-42.1-2c-7.2,7.5-8.7,7.9-11,2.4c-3.8-11,0-19.6,11-23.6c14.4-4.7,36.4,5.5,53.5,25.1
		c18.6,20.8,20.1,33.8,8,62.1c-11.4,25.9-10.3,36.2,3.8,46c11.8,7.9,26.6,5.9,26.2-3.5c-0.4-3.5,0.8-6.7,2.3-6.7
		c4.2,0,19,21.2,19,27.1C3351.9-943.4,3333.7-942.7,3319.7-946.2z"/>
	<path class="st0" d="M1707.3-1173.7c-12.1-2.8-30.4-9.8-41-15.3c-39.5-20.8-70.2-67.2-57.7-87.6c4.2-6.3,25.4-12.6,43.3-12.6
		c7.6,0,14.8-1.6,15.9-3.5c7.2-11.8-49.4-94.7-57.7-84.9c-1.9,2.4-7.2,17.3-11.8,33.4c-35.7,123.4-49,145.8-99.1,165.4
		c-53.2,20.8-108.6-5.9-129.1-62.5c-7.2-18.9-8-28.3-6.8-61.7c1.5-34.2,3-42.4,12.5-60.5c22.4-42.4,59.6-64.1,113.9-66.4
		c33.8-1.6,51.3,2.4,91.5,19.3c11,4.7,12.9,3.9,23.9-5.5c24.7-21.2,64.2-23.2,99.1-4.7c36.8,19.3,68.3,69.9,68.3,109.2
		c0,31-19,46-58.1,46h-24.3l-4.6,15.7c-5.7,20.4-14.8,20.8-14,1.2l0.4-14.9l-17.8-1.2c-14.4-0.8-18.6,0.4-23.2,7.5
		c-11.4,16.5,7.6,44.8,41,60.9c32.3,15.7,39.9,11,36.8-22.4c-0.8-10.6-0.8-19.3,0-19.3c5.3,0,35.3,12.6,40.2,16.9
		c4.9,3.9,4.2,5.1-5.3,6.7c-11.8,2.4-11.8,3.1-6.8,34.6C1739.2-1165.5,1738.8-1165.5,1707.3-1173.7z M1493.6-1190.6
		c30.4-14.1,52-53.8,75.9-138.3c20.5-71.5,20.1-67.6,3-75.4c-55.4-25.1-111.6-16.1-154.5,24.8c-25.1,24-37.2,53-39.5,93.5
		c-1.9,35,3.8,57.4,19,77.8C1415.8-1184.7,1462.5-1175.7,1493.6-1190.6z M1744.5-1302.6c12.5-14.5,12.1-37.7-0.8-64.4
		c-19-39.3-61.5-64.4-93.8-55.4c-14,3.9-33,20-33,28.3c0,2,10.3,15.3,23.2,29.1c12.5,14.1,28.5,36.9,34.9,51.1l12.1,25.5l24.3-1.6
		C1732-1291.6,1736.9-1293.2,1744.5-1302.6z"/>
	<path class="st0" d="M2452.2-1189.8c-19-9-20.1-10.2-12.1-13.4c4.6-2,8.4-5.9,8.4-9.4c0-8.3-19-58.2-24.3-63.3
		c-2.3-2.4-14-7.1-25.8-10.6c-63-20-129.1-99-114.7-137.9c3-7.9,21.3-8.3,35.3-0.8c30.8,16.5,76.3,69.9,76.3,90
		c0,16.5-4.9,12.6-16.7-12.6c-5.7-12.6-19.4-32.2-30-43.2c-28.1-29.5-45.9-31.4-45.2-5.1c0.8,37.7,42.1,82.5,89.2,97.1
		c24.3,7.5,26.6,4.7,17.5-18.9c-4.6-11.4-11-28.3-14.8-38.1c-3.4-9.8-9.9-25.5-14-35.4c-4.2-9.8-8.7-22.4-10.3-28.3
		c-3-13.8,1.1-14.1,27.7-2.8c19.7,8.6,26.6,17.3,10.3,13c-4.9-1.2-9.9-0.8-11,1.2s6.8,27.5,18.2,56.6c15.9,42,21.6,53,28.1,53.8
		c8.4,1.6,9.9,7.1,4.6,16.1c-1.9,3.1,2.7,20.4,13.3,47.9c16.3,41.7,19.7,55,14,54.2C2474.2-1179.6,2463.6-1184.3,2452.2-1189.8z"/>
	<path class="st0" d="M1901.7-1281.8c-27.7-5.5-71.8-31-95.7-55.4c-25.1-25.1-42.1-58.5-40.2-78.6c1.1-11.8,2.3-13,14.4-14.1
		c13.3-1.2,26.2,6.3,62.3,36.2c7.6,6.3,14.8,10.6,15.9,9.4c0.8-1.2-1.9-10.6-6.1-20.8c-4.2-10.6-6.5-20.4-4.6-22.4
		c4.2-4.3,36.8,7.5,43.3,15.3c4.2,5.5,3.8,6.3-5.3,3.5c-13.3-3.1-13.7,3.5-3,28.3c7.6,17.3,7.6,17.3,0,19.3
		c-9.1,2.4-9.5,4.7-2.3,14.9c7.2,11.4,10.3,26.7,6.1,33.4c-4.2,7.1-3,8.6-20.1-27.9c-16.3-35-52.8-74.3-68.7-74.3
		c-9.1,0-9.9,1.2-9.9,16.9c0,21.2,13.7,44.8,40.6,69.6c22.4,20.8,47.8,31.4,85.8,35c20.5,1.6,27.3,3.9,27.3,8.3
		C1941.6-1278.2,1926-1276.7,1901.7-1281.8z"/>
	<path class="st0" d="M2038.8-1283.7c-60-16.5-119.2-70.7-129.5-118.3c-8.7-39.3,25.1-37.7,69.5,2.8c9.9,9,19,16.1,19.7,14.9
		c0.8-0.8-1.1-10.6-4.6-22c-3.4-11-5.3-21.6-3.8-22.8c3-3.1,33,8.3,42.9,16.5c6.8,5.9,6.8,5.9-3,3.9c-14.4-3.1-15.9,2.8-7.2,23.6
		c9.5,22,9.9,25.1,2.3,25.1c-7.2,0-7.2,6.7,0,19.6c6.1,10.6,7.6,31.4,2.7,31.4c-1.9,0-9.5-13-17.1-28.3
		c-23.2-47.9-60-86.1-75.2-77.4c-24.3,13.4,15.6,81.7,61.1,105.7c19.4,10.2,54.3,17.3,66.8,13.8c6.1-1.6,15.6-2.8,20.9-2.4
		c7.6,0.8,10.6-1.2,12.1-7.5c2.7-10.2-9.5-60.9-22.4-95.1c-4.9-13.4-9.1-25.9-9.1-27.5c0-4.7,36.1,14.9,61.5,33.4
		c12.1,8.6,30,25.5,39.5,37.7c19.4,23.6,40.6,67.2,36.1,72.3c-1.9,1.6-14.8,2.8-29.2,2c-25.8-1.2-25.8-1.2-34.5-16.9
		c-9.9-18.5-8.7-21.2,4.9-10.2c11.8,9.4,34.9,11,38,2.4c3.4-9-17.5-44.4-38.3-64.1c-19.7-18.9-45.6-35.4-49-31.8
		c-1.1,1.2,1.5,11.8,5.7,23.6c17.1,45.2,23.9,90,14.8,95.9C2106.3-1278.2,2058.1-1278.2,2038.8-1283.7z"/>
	<path class="st0" d="M2256.7-1287.3c-38.3-20.8-69.5-62.1-77.8-103c-11.4-54.2,30.8-58.9,80.1-9c17.5,17.7,22.4,25.1,22,33.8
		c0,10.6-0.4,10.6-4.6,3.9c-27.7-45.6-59.2-68-74-52.7c-11.4,11.8,0.4,56.6,23.5,89.6c14,20.4,40.2,37.3,51.6,33.4
		c22.8-7.5-9.9-41.3-40.2-41.3c-4.9,0-9.1-1.6-9.1-3.9c0-7.1,20.1-4.3,40.2,5.5c20.9,10.2,41,33,38.7,44.4
		C2305.3-1274.7,2279.1-1275.1,2256.7-1287.3z"/>
	<path class="st0" d="M2476.9-1290.4c-16.3-10.6-17.8-12.6-10.3-13.8c4.6-0.8,8.4-3.5,8.4-6.7c0-5.5-11.8-42.4-28.5-87.6
		c-5.7-15.7-9.5-29.5-8.4-30.6c1.1-1.2,5.7-1.2,9.9,0.4c5.3,1.6,11.4,12.6,19.7,36.2c21.6,58.9,47.1,91.6,76.7,97.1
		c13.3,2.4,17.8,5.5,17.8,12.6c0,9.8-17.5,5.9-35.7-8.3c-9.5-7.9-17.5-15.7-17.5-17.3c0-2-2.7-4.7-6.1-5.9c-5.3-2-5.7,0.4-3.4,17.3
		c1.5,10.6,1.1,19.6-0.8,19.3C2497.4-1277.8,2487.5-1283.7,2476.9-1290.4z"/>
	<path class="st0" d="M2659.1-1283c-61.9-16.9-114.7-62.5-130.6-113.6c-14.4-45.6,16.7-46.4,69.1-1.6c10.3,8.3,19,14.5,20.1,13.8
		c0.8-1.2-1.1-8.3-4.2-16.1c-5.3-13.8-7.6-30.3-3.8-30.3c6.8,0,43.7,16.9,43.7,20c0,2.4-3.4,2.8-7.6,1.6
		c-11.4-3.9-13.3,6.7-4.2,27.9c9.5,22,9.5,21.2,2.3,21.2c-7.2,0-6.8,1.6,0.4,23.2c5.7,17.3,4.9,27.9-1.9,27.9
		c-2.3,0-5.3-4.7-6.5-10.6c-7.2-29.1-50.9-87.2-71.8-95.5c-16.3-6.3-22.4,14.5-11.8,41.3c7.2,17.7,34.2,47.5,53.9,59.3
		c20.9,13,35.7,17.3,68,20.4c20.1,2,26.6,4.3,26.6,8.6C2700.9-1277.4,2683.4-1276.7,2659.1-1283z"/>
	<path class="st0" d="M1022.4-1554.5c-3.4-8.6,8.4-20.8,14-14.9c5.7,5.9,2.7,18.5-5.3,20C1027.8-1548.6,1023.6-1550.9,1022.4-1554.5
		z"/>
	<path class="st0" d="M1147.7-1554.1c-3.4-9.4,1.5-18.9,8.7-17.3c9.1,1.6,9.1,20.4,0,22C1153-1548.6,1148.9-1550.9,1147.7-1554.1z"
		/>
	<path class="st0" d="M2016-1553.7c-3-3.9-2.7-7.5,1.5-13c4.9-7.1,5.7-7.1,11.8-0.8c5.3,5.5,5.7,7.9,1.5,12.6
		C2025.1-1547.4,2021.7-1547,2016-1553.7z"/>
	<path class="st0" d="M1236.2-1554.9c-1.5-1.6-2.7-8.6-2.7-16.1c0-12.2-0.8-13-12.5-13c-6.8,0-15.9-2.8-20.5-5.9
		c-17.5-12.6-20.9-55.8-5.7-69.9c4.9-4.7,13.7-6.3,32.3-5.9l25.8,0.4l-1.1,55.4c-1.1,46.4-2.3,55.4-6.8,56.6
		C1241.5-1552.9,1237.7-1553.3,1236.2-1554.9z M1233.5-1603.2c9.5-18.9,1.5-51.5-12.5-51.5c-12.9,0-17.8,7.5-17.8,27.1
		C1203.2-1600.8,1223.7-1584.3,1233.5-1603.2z"/>
	<path class="st0" d="M1407-1555.3c-1.5-1.2-2.7-8.3-2.7-15.7c0-12.6-0.4-13-14.8-13c-21.6,0-34.5-16.5-34.5-44.8
		c0-12.2,2.3-24,6.1-29.1c5.3-7.9,8.7-8.6,32.3-7.9l26.2,0.8v56.2c0,44-1.1,56.2-4.9,56.2C1411.6-1552.5,1408.2-1553.7,1407-1555.3z
		 M1402.5-1622.8c0-19.6-1.5-25.9-6.5-29.5c-8.7-5.5-19,0.8-23.5,14.1c-6.8,19.6,6.1,44,22,41.7
		C1401.7-1597.7,1402.5-1600.1,1402.5-1622.8z"/>
	<path class="st0" d="M2629.5-1555.3c-1.5-1.2-2.7-24.8-2.7-52.3c0-52.3,1.9-58.9,17.5-58.9c12.1,0,14,5.5,5.3,13.8
		c-6.8,6.3-7.6,12.2-7.6,53.8c0,36.2-1.1,46.4-4.9,46.4C2634-1552.5,2630.6-1553.7,2629.5-1555.3z"/>
	<path class="st0" d="M3263.5-1554.9c-4.2-4.3-3-95.5,1.1-104.1c4.9-9,26.6-10.6,26.6-2c0,3.1-2.7,6.3-5.7,7.5
		c-4.2,2-5.7,12.6-6.5,50.7c-1.1,39.7-2.3,48.3-6.8,49.5C3268.8-1552.9,3265-1553.3,3263.5-1554.9z"/>
	<path class="st0" d="M3309-1554.9c-4.2-4.3-3-95.5,1.1-104.1c2.7-4.7,8-7.5,15.2-7.5c12.5,0,14.4,4.3,5.7,11.8
		c-4.2,3.5-5.7,16.1-6.5,52.3c-1.1,39.7-2.3,47.9-6.8,49.1C3314.4-1552.9,3310.6-1553.3,3309-1554.9z"/>
	<path class="st0" d="M3440-1557.2c-3-3.1-2.3-6.7,3.4-14.1c7.2-9.8,7.2-9.8-1.1-19.3c-6.1-6.7-6.8-9-2.3-9c8.7,0,22,17.3,22,28.7
		c0,6.3-3,11.8-7.2,14.5C3445.7-1551.3,3445.7-1551.3,3440-1557.2z"/>
	<path class="st0" d="M3478.4-1555.3c-6.8-2.8-6.1-12.6,0.8-15.3c7.6-3.1,7.2-13-0.8-22c-8.4-9.8,0.8-9,10.3,0.8
		c8.4,8.6,10.3,27.1,3,34.6C3486.7-1552.1,3485.6-1552.1,3478.4-1555.3z"/>
	<path class="st0" d="M573.3-1566.7c-9.5-12.6-10.3-22.4-1.9-30.6c4.6-4.7,7.6-5.5,13.7-2c6.8,3.9,6.8,4.7,1.5,11
		c-7.6,8.6-7.6,15.7,0.4,24.8c5.3,6.3,5.3,7.1,0,7.1C584-1556.4,577.5-1561.2,573.3-1566.7z"/>
	<path class="st0" d="M611.7-1561.5c-2.3-2.8-5.7-9.8-8-15.3c-4.9-13.4,5.3-28.7,15.9-24.8c8,3.5,8.4,13.4,0.8,16.1
		c-3,1.6-5.7,5.9-5.7,9.8c0,4.3,2.7,8.6,5.7,9.8c3,1.6,5.7,3.9,5.7,5.9C626.1-1554.9,616.2-1555.7,611.7-1561.5z"/>
	<path class="st0" d="M661-1569c-22.4-25.1-20.5-80.6,3.4-93.9c11.4-5.9,39.9-5.9,47.5,0.4c8,7.1-0.4,16.9-9.9,11.8
		c-11-6.3-18.6-4.7-28.5,5.9c-8,7.9-9.5,13.4-9.5,31.4c0,18.1,1.5,23.6,9.5,31.4c10.3,10.6,14,11.8,24.7,5.9c8.4-4.7,19-1.2,19,5.9
		s-8.7,9.8-30,9.8C673.6-1560.4,667.5-1562.3,661-1569z"/>
	<path class="st0" d="M969.3-1567c-1.5-3.9-6.1-11-10.3-15.7c-6.8-7.9-6.8-9-1.1-11.4c4.9-2,6.1-7.9,6.1-29.5c0-32.6,7.6-44,27.7-42
		c15.9,1.6,19,13.8,3.8,15.7c-10.3,1.2-10.6,2-11.8,27.5c-1.1,25.5-0.8,26.3,8.7,27.5c12.1,1.6,12.9,8.3,1.1,11
		c-4.9,1.2-9.5,6.3-10.6,11.8C980.3-1560.4,972.3-1557.2,969.3-1567z"/>
	<path class="st0" d="M1620.8-1613.4c0-50.3,0.4-53,7.6-53c7.2,0,7.6,2.8,7.6,53s-0.4,53-7.6,53
		C1621.1-1560.4,1620.8-1563.1,1620.8-1613.4z"/>
	<path class="st0" d="M2717.9-1613.4v-53h20.9c37.2,0,55,17.3,55,52.7c0,37.3-16.3,53.4-53.9,53.4h-22V-1613.4z M2766.5-1583.9
		c6.5-6.7,8.4-12.6,8.4-29.5c0-26.3-8.4-37.3-28.5-37.3h-13.3v34.6c0,19.3,1.1,36.2,2.7,37.3
		C2740.7-1573.3,2758.6-1576.5,2766.5-1583.9z"/>
	<path class="st0" d="M762.8-1583.6c-3-2-10.3-2.8-15.9-1.6l-10.6,2.4v-42c0-38.9,0.4-41.7,7.6-41.7c6.8,0,7.6,2.8,7.6,30.6
		c0,29.5,0.4,31,9.5,35.4c5.3,2.8,12.5,4.7,15.6,4.7c7.6,0,5.3,13.4-2.3,14.5C771.1-1580.4,765.8-1581.6,762.8-1583.6z"/>
	<path class="st0" d="M804.2-1591.4c-9.5-9.8-11-14.5-11-33.4c0-31,9.9-42.4,37.6-42.4c20.9,0.4,30,4.7,25.4,12.2
		c-1.5,2.4-9.1,3.1-19,2c-12.1-2-17.5-0.8-22.4,4.3c-12.5,13-8,17.3,19,18.5c27.7,1.2,31.1,4.3,26.2,25.1
		C853.5-1578.4,823.9-1571.4,804.2-1591.4z M836.4-1596.9c6.5-5.1,7.6-19.3,1.5-18.9c-1.9,0.4-9.1,0.4-16.3,0.4
		c-15.6,0-17.8,7.9-4.9,17.3C826.9-1590.6,827.7-1590.6,836.4-1596.9z"/>
	<path class="st0" d="M889.2-1583.9c-4.9-2-8.7-6.7-8.7-9.8c0-5.5,3-5.9,17.5-3.5c18.2,2.8,24.3-0.8,24.3-14.5
		c0-4.7-4.6-7.1-15.6-8.6c-8.4-1.2-18.6-5.1-22.8-9c-8-7.5-9.5-25.1-2.7-32.2c5.7-5.9,27.3-6.3,37.2-0.8c4.9,2.8,8,2.8,9.5,0
		c3.4-5.9,17.1-4.7,17.1,1.6c0,3.1-1.5,7.1-3.8,8.3c-1.9,1.2-3.8,14.5-3.8,29.9c0,22-1.5,28.7-7.6,35
		C921.8-1579.6,904-1578.1,889.2-1583.9z M920.7-1637c3.4-9-6.1-18.1-17.1-16.9c-12.9,1.6-15.2,13.8-3.4,18.5
		C913.1-1629.9,918.4-1630.3,920.7-1637z"/>
	<path class="st0" d="M1284-1583.9c-4.9-2-8.7-6.7-8.7-9.8c0-5.1,3-5.9,16.7-3.9c14.8,2.4,17.5,1.6,21.3-5.5
		c5.3-11,1.9-16.1-11-16.1c-15.2,0-30.8-13.8-30.8-27.5c0-16.5,6.8-19.6,38-18.5c26.2,1.2,36.8,5.9,27,12.6
		c-2.3,1.2-4.2,13-4.2,25.5c0,13-1.9,27.5-4.2,33C1322-1580.8,1302.6-1576.1,1284-1583.9z M1314.4-1635.8c3-9-4.9-18.9-14.8-18.9
		c-12.1,0-16.3,11-7.2,18.1C1301.5-1629.9,1312.1-1629.5,1314.4-1635.8z"/>
	<path class="st0" d="M1504.2-1583.9c-26.2-11-25.8-73.9,0-80.9c16.3-3.9,42.5,0,42.5,6.3c0,4.7-3.8,5.5-16.3,4.7
		c-17.5-1.6-27.3,3.9-27.3,15.3c0,5.9,3.8,7.5,23.9,8.3l23.5,1.2l1.1,16.1c1.1,13.8-0.4,17.7-9.1,24.8
		C1531.9-1579.6,1518.3-1578.1,1504.2-1583.9z M1531.2-1596.9c3.8-2.8,6.5-8.6,5.7-12.6c-1.5-6.7-8.4-8.3-30-6.3
		c-6.8,0.8-3.8,11.8,4.6,17.7C1521.7-1590.6,1522.4-1590.6,1531.2-1596.9z"/>
	<path class="st0" d="M1854.2-1583.9c-14.4-5.9-19-15.7-19-42c0-22,1.1-26.3,9.1-33c11.8-9.8,51.6-9.4,51.6,0.4
		c0,4.7-3.8,5.5-16.3,4.7c-17.5-1.6-27.3,3.9-27.3,15.3c0,5.9,3.8,7.5,23.9,8.3l23.5,1.2l1.1,14.5
		C1903.2-1588.7,1879.3-1572.9,1854.2-1583.9z M1880.4-1598.1c6.5-6.3,8.4-16.9,3.4-17.7c-30.4-3.1-39.9,3.5-24.3,16.9
		C1870.2-1590.2,1872.8-1590.2,1880.4-1598.1z"/>
	<path class="st0" d="M2071.4-1584.3c-22.4-13.8-23.2-70.7-0.8-79.8c13.3-5.1,36.1-2.4,43.3,5.1c15.9,16.5,14.8,57.4-2.3,71.1
		C2101.4-1579.6,2082.4-1577.7,2071.4-1584.3z M2105.9-1622.8c1.1-23.2-3.4-31.8-16.7-31.8c-17.1,0-23.5,40.1-8.7,55.4
		c6.8,7.1,8.7,7.5,15.9,2.4C2102.9-1601.2,2105.2-1607.1,2105.9-1622.8z"/>
	<path class="st0" d="M2215.7-1582.4c-1.1-1.2-7.6-2.4-14.8-2.8l-12.5-0.8l-1.1-50.7c-0.8-34.2,0.4-52.3,3.4-55.8
		c6.5-7.9,14.8,0.4,14.8,14.5c0,10.2,1.1,11.4,12.9,11.4c35.3,0,53.9,55.8,26.2,78.6C2235-1580.4,2220.6-1577.3,2215.7-1582.4z
		 M2235.8-1603.2c5.7-11.4,4.6-34.2-2.3-41.3c-3-3.5-11-6.3-17.1-6.3h-11v24.8c0,13.8,1.1,26.3,2.7,27.5
		C2213.4-1592.6,2232-1595.7,2235.8-1603.2z"/>
	<path class="st0" d="M2282.1-1586.3c-6.8-5.1-8-7.5-4.2-11.8c3.4-3.9,5.7-4.3,9.5-1.2c2.7,2.4,9.5,3.5,15.6,2.8
		c8.4-0.8,11-3.5,11.8-11.8c1.1-9.4,0-11-8.7-11c-14,0-31.1-10.2-34.2-20c-1.5-4.7-0.4-12.6,2.3-17.7c4.6-8.6,6.5-9.4,34.5-8.3
		c25.1,0.8,29.6,2,29.6,7.5c0,3.5-1.5,7.9-3.8,9c-1.9,1.2-3.8,14.5-3.8,29.5c0,23.6-1.1,27.9-8.4,33
		C2311.3-1578.4,2293.1-1578.4,2282.1-1586.3z M2314.8-1640.5c1.5-8.3-4.9-14.1-16.7-14.1c-14,0-14.8,15.3-1.5,20.8
		C2306-1629.9,2313.6-1632.7,2314.8-1640.5z"/>
	<path class="st0" d="M2380.8-1586.3c-4.6-3.1-8.4-3.9-8.4-2c0,2.4-3.4,4.3-7.6,4.3c-7.2,0-7.6-2.8-7.6-41.3s0.4-41.3,7.6-41.3
		c6.8,0,7.6,2.8,7.6,29.1c0,25.9,1.1,30.3,8.4,35.4c4.6,3.5,11.4,6.3,15.2,6.3c4.2,0,6.8,3.1,6.8,7.9
		C2402.8-1578.4,2393-1577.7,2380.8-1586.3z"/>
	<path class="st0" d="M2426.7-1583.9c-4.9-2-8.7-6.3-8.7-9.8c0-5.1,3-5.9,18.6-3.5c16.7,2.4,19,1.6,21.3-5.9
		c3.4-11.4,0.4-14.5-15.6-17.3c-7.6-1.2-17.1-5.5-20.9-9c-8-7.5-9.5-25.1-2.7-32.2c5.7-5.9,27.3-6.3,37.2-0.8c4.9,2.8,8,2.8,9.5,0
		c3.4-5.9,17.1-4.7,17.1,1.6c0,3.1-1.5,7.1-3.8,8.3c-1.9,1.2-3.8,14.5-3.8,29.1c0,15.3-1.9,29.5-4.9,33.4
		C2464.3-1582.4,2438.9-1578.4,2426.7-1583.9z M2458.3-1637c3.4-8.3-5.3-17.7-16.3-17.7c-11.8,0-15.9,11.4-6.8,18.1
		C2444.6-1629.5,2455.6-1629.5,2458.3-1637z"/>
	<path class="st0" d="M2553.5-1588.3c-19-14.9-20.9-51.9-4.2-70.7c8.4-9.4,49-11,52-2c3,8.6-0.8,10.2-17.8,7.9
		c-12.1-2-17.8-0.8-22.4,4.3c-12.9,13-8.4,17.7,17.8,17.7c27.3,0,31.1,4.3,24.7,29.9C2597.6-1579.6,2572.2-1572.9,2553.5-1588.3z
		 M2585.4-1600.1c12.9-13.4,2.7-18.9-27.7-15.7c-5.3,0.8-3,8.3,4.6,16.1C2571.8-1589.8,2575.6-1589.8,2585.4-1600.1z"/>
	<path class="st0" d="M2827.3-1586.3c-20.1-11-23.5-55.4-5.7-72.3c6.5-6.7,12.5-7.9,29.2-7.1c15.6,0.8,20.9,2.8,20.9,7.1
		c0,4.7-3.8,5.5-17.8,4.7c-14.4-1.2-18.2,0-21.6,6.7c-7.2,13.8-4.9,15.7,19.7,16.9l23.5,1.2l1.1,16.1c1.1,13.8-0.4,17.7-9.1,24.8
		C2855.7-1578.8,2841.7-1578.1,2827.3-1586.3z M2856.1-1596.9c8.4-6.3,6.5-19.6-2.7-21.6c-11-2.4-25.4,2.8-25.4,9
		c0,5.1,13.7,17.7,19,17.7C2848.5-1591.8,2852.3-1594.2,2856.1-1596.9z"/>
	<path class="st0" d="M2906.2-1588.3c-17.5-14.1-12.1-29.9,15.9-44.4c15.9-8.3,17.1-22,1.9-22c-6.1,0-13.3,1.6-16.3,3.9
		c-3.4,2-7.2,2-10.3-0.8c-9.1-7.9,1.9-14.9,23.9-14.9c17.5,0,21.3,1.2,26.6,9.8c9.9,15.3,4.2,28.7-15.6,37.7
		c-12.5,5.5-17.1,10.2-17.1,16.1c0,7.1,1.5,7.9,15.2,5.9c17.1-2.4,23.9,3.5,13.3,11.8C2933.6-1577.7,2918-1578.8,2906.2-1588.3z"/>
	<path class="st0" d="M2980.6-1586.3c-6.8-5.1-8-7.5-4.2-11.8c3.4-3.9,5.7-4.3,9.5-1.2c2.7,2.4,9.5,3.5,15.6,2.8
		c8.4-0.8,11-3.5,11.8-11.8c1.1-9.4,0-11-8.7-11c-14,0-31.1-10.2-34.2-20c-1.5-4.7-0.4-12.6,2.3-17.7c4.6-8.6,6.5-9.4,34.5-8.3
		c25.1,0.8,29.6,2,29.6,7.5c0,3.5-1.5,7.9-3.8,9c-1.9,1.2-3.8,13.8-3.8,27.9c0,20-1.5,26.7-7.6,33
		C3012.5-1578.4,2992.4-1577.7,2980.6-1586.3z M3013.3-1640.5c1.5-8.3-4.9-14.1-16.7-14.1c-14,0-14.8,15.3-1.5,20.8
		C3004.6-1629.9,3012.2-1632.7,3013.3-1640.5z"/>
	<path class="st0" d="M3079.7-1585.9c-4.9-3.5-8.7-4.3-8.7-2.4c0,2.4-3.4,4.3-7.6,4.3c-7.2,0-7.6-2.8-7.6-41.3s0.4-41.3,7.6-41.3
		c6.8,0,7.6,2.8,7.6,29.1c0,25.9,1.1,30.3,8.4,35.4c4.6,3.5,11.8,6.3,15.6,6.3c4.6,0,6.5,2.4,5.7,6.7
		C3099.1-1579.6,3090-1578.4,3079.7-1585.9z"/>
	<path class="st0" d="M3141.2-1583.9c-1.5-2.4-7.6-3.1-15.6-1.6l-13.3,2.4l1.1-40.5c1.1-37.7,1.5-40.9,8.7-40.9
		c6.8,0,7.6,3.1,8.7,29.5c1.1,31.8,5.3,39.3,22.8,39.3c6.5,0,8.7,2,7.6,7.1C3159.8-1581.2,3145-1577.3,3141.2-1583.9z"/>
	<path class="st0" d="M3189.8-1583.9c-13.7-5.9-17.8-19.3-16.7-53.8c0.4-18.1,12.1-28.7,30.4-28.7c8.4,0,17.8,1.2,21.3,2.4
		c9.5,3.9,17.1,22.8,17.1,42.8C3241.8-1590.2,3217.2-1572.6,3189.8-1583.9z M3214.1-1594.9c12.1-7.9,14.4-41.3,4.2-54.6
		c-6.1-7.9-21.3-5.9-25.8,2.4c-6.5,13-4.6,38.9,3.8,47.5C3204.6-1591,3207.3-1590.2,3214.1-1594.9z"/>
	<path class="st0" d="M3366-1584.3c-17.8-10.6-23.2-47.5-10.3-69.2c6.8-11.8,9.1-13,25.8-13c27,0,36.1,11.4,36.1,44
		c0,21.2-1.1,25.1-10.3,33.4C3396.4-1579.6,3377.8-1577.3,3366-1584.3z M3392.9-1598.1c6.8-4.7,8.4-9.8,8.4-26.7
		c0-11-1.9-22.4-4.6-25.1c-6.8-7.1-21.3-5.5-25.8,2.8c-6.1,11.8-4.6,42,2.3,49.1C3380.4-1590.2,3382.3-1590.2,3392.9-1598.1z"/>
	<path class="st0" d="M1024.7-1625.2c0-38.5,0.4-41.3,7.6-41.3c7.2,0,7.6,2.8,7.6,41.3s-0.4,41.3-7.6,41.3
		C1025.1-1583.9,1024.7-1586.7,1024.7-1625.2z"/>
	<path class="st0" d="M1058.9-1594.6c1.9-6.3,8-24.8,14-41.3c9.5-27.9,11.4-30.6,20.9-30.6c9.9,0,11,2,22,38.9
		c6.1,21.2,11.4,39.7,11.4,41.3c0,1.2-3.4,2.4-7.2,2.4c-6.1,0-9.5-5.9-16.7-30.3l-8.7-30.6l-6.8,19.6c-3.8,11-8.7,24.4-10.6,30.6
		c-2.7,7.5-6.5,10.6-12.9,10.6C1056.6-1583.9,1055.9-1585.1,1058.9-1594.6z"/>
	<path class="st0" d="M1147-1624c1.1-38.5,1.5-40.5,9.9-41.7c8.4-1.2,8.4-0.8,8.4,40.1v41.7h-9.5h-9.9L1147-1624z"/>
	<path class="st0" d="M1662.5-1625.2v-41.3h9.5c9.5,0,9.5,0.4,9.5,30.6c0,32.6,3.4,40.1,17.8,40.1c12.1,0,17.1-15.3,15.6-45.2
		c-1.1-22-0.4-23.6,7.6-24.8c8-1.2,8.4-0.4,8.4,33.8c0,28.7-1.1,36.2-6.8,41.3c-8,7.5-33,9-37.2,2.4c-1.5-3.1-3.4-3.1-6.5,0
		c-2.3,2.4-7.2,4.3-11,4.3C1663.3-1583.9,1662.5-1588.3,1662.5-1625.2z"/>
	<path class="st0" d="M1764.3-1589.4c-3.8-2.8-9.5-11.8-12.5-19.6c-4.9-12.2-5.3-17.3-1.5-29.1c6.1-18.9,13.3-24,33-24.4
		c18.2,0,21.6-7.9,7.2-17.7c-7.2-4.7-11.4-5.1-21.3-1.6c-10.3,3.5-13.3,3.5-15.9-0.8c-4.9-8.3,6.8-15.3,25.8-15.3
		c12.5,0,19,2.4,26.2,9.8c9.1,9.4,9.5,11.4,8.4,55.8l-1.1,46.4l-20.9,0.8C1778.7-1584.3,1768.1-1585.9,1764.3-1589.4z
		 M1798.4-1620.1c1.1-21.2,0.4-23.2-9.1-27.5c-9.1-4.3-10.6-3.9-17.5,4.7c-5.7,7.1-6.8,13.4-5.3,22.8c2.7,17.7,9.1,25.1,20.9,23.6
		C1796.5-1597.7,1797.3-1599.3,1798.4-1620.1z"/>
	<path class="st0" d="M1924.5-1625.2c0-38.5,0.4-41.3,7.6-41.3c6.8,0,7.6,2.8,7.6,27.9c0,32.2,4.2,42.8,17.1,42.8
		c12.9,0,17.1-10.6,17.1-42.8c0-25.1,0.8-27.9,7.6-27.9c7.2,0,7.6,2.8,7.6,35c0,26.7-1.5,36.5-6.1,41.3c-6.5,7.1-25.1,8.3-35.7,2.4
		c-4.9-2.8-8-2.8-9.5,0c-1.1,2-4.9,3.9-8,3.9C1925.6-1583.9,1924.5-1591.8,1924.5-1625.2z"/>
	<path class="st0" d="M2015.6-1625.6c0-39.3,0.4-41.3,7.6-40.1c4.6,0.8,8,2.4,7.6,4.3c0,1.6,0,19.6,0,40.1c0,34.6-0.4,37.3-7.6,37.3
		C2016-1583.9,2015.6-1586.7,2015.6-1625.6z"/>
</g>
</svg>
