<?xml version="1.0" encoding="utf-8"?>
<!-- Generator: Adobe Illustrator 19.0.0, SVG Export Plug-In . SVG Version: 6.00 Build 0)  -->
<svg version="1.1" id="Pagina_inicial_Escritorio" xmlns="http://www.w3.org/2000/svg" xmlns:xlink="http://www.w3.org/1999/xlink"
	 x="0px" y="0px" viewBox="-306 123 346.6 316" style="enable-background:new -306 123 346.6 316;" xml:space="preserve">
<style type="text/css">
	.st0{fill:#D1ECFB;}
	.st1{fill:#57D357;}
	.st2{fill:#103754;}
	.st3{fill:none;}
	.st4{fill:#C1E2DE;}
	.st5{fill:#0E303F;}
	.st6{fill:#FFFFFF;}
	.st7{fill:#B7C9CB;}
</style>
<title>mundo</title>
<g id="Porque_somos_tu_mejor_elección">
	<path class="st0" d="M-118,124.8c-87.1,0-158,70.9-158,158s70.9,158,158,158S40.1,370,40.1,282.9S-30.9,124.8-118,124.8z"/>
	<path class="st1" d="M31.7,325.9c-2,0-4.8,1-4.8,1.7s-2.8,1.9-3.9,2.4s-2.7,3.3-3.2,4.2s-2.7,0.7-3.5,1s-2.6,1.8-2.6,2.6
		c0,0.8-0.5,0.7-1-0.2l-1.1,1.1l-1.4,1.5c-0.8,2.4-3.3,5.5-4.2,5.7s-1,4.4-1,6.1s0.5,3.3,1.5,4.7v1.4l0.2,2.7
		c-0.2,1.6,0.4,3.2,1.6,4.3c0.5,0.3,4.3-0.7,5.8-1l2-0.8c7-11.8,12.4-24.5,16.2-37.7L31.7,325.9z"/>
	<path class="st1" d="M-229.3,329.9c-0.2,0.5,2.6,3.3,3.6,4.3c1.6,2.2,2.9,4.7,3.9,7.3c0.3,1.6,0.3,3.1,0,4.7
		c0.1,0.8,0.3,1.6,0.6,2.4c0.1,0.6-0.9,5.1-0.6,7c0.3,1.9-2.2,7.6-2,10.6c0.2,3,1.4,6.6,1.8,6.4c0.4-0.2,0.7,2.6-0.1,3
		c-0.8,0.4-1.9,2.6-1.4,2.7c0.5,0.1,0,2.4,0.1,3.3c0.1,0.9,0.9,6.9,1,8.4s2.3,5.1,2.7,6.4s0.9,3.5,1,3.9l0.3,0.8
		c0.8,0.2,1.6,0.6,2.3,1c0.5,0.3,3.9,0.1,5-0.1s0.1-1.2-0.3-1.7c-0.4-0.5-0.9-3.2-1.5-3.4c-0.6-0.2-0.8-3.6-0.3-4.4s2.5-1.9,2.7-2.6
		c0.2-0.7,0.2-3.5-0.2-4s0.1-4-0.2-5.8c-0.3-1.8,3.1-3.4,3.3-4.8c0.2-1.4,4-3,4.8-3.6c0.8-0.6,1.6-4.8,1.1-5.6
		c-0.5-0.8,1.4-1.6,2.2-1.6l2-0.6c0.2,0,1.2-1.8,1.7-2.2s1.6-4.7,2.5-5.3c0.9-1.1,1.5-2.5,1.7-4c0.4-1.3,1-2.5,1.9-3.6
		c0.5-0.7,4-2.3,4.7-2.5c0.7-0.2,1.6-5.9,1.8-8c0.4-1.9,0.8-3.7,1.4-5.5c0-0.7,1.1-1.2,1.4-1.5s1-2.8,1.6-3.4
		c0.6-0.6,2.5-3.1,2.5-3.6c0.1-1.1,0.4-2.2,0.7-3.2v-3.5c-0.6-1.7-2.5-3.9-3-3.3c-0.5,0.6-2.6-1.5-3.7-1.9c-1.5-0.4-3-0.7-4.5-0.7
		c-0.7,0-3.1-1.9-4.2-2.3c-1.5-0.3-2.9-0.6-4.3-1.1c-0.5-0.3-1.1-4.4-3.4-5.8c-2.3-1.4-6.1-4.5-6.6-5.7s-4.7-3.5-6-4.3
		c-1.3-0.8-3.3-0.9-3.5-0.6c-0.2,0.3-1.9-2.3-2.7-3c-0.8-0.7-3.4-1.2-3.5-0.7s-1.8,0.2-2.2-0.2s-1.7,0.2-2.4,0.5
		c-0.7,0.3-2.7,3.4-3.7,4.2c-1,0.8-2.2-0.7-2.8-1c-1.3,0-2.6,0.3-3.7,1c-0.7,0.5-2.2-3.4-1.8-5.2c0.4-1.8-1.6-5.3-3.2-5.5
		c-1.6-0.2-1.9-3.9-1.7-5.2c0.2-1.3-2.7-2.3-3.5-2.4c-0.8-0.1-2.6,1.8-3,2.8s-7.3-1.2-6.5-5.5c0.8-4.3,4.1-8.5,4.9-9
		s5.2-0.7,6.2-0.1c0.6,0.3,1.4,0.3,2-0.2c1.7-0.1,3.3,0,4.9,0.5c1,0.5,2.6,4.7,3.7,5.1c1.1,0.4,1.5-2.7,1.7-3.5
		c-0.1-1.1-0.4-2.3-0.8-3.3c-0.2-0.6,1.8-5.7,3.5-6.5c1.7-0.8,3.5-3.7,3.3-4.2c-0.2-0.5,1.4-0.9,1.7-1.1c0.3-0.2,0-4.3,0.6-5.2
		c1.5-1.3,3.1-2.4,4.9-3.2c1-0.5,1.7-3,1.4-3.5c-0.3-0.5,2.6-3,4.2-3.5c1.6-0.5,2.8,0.9,2.5,1l3.3-1.8c0.9-0.6,0-2.6-0.7-3.2
		c-0.7-0.6-0.2-2.7,0.6-3c0.8-0.6,1.3-1.5,1.2-2.5c-0.2-0.3,3.4,0.3,4.8-0.7c1.4-1,0.3,2.4-0.6,3.9c-0.5,0.7-0.3,1.7,0.4,2.2
		c0.3,0.2,0.6,0.3,1,0.3c0.7,0,1.3,0.4,1.5,1.1c0.1,0.3,1.5-0.5,2.4,0s1.5-1.2,1.5-2s-2.2-2.3-2.5-3.3c-0.3-2.5-0.5-4.9-0.5-7.4
		c0-1-1.5-2.8-1.9-2.5s-1.4-2.8-2.2-3.5c-0.6-0.8-0.9-1.7-0.9-2.7c0-0.5-2.5-3.2-3.2-4.4c-0.7-1.2-1.5-1-1.6-0.5s-1.8,0.7-2.6,0.6
		c-0.8-0.1-1.4-3-1.4-4s-3.3-1.2-3.9-2.2c-0.6-1-2.7-0.5-3.1-1c-0.7-0.6-1.6-1-2.6-0.9c-0.3,0.2-0.2,8.1-0.6,10.1
		c-0.4,2-2.2,4-2.8,3.9s-0.2,1.5,0.1,1.4c0.3-0.1-1.2,2.3-1.5,3.9c-0.3,1.6-1.8,0-2-1.5c-0.2-1.5-1.8-3.4-2.2-3s-1.4-0.6-1.8-0.2
		c-0.4,0.4-3.4-1.7-4.7-2.4c-1.3-0.7-1.8-4.3-2.6-4.7c-0.8-0.4-0.1-0.8-0.1-1.4s2.4-2.7,3.1-3.5c1.3-1.7,2.8-3.4,4.3-5
		c1-0.8,1.8-2.6,1.6-3c-0.2-0.4,4.4-1.8,5.7-2.2c1.3-0.4,2.3-3.9,2.5-4.9c0-1.2-0.5-2.3-1.4-3.1c-0.6-0.2,1.7-0.3,2.5,0.1
		c0.8,0.4,3.1-0.7,4.1-0.2l4.2,2.5l-0.2,2.5l-0.6,4.3c-3.6,1.5-4.7,4.1-3.4,4c1.3-0.1,7,2.5,8.6,3.6s2.2-1.7,2.6-2.6
		c0.4-1.4,0.4-2.8,0-4.2c-0.5-0.6,1.8-0.3,2.5,0.2c0.7,0.5,1.4-0.6,1.8-0.9c0.4-0.3,0.7-2.6,1-3.1c0.3-0.5-1-0.9-1.1-1.6
		s-2.6-1.7-3.4-2.2c-0.8-0.6-1-1.6-0.6-2.5c0.3-0.3-0.2-2.6-0.7-3.3s-3.1-1.4-4-1.4s-1.8-2-2.4-2.4c-1.6-0.4-3.3-0.6-4.9-0.5
		c-0.8,0.2-2.4-2.5-3.9-1.6s-3-0.9-3.6-1.4s-4.1,3.3-4,5.8s1.2,5,1.8,5.1s-0.1,2.4-0.7,3.1c-0.6,0.7-2-0.7-1.5-1.2s-1.5-3.3-2.2-4.3
		c-0.7-1-2.3-1.5-3.4-1.9l-2,2.3c0.3,1,0.4,2.1,0.2,3.1c-0.5,1.6-1.8,1.8-1.8,1.1c-0.4-0.4-0.9-0.6-1.5-0.6
		c-19.7,23.5-32,52.2-35.6,82.6c0.8,0.7,1.4,1.6,1.8,2.6c0.5,1.4,2.8,2.3,3.3,2.6c0.5,0.3,0.6-2.6,0.2-3.4s0.6-1.1,0.6-0.7
		c0,0.4,2.3,3.1,3,4.1s1.5,6.9,2.3,8.2c0.8,1.3,7.6,4,9.9,4.4c2.1,0.7,4,1.9,5.5,3.6c0.5,0.7,3.4,1,4,1.4c1,0.8,1.9,1.7,2.7,2.7
		c0.5,0.5,0.9,1.2,1.1,1.9c0,0.3,3.9,1.8,4.9,2.8c0.8,0.7,1.9,0.8,2.8,0.3c0.2-0.5,1,2,1.5,3s0.5,3,0.1,3.3s-0.8,4.2-1.5,5
		c-0.7,0.8-2,6.5-1.7,7.6c0.6,1.5,1.7,2.8,3,3.7c0.4,0.2,0.6,0.8,0.3,1.2v0.1l-0.4,0.3c-0.6,0-0.3,5.6,1.1,6.4
		C-230.5,328.2-229,329.5-229.3,329.9z"/>
	<path class="st2" d="M-210.7,233.7"/>
	<path class="st1" d="M-221.5,167c1.8-0.3,5-0.9,5.2-1.4c0.1-0.7,0.1-1.5-0.1-2.2h0.9c0.7,0,1.9-3.9,2.6-4.8s5-2.3,6-2.8
		s3.3-2.7,4.1-3.1c0.8-0.4,2.2-2.3,1.9-2.6c-0.3-0.3,3-2.3,4.1-2.7s1.8-1.8,1.4-1.9c-0.4-0.1-6.8,3.4-12.8,6.8
		c-6.9,4.7-13.4,9.9-19.5,15.6L-221.5,167z"/>
	<path class="st1" d="M-107.1,363.7c1.9-1.1,5.5-6.2,6.6-7.3s1.9-4.9,2.2-5.7c0.6-1,1.5-1.8,2.5-2.4c0.6-0.2,2.6-8.6,4.4-10.6
		s3.9-10.8,3.6-14.1c-0.3-3.3,1.1-9.3,1.6-10.8c0.8-1.7,1.9-3.3,3.3-4.7c2.3-2.9,4.4-6,6.4-9.2c1.4-2.3,2.7-7.3,2.4-8.5
		s-3.3-2-3.9-1.4c-0.6,0.6-3.4,1-4.3,1s-3-4.9-4.2-5.8c-1.2-0.9-2.4-6.6-3.2-7.6c-1.1-1.5-2.2-2.9-3.4-4.3c-0.7-0.6-0.8-3.5-0.9-4.3
		s1.2,0.5,1.5,1.7s3.5,5.9,4.5,7.5c1,1.6,3.7,6.7,4.4,8.3s6.7,0.8,8.7-0.1c2-0.9,4.4-2.5,4.5-3.1c0.1-0.6,3.2-1.9,4.1-2.6
		s1.6-4.3,2.2-4.9c0.6-0.6-0.5-4.1-1.1-5.1s-3.7-1.8-4.4-1.5s-1.9-2.3-2.5-3.3s-2.8-2.3-3.1-3c0-0.8,0.4-1.5,1-2
		c0.3-0.2,4.8,2.8,6,4.4c1.2,1.5,2.2,3.2,3,4.9c0.2,0.6,3.7,0.7,4.5,0.1c0.5-0.5,1.2-0.5,1.7,0l0.1,0.1l0.2,0.2h1l3.9-0.6
		c1.2,1.1,2,2.5,2.3,4.1c0.3,0.9,1,1.7,1.8,2.2c0.7,0.1,1.2,2.6,1.5,3.3c1,1.9,2,3.9,2.8,5.9c0.7,1.9,1.6,3.8,2.7,5.5
		c0.5,1.2,0.7,2.6,0.8,3.9c0.3,1,1.2,1.7,2.3,1.8c0.8-0.1,2.6-5.6,3.1-7.6s1.8-3.7,2.2-3.7s0.7-1.1,0.7-1.6s2.2-0.3,2.4-0.9
		c0.2-0.6,0.8-4.2,1.6-4.8c1.4-1,2.9-1.9,4.5-2.7c0.9-0.3,3.5,1.8,4.1,2.8c0.6,1.2,0.9,2.6,0.8,4c-0.2,0.3,1.2,2.6,2.6,2.6
		s1.7,1.7,1.8,2.3s1.8,2.4,2.2,3.2c0.3,1.2,0.3,2.3,0,3.5c-0.1,1.4-0.1,2.8,0.1,4.2c0.2,0.8,4.3,5,5.9,6.2s2.3-2.6,1.5-3.7
		c-0.8-1.1-3.5-4-4.1-4.8s-0.7-4.2-0.5-5.1c0.2-0.9,2.4,0.5,3.2,1.1c0.9,0.7,1.6,1.6,2,2.6c0,0.5,5.6-2.6,5.8-5.9s2-7.2,2.2-8.1
		c0.1-0.9-0.3-1.7-1-2.2c-0.5-0.1,0.8-2.5,2.4-2.5s5.2-4.1,6.1-5.8c0.8-1.2,1.7-2.3,2.8-3.2c0.8-1.8,1.3-3.7,1.6-5.7
		c0.2-1.6-0.9-4.1-1-5c-0.4-1.2-1-2.3-1.8-3.3c-0.4-1-0.6-2.2-0.5-3.3c0.1-0.3,1.6-0.8,1.7-1.2s1.7-2,1.6-2.8s0.9,1,1.7,1.6
		c0.8,0.6,1.5,4.7,2.4,5s4.5-4.2,4.1-7.3s1-6.9,1.9-7.3s2.4-2.7,3.5-4.4c-8.1-23.2-21.4-44.2-39-61.3h-0.6l-1.4-0.2
		c-2.3-0.5-3.5-2.8-3.2-3.4c0.1-0.3,0.1-0.7,0-1c-1.2-1.1-2.5-2.3-3.9-3.3h-2.8c-1.7-0.2-3.3-0.7-4.8-1.5c-0.5-0.5-2.3,0.5-2.4,1.5
		s-3.2,1.4-3.4,2.2c-0.5,0.7-1.4,0.9-2.2,0.5c-0.2-0.5-3.2,1-4.5,1.1c-1.6,0.3-3.2,0.9-4.7,1.6c-1,0.6-1.8,1.4-2.4,2.4
		c-0.7,0.8-1.6,1.4-2.6,1.8c-0.6,0.2-0.5,2.8,0.2,3.3s-1.4-0.3-2.4-0.8s-1.9,1.1-2.3,1.7s-1.1-0.3-1.1-1.1s-2.4-1.4-2.6-0.8
		s-1.9-0.2-2.6-0.6s-3.6,2.7-4.8,3.9c-1.2,1.2-6.4,1.9-7.3,1.6s-1.9,2.3-1.1,2.5h-3.2c-2.6,0.6-5.1,1.5-7.5,2.8
		c-0.5,0.4-1.3,0.4-1.7-0.1c-0.2-0.2-0.3-0.4-0.3-0.7c0-0.7-1.8-1.2-2.3-1.4s-1.6,3.5-2.5,4.2s-2-2.8-4.3-3.5s-5.7-2.7-6.7-3
		s-3-2.3-3.5-3s-3.4-1-4.3-1s-3.9,1.7-4.7,2.3s-1.9,0.5-2.4,0.8l-5,4.4c-1.2,1-3.5,5.3-4.2,6.5c-0.5,0.7-1.3,1.2-2.2,1.2
		c-0.5,0.4-0.8,1-0.8,1.6c0,0.5-3.7,2.4-4.2,4.1s0.5,5.7,0.5,7s1.4,4.2,2.4,4.2s0.6,2.4,0.2,3.1c-0.4,0.7,0.7,1.4,0.6,1.9
		c-0.1,0.5-2.6,1.4-3.4,1.6c-1.1,0.7-1.9,1.6-2.3,2.8c-0.1,0.6-2.6,1-3.5,1.8c0.2-0.6,0.4-1.2,0.7-1.8c0.3-1,0-2-0.6-2.8
		c-0.3-0.3-0.6-4.9-1.2-5.9c-0.8-1.1-1.7-2.1-2.6-3c-0.3-0.3,0.2-1.5,0.6-2c0.4-0.5-2.2-0.8-2.7-0.5s-1,4.9-1.2,6.1
		c0,1.3,0.6,2.5,1.6,3.2c0.5,0.1,0.2,2.3-0.6,2.4c-0.8,0.1-1.6,3.3-1.1,4.1s-0.6,2.2-1,2.5s3.2,0.1,4.9,0.1c1-0.1,2,0.2,2.8,0.8
		c-0.1,0.1-3.2,0.6-3.7,1.2s-2.6,2-3,2.6s0.7,1.7,1.5,1.7c0.8,0,1.8,3,2.5,3.5c0.5,0.8,0.6,1.8,0.1,2.6c-0.2,0.5-4.4-0.2-5.9,0.1
		s-3.5,3.6-3.6,4.9c0,1.9,0.2,3.9,0.5,5.8c0.1,1,3.4,1.6,4.1,2s3.7,0,4.4,0.3c0.7,0.3,2.7-3.2,3.2-4.8s3.7-4.5,4.4-5.7
		c0.7-1.2,4.2-0.9,5.1-1.5c0.9-0.6,0.5,2.7,0.8,4.5c0.3,1.8,3.9,1.6,3.3-0.1s0.3-2.4,0.5-1.8s3.4,1.9,4.1,2.8s0.5,3-0.2,3
		s-0.8,2.2,0,2.5s1.8-2.5,2.6-3s1.5-2.2,1.1-2.3s0.7-1.7,1.1-1.1c-0.8-1.7-1.9-3.4-3.2-4.8c-1.5-1.5-0.3-0.8,2.2,1.4l1.8,2.5
		c0.3,0.5,0.8,1.8,1.1,2.3l0.5,0.7c0.4,1.3,0.6,2.6,0.7,4c0.3,1,1.2,1.7,2.3,1.8c0.5-0.1,1.1,0.1,1.4,0.5c-0.1,0.1,0.6,1.7,1.4,1.7
		s1.2-2.2,0.3-2.2s-0.7-3.2-0.8-4.7s0.6-2.5,0.9-2.5s0,2.8,0,3.5c0.1,1,0.4,1.9,0.8,2.8l0.9,0.7l1.9,1.5c2.8-0.8,6.7-0.1,6.5,0.5
		s2,0.7,2.2-0.2s0.2,0.1,0.2,0.7s-1.8,3.2-2.2,4.3s-6.9,0.3-9.8,0.1s-7,0.7-7.3,1.6c-0.3,0.9-4.7-1.9-6.7-2.7s-3.6-3.9-4-4.3
		s0.3-1.4,0.1-2s-4.8-0.7-6.1-0.2c-1.3,0.5-8.3,1.2-9.9,1.9c-1.6,0.7-4.1,0-4.9-0.1s-2.6,2.2-3.5,2.5s-2,3.6-2.6,7.2l-1.2,2.4
		l-0.8,1.6c-2.3,1.7-4.8,7.5-5.6,8.7c-0.8,1.2-1.4,9.5-1.4,12.4c0,2.9,2.4,8.7,3.2,10.5c0.8,1.8,4.9,5.2,6.4,6.1c1.5,0.9,6,1,7.5,1
		c1.8-0.2,3.2-1.5,3.7-3.2l2.2,0.2h1c0,1.2,3.3,2.2,4.1,2.6c1.2,0.3,2.4,0.3,3.5-0.1c0.6-0.1,1.4,5.6,0.9,7.3
		c-0.5,1.7,1.1,7.5,1.6,9.3s2.5,6.6,2.6,8.3c0.1,1.7-1.1,7.5-1.4,9.5s2.5,7.6,3.2,9.5c0.6,2.3,1,4.6,1.2,7c0,0.9,3,6.8,3.6,9.2
		S-109.2,364.9-107.1,363.7z"/>
	<path class="st1" d="M23,291.9c0.1,0.5,2-1,3.2-1.2s1.8-3.2,0.9-3.4c-0.9-0.2-1.9-2.6-2.6-2.8c-0.7-0.2-1.8,1-1.8,1.9
		c0,0.9-2,1.2-2.5,2s-0.3,1.2,0,1.2C21.3,290.2,22.2,291,23,291.9z"/>
	<path class="st1" d="M20.8,308.6c0.6-0.2,0-3.2-1.2-3.4c-1.2-0.2-4.4,4-3.9,6.4c0.5,2.4,1.2,2.3,1.6,1.7s2.3,0.3,2.8,0.5
		s0.6-0.3,0-1.2S20.2,308.9,20.8,308.6z"/>
	<path class="st1" d="M14.3,305.7c0.1-1,0.3-4.4,0.5-5.1s-1.8-2.6-2.8-3c-1-0.4-4.1,6.5-6.4,7.7s-3.1,5.5-2.5,6.4
		c0.6,0.9,5.3,1.5,6.1,2.2s1.7-0.1,2.3-0.2c0.6-0.1,0.3-0.5,0.1-0.6c-0.2-0.1,1.6-2,1.9-3.3C13.9,308.5,14.1,307.1,14.3,305.7z"/>
	<path class="st1" d="M1.3,317.2c-1.7-0.7-3.9,0.3-4,1s6.8,1.8,9.2,2.4c2.4,0.6,3.7,0.8,3.3,0.5L1.3,317.2z"/>
	<path class="st1" d="M15.8,271.2c0.6-0.8-0.8-4.4-1.5-3.6s-0.1,3,0,3.7S15.2,272,15.8,271.2z"/>
	<path class="st1" d="M19.9,279.1c0.5-0.9-0.5-1.9-2-2.3c-1.5-0.4-1.2,4.2-0.6,4.8S19.5,280,19.9,279.1z"/>
	<path class="st1" d="M27.9,307.5c1.8,1.2,5.9,0.7,6-1.7C32.1,304.6,27.8,304.8,27.9,307.5z"/>
	<path class="st1" d="M26.9,251.2c-0.7,0.6-1,1.5-0.9,2.4h-0.3c-0.6,0-0.7,2.4,0,2.8c0.7,0.4,2.2-1.8,3-2.4c0.8-0.5,1.7-0.8,2.6-0.7
		c1.1-0.1,2.1-0.4,3.1-0.9c0.4-0.3,0.7-0.6,0.9-1c-0.3-1.7-0.8-3.4-1.1-5.2l-2,1.5L26.9,251.2z"/>
	<path class="st2" d="M-14.9,299.8"/>
	<path class="st1" d="M-3.5,310.4c-1.3-2.1-2.9-4-4.8-5.6l-0.7-1.2l-0.8-1.4c-0.7-1.5-3-2.6-3.2-3.1s-0.9,1.2-1.7,0.8l2.4,1.7
		c2,1.5,6.1,11.8,7.2,12.5S-2.9,311.8-3.5,310.4z"/>
	<path class="st1" d="M-36.1,293.7c-0.6,1.1,3,3.6,3.3,3.1c0-1.4-0.3-2.8-1-4C-34.6,292.1-35.5,292.5-36.1,293.7z"/>
	<path class="st1" d="M-83.9,348.6c0.1,1.2,2.6,2.2,3.3,1.9c0.7-0.3,2.7-3.9,3-4.9c0.3-1.3,0.5-2.6,0.6-3.9c0.1-0.7,0.3-1.3,0.6-1.9
		c0.5-0.8,0.8-1.7,1-2.7c0.2-1.4-1.5-7.8-1.5-9s-1.2,0.6-1.6,1.7c-0.4,1.1-3.5,3.5-4.3,4.4c-0.8,0.9-1.5,4.2-1.1,4.8
		c0.1,1.2-0.1,2.3-0.6,3.4C-85,343.2-84.1,347.5-83.9,348.6z"/>
	<path class="st1" d="M-200.3,393.6h2.2C-197.9,391.2-200.4,391.6-200.3,393.6z"/>
	<path class="st1" d="M-142.4,148.9c-1.2,0-2.5-0.2-3.6-0.8c-1.6-0.6-3.3-0.7-4.9-0.3c-1,0.5-0.3-2.5,1-2.7c1.3-0.2,0.2-2.3-1.2-2.3
		s-5.2-0.6-6-0.3c-1.1-0.1-2.2-0.3-3.2-0.7c-0.6-0.1-5.1,1.4-7.2,1.2c-2.8-0.1-5.6,0.1-8.4,0.5c-1.1,0.2-1.9,2.5-1.7,3.3
		c0.2,0.8-5,0.8-6.6,0.8s-10.3,1.8-12.6,3.1c-2.3,1.3-4,4.4-3.3,4.4c0.7,0-1.2,1.8-2.5,2.3c-1.3,0.5-4.1,0.6-4.8,1.2
		c-0.7,0.6,0.7,1.1,0.9,1.6c0.2,0.5,1-0.3,1.8,0.1c0.8,0.4,3.3,0.6,4,0.9c0.7,0.3-2.2,0.8-3.4,0.9c-1.2,0.1-1,2.6,0,3.1
		s3.9,0.7,4.1,0.2s3.3,0.5,4.7,0.7s2.4,3.5,2.8,4.3c0.4,0.8,0.5,3.3,0.5,4.1s2.4,2,2.8,1.6c0.4-0.4,0.3,1.1-0.7,1s-0.3,2.7,0.9,3.2
		c1.2,0.5,0.3,2.2-0.3,2.7s-0.3,2.2-1,2.8c-0.7,0.6,2.6,6.4,2.5,9.3s1.8,5.3,2.5,5.3c0.7,0,3.1,0.6,3.4,1.2s1.5-0.5,1.9-0.9
		c0.8-1,1.5-2.1,2.2-3.2c0.8-1.2,2.4-7.2,2.6-7.8s3-0.2,3.6-0.6l3-2.2c0.5-0.5,4.4-2,5.6-2.8s2.8-4.1,3.7-4.9s-0.5-0.5-1.5-1.1
		c-0.5-0.3-0.7-1-0.4-1.5l0.2-0.3c0.2-0.3,3.5,0.5,4.5,0.9s3.2-1,2.4-1.6c-0.8-0.6-0.3-0.6,0-0.3c0.3,0.3,0.8-1.9,0.5-2.4
		c-0.3-0.5,3.2-3.1,2.6-5.6c-0.6-2.5,0.9-5.1,1.9-5.1s0.7-2.8-0.6-3.1c-1.3-0.3,0-0.5,0.5-0.9c0.5-1.1,0.7-2.2,0.7-3.4
		c-0.2-0.5,1.8-1,2.2-1.6c1-0.8,2.2-1.4,3.5-1.8C-142.1,151.2-141.6,148.9-142.4,148.9z"/>
	<path class="st1" d="M-121.9,151.2c-1.1-0.3-3.4,0.9-3.1,1.6s-1.8-0.9-3.3-0.1c-1.5,0.8-1.9,3.4-1.2,3.7c0.7,0.3,1.1,2.4,1.1,2.8
		s2.8,0.1,3.6-0.5s0.6,2-0.1,2.8s0.2,2.2,1,2.3s1.8,1.9,2.7,1.9s2.3-3.2,2.5-4.3s3.1-0.2,4.3,0.1s1.7-4.3,0.3-5.1s-3.1-0.3-3.6-0.9
		c-0.6-0.6-1.4-1-2.2-1.1C-120.2,154.4-120.8,151.5-121.9,151.2z"/>
	<path class="st1" d="M-110.9,153.5c1.9,0,3.8-0.7,5.2-2c0.6-0.5-6.1-1.8-8.7-1.9s-4.5,0.2-4.5,0.8S-113,153.1-110.9,153.5z"/>
	<path class="st1" d="M-151.6,213.8c-0.6-0.2-0.9,1.9-0.8,2.7c0.1,0.8,2.2,0.8,3.1,0.6c0.8-0.1,1.4-0.8,1.5-1.6c0-0.7-1.2-4-1.7-4
		S-151,214-151.6,213.8z"/>
	<path class="st1" d="M-145,188c-0.5-0.8-3.9-0.7-4.8-0.7c-1.4-0.3-2.8-0.8-4-1.5c-0.6-0.6-0.8,2.2-1.6,2.5
		c-0.8,0.3,0.5,0.8,0.7,0.6c0.2-0.2,0,1.4-0.5,1.9s2.3,0.9,2.6,1.8c0.5,0.9,1.4,1.4,2.4,1.2c1-0.1,3.1-1.2,3.9-1.4
		S-144.5,188.9-145,188z"/>
	<path class="st1" d="M-71.5,168c1.1-1.1,6.1-2.8,6.7-4.1c0.4-0.8,0.2-1.7-0.6-2.2l0,0h-0.2c-0.5,0.1-0.9,0.4-1.2,0.8
		c-0.1,0.2-5.8,1.5-7.5,2.4c-1.6,0.7-3.1,1.7-4.4,2.8c-0.7,0.7-1.9,6.4-2.3,6.9s1.8,2.8,2.8,3.5c0.9,0.3,1.9,0.4,2.8,0.2
		c0.5-0.1-0.5-4-1-5.3S-72.6,169.3-71.5,168z"/>
	<path class="st1" d="M-77.5,153.4c1.8,1.8,2.8-0.8,4.9-0.6C-72.6,148.9-77.7,150.4-77.5,153.4z"/>
	<path class="st1" d="M-41.3,154.2c0,0.7,5.1,1.2,6.7,0.9s-0.3-2.6-2.5-2.5S-41.3,153.5-41.3,154.2z"/>
	<path class="st1" d="M-230.3,192.8c-0.6,0.5,0,3.1,0.9,3.1s2.7-3.9,4-3.1c1.3,0.8,2.2,1,1.9,0.7c-0.3-0.3-3.9-1.9-4.3-2.3
		C-228.2,190.8-229.7,192.3-230.3,192.8z"/>
	<path class="st1" d="M-217,279.6c0,0.5,2.3,0.3,2.6-0.3c0.3-0.6,0.1-1.2-0.5-1.2C-215.8,278.3-216.5,278.9-217,279.6z"/>
	<path class="st1" d="M-227.1,275.8c1-0.2,0.6,1.5,0.8,2.2c0.2,0.7,2.8,1.1,3.4,1.6c0.6,0.5,1.8-0.8,2.8-0.7s-0.3-3.6-2-3.5
		c-1.7,0.1-3.1-1.6-3.5-1.8c-1.1-0.5-2.1-1.1-3-1.8c-0.6-0.5-5-0.8-6.5-0.8c-1.4,0.1-2.6,0.9-3.4,2c-0.2,0.5,2.4,0.9,3.1,0.5
		c0.7-0.4,4.2,0.5,5,1.2C-229.5,275.5-228.3,275.9-227.1,275.8z"/>
	<path class="st1" d="M-231.9,279.6c0,0.5,2.3,0.1,2.8,0.1s0.6-0.5,0-0.8S-231.9,279.1-231.9,279.6z"/>
	<path class="st1" d="M-230.3,267.8c-0.6-0.2-1,0.7-1,1.1c0,0.4,0.3,0.7,0.7,0.8C-230.2,269.7-229.6,268-230.3,267.8z"/>
	<path class="st1" d="M-225.4,268.1c-0.3-0.5-0.9-0.8-1.5-0.8c-0.3,0-0.5,0.7-0.5,1.7S-225.3,268.5-225.4,268.1z"/>
	<path class="st1" d="M-222,273.4c0.9-0.5,1-1.5,0.5-1.5s-1.6-1.6-2.2-1.8c-0.6-0.2-1,1-1,1.5c-0.1,0.4,0.2,0.7,0.6,0.8l0,0h0.1
		C-223.6,272.3-222.9,273.9-222,273.4z"/>
	<path class="st1" d="M34.9,309.6c-0.5,0.2-2.7,0.5-3.1,0.1c-0.4-0.4-0.7,0.9-1.2,1.1c-0.2,0.2-0.2,0.6,0,0.8
		c0.2,0.2,0.4,0.2,0.6,0.2c0.8-0.3,2.7,0.9,4.4,2c0.3-1.7,0.7-3.5,0.9-5.3L34.9,309.6z"/>
	<path class="st1" d="M-229.3,329.9c-0.2,0.5,2.6,3.3,3.6,4.3c1.6,2.2,2.9,4.7,3.9,7.3c0.3,1.6,0.3,3.1,0,4.7
		c0.1,0.8,0.3,1.6,0.6,2.4c0.1,0.6-0.9,5.1-0.6,7c0.3,1.9-2.2,7.6-2,10.6c0.2,3,1.4,6.6,1.8,6.4c0.4-0.2,0.7,2.6-0.1,3
		c-0.8,0.4-1.9,2.6-1.4,2.7c0.5,0.1,0,2.4,0.1,3.3c0.1,0.9,0.9,6.9,1,8.4s2.3,5.1,2.7,6.4s0.9,3.5,1,3.9l0.3,0.8
		c0.8,0.2,1.6,0.6,2.3,1c0.5,0.3,3.9,0.1,5-0.1s0.1-1.2-0.3-1.7c-0.4-0.5-0.9-3.2-1.5-3.4c-0.6-0.2-0.8-3.6-0.3-4.4s2.5-1.9,2.7-2.6
		c0.2-0.7,0.2-3.5-0.2-4s0.1-4-0.2-5.8c-0.3-1.8,3.1-3.4,3.3-4.8c0.2-1.4,4-3,4.8-3.6c0.8-0.6,1.6-4.8,1.1-5.6
		c-0.5-0.8,1.4-1.6,2.2-1.6l2-0.6c0.2,0,1.2-1.8,1.7-2.2s1.6-4.7,2.5-5.3c0.9-1.1,1.5-2.5,1.7-4c0.4-1.3,1-2.5,1.9-3.6
		c0.5-0.7,4-2.3,4.7-2.5c0.7-0.2,1.6-5.9,1.8-8c0.4-1.9,0.8-3.7,1.4-5.5c0-0.7,1.1-1.2,1.4-1.5s1-2.8,1.6-3.4
		c0.6-0.6,2.5-3.1,2.5-3.6c0.1-1.1,0.4-2.2,0.7-3.2v-3.5c-0.6-1.7-2.5-3.9-3-3.3c-0.5,0.6-2.6-1.5-3.7-1.9c-1.5-0.4-3-0.7-4.5-0.7
		c-0.7,0-3.1-1.9-4.2-2.3c-1.5-0.3-2.9-0.6-4.3-1.1c-0.5-0.3-1.1-4.4-3.4-5.8c-2.3-1.4-6.1-4.5-6.6-5.7s-4.7-3.5-6-4.3
		c-1.3-0.8-3.3-0.9-3.5-0.6c-0.2,0.3-1.9-2.3-2.7-3c-0.8-0.7-3.4-1.2-3.5-0.7s-1.8,0.2-2.2-0.2s-1.7,0.2-2.4,0.5
		c-0.7,0.3-2.7,3.4-3.7,4.2c-1,0.8-2.2-0.7-2.8-1c-1.3,0-2.6,0.3-3.7,1c-0.7,0.5-2.2-3.4-1.8-5.2c0.4-1.8-1.6-5.3-3.2-5.5
		c-1.6-0.2-1.9-3.9-1.7-5.2c0.2-1.3-2.7-2.3-3.5-2.4c-0.8-0.1-2.6,1.8-3,2.8s-7.3-1.2-6.5-5.5c0.8-4.3,4.1-8.5,4.9-9
		s5.2-0.7,6.2-0.1c0.6,0.3,1.4,0.3,2-0.2c1.7-0.1,3.3,0,4.9,0.5c1,0.5,2.6,4.7,3.7,5.1c1.1,0.4,1.5-2.7,1.7-3.5
		c-0.1-1.1-0.4-2.3-0.8-3.3c-0.2-0.6,1.8-5.7,3.5-6.5c1.7-0.8,3.5-3.7,3.3-4.2c-0.2-0.5,1.4-0.9,1.7-1.1c0.3-0.2,0-4.3,0.6-5.2
		c1.5-1.3,3.1-2.4,4.9-3.2c1-0.5,1.7-3,1.4-3.5c-0.3-0.5,2.6-3,4.2-3.5c1.6-0.5,2.8,0.9,2.5,1l3.3-1.8c0.9-0.6,0-2.6-0.7-3.2
		c-0.7-0.6-0.2-2.7,0.6-3c0.8-0.6,1.3-1.5,1.2-2.5c-0.2-0.3,3.4,0.3,4.8-0.7c1.4-1,0.3,2.4-0.6,3.9c-0.5,0.7-0.3,1.7,0.4,2.2
		c0.3,0.2,0.6,0.3,1,0.3c0.7,0,1.3,0.4,1.5,1.1c0.1,0.3,1.5-0.5,2.4,0s1.5-1.2,1.5-2s-2.2-2.3-2.5-3.3c-0.3-2.5-0.5-4.9-0.5-7.4
		c0-1-1.5-2.8-1.9-2.5s-1.4-2.8-2.2-3.5c-0.6-0.8-0.9-1.7-0.9-2.7c0-0.5-2.5-3.2-3.2-4.4c-0.7-1.2-1.5-1-1.6-0.5s-1.8,0.7-2.6,0.6
		c-0.8-0.1-1.4-3-1.4-4s-3.3-1.2-3.9-2.2c-0.6-1-2.7-0.5-3.1-1c-0.7-0.6-1.6-1-2.6-0.9c-0.3,0.2-0.2,8.1-0.6,10.1
		c-0.4,2-2.2,4-2.8,3.9s-0.2,1.5,0.1,1.4c0.3-0.1-1.2,2.3-1.5,3.9c-0.3,1.6-1.8,0-2-1.5c-0.2-1.5-1.8-3.4-2.2-3s-1.4-0.6-1.8-0.2
		c-0.4,0.4-3.4-1.7-4.7-2.4c-1.3-0.7-1.8-4.3-2.6-4.7c-0.8-0.4-0.1-0.8-0.1-1.4s2.4-2.7,3.1-3.5c1.3-1.7,2.8-3.4,4.3-5
		c1-0.8,1.8-2.6,1.6-3c-0.2-0.4,4.4-1.8,5.7-2.2c1.3-0.4,2.3-3.9,2.5-4.9c0-1.2-0.5-2.3-1.4-3.1c-0.6-0.2,1.7-0.3,2.5,0.1
		c0.8,0.4,3.1-0.7,4.1-0.2l4.2,2.5l-0.2,2.5l-0.6,4.3c-3.6,1.5-4.7,4.1-3.4,4c1.3-0.1,7,2.5,8.6,3.6s2.2-1.7,2.6-2.6
		c0.4-1.4,0.4-2.8,0-4.2c-0.5-0.6,1.8-0.3,2.5,0.2c0.7,0.5,1.4-0.6,1.8-0.9c0.4-0.3,0.7-2.6,1-3.1c0.3-0.5-1-0.9-1.1-1.6
		s-2.6-1.7-3.4-2.2c-0.8-0.6-1-1.6-0.6-2.5c0.3-0.3-0.2-2.6-0.7-3.3s-3.1-1.4-4-1.4s-1.8-2-2.4-2.4c-1.6-0.4-3.3-0.6-4.9-0.5
		c-0.8,0.2-2.4-2.5-3.9-1.6s-3-0.9-3.6-1.4s-4.1,3.3-4,5.8s1.2,5,1.8,5.1s-0.1,2.4-0.7,3.1c-0.6,0.7-2-0.7-1.5-1.2s-1.5-3.3-2.2-4.3
		c-0.7-1-2.3-1.5-3.4-1.9l-2,2.3c0.3,1,0.4,2.1,0.2,3.1c-0.5,1.6-1.8,1.8-1.8,1.1c-0.4-0.4-0.9-0.6-1.5-0.6l-2,2.6l-2,2.6l-2,2.8
		l-1.8,2.5l-2.6,3.9l-2.4,3.7c-0.7,1-1.2,2.2-1.9,3.3c-0.5,0.7-0.9,1.5-1.2,2.3l-1.9,3.5l-1,2c-1.4,2.7-2.7,5.6-4,8.5v0.2l-1.7,4.3
		l-0.7,1.6l-1.6,4.4l-0.2,0.7c-1.7,5-3.2,10.1-4.4,15.3c-0.1,0.3-0.1,0.7-0.2,1c-1.2,5.5-2.2,11.1-2.8,16.7l0,0
		c0.8,0.7,1.4,1.6,1.8,2.6c0.5,1.4,2.8,2.3,3.3,2.6c0.5,0.3,0.6-2.6,0.2-3.4s0.6-1.1,0.6-0.7c0,0.4,2.3,3.1,3,4.1s1.5,6.9,2.3,8.2
		c0.8,1.3,7.6,4,9.9,4.4c2.1,0.7,4,1.9,5.5,3.6c0.5,0.7,3.4,1,4,1.4c1,0.8,1.9,1.7,2.7,2.7c0.5,0.5,0.9,1.2,1.1,1.9
		c0,0.3,3.9,1.8,4.9,2.8c0.8,0.7,1.9,0.8,2.8,0.3c0.2-0.5,1,2,1.5,3s0.5,3,0.1,3.3s-0.8,4.2-1.5,5c-0.7,0.8-2,6.5-1.7,7.6
		c0.6,1.5,1.7,2.8,3,3.7c0.4,0.2,0.6,0.8,0.3,1.2v0.1l-0.4,0.3c-0.6,0-0.3,5.6,1.1,6.4C-229.3,327.5-229,329.5-229.3,329.9z"/>
	<line class="st3" x1="-210.7" y1="233.6" x2="-210.7" y2="233.6"/>
	<path class="st1" d="M-221.5,167c1.8-0.3,5-0.9,5.2-1.4c0.1-0.7,0.1-1.5-0.1-2.2h0.9c0.7,0,1.9-3.9,2.6-4.8s5-2.3,6-2.8
		s3.3-2.7,4.1-3.1c0.8-0.4,2.2-2.3,1.9-2.6c-0.3-0.3,3-2.3,4.1-2.7s1.8-1.8,1.4-1.9c-0.4-0.1-6.8,3.4-12.8,6.8h-0.1l-5.1,3.6
		l-3.3,2.6l-1.7,1.4l-3.9,3.3l-0.8,0.7l-4.2,3.7L-221.5,167z"/>
	<path class="st1" d="M-121.5,244.1c-0.7,0-0.8,2.2,0,2.5s1.2-1.2,1.9-2.2v-8.7h-0.1c-0.9-0.9-0.8-0.9,0.1-0.2v-54.2l-2,1.8
		c-1.2,1-3.5,5.3-4.2,6.5c-0.5,0.7-1.3,1.2-2.2,1.2c-0.5,0.4-0.8,1-0.8,1.6c0,0.5-3.7,2.4-4.2,4.1s0.5,5.7,0.5,7s1.4,4.2,2.4,4.2
		s0.6,2.4,0.2,3.1c-0.4,0.7,0.7,1.4,0.6,1.9c-0.1,0.5-2.6,1.4-3.4,1.6c-1.1,0.7-1.9,1.6-2.3,2.8c-0.1,0.6-2.6,1-3.5,1.8
		s0.6-1.4,0.7-1.8c0.3-1,0-2-0.6-2.8c-0.3-0.3-0.6-4.9-1.2-5.9c-0.8-1.1-1.7-2.1-2.6-3c-0.5-0.3,0.2-1.5,0.6-2
		c0.4-0.5-2.2-0.8-2.7-0.5s-1,4.9-1.2,6.1c0,1.3,0.6,2.5,1.6,3.2c0.5,0.1,0.2,2.3-0.6,2.4c-0.8,0.1-1.6,3.3-1.1,4.1s-0.6,2.2-1,2.5
		s3.2,0.1,4.9,0.1c1-0.1,2,0.2,2.8,0.8c-0.1,0.1-3.2,0.6-3.7,1.2s-2.6,2-3,2.6s0.7,1.7,1.5,1.7c0.8,0,1.8,3,2.5,3.5
		c0.5,0.8,0.6,1.8,0.1,2.6c-0.2,0.5-4.4-0.2-5.9,0.1s-3.5,3.6-3.6,4.9c0,1.9,0.2,3.9,0.5,5.8c0.1,0.9,3.4,1.6,4.1,2s3.7,0,4.4,0.3
		c0.7,0.3,2.7-3.2,3.2-4.8s3.7-4.5,4.4-5.7c0.7-1.2,4.2-0.9,5.1-1.5c0.9-0.6,0.5,2.7,0.8,4.5c0.3,1.8,3.9,1.6,3.3-0.1
		s0.3-2.4,0.5-1.8s3.4,1.9,4.1,2.8S-120.8,244.1-121.5,244.1z"/>
	<path class="st1" d="M-119.5,254.9l-1.7-0.8c-2-0.8-3.6-3.9-4-4.3s0.3-1.4,0.1-2s-4.8-0.7-6.1-0.2c-1.3,0.5-8.3,1.2-9.9,1.9
		c-1.6,0.7-4.1,0-4.9-0.1s-2.6,2.2-3.5,2.5s-2,3.6-2.6,7.2l-1.2,2.4l-0.8,1.6c-2.3,1.7-4.8,7.5-5.6,8.7c-0.8,1.2-1.4,9.5-1.4,12.4
		c0,2.9,2.4,8.7,3.2,10.5c0.8,1.8,4.9,5.2,6.4,6.1c1.5,0.9,6,1,7.5,1c1.8-0.2,3.2-1.5,3.7-3.2l2.2,0.2h1c0,1.2,3.3,2.2,4.1,2.6
		c1.2,0.3,2.4,0.3,3.5-0.1c0.6-0.1,1.4,5.6,0.9,7.3c-0.5,1.7,1.1,7.5,1.6,9.3s2.5,6.6,2.6,8.3c0.1,1.7-1.1,7.5-1.4,9.5
		s2.5,7.6,3.2,9.5c0.6,2.3,1,4.6,1.2,7c0.4,1.4,0.9,2.8,1.6,4.1V254.7l0,0L-119.5,254.9z"/>
	<path class="st1" d="M-200.3,393.6h2.2C-197.9,391.2-200.4,391.6-200.3,393.6z"/>
	<path class="st1" d="M-156.7,177.4c1.1,0.5,3.2-1,2.4-1.6c-0.8-0.6-0.3-0.6,0-0.3c0.3,0.3,0.8-1.9,0.5-2.4
		c-0.3-0.5,3.2-3.1,2.6-5.6c-0.6-2.5,1-5.1,1.9-5.1s0.7-2.8-0.6-3.1c-1.3-0.3,0-0.5,0.5-0.9c0.5-1.1,0.7-2.2,0.7-3.4
		c-0.2-0.5,1.8-1,2.2-1.6c1-0.9,2.2-1.5,3.5-1.8c0.9-0.1,1.2-2.4,0.5-2.3c-1.2,0-2.5-0.2-3.6-0.8c-0.5-0.5-3.9-0.8-4.9-0.5
		s-0.3-2.5,1-2.7c1.3-0.2,0.2-2.3-1.2-2.3s-5.2-0.6-6-0.3c-1.1-0.1-2.2-0.3-3.2-0.7c-0.6-0.1-5.1,1.4-7.2,1.2
		c-2.8-0.1-5.6,0.1-8.4,0.5c-1.1,0.2-1.9,2.5-1.7,3.3c0.2,0.8-5,0.8-6.6,0.8s-10.3,1.8-12.6,3.1c-2.3,1.3-4,4.4-3.3,4.4
		c0.7,0-1.2,1.8-2.5,2.3c-1.3,0.5-4.1,0.6-4.8,1.2c-0.7,0.6,0.7,1.1,0.9,1.6c0.2,0.5,1-0.5,1.8,0c0.8,0.5,3.3,0.6,4,0.9
		c0.7,0.3-2.2,0.8-3.4,0.9c-1.2,0.1-1,2.6,0,3.1s3.9,0.7,4.1,0.2s3.3,0.5,4.7,0.7s2.4,3.5,2.8,4.3c0.4,0.8,0.5,3.3,0.5,4.1
		s2.4,2,2.8,1.6c0.4-0.4,0.3,1.1-0.7,1s-0.3,2.7,0.9,3.2c1.2,0.5,0.3,2.2-0.3,2.7s-0.3,2.2-1,2.8c-0.7,0.6,2.6,6.4,2.5,9.3
		s1.8,5.3,2.5,5.3c0.7,0,3.1,0.6,3.4,1.2s1.5-0.5,1.9-0.9c0.8-1,1.5-2.1,2.2-3.2c0.8-1.2,2.4-7.2,2.6-7.8s3-0.2,3.6-0.6l3-2.2
		c0.5-0.5,4.4-2,5.6-2.8s2.8-4.1,3.7-4.9s-0.5-0.5-1.5-1.1c-0.5-0.3-0.7-1-0.4-1.5l0.2-0.3C-161,176.2-157.7,177-156.7,177.4z"/>
	<path class="st1" d="M-121.9,151.2c-1.1-0.3-3.4,0.9-3.1,1.6s-1.8-0.9-3.3-0.1c-1.5,0.8-1.9,3.4-1.2,3.7c0.7,0.3,1.1,2.4,1.1,2.8
		s2.8,0.1,3.6-0.5s0.6,2-0.1,2.8s0.2,2.2,1,2.3s1.8,1.9,2.7,1.9c0.7-0.3,1.3-0.9,1.5-1.7v-9.8l0,0
		C-120.2,154.4-120.8,151.5-121.9,151.2z"/>
	<path class="st1" d="M-149.2,217.1c0.8-0.1,1.4-0.8,1.5-1.6c0-0.7-1.2-4-1.7-4s-1.4,2.4-2,2.2s-0.9,1.9-0.8,2.7
		C-152.1,217.2-150.2,217.3-149.2,217.1z"/>
	<path class="st1" d="M-152.4,192.7c0.5,0.9,1.4,1.4,2.4,1.2c1-0.1,3.1-1.2,3.9-1.4s1.5-3.7,1-4.5s-3.9-0.7-4.8-0.7
		c-1.4-0.3-2.8-0.8-4-1.5c-0.6-0.6-0.8,2.2-1.6,2.5c-0.8,0.3,0.3,0.8,0.7,0.6s0,1.4-0.5,1.9S-152.6,192-152.4,192.7z"/>
	<path class="st1" d="M-230.3,192.8c-0.6,0.5,0,3.1,0.9,3.1s2.7-3.9,4-3.1c1.3,0.8,2.2,1,1.9,0.7c-0.3-0.3-3.9-1.9-4.3-2.3
		C-228.2,190.8-229.7,192.3-230.3,192.8z"/>
	<path class="st1" d="M-217,279.6c0,0.5,2.3,0.3,2.6-0.3c0.3-0.6,0.1-1.2-0.5-1.2C-215.8,278.3-216.5,278.9-217,279.6z"/>
	<path class="st1" d="M-227.1,275.8c1-0.2,0.6,1.5,0.8,2.2c0.2,0.7,2.8,1.1,3.4,1.6c0.6,0.5,1.8-0.8,2.8-0.7s-0.3-3.6-2-3.5
		c-1.7,0.1-3.1-1.6-3.5-1.8c-1.1-0.5-2.1-1.1-3-1.8c-0.6-0.5-5-0.8-6.5-0.8c-1.4,0.1-2.6,0.9-3.4,2c-0.2,0.5,2.4,0.9,3.1,0.5
		c0.7-0.4,4.2,0.5,5,1.2C-229.5,275.5-228.3,275.9-227.1,275.8z"/>
	<path class="st1" d="M-231.9,279.6c0,0.5,2.3,0.1,2.8,0.1s0.6-0.5,0-0.8S-231.9,279.1-231.9,279.6z"/>
	<path class="st1" d="M-230.3,267.8c-0.6-0.2-1,0.7-1,1.1c0,0.4,0.3,0.7,0.7,0.8C-230.2,269.7-229.6,268-230.3,267.8z"/>
	<path class="st1" d="M-225.4,268.1c-0.3-0.5-0.9-0.8-1.5-0.8c-0.3,0-0.5,0.7-0.5,1.7S-225.3,268.5-225.4,268.1z"/>
	<path class="st1" d="M-222,273.4c0.9-0.5,1-1.5,0.5-1.5s-1.6-1.6-2.2-1.8c-0.6-0.2-1,1-1,1.5c-0.1,0.4,0.2,0.7,0.6,0.8l0,0h0.1
		C-223.6,272.3-222.9,273.9-222,273.4z"/>
	<path class="st4" d="M-216.3,163.8c-0.1-0.1-0.8,0.3-0.5,0.6c0.2,0.1,0.4,0,0.5-0.2C-216.2,164.1-216.2,163.9-216.3,163.8z"/>
	<path class="st4" d="M-198.8,216c-0.1-0.1-0.8,0.3-0.6,0.6C-199.2,216.9-198.5,216.3-198.8,216z"/>
	<path class="st5" d="M-199.5,170.7h-87.8c-10.6,0-19.2,8.6-19.2,19.2v210.5c0,10.6,8.6,19.2,19.2,19.2h87.8
		c10.6,0,19.2-8.6,19.2-19.2V190.1c0.1-10.5-8.3-19.2-18.9-19.3l0,0L-199.5,170.7L-199.5,170.7z"/>
	<path class="st6" d="M-260,185.7h33.2c0.9,0,1.7,0.8,1.7,1.7c0.1,0.9-0.6,1.6-1.5,1.7l0,0H-260c-0.9,0-1.7-0.7-1.7-1.7
		C-261.7,186.5-261,185.7-260,185.7L-260,185.7z"/>
	<path class="st6" d="M-243.5,405.5c-6.1,0-11.1-5-11.1-11.1c0-6.1,5-11.1,11.1-11.1s11.1,5,11.1,11.1
		C-232.5,400.5-237.4,405.4-243.5,405.5z"/>
	<rect x="-298.3" y="208.6" class="st6" width="109.6" height="162.3"/>
	<path class="st2" d="M-243.5,386.7c-4.2,0.1-7.6,3.5-7.7,7.7c0,4.3,3.4,7.7,7.7,7.7c4.3,0,7.7-3.4,7.7-7.7
		C-235.8,390.1-239.2,386.7-243.5,386.7L-243.5,386.7z"/>
	<rect x="-292" y="246.1" class="st6" width="97" height="49.9"/>
	<rect x="-265.4" y="224.7" class="st7" width="70.1" height="6.9"/>
	<path class="st7" d="M-273.8,228.2c0,5-4.1,9.1-9.1,9.1s-9.1-4.1-9.1-9.1s4.1-9.1,9.1-9.1S-273.8,223.2-273.8,228.2L-273.8,228.2z"
		/>
	<rect x="-292" y="328" class="st7" width="97" height="2.9"/>
	<rect x="-292" y="337.9" class="st7" width="97" height="2.9"/>
	<rect x="-292" y="347.7" class="st7" width="97" height="2.9"/>
	<rect x="-292" y="357.4" class="st7" width="70.4" height="2.9"/>
	<rect x="-292" y="309.1" class="st7" width="64.5" height="6.9"/>
	<path class="st6" d="M-265,275.2v-12.6h2.3l1.9,5l1.4,3.6l0,0c-0.1-1.4-0.2-3.5-0.2-5.8v-2.8h2.2v12.6h-2.4l-1.9-4.8
		c-0.5-1.2-0.9-2.4-1.2-3.7l0,0c0,1.2,0.1,3.2,0.1,5.8v2.8L-265,275.2L-265,275.2z"/>
	<path class="st6" d="M-250,269.7h-2.8v3.4h3.3v2.2h-5.7v-12.7h5.5v2.2h-3.1v3h2.8V269.7L-250,269.7L-250,269.7z"/>
	<path class="st6" d="M-246.6,264.9h-2.3v-2.3h6.9v2.3h-2.3v10.3h-2.5v-10.3h0.1H-246.6z"/>
	<path class="st6" d="M-238.9,275.2l-2.2-12.6h2.5l0.6,5c0.1,1.5,0.2,2.8,0.5,4.4l0,0c0.1-1.6,0.5-3,0.7-4.4l0.9-5h1.9l0.8,5
		c0.2,1.5,0.5,2.8,0.6,4.4l0,0l0.5-4.4l0.6-5h2.4l-2.3,12.6h-2.2l-0.8-4.1c-0.2-1.1-0.3-2.6-0.6-4.1l0,0c-0.2,1.5-0.5,3-0.7,4.2
		l-0.8,4.1L-238.9,275.2L-238.9,275.2z"/>
	<path class="st6" d="M-220.1,268.8c0,4.8-1.7,6.7-4.1,6.7c-2.4,0-4-3.1-4-6.5c0-3.4,1.4-6.5,4.2-6.5
		C-221.2,262.5-220.1,265.8-220.1,268.8z M-225.7,269c0,2.8,0.6,4.3,1.6,4.3s1.5-1.8,1.5-4.4c0-2.6-0.3-4.2-1.5-4.2
		c-1.2,0-1.5,1.6-1.5,4.3H-225.7z"/>
	<path class="st6" d="M-218.6,262.9l2.7-0.2c1.2-0.1,2.4,0.2,3.4,0.9c0.7,0.7,1.1,1.6,1,2.6c0.1,1.3-0.7,2.6-1.9,3.2l0,0
		c0.9,0.3,1.2,1.1,1.6,2.5c0.2,1.2,0.4,2.3,0.8,3.4h-2.6c-0.3-1-0.5-2.1-0.6-3.1c-0.2-1.6-0.6-2-1.5-2h-0.3v5h-2.5L-218.6,262.9
		L-218.6,262.9L-218.6,262.9z M-216.1,268.4h0.5c0.9,0,1.7-0.8,1.7-1.7v-0.2c0.1-0.9-0.5-1.6-1.3-1.8h-0.8L-216.1,268.4
		L-216.1,268.4z"/>
	<path class="st6" d="M-209.7,262.6h2.5v5.7l0,0l0.6-1.6l1.7-4.1h2.7l-2.8,5.5l2.8,7.2h-2.7l-1.8-5.2l-0.6,1v4.2h-2.5v-12.7H-209.7z
		"/>
	<g id="Page-1">
		<g id="xamagon">
			<path id="Logo" class="st6" d="M-282,260.8c-0.6-0.1-1.2,0.1-1.5,0.6l-4.5,7.7c-0.3,0.5-0.3,1.1,0,1.6l4.5,7.7
				c0.3,0.5,0.9,0.8,1.5,0.7h9.1c0.6,0.1,1.2-0.2,1.5-0.7l4.5-7.7c0.3-0.5,0.3-1.1,0-1.6l-4.5-7.5c-0.3-0.5-0.9-0.7-1.5-0.6h-9.1
				V260.8z M-281.9,264.5v-0.3h1.6l0.2,0.5l2.6,4.9l0,0l2.6-5l0.2-0.3h1.6c0.2,0.1,0.3,0.4,0.2,0.6l-2.6,4.8l2.6,4
				c0.1,0.1,0-0.3-0.2-0.3h-1.6c0,0.2-0.1,0.4-0.2,0.6l-2.6-4.3l0,0l-2.6,4.1c0-0.2-0.1-0.4-0.2-0.6h-1.6c-0.1,0.1-0.1,0.2-0.2,0.3
				l2.6-4.3l-2.6-4.5c-0.1-0.1,0-0.2,0.1-0.3l0,0L-281.9,264.5v0.4V264.5z"/>
		</g>
	</g>
</g>
</svg>
