<?xml version="1.0" encoding="utf-8"?>
<!-- Generator: Adobe Illustrator 19.0.0, SVG Export Plug-In . SVG Version: 6.00 Build 0)  -->
<svg version="1.1" id="Capa_1" xmlns="http://www.w3.org/2000/svg" xmlns:xlink="http://www.w3.org/1999/xlink" x="0px" y="0px"
	 viewBox="-279 81 400 400" style="enable-background:new -279 81 400 400;" xml:space="preserve">
<style type="text/css">
	.st0{fill:#3F4F7F;}
	.st1{filter:url(#filter-2);}
	.st2{fill:#7C8AAB;}
	.st3{filter:url(#filter-4);}
	.st4{fill:#FFD130;}
	.st5{filter:url(#filter-6);}
	.st6{fill:#FFFFFF;}
</style>
<filter  width="200%" height="200%" id="filter-6" y="-50%" x="-50%" filterUnits="objectBoundingBox">
	<feOffset  result="shadowOffsetOuter1" in="SourceAlpha" dy="4" dx="0"></feOffset>
	<feGaussianBlur  stdDeviation="2" result="shadowBlurOuter1" in="shadowOffsetOuter1"></feGaussianBlur>
	<feColorMatrix  type="matrix" values="0 0 0 0 0   0 0 0 0 0   0 0 0 0 0  0 0 0 0.5 0" in="shadowBlurOuter1"></feColorMatrix>
</filter>
<filter  width="200%" height="200%" id="filter-4" y="-50%" x="-50%" filterUnits="objectBoundingBox">
	<feOffset  result="shadowOffsetOuter1" in="SourceAlpha" dy="2" dx="0"></feOffset>
	<feGaussianBlur  stdDeviation="2" result="shadowBlurOuter1" in="shadowOffsetOuter1"></feGaussianBlur>
	<feColorMatrix  type="matrix" values="0 0 0 0 0   0 0 0 0 0   0 0 0 0 0  0 0 0 0.5 0" in="shadowBlurOuter1"></feColorMatrix>
</filter>
<filter  width="200%" height="200%" id="filter-2" y="-50%" x="-50%" filterUnits="objectBoundingBox">
	<feOffset  result="shadowOffsetOuter1" in="SourceAlpha" dy="4" dx="0"></feOffset>
	<feGaussianBlur  stdDeviation="2" result="shadowBlurOuter1" in="shadowOffsetOuter1"></feGaussianBlur>
	<feColorMatrix  type="matrix" values="0 0 0 0 0   0 0 0 0 0   0 0 0 0 0  0 0 0 0.5 0" in="shadowBlurOuter1"></feColorMatrix>
</filter>
<title></title>
<desc></desc>
<g id="Page-1">
	<g id="eye">
		<path id="Oval-6" class="st0" d="M-79,481c110.5,0,200-89.5,200-200S31.5,81-79,81s-200,89.5-200,200S-189.5,481-79,481z"/>
		<g id="Oval-45">
			<g class="st1">
				<path id="path-1_2_" d="M-79,381C3.8,381,71,281,71,281S3.8,181-79,181s-150,100-150,100S-161.8,381-79,381z"/>
			</g>
			<g>
				<path id="path-1_1_" class="st2" d="M-79,381C3.8,381,71,281,71,281S3.8,181-79,181s-150,100-150,100S-161.8,381-79,381z"/>
			</g>
		</g>
		<g id="Oval-46">
			<g class="st3">
				<circle id="path-3_2_" cx="-79" cy="281" r="70"/>
			</g>
			<g>
				<circle id="path-3_1_" class="st4" cx="-79" cy="281" r="70"/>
			</g>
		</g>
		<g id="Oval-47">
			<g class="st5">
				<circle id="path-5_2_" cx="-79" cy="281" r="40"/>
			</g>
			<g>
				<circle id="path-5_1_" class="st2" cx="-79" cy="281" r="40"/>
			</g>
		</g>
		<path id="Combined-Shape" class="st6" d="M-79.6,301C-79.6,301-79.6,301-79.6,301c0.2,0,0.4,0,0.6,0c11,0,20-9,20-20
			c0-0.2,0-0.4,0-0.6c0,0,0,0,0,0c0.3-2.5,2.4-4.4,5-4.4c1.7,0,3.1,0.8,4.1,2.1c0.6,0.6,0.9,1.5,0.9,2.9c0,16.6-13.4,30-30,30
			c-1.4,0-2.4-0.3-2.9-0.9c-1.3-0.9-2.1-2.4-2.1-4.1C-84,303.4-82.1,301.3-79.6,301L-79.6,301z"/>
	</g>
</g>
</svg>
