<?xml version="1.0" encoding="utf-8"?>
<!-- Generator: Adobe Illustrator 19.0.0, SVG Export Plug-In . SVG Version: 6.00 Build 0)  -->
<svg version="1.1" id="Capa_1" xmlns="http://www.w3.org/2000/svg" xmlns:xlink="http://www.w3.org/1999/xlink" x="0px" y="0px"
	 viewBox="-447 249 64 64" style="enable-background:new -447 249 64 64;" xml:space="preserve">
<style type="text/css">
	.st0{fill:#3F4F7F;}
	.st1{opacity:0.2;}
	.st2{fill:#231F20;}
	.st3{fill:#FFFFFF;}
	.st4{fill:#7C8AAB;}
</style>
<g id="Layer_1">
	<g>
		<circle class="st0" cx="-415" cy="281" r="32"/>
	</g>
	<g class="st1">
		<path class="st2" d="M-399,299c0,2.2-1.8,4-4,4h-24c-2.2,0-4-1.8-4-4v-32c0-2.2,1.8-4,4-4h24c2.2,0,4,1.8,4,4V299z"/>
	</g>
	<g>
		<path class="st3" d="M-399,297c0,2.2-1.8,4-4,4h-24c-2.2,0-4-1.8-4-4v-32c0-2.2,1.8-4,4-4h24c2.2,0,4,1.8,4,4V297z"/>
	</g>
	<g class="st1">
		<g>
			<path class="st2" d="M-412,263v7.8c0,0.3,0.2,0.5,0.4,0.6c0.1,0,0.2,0,0.3,0c0.2,0,0.3-0.1,0.5-0.2l2.9-2.8l2.9,2.8
				c0.1,0.1,0.3,0.2,0.5,0.2c0.1,0,0.2,0,0.3,0c0.2-0.1,0.4-0.3,0.4-0.6V263H-412z"/>
		</g>
	</g>
	<g>
		<g>
			<path class="st4" d="M-412,261v7.8c0,0.3,0.2,0.5,0.4,0.6c0.1,0,0.2,0,0.3,0c0.2,0,0.3-0.1,0.5-0.2l2.9-2.8l2.9,2.8
				c0.1,0.1,0.3,0.2,0.5,0.2c0.1,0,0.2,0,0.3,0c0.2-0.1,0.4-0.3,0.4-0.6V261H-412z"/>
		</g>
	</g>
	<g>
		<rect x="-427" y="261" class="st4" width="3" height="40"/>
	</g>
</g>
<g id="Layer_2">
</g>
</svg>
