<?xml version="1.0" encoding="utf-8"?>
<!-- Generator: Adobe Illustrator 19.0.0, SVG Export Plug-In . SVG Version: 6.00 Build 0)  -->
<svg version="1.1" id="Layer_1" xmlns="http://www.w3.org/2000/svg" xmlns:xlink="http://www.w3.org/1999/xlink" x="0px" y="0px"
	 viewBox="-447 249 64 64" style="enable-background:new -447 249 64 64;" xml:space="preserve">
<style type="text/css">
	.st0{fill:#3F4F7F;}
	.st1{fill:#FFFFFF;}
	.st2{fill:#7C8AAB;}
</style>
<circle class="st0" cx="-415.4" cy="281" r="32"/>
<path class="st1" d="M-404.8,289.7c-6.8,6.8-6.8,9.9-4.9,11.9c1.9,1.9,5,2,11.9-4.9c6.8-6.8,12.6-27.8,10.7-29.7
	C-389,265-397.9,282.9-404.8,289.7z"/>
<g>
	<path class="st2" d="M-418.9,305.6c2.2,2.2,11,2.9,15.2-1.4c0.4-0.4,0.8-1,1.1-1.5c-6.6-0.2-10.1-2.4-11.9-4.1
		C-415.2,300.8-415.9,303.6-418.9,305.6z"/>
	<path class="st2" d="M-403.2,294.8c-2.4-2.4-6.9-1.9-9.4,0.5c-1,1-1.5,2-1.9,3.2c1.7,1.7,5.1,6.9,11.9,4.1
		C-401.2,300.2-401.2,296.8-403.2,294.8z"/>
</g>
<path class="st2" d="M-414.5,298.6c0,0,4-0.8,5.9,2.1c1.9,2.8,5.9,2,5.9,2l-5.2,2.9l-5.2-3.8L-414.5,298.6z"/>
<g>
	<g>
		<g>
			<g>
				<path class="st2" d="M-410.2,272.5c0-9.5-7.8-17.1-17.1-16.5c-7.9,0.6-14.4,7.3-14.8,15.5c-0.4,6.5,2.9,12.2,7.9,15.2
					c1.1,0.7,4.1,5.2,3.4,8.3c-0.1,0.5-0.1,1-0.1,1.6l9.1-0.5c0-0.2,0-0.5,0-0.8c-0.5-3.4,2.5-7.9,3.6-8.6
					C-413.4,284-410.2,278.7-410.2,272.5z"/>
			</g>
		</g>
	</g>
	<g>
		<g>
			<g>
				<g>
					<g>
						<path class="st1" d="M-428,295.2c0.7-3.1-2.3-7.7-3.4-8.3c-5-3-8.3-8.8-7.9-15.2c0.5-8.2,6.7-14.8,14.6-15.5
							c-0.8-0.1-1.6-0.1-2.5,0c-8,0.5-14.4,7.2-14.8,15.5c-0.4,6.5,2.9,12.2,7.9,15.2c1.1,0.7,4.1,5.2,3.4,8.3
							c-0.1,0.5-0.1,1-0.1,1.6l2.7-0.1C-428.2,296.1-428.2,295.6-428,295.2z"/>
					</g>
				</g>
			</g>
		</g>
		<g>
			<g>
				<g>
					<g>
						<path class="st1" d="M-410.5,274l-6-4.7l2.5-7.4h0.6v0.8l0.5,0.2l-2,5.9l4.7,3.7h0.6c0,0.1,0,0.2,0,0.4v0.5L-410.5,274z"/>
					</g>
				</g>
			</g>
			<g>
				<g>
					<g>
						<polygon class="st1" points="-430.2,288.9 -430.6,288.3 -431.1,288.5 -433.2,282.6 -439.1,282.9 -439.1,281.4 -432.3,281.2 
							-429.6,288.5 						"/>
					</g>
				</g>
			</g>
			<g>
				<g>
					<g>
						<polygon class="st1" points="-422,288.9 -422.5,288.5 -420,281.1 -412.5,281.2 -412.3,281.7 -413,281.9 -413,282.6 
							-419.1,282.5 -421,288.5 -421.5,288.3 						"/>
					</g>
				</g>
			</g>
			<g>
				<g>
					<g>
						<path class="st1" d="M-421.8,278.2h-8.7l-2.7-8.5l7-5.2l7,5.2L-421.8,278.2z M-429.5,276.8h6.7l2.1-6.6l-5.4-4.1l-5.4,4.1
							L-429.5,276.8z"/>
					</g>
				</g>
			</g>
			<g>
				<g>
					<g>
						<polygon class="st1" points="-421.7,277.1 -419,281.4 -420.1,282.2 -422.9,277.9 						"/>
					</g>
				</g>
			</g>
			<g>
				<g>
					<g>
						<polygon class="st1" points="-430.6,277.1 -429.4,277.9 -432.1,282.3 -433.3,281.5 						"/>
					</g>
				</g>
			</g>
			<g>
				<g>
					<g>
						
							<rect x="-428.3" y="262.5" transform="matrix(-3.882163e-003 -1 1 -3.882163e-003 -690.9719 -161.9831)" class="st1" width="4.3" height="1.4"/>
					</g>
				</g>
			</g>
			<g>
				<g>
					<g>
						<polygon class="st1" points="-415.8,268.3 -415.5,269.7 -419.8,270.7 -420.1,269.3 						"/>
					</g>
				</g>
			</g>
			<g>
				<g>
					<g>
						<polygon class="st1" points="-441.8,273.8 -442.8,273 -442.8,272.5 -442.1,272.5 -442.2,272.3 -437.2,268.7 -439.1,262.7 
							-438.8,262.6 -438.8,261.8 -437.9,261.8 -435.6,269.3 						"/>
					</g>
				</g>
			</g>
			<g>
				<g>
					<g>
						<polygon class="st1" points="-436.3,268.3 -432.2,269.3 -432.5,270.7 -436.6,269.7 						"/>
					</g>
				</g>
			</g>
			<g>
				<g>
					<g>
						<polygon class="st1" points="-426.2,261.8 -431.9,257.5 -431,256.4 -426.2,260.1 -421.2,256.4 -420.9,257 -420.2,256.7 
							-420,257.3 -420.5,257.6 						"/>
					</g>
				</g>
			</g>
		</g>
	</g>
	<g>
		<g>
			<g>
				<polygon class="st0" points="-415.4,303.3 -437,303.3 -434.6,296.7 -417.6,296.7 				"/>
			</g>
		</g>
	</g>
	<g>
		<g>
			<g>
				<polygon class="st1" points="-421.6,301.2 -430.7,301.2 -430.3,298.8 -422.1,298.8 				"/>
			</g>
		</g>
	</g>
	<g>
		<g>
			<g>
				<path class="st1" d="M-422,299.3l-0.1-0.5h-8.2l-0.5,2.4h0.5l0,0c0.2-1.1,1.1-1.9,2.2-1.9H-422z"/>
			</g>
		</g>
	</g>
	<g>
		<g>
			<g>
				<polygon class="st1" points="-434.6,296.7 -437,303.3 -434.3,303.3 -431.9,296.7 				"/>
			</g>
		</g>
	</g>
	<g>
		<g>
			<g>
				<path class="st1" d="M-415.4,304L-415.4,304H-437c-0.2,0-0.5-0.1-0.5-0.3s-0.1-0.4-0.1-0.7l2.4-6.6c0.1-0.3,0.4-0.5,0.6-0.5h17
					c0.3,0,0.5,0.2,0.6,0.5l2.1,6.5c0,0.1,0.1,0.2,0.1,0.3C-414.8,303.7-415,304-415.4,304z M-436,302.6h19.6l-1.7-5.2h-16
					L-436,302.6z"/>
			</g>
		</g>
	</g>
	<g>
		<g>
			<g>
				<path class="st1" d="M-430.9,297.4c-0.4,0-0.6-0.3-0.7-0.7c0-0.6,0-1.2,0.1-1.7c0.6-2.8-2.2-7.1-3.1-7.6
					c-5.4-3.3-8.6-9.3-8.3-15.8c0.5-8.6,7.1-15.6,15.4-16.2c4.7-0.3,9.1,1.3,12.5,4.6c3.4,3.3,5.3,7.8,5.3,12.6
					c0,6.1-3.2,11.8-8.3,14.9c-0.9,0.5-3.8,4.8-3.3,7.9c0,0.3,0,0.6,0,0.8c0,0.4-0.3,0.7-0.7,0.7s-0.7-0.3-0.7-0.7
					c0-0.2,0-0.4,0-0.7c-0.5-3.6,2.6-8.5,4-9.4c4.7-2.8,7.7-8.1,7.7-13.7c0-4.4-1.8-8.6-4.9-11.6c-3-3-7.1-4.5-11.4-4.1
					c-7.7,0.6-13.7,6.9-14.2,14.9c-0.3,6,2.6,11.6,7.6,14.6c1.4,0.8,4.5,5.8,3.7,9.1c-0.1,0.4-0.1,0.8-0.1,1.3
					C-430.2,297-430.4,297.4-430.9,297.4C-430.9,297.4-430.9,297.4-430.9,297.4z"/>
			</g>
		</g>
	</g>
	<g>
		<g>
			<g>
				<path class="st1" d="M-426.2,289.7c-9.2,0-16.6-7.7-16.6-17.2c0-0.4,0.3-0.7,0.7-0.7s0.7,0.3,0.7,0.7c0,8.7,6.8,15.8,15.3,15.8
					c8.4,0,15.3-7.1,15.3-15.8c0-0.4,0.3-0.7,0.7-0.7c0.4,0,0.7,0.3,0.7,0.7C-409.5,282-417,289.7-426.2,289.7z"/>
			</g>
		</g>
	</g>
</g>
</svg>
