<?xml version="1.0" encoding="utf-8"?>
<!-- Generator: Adobe Illustrator 19.0.0, SVG Export Plug-In . SVG Version: 6.00 Build 0)  -->
<svg version="1.1" id="Capa_1" xmlns="http://www.w3.org/2000/svg" xmlns:xlink="http://www.w3.org/1999/xlink" x="0px" y="0px"
	 viewBox="-447 249 64 64" style="enable-background:new -447 249 64 64;" xml:space="preserve">
<style type="text/css">
	.st0{fill:#3F4F7F;}
	.st1{opacity:0.2;}
	.st2{fill:#231F20;}
	.st3{fill:#7C8AAB;}
	.st4{fill:#C75C5C;}
	.st5{fill:#FFFFFF;}
</style>
<g id="Layer_1">
	<g>
		<circle class="st0" cx="-415.2" cy="281" r="32"/>
	</g>
	<g>
		<g>
			<g class="st1">
				<path class="st2" d="M-419,272v-9h-13c-1.7,0-3,1.3-3,3v34c0,1.7,1.3,3,3,3h22c1.7,0,3-1.3,3-3v-25h-9
					C-417.7,275-419,273.7-419,272z"/>
			</g>
			<g>
				<path class="st3" d="M-410,261h-9h-13c-1.7,0-3,1.3-3,3v25v9c0,1.7,1.3,3,3,3h9h13c1.7,0,3-1.3,3-3v-25v-9
					C-407,262.3-408.3,261-410,261z"/>
			</g>
		</g>
		<g class="st1">
			<rect x="-431" y="268" class="st2" width="10" height="2"/>
		</g>
		<g class="st1">
			<rect x="-431" y="284" class="st2" width="20" height="2"/>
		</g>
		<g class="st1">
			<rect x="-431" y="279" class="st2" width="20" height="2"/>
		</g>
		<g class="st1">
			<rect x="-431" y="274" class="st2" width="20" height="2"/>
		</g>
		<g class="st1">
			<rect x="-431" y="289" class="st2" width="20" height="2"/>
		</g>
		<g class="st1">
			<rect x="-431" y="294" class="st2" width="20" height="2"/>
		</g>
	</g>
	<g class="st1">
		<path class="st2" d="M-391.9,270.9l-7.1-7.1c-1.2-1.2-3.1-1.2-4.2,0l-3.5,3.5l-0.7,0.7l-16.3,16.3l-1.9,9.4l-0.9,4.7l4.7-0.9
			l9.4-1.9l16.3-16.3l0.7-0.7l3.5-3.5C-390.7,273.9-390.7,272-391.9,270.9z"/>
	</g>
	<g>
		<path class="st4" d="M-396.1,277.4c-1.2,1.2-3.1,1.2-4.2,0l-7.1-7.1c-1.2-1.2-1.2-3.1,0-4.2l4.2-4.2c1.2-1.2,3.1-1.2,4.2,0
			l7.1,7.1c1.2,1.2,1.2,3.1,0,4.2L-396.1,277.4z"/>
	</g>
	<g>
		
			<rect x="-425.8" y="273.3" transform="matrix(-0.7071 0.7071 -0.7071 -0.7071 -511.7231 762.5906)" class="st5" width="24" height="4"/>
	</g>
	<g>
		
			<rect x="-423.3" y="276.3" transform="matrix(-0.7071 0.7071 -0.7071 -0.7071 -502.1885 768.539)" class="st3" width="26" height="8"/>
	</g>
	<g>
		
			<rect x="-417.3" y="281.8" transform="matrix(-0.7071 0.7071 -0.7071 -0.7071 -491.2387 771.0762)" class="st5" width="24" height="4"/>
	</g>
	<g>
		<g>
			<polygon class="st2" points="-426.5,296.5 -421.8,295.6 -425.6,291.8 			"/>
		</g>
		<g>
			<polygon class="st5" points="-423.7,282.4 -425.6,291.8 -421.8,295.6 -412.4,293.7 -413.8,292.3 -413.8,289.5 -419.5,289.5 
				-419.5,283.8 -422.3,283.8 			"/>
		</g>
	</g>
</g>
<g id="Layer_2">
</g>
</svg>
