<?xml version="1.0" encoding="utf-8"?>
<!-- Generator: Adobe Illustrator 19.0.0, SVG Export Plug-In . SVG Version: 6.00 Build 0)  -->
<svg version="1.1"
	 id="Capa_1" xmlns:rdf="http://www.w3.org/1999/02/22-rdf-syntax-ns#" xmlns:dc="http://purl.org/dc/elements/1.1/" xmlns:cc="http://creativecommons.org/ns#"
	 xmlns="http://www.w3.org/2000/svg" xmlns:xlink="http://www.w3.org/1999/xlink" x="0px" y="0px" viewBox="-177 218 603.7 125"
	 style="enable-background:new -177 218 603.7 125;" xml:space="preserve">
<style type="text/css">
	.st0{clip-path:url(#SVGID_2_);}
	.st1{clip-path:url(#SVGID_4_);}
	.st2{fill:#202020;}
	.st3{fill:#FFFFFF;}
	.st4{fill:#6C6C6C;}
	.st5{fill:#CFCFCF;}
	.st6{fill:none;stroke:#202020;stroke-width:8.600000e-002;}
	.st7{fill:none;stroke:#202020;stroke-width:2.900000e-002;}
</style>
<g>
	<defs>
		<rect id="SVGID_1_" x="-201.5" y="201.4" width="666.1" height="155.7"/>
	</defs>
	<clipPath id="SVGID_2_">
		<use xlink:href="#SVGID_1_"  style="overflow:visible;"/>
	</clipPath>
	<g class="st0">
		<g transform="matrix(3.24766 0 0 -3.24766 -207.902 1902.837)">
			<defs>
				<polyline id="SVGID_3_" points="9.5,518.8 9.5,434 195.4,434 195.4,518.8 				"/>
			</defs>
			<clipPath id="SVGID_4_">
				<use xlink:href="#SVGID_3_"  style="overflow:visible;"/>
			</clipPath>
			<g class="st1">
				<path class="st2" d="M17.1,518.2h17.7l0.8,0h1.8c0.9,0,2.3,0,4.3,0.1l0.7,0c-0.1-1.5-0.1-2.2-0.1-3l0-2.4l0-2.3v-12.6
					c0-7.9-1.8-10.6-10.3-14.8c-0.4-0.2-4.7-2.4-5.2-2.6l-0.4-0.2l-0.4-0.2l-0.4,0.2l-0.4,0.2c-1.8,0.9-3.6,1.8-5,2.5
					c-7.8,3.8-10.3,6.6-10.3,15v12.6l0,2.3l0,2.4c0,1.4,0,1.9-0.1,3l0.7,0c2-0.1,3.4-0.1,4.3-0.1h1.8L17.1,518.2"/>
				<path class="st3" d="M25.9,481.1l3.4,1.7l0.1,0l0,0.1v15.5l0,0.1l0.1,0h12.2l0.1,0l0,0.1v6.6l0,0.1l-0.1,0H29.4l-0.1,0l0,0.1
					v12.3l0,0.1l-0.1,0h-6.7l-0.1,0l0-0.1v-12.3l0-0.1l-0.1,0H10.4l-0.1,0l0-0.1v-6.6l0-0.1l0.1,0h12.1l0.1,0l0-0.1v-15.4l0-0.1
					l0.1,0L25.9,481.1"/>
				<path class="st4" d="M10.4,517.6l-0.2,0l0-0.1v-12.3l0-0.1l0.1,0h12l0.1,0l0,0.1v12.3l0,0.1l-0.1,0H10.4 M29.5,517.6l-0.1,0
					l0-0.1v-12.3l0-0.1l0.1,0h12.1l0.1,0l0,0.1v12.3l0,0.1l-0.1,0H29.5 M22.5,498.4H10.3l-0.1,0l0-0.1v-0.7c0-6.8,2.3-10.1,9.2-13.4
					l2.2-1.1l0.8-0.4l0.1-0.1l0,0.1L22.5,498.4L22.5,498.4L22.5,498.4 M29.4,498.4L29.4,498.4L29.4,498.4l-0.1-15.5l0-0.1l0.1,0.1
					l0.7,0.3c9.4,4.4,11.6,7.1,11.6,14.4v0.8l0,0.1l-0.1,0L29.4,498.4"/>
				<path class="st2" d="M12.3,504.5C12.3,504.5,12.3,504.4,12.3,504.5c0.1-0.1,0.1-0.2,0.2-0.2c0,0,0,0,0.1-0.1l0.1-0.1
					c0,0,0,0-0.1,0l-0.1-0.1l-0.1-0.1l0,0v-0.1c0-0.9,0.2-1.4,0.7-1.8l0.1-0.1l-0.1-0.1l-0.1,0l-0.2,0l-0.2,0l-0.1,0l-0.1-0.8h-0.1
					l-0.1,0.8l-0.1,0c-0.1,0-0.1,0-0.2,0l-0.2,0l-0.1,0c0,0-0.1,0-0.1,0c0,0,0,0,0,0.1l0.2,0.1c0.1,0.1,0.2,0.2,0.4,0.5
					c0.1,0.1,0.1,0.3,0.1,0.3c0,0.2,0,0.4,0.1,0.4l0,0.4l0,0.1l0,0l-0.1,0.1l-0.1,0.1l0,0c0,0,0.1,0.1,0.1,0.1
					C12.2,504.4,12.2,504.4,12.3,504.5 M16.3,504.5c0.1-0.1,0.1-0.1,0.2-0.3l0.1-0.1l0,0l-0.1-0.1l-0.1-0.1l-0.1,0l0-0.1l0-0.4
					c0-0.6,0.3-1.2,0.7-1.4c0.1,0,0.1-0.1,0.1-0.1c0,0,0-0.1,0-0.1l-0.1,0l-0.2,0l-0.2,0l-0.1,0l-0.1-0.8h-0.1l-0.1,0.8l-0.1,0
					l-0.2,0l-0.2,0l-0.1,0l0,0c0,0-0.1,0-0.1,0c0,0,0,0,0,0.1l0.2,0.1c0.1,0.1,0.2,0.2,0.4,0.5c0.1,0.1,0.1,0.3,0.1,0.3
					c0,0.2,0,0.4,0.1,0.4l0,0.4l0,0.1c0,0,0,0,0,0c-0.1,0.1-0.1,0.1-0.1,0.1l-0.1,0.1l0,0l0.1,0.1c0.1,0,0.1,0.1,0.1,0.1
					C16.1,504.3,16.1,504.4,16.3,504.5C16.2,504.4,16.2,504.5,16.3,504.5 M14.3,502.2L14.3,502.2l0.1-0.2c0,0,0-0.1,0.1-0.1l0.1-0.1
					l-0.1,0l-0.1-0.1l-0.1-0.1l0,0v-0.1c0-0.9,0.2-1.4,0.7-1.8l0.1-0.1l-0.1-0.1l-0.1,0l-0.2,0l-0.2,0l-0.1,0l-0.1-0.8h-0.1
					l-0.1,0.8l-0.1,0l-0.2,0l-0.2,0l-0.1,0h0c0,0-0.1,0-0.1,0c0,0,0,0,0.1,0.1l0.2,0.1c0.3,0.3,0.6,1,0.6,1.7v0.1l0,0l-0.1,0.1
					l-0.1,0.1l-0.1,0C14.1,501.9,14.2,502,14.3,502.2 M18.3,502.2c0.1-0.1,0.2-0.2,0.3-0.4l-0.1,0l-0.1-0.1l-0.1-0.1l0,0l0-0.1
					c0-0.6,0.2-1.3,0.4-1.5l0.2-0.2c0,0,0.1-0.1,0.1-0.1l0.1-0.1l-0.1-0.1l-0.1,0l-0.2,0l-0.2,0l-0.1,0l-0.1-0.8h-0.1l-0.1,0.8
					l-0.1,0l-0.2,0l-0.2,0l-0.1,0h0c0,0-0.1,0-0.1,0c0,0,0,0,0,0.1l0.2,0.1c0.3,0.3,0.6,1,0.6,1.7v0.1l0,0l-0.1,0.1l-0.1,0.1l-0.1,0
					c0,0,0.1,0.1,0.1,0.1c0,0,0.1,0.1,0.1,0.1L18.3,502.2L18.3,502.2 M20.3,504.5c0.1-0.1,0.1-0.1,0.2-0.3c0,0,0,0,0.1-0.1l0,0
					l-0.1-0.1l-0.1-0.1l0,0l0-0.1l0-0.4c0-0.5,0.3-1.2,0.7-1.4c0.1,0,0.1-0.1,0.1-0.1c0,0,0-0.1,0-0.1l-0.1,0l-0.2,0
					c0,0-0.1,0-0.2,0l-0.1,0l-0.1-0.8h-0.1l-0.1,0.8l-0.1,0l-0.2,0l-0.2,0l-0.1,0l0,0c0,0-0.1,0-0.1,0c0,0,0,0,0,0.1l0.2,0.1
					c0.1,0.1,0.2,0.2,0.4,0.5c0.1,0.1,0.1,0.3,0.1,0.3c0,0.2,0,0.4,0.1,0.4l0,0.4l0,0.1l0,0l-0.1,0.1c0,0-0.1,0.1-0.1,0.1
					c0,0,0,0-0.1,0l0.1,0.1c0.1,0,0.1,0.1,0.1,0.1C20.1,504.3,20.2,504.4,20.3,504.5C20.2,504.4,20.2,504.4,20.3,504.5 M31.6,504.5
					L31.6,504.5l0.1-0.2c0-0.1,0.1-0.1,0.1-0.1c0,0,0.1,0,0.1-0.1l-0.1,0l-0.1-0.1l-0.1-0.1l0,0v-0.1c0-0.8,0.3-1.6,0.7-1.8
					c0.1,0,0.1-0.1,0.1-0.1l0,0l-0.1,0h-0.1c-0.1,0-0.3,0-0.5,0.1l-0.1-0.8h-0.1l-0.1,0.8c-0.1,0-0.4-0.1-0.5-0.1h-0.1
					c-0.1,0-0.1,0-0.1,0c0,0,0,0.1,0.1,0.1c0.4,0.2,0.7,1,0.7,1.8v0.1l0,0l-0.1,0.1l-0.1,0.1l-0.1,0c0,0,0.1,0.1,0.1,0.1
					c0,0,0,0,0.1,0.1L31.6,504.5L31.6,504.5 M35.6,504.5L35.6,504.5l0.2-0.2l0.1-0.1l0.1-0.1l-0.1,0l-0.1-0.1l-0.1-0.1l0,0l0-0.1
					c0-0.8,0.3-1.6,0.7-1.8c0.1,0,0.1-0.1,0.1-0.1l0,0l-0.1,0h-0.1c-0.1,0-0.3,0-0.5,0.1l-0.1-0.8h-0.1l-0.1,0.8
					c-0.2-0.1-0.4-0.1-0.5-0.1c-0.1,0-0.1,0-0.1,0c0,0,0,0.1,0.1,0.1c0.1,0,0.2,0.2,0.3,0.3c0.2,0.3,0.3,0.5,0.3,0.6
					c0,0.2,0,0.4,0.1,0.4l0,0.4l0,0.1c0,0,0,0,0,0c-0.1,0.1-0.1,0.1-0.2,0.2l0.1,0.1l0.1,0.1L35.6,504.5L35.6,504.5 M33.6,502.2
					C33.6,502.1,33.7,502.1,33.6,502.2c0.1-0.1,0.1-0.2,0.2-0.2c0,0,0,0,0.1-0.1c0,0,0.1,0,0.1-0.1l-0.1,0l-0.1-0.1l-0.1-0.1l0,0
					l0-0.1l0-0.4c0-0.6,0.3-1.2,0.7-1.4c0.1,0,0.1-0.1,0.1-0.1l0,0l-0.1,0h-0.1c-0.1,0-0.3,0-0.5,0.1l-0.1-0.8h-0.1l-0.1,0.8
					c-0.1-0.1-0.3-0.1-0.5-0.1c-0.1,0-0.1,0-0.1,0c0,0,0,0,0.1,0.1c0.1,0,0.2,0.2,0.3,0.3c0.2,0.3,0.3,0.5,0.3,0.6
					c0,0.2,0,0.4,0.1,0.4l0,0.4l0,0.1l0,0l-0.1,0.1l-0.1,0.1l0,0l0.1,0.1C33.5,502,33.5,502.1,33.6,502.2 M37.6,502.2
					C37.7,502.1,37.7,502.1,37.6,502.2c0.1-0.1,0.1-0.2,0.2-0.2c0,0,0,0,0.1-0.1c0,0,0,0,0.1-0.1c0,0,0,0,0,0
					c-0.1-0.1-0.1-0.1-0.1-0.1c-0.1,0-0.1-0.1-0.1-0.1c0,0,0,0,0,0l0-0.1l0-0.4c0-0.6,0.3-1.2,0.7-1.4c0.1,0,0.1-0.1,0.1-0.1l0,0
					l-0.1,0h-0.1c-0.1,0-0.3,0-0.5,0.1l-0.1-0.8h-0.1l-0.1,0.8c-0.1-0.1-0.3-0.1-0.5-0.1c-0.1,0-0.1,0-0.1,0c0,0,0,0,0.1,0.1
					c0.1,0,0.2,0.2,0.3,0.3c0.2,0.3,0.3,0.5,0.3,0.6c0,0.2,0,0.4,0.1,0.4l0,0.4l0,0.1l0,0l-0.1,0.1l-0.1,0.1l0,0l0.1,0.1
					C37.5,502,37.6,502.1,37.6,502.2 M39.6,504.5L39.6,504.5l0.2-0.2l0.1-0.1l0.1-0.1l-0.1,0l-0.1-0.1l-0.1-0.1l0,0v-0.1
					c0-0.8,0.3-1.6,0.7-1.8c0.1,0,0.1-0.1,0.1-0.1l0,0l-0.1,0h-0.1c-0.1,0-0.3,0-0.5,0.1l-0.1-0.8h-0.1l-0.1,0.8
					c-0.2-0.1-0.4-0.1-0.5-0.1c-0.1,0-0.1,0-0.1,0c0,0,0,0.1,0.1,0.1c0.1,0,0.2,0.2,0.3,0.3c0.2,0.3,0.3,0.5,0.3,0.6
					c0,0.2,0,0.4,0.1,0.4l0,0.4l0,0.1c0,0,0,0,0,0c0,0-0.1,0.1-0.1,0.1l-0.1,0.1l0,0l0.1,0.1l0.1,0.1L39.6,504.5L39.6,504.5
					 M24.1,493.7c0.1-0.1,0.1-0.1,0.2-0.3c0,0,0,0,0.1-0.1l0,0l-0.1-0.1l-0.1-0.1l0,0l0-0.1l0-0.4c0-0.3,0.2-0.8,0.3-1
					c0.1-0.2,0.2-0.3,0.3-0.3c0.1,0,0.1-0.1,0.1-0.1c0,0,0,0-0.1,0c-0.2,0-0.4,0-0.5,0.1l-0.1-0.8H24l-0.1,0.8
					c-0.1,0-0.4-0.1-0.5-0.1h-0.1c-0.1,0-0.1,0-0.1,0c0,0,0,0.1,0.1,0.1c0.1,0.1,0.2,0.2,0.3,0.3c0.2,0.3,0.3,0.5,0.3,0.6
					c0,0.2,0,0.4,0.1,0.4l0,0.4l0,0.1l0,0l-0.1,0.1l-0.1,0.1l-0.1,0c0,0,0.1,0.1,0.1,0.1c0.1,0,0.1,0.1,0.1,0.1
					C23.9,493.5,24,493.5,24.1,493.7C24,493.6,24.1,493.6,24.1,493.7 M27.8,493.7c0.1-0.1,0.1-0.1,0.2-0.3c0,0,0,0,0.1-0.1l0,0
					l-0.1-0.1l-0.1-0.1l0,0l0-0.1l0-0.4c0-0.3,0.2-0.8,0.3-1c0.1-0.2,0.2-0.3,0.3-0.3c0.1,0,0.1-0.1,0.1-0.1c0,0,0,0-0.1,0
					c-0.2,0-0.4,0-0.5,0.1l-0.1-0.8h-0.1l-0.1,0.8c-0.1,0-0.4-0.1-0.5-0.1h-0.1c-0.1,0-0.1,0-0.1,0c0,0,0,0.1,0.1,0.1
					c0.1,0.1,0.2,0.2,0.3,0.3c0.2,0.3,0.3,0.5,0.3,0.6c0,0.2,0,0.4,0.1,0.4l0,0.4l0,0.1l0,0l-0.1,0.1l-0.1,0.1l-0.1,0
					c0,0,0.1,0.1,0.1,0.1c0.1,0,0.1,0.1,0.1,0.1C27.7,493.5,27.7,493.5,27.8,493.7C27.8,493.6,27.8,493.6,27.8,493.7 M25.9,490.2
					l0-0.1l0.1-0.1l0.1-0.1l0.1-0.1l0,0l-0.1-0.1c0,0,0,0-0.1-0.1c0,0,0,0,0,0l0-0.1l0-0.4c0-0.6,0.3-1.2,0.7-1.4
					c0.1,0,0.1-0.1,0.1-0.1l0,0l-0.1,0l-0.1,0l-0.2,0c0,0-0.1,0-0.2,0l-0.1,0l-0.1-0.8h-0.1l-0.1,0.8l-0.1,0l-0.2,0l-0.2,0l-0.1,0
					l0,0c0,0-0.1,0-0.1,0c0,0,0,0.1,0.1,0.1c0.1,0.1,0.2,0.2,0.3,0.3c0.2,0.3,0.3,0.5,0.3,0.6c0,0.2,0,0.4,0.1,0.4l0,0.4l0,0.1l0,0
					l-0.1,0.1l-0.1,0.1l-0.1,0l0.1,0.1l0.1,0.1L25.9,490.2L25.9,490.2 M24.1,486.8L24.1,486.8l0.2-0.2l0.1-0.1l0.1-0.1l0,0l-0.1-0.1
					l-0.1-0.1l0,0l0-0.1l0-0.4c0-0.6,0.3-1.2,0.7-1.4c0.1,0,0.1-0.1,0.1-0.1l0,0l-0.1,0h-0.1c-0.1,0-0.2,0-0.5,0.1l-0.1-0.7H24
					l-0.1,0.7c-0.2-0.1-0.4-0.1-0.5-0.1c-0.1,0-0.1,0-0.1,0c0,0,0,0,0.1,0.1c0.1,0,0.2,0.2,0.3,0.3c0.2,0.3,0.3,0.5,0.3,0.6
					c0,0.2,0,0.4,0.1,0.4l0,0.4l0,0.1c0,0,0,0,0,0c0,0-0.1,0.1-0.1,0.1l-0.1,0.1l0,0l0.1,0.1l0.1,0.1L24.1,486.8L24.1,486.8
					 M27.8,486.8L27.8,486.8l0.1-0.2l0.1-0.1l0.1-0.1l0,0l-0.1-0.1c0,0,0,0-0.1-0.1c0,0,0,0,0,0l0-0.1l0-0.4c0-0.3,0.2-0.8,0.3-1
					c0.1-0.2,0.2-0.3,0.3-0.3c0.1,0,0.1-0.1,0.1-0.1c0,0,0,0-0.1,0c-0.1,0-0.3,0-0.5,0.1l-0.1-0.7h-0.1l-0.1,0.7
					c-0.2,0-0.4-0.1-0.5-0.1h-0.1c-0.1,0-0.1,0-0.1,0c0,0,0,0.1,0.1,0.1c0.1,0.1,0.2,0.2,0.3,0.3c0.2,0.3,0.3,0.5,0.3,0.6
					c0,0.2,0,0.4,0.1,0.4l0,0.4l0,0.1l0,0l-0.1,0.1l-0.1,0.1l-0.1,0l0.1,0.1l0.1,0.1L27.8,486.8L27.8,486.8 M25.9,497.1L25.9,497.1
					l0.1-0.2l0.1-0.1l0.1-0.1l0,0l-0.1-0.1c0,0,0,0-0.1-0.1c0,0,0,0,0,0l0-0.1l0-0.4c0-0.6,0.4-1.2,0.7-1.4c0.1,0,0.1-0.1,0.1-0.1
					c0,0,0,0-0.1,0c-0.1,0-0.3,0-0.5,0.1l-0.1-0.8h-0.1l-0.1,0.8c-0.2,0-0.4-0.1-0.5-0.1h-0.1c-0.1,0-0.1,0-0.1,0c0,0,0,0.1,0.1,0.1
					c0.1,0.1,0.2,0.2,0.3,0.3c0.2,0.3,0.3,0.5,0.3,0.6c0,0.2,0,0.4,0.1,0.4l0,0.4l0,0.1l0,0l-0.1,0.1l-0.1,0.1l-0.1,0l0.1,0.1
					l0.1,0.1L25.9,497.1L25.9,497.1 M24,516.3C24.1,516.2,24.1,516.2,24,516.3c0.1-0.1,0.1-0.2,0.2-0.2c0,0,0,0,0.1-0.1
					c0,0,0,0,0.1-0.1l0,0l-0.1-0.1c0,0,0,0-0.1-0.1c0,0,0,0,0,0l0-0.1l0-0.4c0-0.4,0.2-0.9,0.3-1.1l0.2-0.2c0,0,0,0,0.1-0.1l0.1-0.1
					l-0.1-0.1l-0.1,0l-0.2,0l-0.2,0l-0.1,0l-0.1-0.7l-0.1,0l-0.1,0.8l-0.1,0l-0.2,0l-0.2,0l-0.1,0c0,0-0.1,0-0.1,0c0,0,0,0,0,0.1
					c0,0,0.1,0,0.2,0.1c0.1,0.1,0.2,0.2,0.4,0.5c0.1,0.1,0.1,0.3,0.1,0.3c0,0.2,0,0.4,0.1,0.4l0,0.4l0,0.1l0,0l-0.1,0.1l-0.1,0.1
					l0,0c0,0,0.1,0.1,0.1,0.1C23.9,516.1,24,516.1,24,516.3 M27.8,516.3c0.1-0.1,0.1-0.1,0.2-0.3c0,0,0,0,0.1-0.1l0,0l-0.1-0.1
					l-0.1-0.1l0,0l0-0.1l0-0.4c0-0.6,0.3-1.2,0.7-1.4c0.1,0,0.1-0.1,0.1-0.1c0,0,0-0.1,0-0.1l-0.1,0l-0.2,0c0,0-0.1,0-0.2,0l-0.1,0
					l-0.1-0.8h-0.1l-0.1,0.8l-0.1,0l-0.2-0.1l-0.2,0l-0.1,0l0,0c0,0-0.1,0-0.1,0c0,0,0,0,0,0.1l0.2,0.1c0.1,0.1,0.2,0.2,0.4,0.5
					c0.1,0.1,0.1,0.3,0.1,0.3c0,0.2,0,0.4,0.1,0.4l0,0.4l0,0.1l0,0l-0.1,0.1c0,0-0.1,0.1-0.1,0.1c0,0,0,0-0.1,0c0,0,0.1,0.1,0.1,0.1
					c0.1,0,0.1,0.1,0.1,0.1C27.7,516.1,27.7,516.1,27.8,516.3C27.8,516.2,27.8,516.2,27.8,516.3 M25.9,513L25.9,513l0.2-0.2
					c0.1-0.1,0.1-0.1,0.1-0.1c0,0,0,0,0.1-0.1l-0.1,0l-0.1-0.1l-0.1-0.1l0,0l0-0.1l0-0.4c0-0.6,0.3-1.2,0.7-1.4
					c0.1,0,0.1-0.1,0.1-0.1l0,0l-0.1,0h-0.1c-0.1,0-0.3,0-0.5,0.1l-0.1-0.8h-0.1l-0.1,0.8c-0.1-0.1-0.3-0.1-0.5-0.1
					c-0.1,0-0.1,0-0.1,0c0,0,0,0.1,0.1,0.1c0.1,0,0.2,0.2,0.3,0.3c0.2,0.3,0.3,0.5,0.3,0.6c0,0.2,0,0.4,0.1,0.4l0,0.4l0,0.1
					c0,0,0,0,0,0c0,0-0.1,0.1-0.1,0.1l-0.1,0.1l0,0l0.1,0.1l0.1,0.1C25.8,512.8,25.8,512.9,25.9,513C25.9,512.9,25.9,512.9,25.9,513
					 M24,509.7L24,509.7l0.1-0.2c0,0,0-0.1,0.1-0.1l0.1-0.1c0,0,0,0-0.1,0l-0.1-0.1l-0.1-0.1l0,0l0-0.1c0-0.6,0.2-1.2,0.3-1.4
					l0.2-0.3c0,0,0,0,0.1-0.1l0.1-0.1l-0.1-0.1l-0.1,0l-0.2,0l-0.2,0l-0.1,0l-0.1-0.8H24l-0.1,0.8l-0.1,0l-0.2,0l-0.2,0l-0.1,0h0
					c0,0-0.1,0-0.1,0c0,0,0,0,0,0.1l0.2,0.1c0.3,0.3,0.6,1,0.6,1.7v0.1l0,0l-0.1,0.1c0,0-0.1,0.1-0.1,0.1c0,0,0,0-0.1,0
					c0,0,0.1,0.1,0.1,0.1c0,0,0.1,0.1,0.1,0.1L24,509.7L24,509.7 M27.8,509.7C27.9,509.7,27.9,509.6,27.8,509.7
					c0.1-0.1,0.1-0.2,0.2-0.2c0,0,0,0,0.1-0.1c0,0,0,0,0.1-0.1c0,0,0,0-0.1,0l-0.1-0.1l-0.1-0.1l0,0l0-0.1l0-0.4
					c0-0.6,0.3-1,0.7-1.4l0.1-0.1l-0.1-0.1l-0.1,0l-0.2,0l-0.2,0l-0.1,0l-0.1-0.8h-0.1l-0.1,0.8c-0.2,0-0.2-0.1-0.3-0.1l-0.2,0
					l-0.1,0h0c0,0-0.1,0-0.1,0c0,0,0,0,0,0.1l0.2,0.1c0.1,0.1,0.2,0.2,0.4,0.5c0.1,0.1,0.1,0.3,0.1,0.3c0,0.2,0,0.4,0.1,0.4l0,0.4
					l0,0.1l0,0l-0.1,0.1l-0.1,0.1l0,0l0.1,0.1C27.7,509.6,27.7,509.6,27.8,509.7 M19.9,511.4l0-0.2c0-0.1,0.1-0.3,0.1-0.3
					c0.1-0.6,0.2-0.8,0.5-0.8c0.2,0,0.3,0.1,0.3,0.2l0.1,0.2c0,0,0.1,0.1,0.1,0.1c0.1,0,0.2-0.1,0.2-0.4c0-0.1,0-0.2,0.1-0.5
					c0-0.2,0-0.3,0-0.5c0-0.1,0-0.2-0.1-0.3c0-0.2,0.1-0.5,0.1-0.6c0-0.3,0-0.5-0.1-0.6c0-0.2,0.1-0.2,0.1-0.4c0-0.1,0-0.2,0-0.4
					c0-0.3-0.1-0.3-0.1-0.4c0,0,0-0.1,0-0.1c0-0.1,0-0.1,0-0.1c0,0,0-0.1,0-0.1l-0.2,0.1l-0.2,0.1c-0.1,0-0.1,0.1-0.2,0.2
					c-0.2-0.2-0.3-0.2-0.8-0.4c-0.1,0-0.2-0.1-0.2-0.1c-0.1,0-0.1-0.1-0.1-0.1c-0.1,0-0.1,0.1-0.1,0.4c0,0.2,0,0.4,0.1,0.6
					c-0.2,0.1-0.3,0.1-0.4,0.1c0,0-0.1,0-0.2,0l0,0c0,0-0.1,0-0.1,0.1c0,0,0,0.1,0.1,0.2l0.1,0.3c0,0.1,0.1,0.2,0.3,0.3
					c0.1,0.1,0.2,0.1,0.3,0.2l0.4,0.1c0.2,0,0.4,0.2,0.4,0.3c0,0.2-0.1,0.3-0.3,0.3l-0.5,0.2c-0.1,0-0.3,0.1-0.4,0.2
					c-0.3,0.1-0.3,0.2-0.4,0.2c-0.1,0-0.1-0.1-0.1-0.2c0-0.2,0.1-0.3,0.3-0.3c0,0,0.1,0,0.1,0c0.1,0,0.1,0,0.1,0c0,0,0.1,0,0.1-0.1
					l0,0l0-0.2c0-0.2-0.1-0.3-0.3-0.6l-0.1-0.1c-0.1-0.3-0.3-0.6-0.6-0.8c-0.1,0-0.1-0.1-0.1-0.1c0,0,0-0.1-0.1-0.1
					c0,0-0.1-0.1-0.2-0.3c-0.1-0.1-0.2-0.2-0.3-0.2c-0.1-0.1-0.2-0.2-0.2-0.2l-0.1-0.2c0,0-0.1-0.1-0.1-0.1c-0.1,0-0.2,0.1-0.2,0.3
					c0,0.1-0.1,0.2-0.2,0.2c0,0-0.1,0-0.2,0l-0.1,0h-0.4c-0.2,0-0.5,0-0.6-0.1c0,0-0.1,0-0.1,0c0,0,0,0-0.1,0.1c0,0,0,0.1,0,0.1
					c0,0.2,0.1,0.6,0.3,0.8c0.1,0.2,0.2,0.2,0.3,0.3c0,0.2-0.2,0.3-0.3,0.4l-0.2,0.1c0,0,0,0,0,0.1c0,0.1,0.1,0.1,0.2,0.2
					c0.2,0.1,0.4,0.2,0.6,0.2c0.2,0,0.3-0.1,0.5-0.2c0.3-0.2,0.4-0.3,0.5-0.3c0.2,0,0.4,0.2,0.4,0.4c0,0.1-0.1,0.3-0.3,0.6
					c-0.3,0.4-0.4,0.6-0.4,0.9c0,0.2,0.1,0.4,0.1,0.5l0.1,0.2c0,0,0,0.1,0,0.1c0,0.1-0.1,0.1-0.2,0.1c-0.2,0-0.5-0.1-0.7-0.3
					c-0.1-0.1-0.2-0.2-0.2-0.2c0,0,0-0.1,0-0.1l0.1-0.1c0,0,0,0,0,0c0,0,0,0,0-0.1l-0.2-0.3c-0.1-0.1-0.3-0.3-0.4-0.5
					c-0.1,0-0.1-0.1-0.1-0.1l-0.1-0.2c-0.1-0.1-0.3-0.3-0.5-0.5c-0.1-0.1-0.1-0.1-0.1-0.1c0,0,0-0.1-0.1-0.1c0-0.1-0.1-0.1-0.1-0.2
					c-0.1-0.2-0.2-0.3-0.3-0.3l-0.3-0.3c-0.1-0.1-0.2-0.3-0.3-0.7c-0.1-0.2-0.1-0.4-0.2-0.4c0,0,0,0-0.1,0.1
					c-0.2,0.2-0.4,0.4-0.5,0.4c0,0-0.1,0-0.1-0.1c-0.1,0-0.2-0.1-0.3-0.1l-0.4-0.1c-0.3-0.1-0.4-0.1-0.6-0.3c0,0-0.1-0.1-0.1-0.1
					c0,0-0.1,0.1-0.1,0.1l0,0.1l0.1,0.3c0.1,0.3,0.1,0.5,0.2,0.7l0.2,0.3c0,0.1,0.1,0.1,0.1,0.2c0,0.2-0.3,0.5-0.6,0.5
					c-0.1,0-0.1,0-0.1,0.1c0,0.1,0.1,0.2,0.2,0.2c0.2,0.2,0.5,0.3,0.7,0.3c0.1,0,0.3,0,0.5-0.1l0.2-0.1c0.1,0,0.2-0.1,0.2-0.1
					c0.2,0,0.5,0.2,0.8,0.7c0.1,0.2,0.2,0.4,0.2,0.5c0,0.3-0.1,0.4-0.3,0.4c-0.2,0-0.3-0.1-0.5-0.2c-0.1-0.1-0.2-0.2-0.2-0.3l0-0.1
					l0,0c0-0.1,0-0.2-0.1-0.2c-0.1,0-0.2,0.1-0.7,0.6c-0.3,0.4-0.4,0.5-0.4,0.9c-0.4,0.5-0.4,0.6-0.4,1l0,0.2
					c-0.2,0.3-0.3,0.5-0.3,0.7c0,0.1,0,0.2,0.1,0.3c-0.1,0.2-0.2,0.3-0.2,0.4l-0.1,0.2c0,0.2-0.1,0.3-0.2,0.4
					c-0.1,0.1-0.1,0.2-0.1,0.2c0,0.1,0.1,0.2,0.5,0.3c0,0.1,0,0.2,0,0.2c0,0.1,0,0.1,0,0.3l0.1,0.4c0,0.2,0,0.3,0,0.3
					c0,0.1,0,0.1-0.1,0.3c0,0.1-0.1,0.2-0.1,0.2c0,0.1-0.1,0.1-0.1,0.1c0,0,0,0.1,0.1,0.1c0.1,0,0.4-0.2,0.7-0.4
					c0.6-0.5,0.7-0.7,0.8-1.3c0,0,0-0.1,0-0.2c0.3-0.2,0.4-0.5,0.4-0.7c0-0.2-0.1-0.5-0.2-0.7l-0.2-0.3c-0.1-0.1-0.1-0.2-0.1-0.3
					c0-0.2,0.1-0.4,0.2-0.6c0.2-0.3,0.3-0.4,0.5-0.4c0.3,0,0.5,0.5,0.5,1v0.1l0,0.2c0,0.1,0,0.2,0,0.3c0,0.2,0,0.3,0,0.3l0,0.3
					l0,0.2c0,0.1,0,0.1-0.1,0.2l-0.2,0.3c-0.3,0.4-0.5,0.7-0.5,1c0,0.3,0.2,0.6,0.5,0.6c0.1,0,0.1,0,0.2,0v0.1
					c0,0.5,0.1,0.8,0.2,0.8l0.1,0l0.2-0.2l0.2-0.1l0.1-0.1c0,0.1,0,0.1,0.1,0.3c0,0,0.1,0.1,0.1,0.2c0.1,0.1,0.1,0.1,0.1,0.2
					c0,0,0,0.1,0.1,0.1c0,0.1,0.1,0.1,0.1,0.1c0,0,0.1,0,0.1-0.2c0-0.1,0-0.1,0.2-0.3c0.1-0.1,0.1-0.1,0.1-0.1c0,0,0-0.1,0.1-0.2
					c0,0,0,0,0-0.1c0.1,0.1,0.1,0.1,0.2,0.2l0.2,0.1c0.1,0,0.1,0.1,0.1,0.1c0,0,0,0,0.1-0.1c0,0,0-0.1,0.1-0.2
					c0.1-0.2,0.1-0.3,0.1-0.4l0-0.1v-0.1c0.3-0.1,0.5-0.3,0.5-0.7c0-0.3-0.1-0.6-0.4-0.9c-0.2-0.2-0.2-0.3-0.2-0.4
					c0-0.8,0.5-1.2,1.5-1.2l0.7,0c0.5,0,0.7-0.1,1.1-0.2c0.5-0.2,0.6-0.2,0.8-0.2c0,0,0.1,0,0.1,0s0.1,0.1,0.1,0.1
					c0,0.1-0.3,0.3-1.1,0.5c-1.7,0.5-2.5,1.2-2.5,2.3c0,0.9,0.7,1.6,1.7,1.6c0.3,0,0.8-0.1,1.1-0.2l0.4-0.2c0.1,0,0.2,0,0.2,0
					c0.1,0,0.2,0.1,0.2,0.4c0,0.1,0,0.2,0.1,0.2c0.1,0,0.3-0.2,0.5-0.4c0.2-0.2,0.3-0.5,0.3-0.7c0-0.2-0.1-0.4-0.4-0.5
					c-0.2-0.4-0.5-0.5-0.9-0.5c-0.3,0-0.7,0.2-1.4,0.6c-0.2,0.1-0.4,0.2-0.5,0.2c-0.2,0-0.3-0.1-0.3-0.3c0-0.2,0.1-0.3,0.4-0.4
					c0.5-0.2,0.6-0.2,0.7-0.4c0.5-0.1,0.8-0.2,1.1-0.4c0.9-0.3,1.5-0.9,1.5-1.6c0-0.7-0.5-1.2-1.1-1.2
					C20.3,511.3,20.2,511.3,19.9,511.4 M39.6,511.4l0-0.2c0-0.1,0.1-0.3,0.1-0.3c0.1-0.6,0.2-0.8,0.5-0.8c0.2,0,0.3,0.1,0.3,0.2
					l0.1,0.2c0,0,0.1,0.1,0.1,0.1c0.1,0,0.2-0.1,0.2-0.4c0-0.1,0-0.3,0.1-0.5c0-0.2,0-0.3,0-0.5c0-0.1,0-0.2-0.1-0.3l0-0.1
					c0-0.2,0-0.3,0-0.4c0-0.5,0-0.6-0.1-0.8c0-0.2,0.1-0.3,0.1-0.4c0-0.1,0-0.2,0-0.4l0-0.3l0-0.2c0-0.1,0-0.1,0-0.1
					c0,0,0-0.1,0-0.1l-0.2,0.1l-0.2,0.1c-0.1,0-0.1,0.1-0.2,0.2c-0.2-0.2-0.2-0.2-0.5-0.3c-0.3-0.1-0.5-0.1-0.5-0.2
					c-0.1,0-0.1-0.1-0.1-0.1c-0.1,0-0.1,0.2-0.1,0.4c0,0.3,0,0.5,0.1,0.6c-0.2,0.1-0.3,0.1-0.4,0.1c0,0,0,0-0.2,0l0,0c0,0,0,0,0,0.1
					c0,0.1,0.1,0.3,0.2,0.5c0.1,0.2,0.3,0.4,0.5,0.5l0.4,0.1c0.2,0,0.4,0.2,0.4,0.3c0,0.2-0.1,0.3-0.3,0.3l-0.4,0.2
					c-0.1,0.1-0.3,0.1-0.4,0.2c-0.1,0.1-0.2,0.1-0.2,0.1c0,0-0.1,0-0.1,0c-0.1,0-0.2-0.1-0.2-0.2c0-0.2,0.1-0.3,0.3-0.3
					c0,0,0.1,0,0.1,0c0,0,0.1,0,0.1,0c0,0,0.1,0,0.1-0.1c0-0.2-0.1-0.5-0.2-0.7l-0.1-0.2l-0.1-0.1c0-0.3-0.3-0.7-0.6-0.8
					c-0.1,0-0.1-0.1-0.1-0.1c0,0,0-0.1-0.1-0.1c0,0-0.1-0.1-0.2-0.3c-0.1-0.1-0.2-0.2-0.3-0.2c-0.1-0.1-0.2-0.2-0.2-0.2l-0.1-0.2
					c0,0,0-0.1-0.1-0.1c-0.1,0-0.2,0.1-0.2,0.3c0,0.1-0.1,0.2-0.2,0.2c0,0-0.1,0-0.2,0l-0.1,0h-0.4c-0.2,0-0.5,0-0.6-0.1
					c0,0-0.1,0-0.1,0c-0.1,0-0.1,0.1-0.1,0.2c0,0.3,0.3,0.8,0.6,1.2c-0.1,0.2-0.2,0.3-0.3,0.4c-0.1,0-0.2,0-0.2,0.1c0,0,0,0,0,0.1
					c0,0.1,0.1,0.1,0.2,0.2c0.3,0.1,0.4,0.2,0.6,0.2c0.2,0,0.4-0.1,0.6-0.2c0.3-0.2,0.4-0.3,0.5-0.3c0.2,0,0.4,0.2,0.4,0.4
					c0,0.1-0.1,0.3-0.3,0.6c-0.3,0.4-0.4,0.6-0.4,0.9c0,0.2,0,0.3,0.2,0.6c0,0,0,0.1,0,0.1c0,0.1-0.1,0.1-0.2,0.1
					c-0.1,0-0.3,0-0.4-0.1c-0.3-0.1-0.5-0.3-0.5-0.4c0,0,0-0.1,0.1-0.1l0.1-0.1c0,0,0,0,0,0s0-0.1,0-0.1c0,0-0.1-0.1-0.2-0.3
					c-0.1-0.2-0.3-0.3-0.4-0.5c-0.1,0-0.1-0.1-0.1-0.1l-0.1-0.2c-0.1-0.1-0.3-0.3-0.5-0.5c-0.1-0.1-0.1-0.1-0.1-0.1
					c0,0-0.1-0.1-0.1-0.1c-0.1-0.2-0.3-0.4-0.4-0.5l-0.3-0.3c-0.1-0.1-0.2-0.3-0.3-0.7c-0.1-0.3-0.1-0.4-0.2-0.4c0,0,0,0-0.1,0.1
					c-0.2,0.2-0.4,0.4-0.5,0.4c0,0-0.1,0-0.1-0.1c-0.1,0-0.2-0.1-0.3-0.1l-0.4-0.1c-0.3-0.1-0.4-0.1-0.6-0.3c0,0-0.1-0.1-0.1-0.1
					c0,0-0.1,0.1-0.1,0.1l0,0.1c0,0,0,0.1,0.1,0.3c0.1,0.3,0.1,0.5,0.2,0.7l0.2,0.3c0,0.1,0.1,0.1,0.1,0.2c0,0.2-0.2,0.4-0.6,0.5
					c-0.1,0-0.1,0-0.1,0.1c0,0,0.1,0.1,0.2,0.2c0.2,0.2,0.5,0.3,0.6,0.3c0.1,0,0.3,0,0.5-0.1l0.2-0.1c0.1,0,0.2-0.1,0.2-0.1
					c0.2,0,0.5,0.2,0.8,0.7c0.1,0.2,0.2,0.4,0.2,0.5c0,0.3-0.1,0.4-0.3,0.4c-0.2,0-0.3-0.1-0.4-0.2c-0.1-0.1-0.2-0.2-0.2-0.3l0-0.1
					l0-0.1c0-0.1,0-0.1-0.1-0.1c-0.1,0-0.2,0.1-0.4,0.3c-0.1,0.1-0.2,0.2-0.3,0.3c-0.3,0.4-0.4,0.5-0.4,0.9c-0.4,0.5-0.4,0.7-0.4,1
					l0,0.2c-0.3,0.3-0.3,0.4-0.3,0.7c0,0.1,0,0.2,0.1,0.3c-0.1,0.2-0.2,0.3-0.2,0.4l-0.1,0.2c0,0.2-0.1,0.3-0.2,0.4
					c-0.1,0.1-0.1,0.2-0.1,0.2c0,0.1,0.1,0.2,0.4,0.2l0.1,0c0,0.1,0,0.2,0,0.2c0,0.1,0,0.1,0,0.3l0.1,0.4c0,0.2,0,0.3,0,0.3
					c0,0.1,0,0.2-0.1,0.3c0,0.1-0.1,0.2-0.1,0.2c0,0.1-0.1,0.1-0.1,0.1c0,0,0,0.1,0.1,0.1c0,0,0.1,0,0.1,0c0.4-0.2,0.7-0.5,1-0.8
					c0.2-0.3,0.3-0.5,0.4-1.1c0.3-0.2,0.4-0.5,0.4-0.8c0-0.2-0.1-0.4-0.2-0.6c-0.1-0.2-0.2-0.3-0.2-0.3c-0.1-0.1-0.1-0.2-0.1-0.4
					c0-0.2,0.1-0.4,0.2-0.6c0.2-0.3,0.3-0.4,0.5-0.4c0.3,0,0.5,0.5,0.5,1l0,0.1v0.3l0,0.3l0,0.3l0,0.3l0,0.1c0,0.1,0,0.1-0.3,0.5
					c-0.4,0.4-0.5,0.7-0.5,1c0,0.3,0.2,0.5,0.5,0.5c0.1,0,0.1,0,0.2,0v0.1l0,0.2l0.1,0.3c0.1,0.2,0.1,0.3,0.1,0.3l0.1,0l0.2-0.2
					l0.2-0.1l0.1-0.1c0,0.1,0,0.2,0.1,0.3c0.1,0.1,0.1,0.1,0.1,0.2l0.1,0.2l0.1,0.1c0,0.1,0.1,0.1,0.1,0.1c0,0,0,0,0.1-0.2
					c0,0,0-0.1,0.1-0.1l0.1-0.1c0.1-0.1,0.2-0.2,0.2-0.4c0.1,0.1,0.1,0.1,0.2,0.2l0.2,0.1c0.1,0,0.1,0.1,0.1,0.1s0,0,0-0.1
					c0-0.1,0.1-0.1,0.1-0.2c0.1-0.2,0.1-0.2,0.1-0.4l0-0.1v-0.1c0.3-0.1,0.5-0.3,0.5-0.7c0-0.3-0.1-0.6-0.4-0.9
					c-0.2-0.2-0.2-0.3-0.2-0.4c0-0.7,0.6-1.2,1.5-1.2l0.7,0c0.5,0,0.7-0.1,1.1-0.2c0.5-0.2,0.6-0.2,0.8-0.2c0.1,0,0.2,0.1,0.2,0.1
					c0,0.2-0.3,0.3-1.1,0.5c-1.7,0.5-2.5,1.2-2.5,2.3c0,0.9,0.7,1.6,1.7,1.6c0.3,0,0.8-0.1,1-0.2l0.4-0.2c0.1,0,0.2,0,0.2,0
					c0.1,0,0.2,0.1,0.2,0.4c0,0.1,0,0.2,0.1,0.2c0.1,0,0.3-0.2,0.5-0.4c0.2-0.2,0.3-0.5,0.3-0.7c0-0.2-0.1-0.4-0.4-0.5
					c-0.2-0.4-0.5-0.5-0.9-0.5c-0.3,0-0.8,0.2-1.4,0.6c-0.3,0.1-0.4,0.2-0.5,0.2c-0.2,0-0.3-0.1-0.3-0.3c0-0.2,0.1-0.2,0.4-0.4
					c0.5-0.2,0.6-0.2,0.7-0.4c0.5-0.1,0.8-0.2,1.1-0.4c1-0.3,1.5-0.9,1.5-1.7c0-0.7-0.5-1.2-1.1-1.2
					C39.9,511.3,39.8,511.3,39.6,511.4 M20.1,491.5c0.1-0.2,0.1-0.3,0.1-0.5l0-0.4c0-0.4,0.2-0.7,0.4-0.7c0.1,0,0.2,0,0.2,0.1
					l0.1,0.1l0,0c0.1,0,0.1,0,0.1-0.1l0-0.2c0-0.1,0-0.2,0-0.5c0-0.1,0-0.3,0-0.4c0-0.2,0-0.3-0.1-0.5c0.1-0.2,0.1-0.4,0.1-0.6
					c0-0.2,0-0.4-0.1-0.5c0-0.2,0.1-0.3,0.1-0.4c0-0.1,0-0.2,0-0.4c0-0.2-0.1-0.4,0-0.5l0,0c0-0.1,0-0.1-0.1-0.1c0,0-0.1,0-0.1,0.1
					c-0.1,0.1-0.1,0.1-0.2,0.1c-0.1,0-0.1,0-0.2-0.4c0-0.1-0.1-0.2-0.3-0.4c-0.1-0.1-0.2-0.2-0.2-0.3c0-0.1-0.1-0.2-0.1-0.2
					c0,0,0,0-0.1-0.1l0,0c-0.2,0-0.4,0.4-0.6,1.1c-0.1,0.2-0.1,0.3-0.2,0.3c-0.1,0-0.2,0-0.2-0.1l-0.1-0.1c0,0,0,0-0.1,0
					c-0.1,0-0.2,0.2-0.3,0.3c-0.1,0.2-0.1,0.3-0.1,0.5c0,0.3,0.2,0.6,1,1c0.3,0.2,0.4,0.4,0.4,0.8c0,0.3-0.1,0.5-0.4,0.7
					c-0.2,0.2-0.3,0.2-0.5,0.2c-0.1,0-0.2-0.1-0.2-0.2c0-0.1,0.1-0.2,0.2-0.2c0.2-0.1,0.2-0.1,0.2-0.2c0-0.1-0.1-0.2-0.2-0.4
					c-0.1-0.2-0.2-0.2-0.3-0.3c0-0.3-0.2-0.5-0.5-0.7c-0.1-0.2-0.1-0.2-0.2-0.4l-0.2-0.3c-0.1-0.1-0.1-0.2-0.2-0.3
					c0-0.2,0-0.2-0.1-0.2c-0.1,0-0.3,0.1-0.4,0.4c-0.1,0.1-0.1,0.2-0.1,0.3c-0.1-0.1-0.1-0.1-0.4-0.1c-0.1,0-0.2,0-0.3-0.1
					c-0.2-0.1-0.2-0.1-0.2-0.1c0,0-0.1,0-0.1,0.1l0,0.2c0,0.3,0.1,0.7,0.3,0.9c-0.2,0.2-0.4,0.3-0.5,0.3c-0.1,0-0.1,0-0.1,0
					c0,0,0,0.1,0.1,0.2c0.1,0.1,0.1,0.2,0.2,0.2c0.2,0.1,0.4,0.2,0.6,0.2c0.1,0,0.3,0,0.6-0.1c0.1,0,0.2-0.1,0.3-0.1
					c0.1,0,0.2,0.1,0.2,0.2c0,0.2-0.1,0.5-0.3,1c-0.1,0.3-0.2,0.5-0.2,0.7c0,0.4,0.2,0.7,0.4,0.8c-0.1,0.1-0.1,0.1-0.2,0.1
					c-0.1,0-0.2,0-0.3-0.1c-0.2-0.1-0.2-0.2-0.2-0.2c0,0,0-0.1,0.1-0.1C17,491,17,491,17,490.9c0-0.3-0.2-0.6-0.5-0.8
					c-0.1-0.4-0.2-0.6-0.6-0.7c0-0.2-0.1-0.3-0.2-0.5c-0.3-0.4-0.3-0.5-0.4-0.7c0-0.1-0.1-0.2-0.1-0.2c0,0-0.1,0.1-0.2,0.2
					c-0.1,0.1-0.1,0.2-0.2,0.2c0,0.1-0.1,0.1-0.1,0.3c-0.1,0-0.1,0-0.1,0l-0.2,0l-0.1,0c-0.2,0-0.5-0.1-0.6-0.1c0,0-0.1,0-0.1,0
					c-0.1,0-0.1,0.1-0.1,0.3c0,0.4,0.1,0.7,0.4,1c-0.1,0.1-0.1,0.1-0.2,0.2c0,0-0.1,0.1-0.1,0.1l-0.1,0.1c0,0-0.1,0-0.1,0.1
					c0,0.1,0.2,0.2,0.3,0.3c0.2,0.1,0.4,0.2,0.5,0.2c0.2,0,0.3,0,0.5-0.2c0.1-0.1,0.3-0.2,0.3-0.2c0.1,0,0.1,0,0.2,0.1
					c0,0,0.1,0.1,0.1,0.2c0,0.2-0.2,0.5-0.5,0.7c-0.2,0.1-0.4,0.2-0.6,0.2c-0.3,0-0.5-0.1-0.7-0.4l-0.1-0.2c0-0.1-0.1-0.1-0.1-0.1
					c-0.1,0-0.1,0-0.3,0.3l-0.3,0.3c-0.1,0.1-0.1,0.2-0.2,0.3c0,0.1,0,0.1-0.1,0.1s0,0-0.1,0.1c-0.2,0.2-0.4,0.4-0.5,0.9
					c0,0,0,0.1,0,0.1c-0.3,0.3-0.4,0.7-0.4,1c0,0,0,0.1,0,0.1c-0.1,0.2-0.2,0.2-0.3,0.6c-0.1,0.3-0.1,0.4-0.2,0.5c0,0,0,0.1,0,0.1
					c0,0.1,0.1,0.1,0.2,0.1c0.1,0,0.2,0,0.2,0l0.2,0l0,0.3c0,0.2,0,0.3,0.1,0.5c0,0.1,0,0.2,0,0.2c0,0,0,0.1,0,0.2
					c0,0.1,0,0.1,0,0.2c0,0,0,0.1,0,0.1c0,0,0,0.1,0.1,0.1c0,0,0.1,0,0.1,0c0.2-0.1,0.3-0.2,0.5-0.3c0.4-0.3,0.6-0.7,0.6-1l0-0.1
					c0-0.1,0-0.1,0-0.2c0,0,0-0.1,0.1-0.2L13,495c0.1-0.1,0.2-0.3,0.2-0.4c0-0.1,0-0.1-0.2-0.4c-0.1-0.2-0.2-0.3-0.2-0.5
					c0-0.2,0.1-0.4,0.2-0.7c0.1-0.2,0.3-0.3,0.4-0.3c0.2,0,0.3,0.2,0.4,0.8c0,0.3,0,0.6,0.1,0.8l0,0.1c0,0.1,0,0.1-0.1,0.2l-0.3,0.4
					c-0.3,0.3-0.4,0.5-0.4,0.8c0,0.3,0.2,0.5,0.5,0.5l0.1,0l0,0.1c0,0.1,0,0.2,0.1,0.3c0.1,0.2,0.2,0.4,0.2,0.4c0,0,0,0,0.1-0.1
					c0,0,0.1,0,0.2-0.1c0.1,0,0.1,0,0.2-0.1c0.1,0.2,0.1,0.3,0.2,0.4c0.1,0.2,0.3,0.3,0.3,0.3c0,0,0.1,0,0.2-0.1l0.2-0.2
					c0,0,0.1-0.1,0.1-0.2l0-0.1c0.1,0,0.1,0.1,0.1,0.1c0.1,0,0.1,0.1,0.2,0.1c0.1,0.1,0.2,0.1,0.2,0.1c0.1,0,0.1,0.1,0.1,0.1
					c0,0,0.1-0.1,0.1-0.4c0.1-0.2,0.1-0.3,0.1-0.5c0.3,0,0.5-0.2,0.5-0.6c0-0.3-0.2-0.7-0.5-1.1c-0.1-0.1-0.1-0.2-0.1-0.3
					c0-0.9,0.3-1.2,1.5-1.3c0.7-0.1,0.9-0.1,1.8-0.4c0.5-0.1,0.7-0.2,0.9-0.2c0.2,0,0.3,0.1,0.3,0.2c0,0.2-0.1,0.3-1,0.4
					c-1.9,0.4-2.7,1.1-2.7,2.4c0,0.9,0.7,1.6,1.6,1.6c0.4,0,0.8-0.1,1.3-0.5c0.5-0.3,0.6-0.4,0.8-0.4c0.1,0,0.2,0.1,0.2,0.3
					c0,0.1,0,0.2,0.1,0.2c0.1,0,0.2-0.1,0.3-0.2c0.2-0.2,0.2-0.3,0.2-0.6c0-0.4-0.2-0.6-0.6-0.7c0,0-0.1-0.1-0.1-0.1
					c-0.2-0.2-0.4-0.3-0.8-0.3c-0.3,0-0.7,0.1-0.9,0.3l-0.5,0.4c-0.2,0.2-0.4,0.2-0.5,0.2c-0.2,0-0.3-0.1-0.3-0.3
					c0-0.2,0.1-0.4,0.4-0.5l0.5-0.1c0.2-0.1,0.2-0.1,0.5-0.2c0.1,0,0.2,0,0.2,0c0.3,0,0.6-0.1,0.9-0.2c0.1,0,0.2-0.1,0.2-0.1
					l0.3-0.1c0.6-0.2,1.1-0.8,1.1-1.5c0-0.7-0.5-1.2-1.3-1.2L20.1,491.5 M38.4,491.7c0.2-0.2,0.4-0.4,0.7-0.4c0.1,0,0.2,0,0.3,0
					c0.1,0,0.1,0,0.1,0c0.1,0,0.1,0,0.1-0.1c0,0,0-0.1-0.1-0.2c0-0.1-0.1-0.1-0.1-0.2l0-0.2l-0.1-0.2l-0.1-0.1l0,0v-0.1
					c0-0.3-0.1-0.4-0.3-0.5c0,0,0,0-0.1-0.1l0-0.1c0-0.2-0.1-0.3-0.1-0.4c0-0.1-0.1-0.2-0.2-0.3c-0.1-0.2-0.2-0.3-0.3-0.4
					c0-0.1-0.1-0.1-0.1-0.1c-0.1,0-0.2,0.1-0.2,0.3c0,0,0-0.1-0.1-0.1l-0.1-0.1l-0.2-0.1c-0.1-0.1-0.1-0.1-0.2-0.1l-0.1-0.1
					c0,0,0,0-0.1,0c-0.1,0-0.1,0.1-0.2,0.3l-0.1,0.3c0,0.1,0,0.2,0,0.3c0,0.2,0,0.2,0.1,0.4c-0.2,0-0.3,0-0.4-0.1c0,0-0.1,0-0.1,0
					c0,0-0.1,0-0.1,0.1c0,0,0,0.1,0,0.2l0.1,0.4c0.1,0.3,0.4,0.5,0.7,0.5c0.1,0,0.2,0,0.3-0.1c0.1,0,0.1,0,0.2,0
					c0.1,0,0.2,0.1,0.2,0.2c0,0.1,0,0.1-0.1,0.1c0,0-0.1,0-0.4,0.1c-0.2,0.1-0.3,0.1-0.5,0.3c-0.1,0.2-0.2,0.2-0.3,0.2
					c0,0-0.1,0-0.1-0.1l0-0.1l0-0.1c0-0.3-0.1-0.6-0.3-1l-0.3-0.5c-0.1-0.3-0.2-0.4-0.2-0.6c0-0.2,0.1-0.4,0.2-0.4l0.2,0
					c0,0,0,0,0.1,0c0,0,0,0,0-0.1c0,0,0-0.1-0.1-0.1c0,0-0.1-0.1-0.2-0.2c-0.2-0.2-0.3-0.3-0.5-0.4c-0.1-0.3-0.3-0.5-0.7-0.6l0-0.1
					c-0.1-0.2-0.4-0.4-0.6-0.4h0c0-0.2-0.2-0.4-0.4-0.5c-0.1-0.1-0.2-0.2-0.2-0.2c0,0,0,0-0.1-0.1c0-0.1-0.1-0.1-0.2-0.1
					c-0.1,0-0.2,0.1-0.3,0.3c0,0-0.1,0-0.1-0.1c-0.1-0.1-0.2-0.1-0.2-0.1c0,0-0.2-0.1-0.4-0.1c-0.3-0.1-0.5-0.2-0.5-0.3l-0.1-0.2
					l0,0c-0.1,0-0.1,0.1-0.1,0.2c-0.1,0.2-0.1,0.4-0.1,0.6c0,0.4,0.1,0.6,0.5,1l0,0.1c0,0.6,0.4,1,1.1,1l0.1,0l0.4,0l0,0
					c0.2,0,0.4,0.1,0.6,0.2c0.3,0.2,0.3,0.3,0.3,0.6c0,0.1,0,0.2-0.1,0.4c-0.1,0.2-0.1,0.3-0.1,0.5c0,0.4,0.3,1,0.8,1.3
					c0.1,0.1,0.2,0.2,0.2,0.2c0,0,0,0,0,0c0,0-0.1,0-0.1-0.1c-0.1,0-0.1-0.1-0.3-0.2l-0.2-0.1l-0.2-0.1c-0.1,0-0.1-0.1-0.1-0.1
					c0,0,0-0.1,0-0.1c0,0,0-0.1,0-0.1c0,0,0-0.1-0.1-0.1l-0.1-0.2c-0.1-0.2-0.2-0.3-0.4-0.4c-0.1-0.3-0.3-0.5-0.5-0.6
					c-0.2-0.4-0.4-0.5-0.7-0.6c0-0.2-0.1-0.3-0.3-0.5c-0.1-0.1-0.1-0.1-0.1-0.2c-0.1-0.1-0.1-0.2-0.1-0.2c0,0-0.2,0.1-0.2,0.2
					c0,0-0.1,0.1-0.1,0.1l-0.1,0.2c0,0.1-0.1,0.1-0.1,0.1l-0.1,0l-0.2,0c-0.1,0-0.4-0.1-0.4-0.2l-0.1-0.2c0,0,0,0-0.1,0
					c-0.1,0-0.2,0.2-0.2,0.6c0,0.3,0,0.5,0.2,0.6l0.3,0.4c0,0.1,0.1,0.1,0.1,0.2c0,0,0,0.1-0.1,0.1c-0.1,0.1-0.1,0.1-0.2,0.1l-0.2,0
					c0,0-0.1,0-0.1,0c0,0,0,0,0,0.1c0.1,0.1,0.2,0.2,0.3,0.2c0.3,0.2,0.4,0.2,0.6,0.2c0.2,0,0.4-0.1,0.6-0.2l0.3-0.2
					c0,0,0.1,0,0.1,0c0.1,0,0.2,0.1,0.3,0.3c0.1,0.2,0.1,0.3,0.1,0.5c0,0.4-0.3,0.7-0.7,0.7c-0.2,0-0.4-0.1-0.5-0.2
					c-0.1,0-0.1-0.1-0.1-0.1l-0.1-0.2c0,0-0.1-0.1-0.1-0.1c-0.1,0-0.2,0.2-0.3,0.3c-0.1,0.1-0.1,0.2-0.1,0.4
					c-0.1,0.2-0.1,0.4-0.1,0.5l0,0.3c-0.1,0.2-0.2,0.4-0.2,0.7c0,0.1,0,0.2,0.1,0.4c-0.1,0.1-0.1,0.3-0.1,0.5l0,0.1l0,0.1l0,0.1
					c-0.1,0.1-0.1,0.2-0.2,0.7c-0.1,0.3-0.1,0.4-0.1,0.4c0,0,0,0.1,0,0.1c0,0.1,0.1,0.1,0.3,0.1l0.1,0c0,0.1,0,0.1,0,0.2
					c0,0.1,0,0.3,0.1,0.4c0.1,0.2,0.1,0.2,0.1,0.3c0,0.1,0,0.3,0,0.3l-0.1,0.2c0,0,0,0.1,0,0.1c0,0,0,0,0.1,0c0.2,0,0.6-0.2,0.9-0.5
					c0.3-0.3,0.4-0.5,0.4-1l0-0.2c0.3-0.3,0.4-0.5,0.4-0.7c0-0.2-0.1-0.3-0.2-0.4c-0.3-0.3-0.3-0.4-0.3-0.8c0-0.6,0.2-0.9,0.5-0.9
					c0.3,0,0.5,0.3,0.5,0.7l0,0.4c0,0.1,0,0.2,0.1,0.4c0,0.1,0,0.2,0,0.3c0,0.1-0.1,0.3-0.4,0.6c-0.3,0.3-0.4,0.5-0.4,0.8
					c0,0.3,0.2,0.6,0.5,0.6c0.1,0,0.1,0,0.2-0.1c0,0.2,0,0.2,0.1,0.5c0.1,0.2,0.2,0.3,0.2,0.3c0,0,0,0,0.1,0c0,0,0.1-0.1,0.1-0.1
					c0.1,0,0.1-0.1,0.1-0.1c0,0,0.1,0,0.1-0.1c0.1,0.2,0.1,0.3,0.3,0.5c0.1,0.1,0.2,0.2,0.2,0.2c0,0,0.1,0,0.1-0.1l0.1-0.2l0.2-0.2
					c0.1-0.1,0.1-0.1,0.1-0.3l0.1,0.1L35,497c0,0,0.1,0,0.1,0.1c0,0,0.1,0,0.1,0c0,0,0,0,0-0.1l0.1-0.2l0.1-0.3
					c0-0.1,0.1-0.1,0.1-0.3l0-0.1l0.1,0c0.2,0,0.4-0.2,0.4-0.5c0-0.4-0.3-0.9-0.7-1.1c0-0.1,0-0.2,0-0.3c0-0.8,0.2-1,1.5-1.2
					c0.3,0,0.6-0.1,0.9-0.2c0,0,0.3-0.1,0.8-0.3c0.3-0.1,0.5-0.1,0.6-0.1c0.2,0,0.2,0,0.2,0.1c0,0.1-0.2,0.3-0.9,0.5l-0.9,0.4
					c-0.9,0.4-1.4,0.9-1.4,1.8c0,1,0.7,1.7,1.7,1.7c0.4,0,0.7-0.1,1.2-0.3c0.7-0.2,0.7-0.3,0.8-0.3c0.1,0,0.2,0.1,0.2,0.3
					c0,0.2,0.1,0.2,0.1,0.2c0.1,0,0.3-0.1,0.4-0.3c0.1-0.2,0.1-0.4,0.1-0.5c0-0.3-0.2-0.6-0.5-0.6c-0.2-0.3-0.5-0.4-0.8-0.4
					c-0.4,0-0.6,0.1-1.3,0.5c-0.3,0.2-0.4,0.2-0.6,0.2c-0.3,0-0.4-0.2-0.4-0.4c0-0.2,0.2-0.3,0.5-0.4c0.2-0.1,0.2-0.1,0.3-0.2
					c0.1,0,0.1,0,0.2,0c0.3,0,0.8-0.2,1.1-0.5c0.6-0.2,1.2-0.9,1.2-1.5c0-0.6-0.6-1.2-1.2-1.2C39.1,491.6,38.7,491.6,38.4,491.7"/>
				<path class="st5" d="M21,506.8c0,0.1,0,0.2,0,0.3l0,0.1l0,0.2l0,0.1c0,0.1,0,0.3-0.1,0.3l-0.1,0.2c0,0.1-0.1,0.1-0.1,0.2
					c0,0,0,0.1,0,0.1c0,0,0,0.1,0.1,0.1c0,0,0,0,0.1-0.1c0,0,0.1,0,0.1,0c0.1,0,0.1,0.1,0.1,0.3c0,0.2,0,0.3-0.1,0.4l-0.2,0.2
					l-0.1,0.1c0,0-0.1,0.1-0.1,0.1c0,0,0,0.1,0.1,0.1c0,0,0.1,0,0.2-0.1l0,0c0,0,0.1,0,0.1,0.1l0,0l0,0.2l-0.1,0.2
					c0,0.1,0,0.1-0.1,0.1l0,0l-0.3-0.1l0,0c-0.3,0-0.7,0.3-0.8,0.7l-0.2,0.7c-0.1,0.2-0.2,0.4-0.5,0.6c-0.1,0.1-0.2,0.1-0.2,0.1
					l-0.2,0c0,0-0.1,0-0.1,0.1c0,0,0,0.1,0.1,0.1l0.3,0c0.1,0,0.3-0.1,0.6-0.1c0.3-0.1,0.5-0.2,0.7-0.2c0.5,0,0.8,0.3,0.8,0.8
					c0,0.3-0.2,0.7-0.4,0.9c-0.1,0.1-0.3,0.2-0.3,0.2c0,0-0.1,0-0.1-0.1l0-0.1l0,0c0-0.1,0-0.1-0.1-0.1c-0.1,0-0.1,0.1-0.2,0.2
					c-0.2,0.4-0.5,0.7-0.8,0.7c-0.1,0-0.1,0-0.1-0.1c0,0,0-0.1,0.1-0.2l0.1-0.2c0,0,0-0.1,0-0.1c0,0,0,0,0,0c0,0-0.1,0-0.2,0.1
					L19,514l-0.1,0.2c-0.1,0.2-0.2,0.2-0.4,0.4c-0.1,0.1-0.2,0.1-0.3,0.1c0,0-0.1,0-0.1,0c0,0-0.1,0-0.1-0.1c0,0,0-0.1,0-0.1
					c0.1-0.1,0.1-0.2,0.1-0.2c0,0,0-0.1-0.1-0.1c-0.1,0-0.3,0.2-0.4,0.4c-0.1,0.2-0.2,0.4-0.2,0.6c0,0.5,0.3,0.8,0.8,0.8
					c0.2,0,0.5-0.1,0.8-0.3l0.5-0.3c0.2-0.1,0.4-0.2,0.6-0.2c0.1,0,0.2,0,0.3,0.1c0,0,0.1,0,0.1,0.1c0,0,0.1,0,0.1,0.1c0,0,0,0,0,0
					l-0.1,0l-0.2,0c-0.1,0-0.2,0-0.3,0.1c-0.3,0.1-0.5,0.2-0.5,0.3c-0.2,0.1-0.3,0.2-0.3,0.2c-0.1,0-0.1,0.1-0.1,0.1c0,0,0,0,0,0
					c0,0,0.1,0,0.1,0c0.2-0.1,0.3-0.1,0.4-0.1l0.5-0.2c0.2-0.1,0.6-0.1,0.7-0.1c0.2,0,0.3,0.2,0.3,0.3c0,0.1-0.1,0.3-0.2,0.5
					c0,0-0.1,0.1-0.1,0.1c0,0-0.1,0-0.1-0.1l0-0.1l0-0.1c0-0.1-0.1-0.2-0.2-0.2c0,0-0.1,0-0.2,0l-0.7,0.2c-0.6,0.2-0.8,0.2-1.1,0.2
					c-0.8,0-1.4-0.6-1.4-1.3c0-0.8,0.6-1.4,2-1.9c1.4-0.5,1.6-0.6,1.6-1c0-0.2-0.2-0.4-0.5-0.4c-0.1,0-0.2,0-0.3,0
					c0,0-0.3,0.1-0.7,0.2c-0.4,0.1-0.8,0.1-1.3,0.1c-1,0-1.6-0.2-2.1-0.7c-0.1-0.1-0.2-0.1-0.3-0.1l-0.1,0l-0.1,0l0,0
					c-0.1,0-0.2-0.1-0.3-0.2c-0.1-0.2-0.2-0.3-0.2-0.3c0,0-0.1-0.1-0.1-0.1c-0.1,0-0.2,0.1-0.3,0.3c-0.1,0.1-0.1,0.2-0.2,0.3
					l-0.2,0.2c0,0-0.1,0.1-0.1,0.1c0,0,0,0.1,0,0.1c0.1,0.1,0.1,0.2,0.1,0.3c0,0.1,0,0.1,0.1,0.1c0.1,0,0.1-0.1,0.1-0.3
					c0-0.1,0-0.2,0.1-0.3l0.1-0.3c0,0,0.1-0.1,0.1-0.1c0.1,0,0.2,0.3,0.3,0.5c0,0.2,0.1,0.3,0.1,0.3c0,0,0,0,0,0c0,0,0-0.1,0.1-0.2
					c0-0.1,0.1-0.1,0.1-0.2c0.1,0,0.1-0.1,0.1-0.1l0,0c0.1,0,0.1,0.1,0.1,0.3l0,0.1l0,0.1l0,0.1c0,0.1,0,0.1,0.1,0.1
					c0,0,0.1,0,0.1,0l0.1-0.1c0.1-0.1,0.1-0.1,0.2-0.1c0.1,0,0.1,0,0.1,0.1c0,0,0,0.1-0.1,0.2l-0.1,0.1c-0.1,0.2-0.2,0.2-0.2,0.2
					l-0.1,0l-0.1-0.1c0,0-0.1,0-0.1,0c0,0,0,0,0,0c0,0.1,0.1,0.2,0.2,0.4c0.1,0.1,0.1,0.4,0.2,0.8c0,0.5,0.1,0.9,0.2,0.9
					c0.1,0,0.1,0,0.1-0.2l0-0.1l0-0.1c0-0.1,0-0.2,0-0.2c0.1,0,0.2,0.1,0.3,0.4c0,0.1,0.1,0.2,0.1,0.2l0,0l-0.2,0.4l-0.2,0.1
					c0,0-0.1,0-0.1,0v0.3l0,0.1l0,0.1l-0.1,0.1c-0.2-0.1-0.3-0.2-0.4-0.3c-0.1-0.1-0.1-0.2-0.2-0.2c0,0-0.1,0-0.1,0.1
					c0,0,0,0.1,0,0.2l0,0.1c0,0.2-0.1,0.4-0.4,0.6l-0.1-0.1l-0.1-0.1l-0.1-0.1c0,0-0.1-0.1-0.1-0.2c0,0,0-0.1,0-0.1l0,0l0,0
					c0-0.1,0-0.1,0-0.1l0,0l-0.1,0.1l-0.1,0.1l-0.2,0.1l-0.1,0.1c0,0,0-0.1,0-0.1c0-0.1-0.1-0.1-0.1-0.2l0-0.2l0-0.2l0,0
					c0-0.1,0-0.1-0.1-0.1c0,0-0.1,0-0.1,0.1c0,0-0.1,0-0.2,0c-0.2,0-0.3-0.1-0.3-0.3c0-0.2,0.1-0.4,0.2-0.6l0.1-0.2
					c0,0,0.1-0.1,0.1-0.1l0,0.2l0,0.2l0,0.1c0,0.1,0,0.1,0.1,0.1c0.1,0,0.1-0.1,0.1-0.2l0.1-0.4l0.1-0.5c0-0.1,0.1-0.3,0.1-0.4
					c0.1-0.2,0.1-0.3,0.2-0.4c0.1-0.1,0.1-0.2,0.1-0.2c0,0,0,0,0,0c0,0-0.1,0-0.1,0c0,0-0.1,0-0.1,0l-0.1,0c-0.2,0-0.2-0.1-0.2-0.8
					c0-0.4,0.1-1,0.2-1.3l0.2-0.6c0-0.1,0.1-0.2,0.1-0.3c0-0.8-1-2-2.1-2.5c-0.4-0.2-0.5-0.4-0.6-0.9l0-0.1c0.2,0.1,0.2,0.1,0.4,0.1
					c0.3,0.1,0.4,0.1,0.4,0.3l0,0.1c0,0.1,0,0.1,0.3,0.2c0.1,0,0.1,0.1,0.2,0.1c0.1,0.1,0.1,0.1,0.1,0.1c0,0,0,0,0,0l0,0l-0.1-0.3
					l0-0.1c0-0.2,0.1-0.4,0.3-0.5c0,0.2,0.1,0.3,0.1,0.4l0.2,0.3c0.1,0.1,0.1,0.2,0.1,0.5c0,0.1,0,0.2,0,0.3l0,0.1
					c0,0.1,0,0.1,0.1,0.1c0,0,0.1,0,0.1,0l0-0.2c0,0,0.1-0.1,0.1-0.1c0.1,0,0.2,0.1,0.4,0.4c0.1,0.1,0.1,0.2,0.1,0.3l0,0.1l0,0.2
					l0,0c0,0.1,0,0.1,0.1,0.1c0,0,0,0,0,0l0.1-0.2c0-0.1,0.1-0.1,0.1-0.1c0.1,0,0.2,0.1,0.3,0.3c0.1,0.1,0.1,0.3,0.1,0.4
					c0,0.2,0,0.3,0.1,0.3c0,0,0,0,0.1,0l0-0.1c0,0,0-0.1,0.1-0.1c0,0,0.2,0.1,0.2,0.3c0,0,0,0.1,0,0.1c0,0,0,0.1-0.1,0.1
					c-0.1,0.1-0.1,0.1-0.1,0.2c0,0.1,0,0.2,0.1,0.4c0.1,0.1,0.1,0.2,0.1,0.3c0.1,0.3,0.2,0.3,0.2,0.3c0,0,0.1,0,0.1-0.1
					c0,0,0-0.1,0-0.1c0-0.1,0-0.1,0-0.1c0,0,0-0.1,0.1-0.1c0,0,0.1,0,0.2,0.1c0,0,0.1,0.1,0.3,0.1l0.3,0.1c0.1,0,0.1,0,0.2,0
					c0.1,0,0.1,0,0.2,0c0.1,0,0.2,0,0.2,0c0.1,0,0.2,0.1,0.2,0.2c0,0.1-0.1,0.2-0.2,0.3c0,0-0.1,0.1-0.1,0.1l0,0c0,0,0,0,0.1,0
					c0.1,0,0.2-0.2,0.4-0.4c0.9-1.4,1.2-1.8,1.8-2c0.6-0.2,0.8-0.3,0.8-0.7c0-0.2-0.1-0.4-0.3-0.7c-0.5-0.6-0.6-0.9-0.6-1.3l0-0.1
					c0.1,0,0.1,0,0.1,0.1c0.1,0,0.1,0.1,0.2,0.1l0.3,0.1c0.1,0,0.1,0.1,0.1,0.2l0,0l0,0.2l0,0c0,0.1,0,0.2,0.1,0.2c0,0,0,0,0.1,0
					c0,0,0.1,0,0.1-0.1l0.2-0.4C20.7,506.9,20.8,506.9,21,506.8 M12.5,514.4c-0.1,0-0.1-0.1-0.1-0.2l0-0.2c0-0.2,0-0.2,0-0.3
					c0-0.2,0-0.3,0.1-0.3c0.1,0,0.2,0.1,0.2,0.3c0,0.1,0,0.2,0,0.2c0,0.1,0,0.2,0,0.2C12.6,514.3,12.6,514.4,12.5,514.4"/>
				<path class="st5" d="M11.6,516L11.6,516c0-0.2,0-0.4-0.1-0.8c0-0.1,0-0.1,0-0.2c0-0.1,0-0.1,0.1-0.2c0-0.1,0.1-0.1,0.1-0.1
					l0.1-0.1l0-0.1c0-0.1,0-0.1,0-0.2c0-0.1,0-0.2,0-0.3c0-0.1,0-0.1,0-0.1c0,0-0.1,0.1-0.2,0.3c-0.1,0.3-0.2,0.3-0.3,0.3
					c-0.1,0-0.2,0-0.3-0.1c0,0,0.1-0.1,0.1-0.1c0,0,0-0.1,0.1-0.2l0.1-0.3c0.1-0.2,0.2-0.3,0.2-0.3c0-0.1,0.1-0.1,0.1-0.1
					c0,0,0.1,0,0.2-0.1c0.1,0,0.1-0.1,0.1-0.1c0,0,0-0.1-0.1-0.1h0l-0.1,0l-0.1,0c0,0-0.1,0-0.1-0.1c0-0.3,0.2-0.6,0.6-0.9
					c0,0,0.1-0.1,0.1-0.1c0,0,0-0.1-0.1-0.1c0,0-0.1,0-0.1,0c0,0-0.1,0-0.1,0c-0.1,0-0.1,0-0.1-0.1c0-0.1,0.1-0.2,0.2-0.5
					c0.1-0.2,0.2-0.3,0.4-0.3l0.5-0.2c0,0,0,0,0-0.1c0,0,0-0.1-0.1-0.1l-0.1,0l-0.1,0l-0.1,0h0c-0.1,0-0.1,0-0.1,0
					c0-0.1,0.1-0.2,0.2-0.3c0.1-0.2,0.2-0.3,0.3-0.3c0,0,0.1,0,0.1,0.1l0.1,0.2c0,0,0.1,0.1,0.3,0.2c0.1,0.1,0.2,0.1,0.3,0.1l0.2,0
					c0.1,0,0.1,0,0.1,0.1l0,0l0,0.2l0,0.2l0,0.2l0,0.2c0,0.1,0,0.1-0.1,0.1c0,0-0.1,0-0.1-0.1c-0.2-0.3-0.3-0.3-0.5-0.3
					c-0.6,0-1,1-1,2.3c0,0.1,0,0.3,0,0.4c0,0.3,0,0.4,0,0.5c0,0.6-0.1,1-0.4,1.2l-0.1,0.1L11.6,516 M12.9,508.4
					c-0.1,0-0.2,0-0.3,0.1c0,0-0.1,0-0.2,0.1c-0.2,0.1-0.3,0.1-0.4,0.1c-0.2,0-0.3-0.1-0.4-0.2l0.1-0.1l0.2-0.1l0.2-0.2
					c0.1,0,0.1-0.1,0.2-0.1C12.4,508,12.6,508.1,12.9,508.4 M17,506.4c0.1,0.1,0.1,0.2,0.2,0.3c0.3,0.3,0.4,0.4,0.4,0.6v0.2
					c0,0.1,0,0.2,0.1,0.2c0,0,0.1,0,0.1,0l0.1-0.1c0,0,0,0,0.1,0s0.1,0,0.2,0.1l0.1,0.1c0.1,0.1,0.1,0.1,0.1,0.2c0,0,0,0.1,0,0.1
					c0,0,0,0.1-0.1,0.2c0,0.1,0,0.1,0,0.2c0,0.1,0,0.1,0.1,0.1c0,0,0.1,0,0.1,0l0.1-0.1c0,0,0,0,0.1,0c0,0,0.1,0,0.1,0.1l0.1,0.2
					c0,0,0,0.1,0,0.1c0,0,0,0.1-0.1,0.1l-0.1,0.1c-0.2,0.1-0.3,0.4-0.3,0.7c0,0,0,0.1,0,0.1l0.1,0.2c0,0.1,0,0.1,0,0.2
					c0,0.1,0,0.2-0.1,0.3c-0.1,0.1-0.1,0.2-0.1,0.2c-0.1,0.2-0.1,0.2-0.1,0.2l-0.1,0l-0.1,0l-0.1-0.1l-0.1-0.2l-0.1-0.1
					c-0.1,0-0.2-0.2-0.2-0.4c0-0.3,0-0.3,0.4-1c0.1-0.2,0.2-0.4,0.2-0.6c0-0.4-0.4-0.7-1.2-0.9l-0.5-0.1c-0.4-0.1-0.6-0.3-0.6-0.7
					c0.1,0.1,0.2,0.1,0.5,0.1l0.2,0h0c0.1,0,0.2,0,0.2,0.1c0.1,0.1,0.2,0.2,0.3,0.3l0.2,0.1l0.1,0.1l0,0c0,0,0.1,0,0.1,0
					c0,0,0-0.1-0.1-0.2c-0.1-0.1-0.2-0.2-0.2-0.4C16.8,506.6,16.9,506.6,17,506.4"/>
				<path class="st5" d="M15.6,508.1c0.1-0.1,0.2-0.2,0.3-0.3c0.1-0.1,0.1-0.1,0.2-0.1c0,0,0.1,0,0.2,0l0.1,0c0.2,0,0.2,0.1,0.2,0.1
					c0,0,0,0.1-0.1,0.1l-0.1,0.1l-0.1,0.1c-0.1,0.1-0.2,0.1-0.3,0.1C15.9,508.2,15.8,508.2,15.6,508.1 M19,507.5L19,507.5l0.2,0
					l0.1,0l0,0c0.2,0,0.5,0.2,0.5,0.4c0,0.1-0.1,0.1-0.2,0.1C19.3,508,19.1,507.9,19,507.5 M40.6,506.8c0,0.1,0,0.1,0,0.2l0,0.1
					c0,0.2,0,0.3,0,0.4c0,0.1,0,0.1-0.1,0.2l-0.1,0.2c-0.1,0.1-0.1,0.2-0.1,0.3c0,0.1,0,0.1,0.1,0.1l0,0c0,0,0,0,0.1-0.1
					c0,0,0.1,0,0.1,0c0.1,0,0.1,0.1,0.1,0.3c0,0.3-0.1,0.4-0.2,0.5l-0.1,0.1c0,0,0,0.1,0,0.1c0,0,0,0.1,0.1,0.1c0,0,0.1,0,0.1,0
					l0.1,0l0,0c0,0,0.1,0,0.1,0.1l0,0l0,0.2c0,0.2-0.1,0.3-0.1,0.3l0,0l-0.3-0.1l0,0c-0.3,0-0.7,0.3-0.8,0.7l-0.2,0.7
					c-0.1,0.2-0.2,0.4-0.5,0.6c-0.1,0.1-0.2,0.1-0.2,0.1l-0.2,0c0,0-0.1,0-0.1,0.1c0,0,0,0.1,0.1,0.1c0.3,0,0.6-0.1,0.9-0.2
					c0.3-0.1,0.5-0.2,0.7-0.2c0.5,0,0.8,0.3,0.8,0.7c0,0.2-0.1,0.5-0.2,0.7c-0.1,0.2-0.3,0.3-0.5,0.5c0,0-0.1,0-0.1,0
					c0,0-0.1,0-0.1-0.1l0-0.1l0,0c0-0.1,0-0.1-0.1-0.1c-0.1,0-0.1,0.1-0.2,0.2c-0.2,0.4-0.5,0.7-0.8,0.7c-0.1,0-0.1,0-0.1-0.1
					c0,0,0-0.1,0.1-0.1c0-0.1,0.1-0.1,0.1-0.2c0,0,0-0.1,0-0.1c0,0,0,0,0,0c0,0-0.1,0-0.2,0.1c-0.1,0.1-0.2,0.2-0.2,0.2l-0.1,0.2
					c-0.1,0.2-0.2,0.3-0.4,0.4l-0.3,0.1c-0.1,0-0.1,0-0.1,0c0,0-0.1,0-0.1,0c0,0,0-0.1,0-0.1c0.1-0.1,0.1-0.2,0.1-0.2
					c0,0,0-0.1-0.1-0.1c-0.1,0-0.2,0.1-0.4,0.4c-0.1,0.2-0.2,0.4-0.2,0.6c0,0.4,0.3,0.8,0.8,0.8c0.2,0,0.5-0.1,0.8-0.3l0.5-0.3
					c0.2-0.1,0.4-0.2,0.6-0.2c0.1,0,0.1,0,0.3,0.1c0.1,0,0.1,0,0.1,0.1c0,0,0,0,0,0.1c0,0,0,0.1-0.1,0.1c-0.2,0-0.7,0.2-1,0.4
					c-0.2,0.1-0.3,0.2-0.3,0.2c-0.1,0-0.1,0.1-0.1,0.1c0,0,0,0,0,0l0.1,0l0.5-0.2l0.4-0.2c0.2-0.1,0.6-0.1,0.7-0.1
					c0.2,0,0.3,0.1,0.3,0.3c0,0.1,0,0.2-0.1,0.3c-0.1,0.1-0.1,0.2-0.2,0.2c0,0-0.1,0-0.1-0.1l0-0.1l0-0.1c0-0.1-0.1-0.2-0.2-0.2
					c0,0-0.1,0-0.2,0l-0.7,0.2c-0.6,0.2-0.8,0.2-1.1,0.2c-0.8,0-1.4-0.6-1.4-1.3c0-0.8,0.6-1.4,2-1.9c1.4-0.5,1.6-0.6,1.6-1
					c0-0.2-0.2-0.4-0.5-0.4c-0.1,0-0.2,0-0.2,0c-0.1,0-0.3,0.1-0.7,0.2c-0.4,0.1-0.8,0.1-1.3,0.1c-1,0-1.5-0.2-2.1-0.7
					c-0.1-0.1-0.2-0.1-0.3-0.1l-0.1,0l-0.2,0c-0.1,0-0.2-0.1-0.3-0.2l-0.2-0.3c0,0-0.1-0.1-0.1-0.1c-0.1,0-0.2,0.1-0.3,0.3
					c-0.1,0.1-0.1,0.2-0.2,0.3l-0.2,0.2c0,0-0.1,0.1-0.1,0.1s0,0.1,0.1,0.1c0,0,0.1,0.1,0.1,0.1c0,0.1,0.1,0.1,0.1,0.1l0,0.1
					c0,0,0,0.1,0.1,0.1c0.1,0,0.1,0,0.1-0.3c0-0.1,0-0.2,0.1-0.3l0.1-0.3c0,0,0.1-0.1,0.1-0.1c0.1,0,0.2,0.3,0.3,0.5
					c0,0.2,0.1,0.3,0.1,0.3c0,0,0.1,0,0.2-0.2c0-0.1,0.1-0.1,0.1-0.2c0.1,0,0.1-0.1,0.1-0.1h0c0.1,0,0.1,0.1,0.1,0.3l0,0.1l0,0.1
					l0,0.1c0,0.1,0,0.1,0.1,0.1c0,0,0.1,0,0.1,0l0.1-0.1c0.1-0.1,0.1-0.1,0.2-0.1c0.1,0,0.1,0,0.1,0.1c0,0.1,0,0.1-0.1,0.2
					c0,0,0,0.1-0.1,0.1c-0.1,0.2-0.1,0.2-0.2,0.2l-0.1,0l-0.1-0.1c0,0-0.1,0-0.1,0c0,0,0,0,0,0c0,0.1,0.1,0.2,0.2,0.4
					c0.1,0.1,0.1,0.4,0.2,0.8l0.1,0.5c0,0.3,0.1,0.4,0.1,0.4c0,0,0,0,0,0l0-0.2v-0.1c0-0.2,0-0.3,0-0.3c0,0,0.1,0.1,0.2,0.1
					c0,0.1,0.1,0.1,0.1,0.2c0,0.1,0.1,0.2,0.1,0.3c0,0.2-0.1,0.3-0.4,0.4c0,0-0.1,0-0.1,0l0,0.1v0.2l0,0.1l0,0.1l-0.1,0.1l-0.1-0.1
					c-0.2-0.1-0.3-0.2-0.3-0.3c-0.1-0.1-0.1-0.2-0.2-0.2c0,0-0.1,0-0.1,0l0,0.2l0,0c0,0.2-0.1,0.5-0.4,0.6l-0.1-0.1l-0.1-0.1
					l-0.1-0.1c-0.1-0.1-0.1-0.2-0.1-0.3l0,0l0,0c0-0.1,0-0.1-0.1-0.1l0,0l-0.1,0.1l-0.1,0.1l-0.2,0.1l-0.1,0.1
					c-0.1-0.2-0.1-0.2-0.1-0.5v-0.1c0-0.1,0-0.2-0.1-0.2c0,0-0.1,0-0.1,0.1c0,0-0.1,0-0.2,0c-0.2,0-0.3-0.1-0.3-0.3
					c0-0.2,0-0.3,0.2-0.5c0.1-0.1,0.2-0.2,0.2-0.2c0,0,0,0.1,0,0.2l0,0.2l0,0.1c0,0.1,0,0.1,0.1,0.1c0.1,0,0.1-0.1,0.1-0.2l0.1-0.4
					l0.1-0.5c0-0.1,0.1-0.3,0.1-0.4c0.1-0.2,0.1-0.3,0.2-0.4c0.1-0.1,0.1-0.2,0.1-0.2c0,0,0,0,0,0c0,0-0.1,0-0.1,0c0,0-0.1,0-0.1,0
					l-0.1,0c-0.2,0-0.2-0.1-0.2-0.8c0-0.4,0.1-1,0.2-1.3l0.2-0.6c0-0.1,0.1-0.2,0.1-0.3c0-0.8-1-2-2.1-2.5c-0.4-0.2-0.6-0.4-0.6-1
					c0.2,0.1,0.3,0.1,0.4,0.1c0.3,0.1,0.4,0.1,0.4,0.3l0,0.1c0,0.1,0.1,0.1,0.3,0.2c0.1,0,0.1,0.1,0.2,0.1c0.1,0.1,0.1,0.1,0.1,0.1
					c0,0,0,0,0-0.1l0,0l-0.1-0.3l0-0.1c0-0.2,0.1-0.4,0.3-0.5c0,0.1,0,0.1,0,0.1c0,0.2,0.1,0.3,0.1,0.3l0.2,0.3
					c0.1,0.1,0.1,0.2,0.1,0.4l0,0.3l0,0.1c0,0.1,0,0.1,0.1,0.1c0,0,0.1,0,0.1,0l0-0.2c0,0,0.1-0.1,0.1-0.1c0.1,0,0.2,0.1,0.4,0.4
					c0.1,0.1,0.1,0.2,0.1,0.3c0,0.1,0,0.2,0,0.3l0,0.1c0,0.1,0,0.1,0.1,0.1c0,0,0,0,0.1,0l0.1-0.2c0-0.1,0.1-0.1,0.1-0.1
					c0.2,0,0.3,0.3,0.3,0.7c0,0.2,0,0.3,0.1,0.3c0,0,0,0,0.1,0l0-0.1c0,0,0-0.1,0.1-0.1c0,0,0.1,0,0.1,0.1c0,0,0.1,0.1,0.1,0.1
					c0,0,0,0.1,0,0.1c0,0.1,0,0.1-0.1,0.1c-0.1,0.1-0.1,0.1-0.1,0.2c0,0.2,0.1,0.3,0.3,0.6c0.2,0.3,0.2,0.3,0.2,0.3
					c0,0,0.1,0,0.1-0.1c0,0,0-0.1,0-0.1c0-0.1,0-0.1,0-0.1c0,0,0-0.1,0.1-0.1c0.1,0,0.1,0,0.2,0.1c0,0,0.1,0.1,0.3,0.1
					c0.2,0.1,0.3,0.1,0.4,0.1c0.1,0,0.1,0,0.2,0c0.1,0,0.1,0,0.2,0c0.1,0,0.2,0,0.2,0c0.1,0,0.2,0.1,0.2,0.2c0,0,0,0.1-0.1,0.2
					c-0.1,0.1-0.1,0.1-0.1,0.1c0,0-0.1,0.1-0.1,0.1l0,0c0,0,0,0,0.1,0c0.1,0,0.2-0.2,0.4-0.4c0.8-1.3,1.2-1.8,1.8-2
					c0.6-0.2,0.8-0.3,0.8-0.7c0-0.2-0.1-0.4-0.3-0.7c-0.4-0.6-0.6-0.9-0.6-1.3l0-0.1c0.1,0,0.1,0,0.1,0.1c0.1,0,0.1,0.1,0.2,0.1
					l0.3,0.1c0.1,0,0.1,0.1,0.1,0.2l0,0l0,0.2l0,0c0,0.1,0.1,0.2,0.1,0.2c0,0,0.1,0,0.1-0.1l0.2-0.4
					C40.3,506.9,40.4,506.9,40.6,506.8 M32,514l0-0.2l0-0.1c0-0.2,0-0.2,0.1-0.2c0.1,0,0.2,0.1,0.2,0.3c0,0.1,0.1,0.2,0.1,0.3
					c0,0.1,0,0.1-0.1,0.2c0,0.1-0.1,0.2-0.2,0.2C32,514.4,32,514.3,32,514"/>
				<path class="st5" d="M31.2,516L31.2,516c0-0.2,0-0.4-0.1-0.5c0-0.2-0.1-0.2-0.1-0.2c0-0.1,0-0.1,0-0.2c0-0.1,0.1-0.3,0.2-0.3
					l0.1-0.1l0-0.1c0-0.1,0-0.1,0-0.2c0-0.1,0-0.2,0-0.3c0-0.1,0-0.1,0-0.1c0,0-0.1,0.1-0.2,0.3c-0.1,0.3-0.2,0.3-0.3,0.3
					c-0.1,0-0.2,0-0.3-0.1c0.1-0.1,0.2-0.3,0.3-0.5c0.2-0.4,0.2-0.4,0.5-0.6c0.1,0,0.1-0.1,0.1-0.1c0,0,0-0.1-0.1-0.1
					c0,0-0.1,0-0.1,0l-0.1,0c0,0-0.1,0-0.1-0.1c0-0.3,0.2-0.6,0.6-0.9c0.1,0,0.1-0.1,0.1-0.1c0,0,0,0,0-0.1c0,0,0,0-0.1,0
					c0,0-0.1,0-0.1,0c0,0-0.1,0-0.1,0c-0.1,0-0.1,0-0.1-0.1c0-0.1,0.1-0.3,0.2-0.5c0.1-0.2,0.2-0.3,0.3-0.3l0.5-0.2c0,0,0,0,0-0.1
					c0,0,0-0.1-0.1-0.1l-0.1,0l-0.1,0l-0.1,0l0,0c-0.1,0-0.1,0-0.1,0c0-0.1,0-0.2,0.2-0.3c0.1-0.2,0.2-0.3,0.3-0.3
					c0,0,0.1,0,0.1,0.1l0.1,0.2c0,0,0.1,0.1,0.3,0.2c0.1,0.1,0.2,0.1,0.3,0.1c0.3,0,0.3,0,0.3,0.2c0,0,0,0.1,0,0.2
					c0,0.1,0,0.1,0,0.2l0,0.2l0,0.2c0,0.1,0,0.1-0.1,0.1c0,0-0.1,0-0.1-0.1c-0.1-0.2-0.3-0.3-0.5-0.3c-0.6,0-1,0.9-1,2.3l0,0.4
					l0,0.5l0,0.2c0,0.4-0.1,0.9-0.4,1.1l-0.1,0.1L31.2,516 M32.5,508.4c-0.2,0-0.3,0-0.5,0.2c-0.2,0.1-0.3,0.1-0.4,0.1
					c-0.2,0-0.3-0.1-0.4-0.2l0.1-0.1l0.2-0.1l0.2-0.2c0.1,0,0.1-0.1,0.2-0.1C32.1,508,32.2,508.1,32.5,508.4 M36.6,506.4
					c0.1,0.1,0.1,0.2,0.2,0.3c0.3,0.3,0.4,0.4,0.4,0.6v0.2c0,0.1,0,0.2,0.1,0.2c0,0,0.1,0,0.1,0l0.1-0.1c0,0,0,0,0.1,0
					c0.1,0,0.1,0.1,0.3,0.3c0.1,0.1,0.1,0.1,0.1,0.2c0,0,0,0.1,0,0.1c0,0,0,0.1-0.1,0.2c0,0.1,0,0.1,0,0.2c0,0.1,0,0.1,0.1,0.1
					c0,0,0.1,0,0.1,0l0.1-0.1c0,0,0,0,0.1,0c0,0,0.1,0,0.1,0.1l0.1,0.2c0,0,0,0.1,0,0.1c0,0,0,0.1-0.1,0.1l-0.1,0.1
					c-0.2,0.1-0.3,0.4-0.3,0.7c0,0,0,0.1,0,0.1l0.1,0.2c0,0.1,0,0.1,0,0.2c0,0.1,0,0.2-0.1,0.3c-0.1,0.1-0.1,0.2-0.1,0.2
					c-0.1,0.2-0.1,0.2-0.1,0.2c0,0-0.1,0-0.1-0.1l-0.1-0.1l-0.1-0.2l-0.1-0.1c-0.1,0-0.2-0.2-0.2-0.4c0-0.2,0.1-0.3,0.4-1
					c0.1-0.3,0.2-0.5,0.2-0.6c0-0.4-0.4-0.8-1.1-0.9c-0.9-0.2-1-0.3-1.1-0.9c0.1,0.1,0.2,0.1,0.5,0.1l0.2,0h0c0.1,0,0.2,0,0.2,0.1
					c0.1,0.1,0.2,0.2,0.3,0.3l0.2,0.1l0.1,0.1l0,0c0,0,0.1,0,0.1,0c0,0,0-0.1-0.1-0.2c-0.1-0.1-0.2-0.3-0.2-0.3
					C36.5,506.6,36.5,506.6,36.6,506.4"/>
				<path class="st5" d="M35.2,508.1c0.1-0.1,0.2-0.2,0.3-0.3c0.1-0.1,0.1-0.1,0.2-0.1c0,0,0.1,0,0.2,0l0.1,0c0.2,0,0.2,0.1,0.2,0.1
					c0,0,0,0.1,0,0.1l-0.1,0.1l-0.1,0.1c-0.1,0.1-0.2,0.1-0.3,0.1C35.5,508.2,35.4,508.2,35.2,508.1 M38.6,507.5L38.6,507.5l0.2,0
					l0.1,0l0.1,0c0.1,0,0.2,0,0.2,0c0.1,0,0.1,0.1,0.2,0.2c0,0,0,0.1,0,0.1c0,0.1-0.1,0.1-0.2,0.1C38.9,508,38.8,507.9,38.6,507.5
					 M20,485.3l0.1,0.1l0.1,0.2c0.1,0.1,0.2,0.3,0.2,0.5c0,0.1,0,0.2-0.1,0.3c0,0.1,0,0.2,0,0.2c0,0.1,0.1,0.1,0.1,0.1
					c0,0,0.1,0,0.1-0.1l0.2-0.2c0.1-0.1,0.1-0.1,0.3-0.2l0,0.1l0,0.2c0,0.3-0.1,0.5-0.2,0.7c-0.1,0.1-0.1,0.2-0.1,0.2s0,0.1,0.1,0.1
					c0,0,0,0,0,0c0.1-0.1,0.2-0.1,0.2-0.1c0.1,0,0.1,0.1,0.1,0.3c0,0.2-0.1,0.4-0.2,0.6c-0.1,0.1-0.1,0.1-0.1,0.2c0,0,0,0,0,0.1
					c0,0,0,0.1,0.1,0.1c0,0,0.1,0,0.1-0.1c0,0,0.1,0,0.1,0c0.1,0,0.1,0.1,0.1,0.4l0,0.1l0,0.2c0,0.2,0,0.3-0.1,0.3h-0.1
					c-0.5,0-0.8,0.3-0.9,1.2c-0.1,0.6-0.3,1.1-0.6,1.2c-0.2,0.1-0.2,0.1-0.2,0.1c0,0,0,0.1,0.1,0.1c0,0,0.1,0,0.2-0.1
					c0.4-0.2,0.8-0.3,1.1-0.3c0.5,0,0.9,0.4,0.9,0.8c0,0.4-0.2,0.7-0.5,1c-0.1,0.1-0.2,0.1-0.3,0.2l0,0l-0.1,0l0-0.2l0-0.1l0,0
					c0,0,0,0-0.1,0c0,0-0.1,0-0.1,0l-0.2,0.3c-0.1,0.2-0.5,0.4-0.7,0.4c-0.1,0-0.1,0-0.1-0.1c0,0,0-0.1,0.1-0.1
					c0.1-0.1,0.1-0.1,0.1-0.2l0,0c0,0,0,0,0,0l0,0c-0.1,0-0.1,0-0.3,0.3c-0.2,0.2-0.6,0.4-0.8,0.4c0,0-0.1,0-0.1,0c0,0,0,0,0,0
					c0,0,0-0.1,0.1-0.1c0.1-0.1,0.1-0.1,0.1-0.2c0,0,0,0-0.1,0c-0.1,0-0.2,0.1-0.4,0.3c-0.4,0.3-0.6,0.6-0.6,0.9
					c0,0.4,0.3,0.7,0.7,0.7c0.2,0,0.5-0.1,0.7-0.3l0.5-0.4c0.2-0.2,0.5-0.3,0.8-0.3c0.1,0,0.1,0,0.2,0c0,0,0.1,0.1,0.1,0.1
					c0,0,0,0-0.1,0c-0.2,0-0.3,0.1-0.4,0.2l-0.5,0.4c-0.2,0.1-0.3,0.2-0.4,0.3c-0.3,0.1-0.3,0.2-0.3,0.2c0,0,0,0,0.1,0
					c0,0,0.1,0,0.1,0l0.3-0.1c0.1,0,0.2-0.1,0.4-0.3c0.6-0.4,0.8-0.5,1.2-0.5c0.3,0,0.5,0.2,0.5,0.5c0,0.1,0,0.1,0,0.2l-0.1,0.1
					c0,0-0.1,0.1-0.1,0.1l0,0l0-0.2c0,0,0,0,0-0.1c0,0,0-0.1-0.1-0.1c-0.1-0.1-0.1-0.1-0.2-0.1c-0.2,0-0.3,0.1-0.8,0.4
					c-0.5,0.3-0.9,0.5-1.3,0.5c-0.8,0-1.4-0.6-1.4-1.4c0-1.1,0.6-1.5,2.7-2c0.8-0.2,1.1-0.4,1.1-0.7c0-0.3-0.3-0.5-0.7-0.5
					c-0.1,0-0.2,0-0.3,0c-0.1,0-0.4,0.1-1.1,0.3c-0.5,0.1-1,0.2-1.4,0.2c-0.8,0-1.3-0.2-1.7-0.7c0-0.1-0.1-0.1-0.1-0.1
					c0,0-0.1,0-0.1,0l-0.1,0.1c-0.1,0.1-0.3,0.1-0.4,0.1c-0.1,0-0.2,0-0.2-0.1c-0.1,0-0.1-0.1-0.1-0.1c-0.1,0-0.2,0.1-0.3,0.3
					c-0.1,0.2-0.2,0.5-0.2,0.7c0,0.1,0,0.2,0.1,0.2c0,0,0.1,0,0.1-0.1l0.1-0.3c0-0.2,0.1-0.3,0.2-0.3c0,0,0.1,0,0.2,0.1
					c0,0,0.1,0.1,0.1,0.1c0.1,0.2,0.1,0.2,0.1,0.2c0.1,0,0.1,0,0.1-0.2c0,0,0-0.1,0.1-0.2c0-0.1,0.1-0.1,0.1-0.2
					c0,0,0.1-0.1,0.1-0.1c0.1,0,0.2,0.2,0.2,0.3l0,0l0,0.2c0,0.1,0,0.1,0.1,0.1c0,0,0,0,0.1-0.1c0-0.1,0.1-0.1,0.2-0.1
					c0.1,0,0.1-0.1,0.2-0.1c0,0,0.1,0,0.1,0.1c0,0,0,0.1,0,0.1c0,0,0,0.1-0.1,0.2c-0.1,0.1-0.1,0.2-0.2,0.4c0,0.1-0.1,0.1-0.1,0.1
					c0,0,0,0-0.1,0l-0.1-0.1l-0.1,0l0,0c0,0-0.1,0-0.1,0.1s0.1,0.2,0.2,0.3c0.1,0.1,0.1,0.2,0.1,0.3c0,0.2,0,0.3,0.1,0.3l0,0.4
					c0,0.2,0.1,0.5,0.2,0.7c0,0,0,0.1,0,0.1c0,0,0.1-0.1,0.1-0.2l0-0.1l0-0.1c0-0.1,0-0.2,0.1-0.2c0,0,0.1,0.1,0.1,0.2l0.1,0.2
					c0,0.1,0,0.1,0,0.2c0,0.2-0.1,0.4-0.3,0.4l-0.1,0c0,0-0.1,0-0.1,0c-0.1,0-0.1,0.1-0.1,0.1l0,0.2l0,0.2l0,0.2l0,0.1l-0.1-0.1
					l-0.1-0.1l-0.2-0.1l-0.1-0.1c0,0-0.1,0-0.1,0c-0.1,0-0.1,0-0.1,0.2l0,0c0,0.1-0.1,0.2-0.3,0.5c0,0,0,0-0.1,0.1l0-0.1l-0.1-0.2
					l-0.1-0.3l0-0.2c0-0.1,0-0.1,0-0.1c0,0-0.1,0-0.1,0.1c-0.2,0.2-0.2,0.2-0.5,0.3l0-0.1c0-0.1-0.1-0.2-0.1-0.2l0-0.2l0-0.1l0-0.1
					c0-0.1,0-0.1-0.1-0.1l0,0c0,0,0,0-0.1,0.1c0,0-0.1,0-0.1,0c-0.2,0-0.3-0.1-0.3-0.3c0-0.1,0-0.2,0.2-0.5c0.1-0.1,0.2-0.2,0.2-0.2
					c0,0,0,0.1,0,0.2l0,0.1c0,0.1,0,0.1,0,0.2c0,0.1,0,0.1,0,0.1c0.1,0,0.2-0.3,0.2-0.7l0-0.4c0-0.1,0.1-0.3,0.1-0.4
					c0.1-0.2,0.2-0.3,0.3-0.4c0.1-0.1,0.2-0.1,0.2-0.2c0,0,0-0.1-0.1-0.1c0,0-0.1,0-0.2,0.1l-0.1,0c-0.2,0-0.3-0.1-0.3-0.5
					c0-0.4,0.3-1.1,0.6-1.3l0.5-0.4c0.2-0.2,0.4-0.5,0.4-0.8c0-0.3-0.3-0.6-0.9-0.8l-0.3-0.1c-0.3-0.1-0.4-0.3-0.5-0.8
					c0.1,0,0.2,0.1,0.3,0.1l0,0l0.2,0c0.1,0,0.2,0.1,0.2,0.2v0.1c0,0,0,0.1,0.1,0.1c0.1,0,0.1,0.1,0.1,0.1l0.1,0.1c0,0,0,0,0.1,0
					c0,0,0.1,0,0.1-0.1c0,0,0-0.1,0-0.1c0-0.1-0.1-0.2-0.1-0.4c0-0.3,0-0.4,0.2-0.6c0,0.1,0,0.1,0,0.1c0,0.1,0.1,0.1,0.2,0.3
					c0.2,0.2,0.3,0.5,0.3,0.6l0,0l0,0.2c0,0,0,0.1,0.1,0.1c0,0,0,0,0.1,0c0,0,0.1,0,0.1-0.1c0-0.1,0.1-0.1,0.1-0.1
					c0,0,0.1,0.1,0.2,0.2c0,0.1,0.1,0.2,0.1,0.2c0,0,0,0.1,0,0.1c0,0.1,0,0.1,0,0.1c0,0,0,0,0,0.1c0,0,0,0,0.1,0c0,0,0,0,0.1,0
					l0.1-0.1c0,0,0.1,0,0.1,0c0,0,0.1,0,0.1,0.1c0.1,0.1,0.1,0.3,0.1,0.3c0,0,0,0-0.1,0.1c-0.2,0.1-0.3,0.4-0.3,0.6c0,0,0,0.1,0,0.2
					l0.1,0.3c0.1,0.1,0.1,0.2,0.1,0.2l0,0c0,0,0.1,0,0.1-0.1c0,0,0-0.1,0-0.1c0-0.1,0-0.2,0-0.2c0-0.1,0-0.1,0.1-0.1
					c0.1,0,0.1,0,0.2,0c0.3,0.1,0.6,0.2,0.7,0.2c0.1,0,0.2,0,0.4-0.1c0,0,0.1,0,0.1,0c0,0,0,0,0.1,0c0,0,0,0,0,0.1
					c0,0,0,0.1-0.1,0.1c-0.1,0.1-0.1,0.1-0.1,0.1c0,0,0,0.1,0.1,0.1c0.2,0,0.4-0.5,0.7-1.3c0.2-0.7,0.2-0.7,0.9-1.1
					c0.5-0.3,0.7-0.6,0.7-1.1c0-0.5-0.1-1.1-0.4-1.9c-0.1-0.3-0.1-0.4-0.1-0.6c0-0.1,0-0.2,0.1-0.5c0-0.1,0.1-0.2,0.1-0.2
					C19.9,485.4,19.9,485.4,20,485.3"/>
				<path class="st5" d="M17.5,486.8c0.1,0.1,0.1,0.2,0.2,0.4c0.2,0.3,0.2,0.4,0.2,0.5v0.2c0,0.2,0,0.2,0.1,0.2c0,0,0,0,0.1,0
					l0.1-0.1c0,0,0,0,0.1,0c0,0,0.1,0,0.1,0.1c0.1,0.1,0.1,0.3,0.1,0.4l0,0.1l0,0.1c0,0.1,0,0.1,0.1,0.1c0,0,0.1,0,0.1-0.1
					c0-0.1,0.1-0.1,0.1-0.1c0,0,0.1,0,0.1,0.1l0.1,0.1l0.1,0.1l0,0c0,0,0,0.1-0.1,0.1c-0.2,0.1-0.3,0.4-0.3,0.7c0,0.3,0,0.5-0.1,0.6
					c0,0-0.1,0.2-0.2,0.5c0,0.1-0.1,0.2-0.1,0.4c0,0.1-0.1,0.1-0.1,0.1c-0.3,0-0.5-0.2-0.5-0.6c0-0.2,0.1-0.5,0.2-0.9
					c0.2-0.5,0.3-0.7,0.3-0.9c0-0.4-0.2-0.6-0.7-0.7c-0.6-0.2-0.9-0.5-1-1.1c0,0,0.1,0,0.1,0c0.1,0,0.1,0,0.1,0.1l0.2,0
					c0.1,0,0.3,0.1,0.3,0.2l0,0.1c0,0,0,0.1,0.1,0.1l0.1,0l0.1,0l0,0l0-0.1c0,0,0-0.1,0-0.2C17.4,487.1,17.4,486.9,17.5,486.8
					 M11.9,496.5c0-0.1,0-0.1,0-0.1c0,0,0-0.1,0-0.3l0-0.2c0-0.2,0-0.4,0.1-0.6c0.1-0.2,0.1-0.2,0.1-0.2l0,0c0,0,0-0.1,0-0.1
					c0,0-0.1,0-0.1,0.1c-0.1,0.1-0.3,0.2-0.4,0.2c0,0-0.1,0-0.2,0l0.1-0.1l0.2-0.4l0.2-0.3l0.2-0.2c0,0,0,0,0.1-0.1c0,0,0-0.1,0-0.1
					c0,0,0,0,0,0l-0.2,0c0,0-0.1,0-0.1,0c0,0,0-0.1,0.1-0.3l0.1-0.3l0.2-0.2l0.2-0.1c0.1,0,0.1-0.1,0.1-0.1c0,0,0-0.1,0-0.1l-0.1,0
					c0,0-0.1,0-0.1-0.1c0-0.1,0.1-0.2,0.2-0.4c0.2-0.2,0.3-0.3,0.5-0.3H13c0.1,0,0.1,0,0.1-0.1c0,0,0-0.1-0.1-0.1
					c-0.1,0-0.2-0.1-0.2-0.1c0,0,0-0.1,0.1-0.1l0.1-0.1c0.1-0.1,0.1-0.2,0.2-0.2c0,0,0.1,0,0.2,0.1c0.1,0.1,0.2,0.2,0.3,0.2
					c0.4,0.1,0.4,0.1,0.4,0.2c0,0,0,0.1,0,0.1c-0.1,0.2-0.2,0.3-0.2,0.5c0,0.1,0,0.2-0.1,0.2c0,0-0.1,0-0.1-0.1
					c-0.1-0.1-0.2-0.2-0.4-0.2c-0.4,0-0.8,0.6-1,1.3c-0.1,0.2-0.1,0.4-0.1,0.6c0,0.2,0,0.4,0.1,0.6c0.1,0.3,0.1,0.5,0.1,0.5l0,0.1
					C12.5,495.9,12.3,496.2,11.9,496.5"/>
				<path class="st5" d="M12.6,495c-0.1-0.1-0.1-0.5-0.1-0.7c0-0.1,0-0.2,0.1-0.2c0,0,0,0,0.1,0.1l0.1,0.2c0,0,0,0.1,0.1,0.1
					c0,0.1,0.1,0.1,0.1,0.2C12.9,494.8,12.8,495,12.6,495 M13.8,490.3C13.8,490.3,13.8,490.2,13.8,490.3c0.1-0.1,0.1-0.1,0.1-0.1
					c0.2-0.2,0.2-0.2,0.3-0.2c0.1,0,0.3,0.1,0.4,0.1c0,0,0.1,0.1,0.1,0.1c0,0,0,0.1-0.1,0.1l-0.1,0.1c-0.1,0.1-0.2,0.2-0.3,0.2
					C14.1,490.5,14,490.4,13.8,490.3 M16.2,488.4c0.1,0,0.2-0.1,0.2-0.1c0.1-0.1,0.2-0.1,0.2-0.1c0,0,0.1,0,0.2,0c0,0,0.1,0,0.1,0
					l0.2,0.1l0.2,0.1c0.1,0,0.1,0.1,0.1,0.1c0,0,0,0-0.1,0.1c0,0-0.1,0-0.2,0.1c-0.3,0.1-0.3,0.1-0.4,0.1
					C16.6,488.6,16.4,488.5,16.2,488.4 M18.9,486.3c0.1,0.2,0.1,0.2,0.4,0.2c0.3,0,0.5,0.5,0.5,0.8c0,0,0,0.1,0,0.1c0,0,0,0-0.1,0
					c-0.1,0-0.1-0.1-0.2-0.1l-0.3-0.1c-0.2-0.1-0.4-0.4-0.4-0.6C18.8,486.5,18.9,486.4,18.9,486.3 M38.1,488.8l0,0.1l0,0.1
					c0,0,0,0.1,0.1,0.2c0.1,0.1,0.2,0.3,0.2,0.5c0,0.1,0,0.1-0.1,0.2c0,0,0,0.1,0,0.1c0,0,0,0,0,0s0,0,0,0l0,0c0,0,0.1,0,0.1-0.1
					c0-0.1,0.1-0.1,0.1-0.1c0,0,0.1,0.1,0.1,0.2c0,0.1,0,0.1,0,0.1c0,0,0,0.2-0.1,0.3c0,0,0,0.1,0,0.1c0,0,0,0.1,0.1,0.1
					c0,0,0.1,0,0.1-0.1c0,0,0.1,0,0.1,0c0.1,0,0.1,0.1,0.2,0.2c0,0.1,0,0.1,0,0.2c0,0,0,0,0,0l0,0l-0.1,0c-0.2,0-0.5,0.1-0.6,0.3
					l-0.3,0.4c-0.1,0.1-0.3,0.3-0.3,0.3l-0.2,0.2c0,0-0.1,0.1-0.1,0.1c0,0,0,0.1,0.1,0.1c0.1,0,0.2-0.1,0.5-0.2
					c0.3-0.1,0.8-0.2,1.1-0.2c0.5,0,0.9,0.4,0.9,0.9c0,0.3-0.1,0.5-0.4,0.9c-0.1,0.1-0.2,0.1-0.2,0.1c0,0-0.1,0-0.1-0.1
					c0,0,0-0.1,0-0.1c0,0,0-0.1,0-0.1c0,0,0-0.1-0.1-0.1c-0.1,0-0.1,0.1-0.2,0.3c-0.1,0.2-0.2,0.4-0.5,0.5c-0.1,0.1-0.3,0.1-0.3,0.1
					c0,0,0,0,0,0c0,0,0-0.1,0-0.1c0-0.1,0.1-0.1,0.1-0.2v0c0,0,0-0.1-0.1-0.1c-0.1,0-0.1,0-0.2,0.3c-0.1,0.1-0.3,0.3-0.5,0.4
					c-0.1,0-0.1,0-0.2,0l0,0c0,0-0.1,0-0.1,0c0,0,0,0,0-0.1l0-0.1c0,0,0-0.1,0-0.1c-0.1,0-0.3,0.2-0.4,0.3c-0.2,0.2-0.3,0.4-0.3,0.6
					c0,0.4,0.4,0.8,0.8,0.8c0.1,0,0.2,0,0.3-0.1l0.4-0.2l0.4-0.3c0.2-0.2,0.6-0.3,0.8-0.3c0.1,0,0.1,0,0.3,0.1
					c0.1,0,0.2,0.1,0.2,0.1l0,0l0,0l-0.2,0c-0.1,0-0.4,0.1-0.7,0.3l-0.5,0.3l-0.4,0.2c0,0-0.1,0-0.1,0.1c0,0,0,0,0,0c0,0,0,0,0.1,0
					l0.4-0.1c0.1,0,0.3-0.1,0.5-0.2c0.4-0.2,0.7-0.3,0.9-0.3c0.2,0,0.4,0.2,0.4,0.4c0,0.1,0,0.2,0,0.3c0,0,0,0.1-0.1,0.1
					c0,0,0,0-0.1,0c0,0,0,0,0-0.1l0-0.1l0-0.1c0-0.2-0.1-0.3-0.3-0.3c-0.2,0-0.4,0.1-0.9,0.3c-0.5,0.2-0.8,0.3-1.1,0.3
					c-0.8,0-1.5-0.6-1.5-1.4c0-0.6,0.4-1.1,1.3-1.5l0.9-0.4c0.7-0.3,1-0.5,1-0.8c0-0.2-0.2-0.4-0.6-0.4c-0.2,0-0.3,0-0.7,0.2
					c-0.8,0.3-1.4,0.4-1.9,0.4c-0.8,0-1.3-0.2-1.8-0.7c-0.1-0.1-0.1-0.1-0.1-0.1c0,0-0.1,0-0.2,0.1c-0.1,0-0.2,0.1-0.2,0.1
					c-0.1,0-0.2-0.1-0.3-0.1l-0.1-0.1c0,0-0.1-0.1-0.1-0.1c-0.1,0-0.2,0.1-0.3,0.3c-0.1,0.1-0.1,0.2-0.1,0.3c0,0.1,0,0.2,0,0.3
					l0,0.2l0,0.2c0,0.1,0,0.2,0,0.2c0,0,0,0,0.1,0c0.1,0,0.1,0,0.1-0.2l0-0.1l0,0c0-0.3,0.1-0.6,0.2-0.6c0.1,0,0.2,0.2,0.3,0.5
					c0,0.1,0,0.1,0.1,0.1c0,0,0.1-0.1,0.1-0.2c0-0.1,0.1-0.2,0.2-0.3c0-0.1,0.1-0.1,0.1-0.1c0.1,0,0.1,0.1,0.2,0.4
					c0,0.1,0.1,0.2,0.1,0.2c0,0,0,0,0,0c0,0,0,0,0.1-0.1c0,0,0.1-0.1,0.1-0.1c0.1,0,0.1,0,0.1,0c0,0,0.1,0,0.1,0
					c0,0,0.1,0.1,0.1,0.1c0,0,0,0-0.1,0.1c-0.1,0.1-0.1,0.2-0.2,0.3c0,0.1-0.1,0.2-0.1,0.2c0,0,0,0.1-0.1,0.1l0,0l-0.1,0
					c0,0-0.1,0-0.2-0.1l-0.1,0c0,0,0,0,0,0c0,0,0,0.1,0.1,0.1c0.3,0.2,0.4,0.6,0.5,1.1c0,0.3,0.1,0.4,0.2,0.6c0,0,0.1,0.1,0.1,0.1
					c0,0,0.1,0,0.1-0.1c0,0,0-0.1,0-0.1c0,0,0-0.1,0-0.1l0,0l0-0.1l0.1,0l0.1,0.1c0.1,0.1,0.1,0.3,0.1,0.4c0,0.1,0,0.2-0.1,0.2
					c-0.1,0.1-0.1,0.1-0.2,0.1l-0.1,0l-0.1,0c-0.1,0-0.1,0-0.1,0.1l0,0.1l0,0.1l-0.1,0.3l-0.1,0.1l0,0.1l-0.1-0.1l-0.2-0.1
					c0,0-0.1-0.1-0.1-0.1c-0.1-0.2-0.2-0.2-0.2-0.2c0,0-0.1,0-0.1,0l0,0c0,0.1,0,0.2,0,0.2c0,0.2-0.1,0.5-0.3,0.6
					c-0.2-0.2-0.3-0.4-0.3-0.7v-0.1c0,0,0-0.1,0-0.1h0c0,0-0.1,0-0.1,0.1l-0.1,0.2c0,0-0.1,0.1-0.2,0.1c0,0,0,0-0.1,0.1l0-0.1
					c-0.1-0.2-0.1-0.3-0.1-0.5c0-0.1,0-0.2,0-0.2c0,0,0,0-0.1,0c-0.2,0.1-0.2,0.1-0.2,0.1c-0.2,0-0.3-0.1-0.3-0.3
					c0-0.1,0-0.2,0.1-0.3c0.1-0.2,0.2-0.3,0.3-0.3c0,0,0,0,0,0.1v0l0,0.2l0,0.1l0,0c0,0,0,0.1,0,0.1c0.1,0,0.2-0.3,0.2-0.8
					c0.1-0.5,0.2-0.8,0.4-1c0.1,0,0.1-0.1,0.1-0.1c0,0,0,0,0,0c0,0-0.1,0-0.1,0.1c0,0-0.1,0-0.1,0c-0.1,0-0.2-0.1-0.2-0.3l-0.1-0.6
					L33,492c0-0.2,0-0.4,0.1-0.6c0-0.2,0.1-0.4,0.1-0.5c0-0.6-0.4-1.1-1-1.3l-0.7-0.2c-0.4-0.1-0.6-0.4-0.7-0.9
					c0.1,0.1,0.1,0.1,0.3,0.1l0.2,0c0.1,0,0.1,0,0.2,0.1c0,0,0.1,0.1,0.1,0.1l0.2,0.2c0.1,0.1,0.1,0.1,0.2,0.1c0,0,0,0,0-0.1
					c0,0,0-0.1-0.1-0.2c-0.1-0.1-0.1-0.2-0.1-0.3c0-0.1,0-0.2,0.2-0.4c0,0.1,0,0.1,0,0.1c0,0,0.1,0.1,0.2,0.2
					c0.1,0.2,0.3,0.4,0.3,0.5c0,0.2,0,0.2,0.1,0.2c0,0,0,0,0.1-0.1c0,0,0,0,0-0.1c0,0,0,0,0.1,0c0,0,0,0,0.1,0
					c0.1,0,0.1,0.1,0.2,0.1c0,0.1,0.1,0.1,0.1,0.2c0,0.1,0.1,0.2,0.1,0.2l0,0.1c0,0,0,0.1,0,0.1c0,0,0.1-0.1,0.1-0.1
					c0,0,0-0.1,0.1-0.1h0c0,0,0.1,0,0.1,0c0.1,0.1,0.2,0.3,0.2,0.4l0,0.2l0,0.2l0,0c0,0,0,0.1,0.1,0.1c0,0,0.1-0.1,0.2-0.2
					c0-0.1,0.1-0.1,0.1-0.1c0.1,0,0.1,0,0.2,0.2l0.1,0.1c0,0,0,0.1,0,0.1c0,0,0,0.1,0,0.1l-0.1,0.1c0,0,0,0.1,0,0.1
					c0,0.1,0.1,0.3,0.2,0.5c0.1,0.1,0.1,0.2,0.1,0.3c0,0,0,0.1,0.1,0.1c0,0,0,0,0-0.1l0-0.1v-0.2c0,0,0-0.1,0.1-0.1c0,0,0.1,0,0.1,0
					l0.3,0.1c0.1,0,0.1,0.1,0.2,0.1c0.4,0.2,0.5,0.3,0.7,0.3c0.1,0,0.3,0,0.5-0.1c0,0,0.1,0,0.1,0c0,0,0.1,0,0.1,0.1
					c0,0,0,0.1,0,0.1c0,0,0,0.1,0,0.1c0,0.1-0.1,0.1-0.1,0.2c0,0,0,0,0,0c0,0,0.1,0,0.1-0.1c0,0,0.1-0.2,0.2-0.4
					c0.2-0.3,0.5-0.6,0.7-0.6l0.5-0.1c0.1,0,0.2-0.1,0.2-0.3c0-0.3-0.2-0.6-0.4-0.8l-0.4-0.2c-0.1-0.1-0.3-0.3-0.3-0.5
					c0-0.1,0-0.4,0.1-0.5l0.1,0.1l0.2,0.1l0.2,0.2l0.1,0.2l0.1,0.2c0,0.1,0.1,0.2,0.1,0.2c0,0,0.1-0.1,0.1-0.2l0,0l0,0
					C37.9,489.1,37.9,489,38.1,488.8"/>
				<path class="st5" d="M31.8,485.6c0.1,0.1,0.1,0.1,0.5,0.2c0.3,0.1,0.4,0.2,0.5,0.5c0,0.2,0.1,0.2,0.3,0.4c0.1,0,0.1,0.1,0.1,0.1
					c0,0,0,0,0.1,0c0,0,0,0,0,0c0,0,0-0.1-0.1-0.2c0,0,0-0.1,0-0.2c0-0.2,0-0.3,0.1-0.4c0.1,0.1,0.1,0.2,0.3,0.3
					c0.2,0.1,0.3,0.3,0.3,0.7c0,0.2,0,0.2,0.1,0.2c0,0,0,0,0,0l0.1-0.2c0,0,0,0,0.1,0s0.1,0,0.1,0.1l0.1,0.1
					c0.1,0.1,0.1,0.2,0.1,0.4c0,0.1,0,0.1,0.1,0.1c0,0,0,0,0.1-0.1l0.1-0.2c0,0,0-0.1,0.1-0.1c0,0,0,0,0.1,0.1
					c0.1,0,0.1,0.1,0.1,0.2c0,0.1,0.1,0.1,0.1,0.2v0.2c0,0,0,0.1,0,0.1c0,0,0,0,0,0c0,0,0,0,0.1-0.1l0-0.1c0,0,0.1-0.1,0.1-0.1
					c0.1,0,0.1,0,0.2,0.2c0,0,0,0.1,0.1,0.1c0,0.1,0.1,0.1,0.1,0.1c0,0,0,0,0,0.1c-0.2,0.2-0.2,0.4-0.2,0.7c0,0.3,0.1,0.6,0.5,1.2
					c0.2,0.3,0.4,0.6,0.4,0.8c0,0.1,0,0.1-0.1,0.1c0,0-0.1,0-0.1,0c0,0-0.1,0-0.1,0c0,0,0,0-0.1,0l-0.1,0.1l-0.1,0.1
					c0,0-0.1,0.1-0.1,0.1c0,0,0,0-0.1,0l-0.1,0c-0.1,0-0.2,0-0.2-0.1l0-0.1l0,0c0-0.1-0.1-0.2-0.2-0.3l-0.2-0.2
					c-0.2-0.2-0.4-0.6-0.4-0.8c0-0.1,0-0.3,0.1-0.5c0.1-0.3,0.1-0.5,0.1-0.6c0-0.5-0.8-1.2-2.2-1.9c-0.7-0.4-0.9-0.6-0.9-1.1
					L31.8,485.6 M31.2,496.6v-0.1l0-0.2c0-0.1,0-0.1,0-0.2c0-0.1,0-0.2,0-0.2c0-0.2,0-0.3,0.1-0.5c0.1-0.1,0.1-0.3,0.1-0.4
					c0,0,0-0.1,0-0.1c0,0,0,0-0.1,0l-0.1,0.1c-0.1,0.1-0.1,0.1-0.3,0.1l-0.2,0c0.1-0.2,0.1-0.2,0.1-0.4c0.1-0.3,0.1-0.4,0.3-0.5
					c0.2-0.2,0.2-0.2,0.2-0.3c0,0,0-0.1-0.1-0.1l-0.1,0l0,0c-0.1,0-0.1-0.1-0.1-0.2c0-0.1,0-0.2,0.1-0.3c0-0.1,0.1-0.1,0.1-0.1
					l0.1-0.1c0,0,0-0.1,0-0.1c0-0.1,0-0.1-0.1-0.1c0,0-0.1,0-0.1,0c0,0-0.1,0-0.1,0c0,0-0.1,0-0.1-0.1l0-0.2l0.1-0.3
					c0-0.1,0.1-0.1,0.1-0.2c0.1-0.1,0.1-0.1,0.2-0.1c0.1-0.1,0.2-0.1,0.2-0.1c0,0,0,0,0-0.1c0,0,0-0.1-0.1-0.1c0,0,0,0-0.1,0l-0.1,0
					c-0.1,0-0.1,0-0.1-0.1c0-0.1,0-0.1,0-0.2l0-0.2c0-0.2,0.1-0.3,0.2-0.3c0,0,0,0,0.1,0c0.2,0.1,0.5,0.2,0.6,0.2
					c0.2,0,0.4,0,0.5-0.1c0,0,0.1,0,0.1,0c0,0,0,0,0,0.1l0,0.2l0,0.3l0,0.2v0.1c0,0-0.1-0.1-0.1-0.1c-0.2-0.2-0.3-0.2-0.5-0.2
					c-0.5,0-0.8,0.5-0.8,1.5c0,0.4,0.1,0.9,0.2,1.6c0,0.1,0,0.2,0,0.3C31.8,496,31.5,496.4,31.2,496.6"/>
				<path class="st5" d="M31.9,494.3L31.9,494.3l0.2,0.2c0.1,0.1,0.1,0.2,0.1,0.3c0,0,0,0.1,0,0.2c0,0.1-0.1,0.1-0.1,0.1
					c0,0-0.1-0.1-0.1-0.2l0-0.2l0-0.2l0-0.2L31.9,494.3 M30.9,490c0.1,0,0.1-0.1,0.2-0.2c0.1-0.2,0.2-0.2,0.4-0.2c0.1,0,0.1,0,0.1,0
					l0.1,0l0.1,0c0.1,0,0.1,0,0.1,0.1c0,0-0.1,0.1-0.2,0.2c-0.1,0.1-0.2,0.1-0.3,0.1c-0.1,0-0.2,0.1-0.2,0.1
					C31.2,490.1,31.1,490.1,30.9,490 M32.4,486.9c0.2,0.1,0.3,0.1,0.5,0.2c0.2,0.1,0.3,0.2,0.3,0.2c0.2,0.1,0.3,0.2,0.3,0.2
					c0,0.1-0.1,0.1-0.3,0.1c-0.4,0-0.7-0.3-0.7-0.6L32.4,486.9 M36.6,489.6c0.1,0,0.2,0.1,0.3,0.1l0.2,0c0,0,0.1,0,0.1,0.1
					c0,0,0.1,0.1,0.1,0.1c0.2,0.1,0.2,0.2,0.2,0.2c0,0.1-0.1,0.1-0.3,0.1C37,490.1,36.8,489.9,36.6,489.6"/>
				<path class="st2" d="M15.1,514.9L15,515l0,0.1c0,0.1,0,0.1,0.2,0.2c0.2,0.1,0.3,0.1,0.4,0.2l0.1,0.1l0,0c0,0,0.1,0,0.1-0.1
					c0-0.1-0.1-0.4-0.3-0.6c-0.1-0.2-0.2-0.3-0.2-0.3c-0.1,0-0.1,0.1-0.1,0.2L15.1,514.9 M14.5,515.3l0.2-0.1c0,0,0.1-0.1,0.1-0.1
					l0-0.1c0-0.1,0-0.2,0-0.2c0-0.2-0.2-0.2-0.2-0.2c0,0,0,0-0.1,0.1l-0.2,0.3c-0.1,0.1-0.1,0.3-0.2,0.5l0,0c0,0.1,0,0.1,0.1,0.1
					c0,0,0.1,0,0.1-0.1L14.5,515.3 M15.1,514.2l0.2,0.1l0.1,0c0.1,0,0.1,0,0.1-0.2c0-0.2-0.1-0.3-0.3-0.8c-0.1-0.2-0.1-0.4-0.3-0.4
					c-0.2,0-0.3,0.1-0.4,0.4l-0.1,0.3c-0.1,0.2-0.1,0.4-0.1,0.5c0,0.1,0.1,0.1,0.2,0.1c0.1,0,0.1,0,0.2,0c0.1,0,0.1-0.1,0.1-0.1
					l0.1,0l0.1,0L15.1,514.2 M34.7,514.9l-0.1,0.2l0,0.1c0,0.1,0,0.1,0.2,0.2c0.1,0,0.3,0.1,0.3,0.2l0.1,0.1l0,0c0,0,0.1,0,0.1-0.1
					c0-0.1-0.1-0.3-0.3-0.6c-0.1-0.2-0.2-0.3-0.2-0.3C34.8,514.6,34.7,514.7,34.7,514.9L34.7,514.9 M34.1,515.3l0.2-0.1
					c0.1,0,0.1-0.1,0.1-0.1l0,0l-0.1-0.2l0-0.2c0,0,0,0-0.1,0l0,0c0,0-0.2,0.1-0.2,0.1l-0.2,0.3c0,0-0.1,0.1-0.1,0.3
					c0,0.1,0,0.1,0,0.2l0,0c0,0.1,0,0.1,0.1,0.1c0,0,0.1,0,0.1-0.1L34.1,515.3 M34.7,514.2l0.2,0.1l0.1,0c0.1,0,0.3-0.1,0.3-0.2
					c0-0.1-0.1-0.2-0.2-0.3l-0.1-0.5c-0.1-0.2-0.2-0.3-0.3-0.3c-0.2,0-0.3,0.1-0.4,0.4c-0.1,0.1-0.1,0.2-0.1,0.3
					c-0.1,0.2-0.1,0.4-0.1,0.4c0,0.1,0.1,0.2,0.2,0.2c0.1,0,0.1,0,0.1,0c0.1,0,0.1-0.1,0.1-0.1l0.1,0l0.1,0L34.7,514.2 M14.2,495.7
					l-0.1,0.2l0,0c0,0,0,0,0,0s0.1,0,0.1-0.1c0,0,0.1,0,0.1-0.1c0.3-0.1,0.3-0.1,0.3-0.3l0-0.2l0-0.2c0-0.1,0-0.1-0.1-0.1
					c0,0-0.2,0.1-0.2,0.2l-0.1,0.1L14.2,495.7 M15.5,495.4l-0.1-0.2c0,0-0.1-0.1-0.1-0.1l0,0c-0.1,0-0.1,0.1-0.1,0.3l0,0.2
					c0,0.1,0.1,0.1,0.2,0.1c0.1,0,0.2,0,0.2,0.1c0.1,0.1,0.2,0.1,0.2,0.1l0,0c0,0,0,0,0-0.1l0,0l-0.1-0.2L15.5,495.4 M15.2,494.7
					l0.2,0.1c0,0,0.1,0,0.1,0c0.1,0,0.1-0.1,0.1-0.2c0-0.1-0.1-0.3-0.2-0.5c-0.1-0.3-0.2-0.4-0.4-0.4c-0.2,0-0.4,0.2-0.6,0.6
					c0,0.1-0.1,0.2-0.1,0.3c0,0.1,0.1,0.2,0.2,0.2c0,0,0.1,0,0.1,0l0.1-0.1c0.1-0.1,0.2-0.1,0.3-0.1
					C15.1,494.6,15.2,494.7,15.2,494.7 M33.5,496l0.1-0.1c0.1-0.1,0.2-0.1,0.2-0.1c0.2-0.1,0.2-0.1,0.2-0.2c0,0,0-0.1,0-0.1
					c0,0,0-0.1,0-0.1c0-0.1-0.1-0.2-0.2-0.2c-0.1,0-0.1,0.1-0.3,0.3C33.5,495.6,33.4,495.8,33.5,496L33.5,496
					C33.4,496,33.4,496,33.5,496L33.5,496 M34.9,495.6l-0.2-0.2c-0.1-0.1-0.1-0.2-0.1-0.2c0,0,0,0-0.1,0l0,0c-0.1,0-0.1,0-0.1,0.1
					l0,0.2l0,0.2v0c0,0.1,0,0.1,0.1,0.1l0.2,0.1l0.2,0.1c0.1,0,0.1,0,0.1,0c0,0,0.1,0,0.1-0.1c0,0,0,0,0-0.1L34.9,495.6 M33.8,494.9
					l0.2-0.1c0,0,0.1,0,0.1,0c0.1,0,0.2,0,0.2,0.1l0.1,0.1c0,0,0.1,0,0.1,0c0.1,0,0.2-0.1,0.2-0.2c0-0.2-0.1-0.3-0.3-0.5l-0.1-0.2
					c-0.1-0.1-0.2-0.2-0.2-0.2c-0.1,0-0.2,0.1-0.4,0.4c-0.1,0.3-0.2,0.4-0.2,0.6c0,0.1,0.1,0.2,0.1,0.2
					C33.7,494.9,33.8,494.9,33.8,494.9"/>
				<path class="st5" d="M14.9,513.9h-0.1c0,0,0,0-0.1,0l0-0.1l0.1-0.3l0-0.2c0-0.1,0.1-0.2,0.2-0.2c0.1,0,0.2,0.1,0.2,0.2l0,0.2
					c0,0.2,0,0.2,0,0.2c0,0,0,0,0,0.1c0,0,0,0-0.1,0l0,0L14.9,513.9 M34.5,513.9h-0.1c0,0,0,0-0.1,0c0,0,0,0,0-0.1l0.1-0.3l0-0.2
					c0-0.1,0-0.2,0.1-0.2c0.1,0,0.2,0.1,0.2,0.2l0,0.2c0,0.2,0,0.2,0,0.2c0,0,0,0,0,0.1c0,0,0,0-0.1,0l0,0L34.5,513.9 M15,494.4
					l-0.1,0l0,0c-0.1,0-0.1,0-0.1-0.1c0-0.1,0.1-0.3,0.2-0.5c0,0,0.1,0,0.1,0c0.1,0,0.1,0.1,0.2,0.3l0,0.2l0,0c0,0.1,0,0.1-0.1,0.1
					l0,0L15,494.4 M34,494.3l0-0.2c0-0.1,0.1-0.2,0.2-0.2c0.1,0,0.2,0.1,0.2,0.4c0,0.1,0,0.1,0,0.1c0,0.1,0,0.1-0.1,0.1l-0.1,0h-0.1
					l0,0C34,494.5,34,494.5,34,494.3L34,494.3"/>
				<path class="st2" d="M22.1,504.5h1.1c0.1,0.3,0.3,0.4,0.6,0.4c0.3,0,0.4-0.1,0.6-0.4h0.9c0.1,0.2,0.3,0.4,0.6,0.4
					c0.2,0,0.5-0.2,0.6-0.4h0.8c0.1,0.2,0.3,0.4,0.6,0.4c0.2,0,0.4-0.1,0.6-0.3l0-0.1h1.2V499h-1V497h-1.2v2.1h-3.1V497h-1.2v2.1h-1
					V504.5"/>
				<path class="st4" d="M22.6,499.5h6.7v4.6h-6.7V499.5z"/>
				<path class="st5" d="M23.3,503c-0.2,0-0.3-0.1-0.3-0.3s0.1-0.3,0.3-0.3c0.2,0,0.3,0.1,0.3,0.3S23.4,503,23.3,503"/>
				<path class="st6" d="M23.3,503c-0.2,0-0.3-0.1-0.3-0.3s0.1-0.3,0.3-0.3c0.2,0,0.3,0.1,0.3,0.3S23.4,503,23.3,503z"/>
				<path class="st5" d="M28.5,503c-0.2,0-0.3-0.1-0.3-0.3s0.1-0.3,0.3-0.3c0.2,0,0.3,0.1,0.3,0.3S28.7,503,28.5,503"/>
				<path class="st6" d="M28.5,503c-0.2,0-0.3-0.1-0.3-0.3s0.1-0.3,0.3-0.3c0.2,0,0.3,0.1,0.3,0.3S28.7,503,28.5,503z"/>
				<path class="st5" d="M23.3,500.5c-0.2,0-0.3-0.1-0.3-0.3c0-0.2,0.1-0.3,0.3-0.3c0.2,0,0.3,0.1,0.3,0.3
					C23.6,500.4,23.4,500.5,23.3,500.5"/>
				<path class="st6" d="M23.3,500.5c-0.2,0-0.3-0.1-0.3-0.3c0-0.2,0.1-0.3,0.3-0.3c0.2,0,0.3,0.1,0.3,0.3
					C23.6,500.4,23.4,500.5,23.3,500.5z"/>
				<path class="st5" d="M28.5,500.5c-0.2,0-0.3-0.1-0.3-0.3c0-0.2,0.1-0.3,0.3-0.3c0.2,0,0.3,0.1,0.3,0.3
					C28.8,500.4,28.7,500.5,28.5,500.5"/>
				<path class="st6" d="M28.5,500.5c-0.2,0-0.3-0.1-0.3-0.3c0-0.2,0.1-0.3,0.3-0.3c0.2,0,0.3,0.1,0.3,0.3
					C28.8,500.4,28.7,500.5,28.5,500.5z"/>
				<path class="st5" d="M24.3,501.5c0.4-0.5,1-0.8,1.6-0.8c0.6,0,1.1,0.2,1.6,0.8c-0.5,0.5-1,0.7-1.6,0.7
					C25.2,502.2,24.6,501.9,24.3,501.5"/>
				<path class="st2" d="M24.6,501.5c0.4,0.3,0.8,0.5,1.3,0.5c0.5,0,0.8-0.1,1.3-0.5c-0.4-0.4-0.7-0.5-1.3-0.5
					C25.4,500.9,24.9,501.1,24.6,501.5"/>
				<path class="st5" d="M25.1,501.6c0.3-0.2,0.5-0.2,0.7-0.2c0.3,0,0.5,0.1,0.8,0.2c-0.2,0.1-0.5,0.2-0.8,0.2
					C25.6,501.8,25.3,501.7,25.1,501.6"/>
				<path class="st2" d="M22.5,503.6h6.9v0.2h-6.9V503.6z"/>
				<path class="st7" d="M22.5,503.6h6.9v0.2h-6.9V503.6z"/>
				<path class="st5" d="M23.5,504.1v-0.7c0-0.2,0.1-0.3,0.3-0.3c0.2,0,0.3,0.1,0.3,0.3v0.6c0,0.2-0.1,0.4-0.3,0.4c0,0-0.1,0-0.1,0
					c0,0-0.1,0-0.1,0c0,0,0,0-0.1-0.1c0-0.1,0-0.1,0-0.1V504.1 M25.6,503.6v-0.1c0-0.2,0.1-0.3,0.3-0.3c0.2,0,0.3,0.1,0.3,0.3v0.6
					c0,0.2-0.1,0.4-0.3,0.4c-0.2,0-0.3-0.2-0.3-0.4V503.6 M27.6,504.1v-0.7c0-0.2,0.1-0.3,0.3-0.3c0.2,0,0.3,0.1,0.3,0.3v0.6
					c0,0.2-0.1,0.4-0.3,0.4c0,0-0.1,0-0.1,0c0,0-0.1,0-0.1,0c0,0,0,0-0.1-0.1c0-0.1,0-0.1,0-0.1V504.1 M23.4,497.8H24v0.8h-0.6
					V497.8z M23.4,497.3H24v0.3h-0.6V497.3z M27.6,497.8h0.6v0.8h-0.6V497.8z M27.6,497.3h0.6v0.3h-0.6V497.3z"/>
				<path class="st2" d="M62,518.1v-0.5h-0.3c-0.5,0-1.3,0-1.3-1.5v-6c0-3.7-1.6-5.5-4.9-5.5c-3.7,0-5.4,1.5-5.4,4.7v6.8
					c0,1.5-0.8,1.5-1.5,1.5h-0.1v0.5H54v-0.5h-0.1c-0.7,0-1.5,0-1.5-1.5v-6.5c0-2.8,1.2-4.2,3.6-4.2c2.3,0,3.6,1.5,3.6,4.2v6.4
					c0,1.5-0.8,1.5-1.4,1.5h-0.3v0.5H62 M68,505.5V505h-4.7v0.5h0.2c1.5,0,1.7,1.2,1.7,2.5v7.9c0,1.3-0.7,1.8-1.8,1.8h-0.2v0.5H67
					l8-9.8v7.4c0,1.7-1.2,1.9-1.7,1.9h-0.3v0.5h4.7v-0.5h-0.2c-0.8,0-1.7-0.2-1.7-2.5v-10.2l-0.7,0l-9,10.9l0-7.9
					c0-1.3,0.2-2.5,1.8-2.5L68,505.5 M93.1,507.8l2.9,8.1c0.5,1.4,0.2,1.8-1,1.8h-0.2v0.5h3.7v-0.5h-0.1c-0.4,0-0.9-0.1-1.2-1
					l-4.4-11.7h-0.8l-4.7,11.6c-0.4,1-0.8,1.1-1.6,1.1h-0.1v0.5h5.4v-0.5h-0.4c-0.9,0-1.1-0.6-0.8-1.3L93.1,507.8 M115,517.5l0-5.8
					h1.1c2,0,2.9,0.9,2.9,3c0,1.7-1.1,2.9-2.8,2.9C115.9,517.6,115.3,517.5,115,517.5L115,517.5z M117,518.1c2.9,0,4.3-1.1,4.3-3.3
					c0-1.9-1.5-2.8-2.6-3.3l-0.1,0l3.2-4.9c0.5-0.8,0.9-1.1,1.8-1.1V505h-3.4l-3.9,6.2H115v-4.1c0-1.5,0.7-1.6,1.6-1.6h0.3V505h-5.7
					v0.5h0.3c0.6,0,1.4,0.3,1.4,1.1v9.5c0,1.5-0.9,1.5-1.4,1.5h-0.3v0.5L117,518.1 M130.6,507.5c0,1.6-1.4,2.2-2.7,2.9
					c-1.5,0.8-3.2,1.6-3.2,4c0,2.3,1.8,3.9,4.3,3.9c1,0,2.2-0.2,2.7-0.3l0.2-2.6l-0.5-0.1c-0.2,1.3-0.9,2.4-2.4,2.4
					c-1.4,0-2.5-0.9-2.5-2.4c0-1.5,1.4-2.1,2.6-2.7c1.6-0.8,3.3-1.6,3.3-4c0-2.7-2.4-3.9-4.6-3.9c-0.9,0-2.1,0.2-3.1,0.7l-0.3,2.8
					l0.5,0.1c0.4-1.9,1.6-3,3.1-3C129.7,505.2,130.6,506.1,130.6,507.5 M140,518.1v-0.5h-0.2c-0.7,0-1.4-0.1-1.4-1.2v-9.8
					c0-1,0.7-1.2,1.4-1.2h0.2V505h-5.5v0.5h0.2c0.7,0,1.4,0.1,1.4,1.2v9.8c0,1-0.7,1.2-1.4,1.2h-0.2v0.5H140 M84.7,518.1v-0.5h-0.2
					c-0.7,0-1.4-0.1-1.4-1.2v-9.8c0-1,0.7-1.2,1.4-1.2h0.2V505h-5.5v0.5h0.2c0.7,0,1.4,0.1,1.4,1.2v9.8c0,1-0.7,1.2-1.4,1.2h-0.2
					v0.5H84.7 M193.9,499.2l0-3.5c0,0-0.4-0.1-0.6-0.1c-0.1,1.5-0.5,2.8-2.9,2.8h-3.3v-6.4h2.8c1.4,0,1.8,0.8,1.9,2.1h0.6v-5.4
					l-0.6,0c-0.1,1.3-0.4,2.3-1.9,2.3h-2.8v-5.7c0-1.6,1.4-1.6,2.9-1.6c2.7,0,3.9,0.2,4.7,2.9c0.1,0,0.6-0.1,0.6-0.1l-0.8-3.6h-12.2
					v0.6h0.2c0.9,0,1.8,0.2,1.8,1.5v12.3c0,1.3-0.9,1.5-1.8,1.5h-0.2v0.6L193.9,499.2 M124.8,498.4l0-7.3h1.4c2.6,0,3.7,1.1,3.7,3.8
					c0,2.2-1.4,3.6-3.5,3.6C125.9,498.5,125.3,498.5,124.8,498.4L124.8,498.4z M127.3,499.2c3.6,0,5.5-1.3,5.5-4.1
					c0-2.3-1.8-3.5-3.3-4.1l-0.1,0l4-6.1c0.6-1,1.2-1.4,2.3-1.4v-0.6h-4.2l-4.9,7.7h-1.8v-5.1c0-1.9,0.8-2,2-2h0.3v-0.6H120v0.6h0.3
					c0.8,0,1.7,0.4,1.7,1.4v12c0,1.9-1.1,1.9-1.7,1.9H120v0.6L127.3,499.2 M143.6,499.2v-0.6h-0.2c-0.9,0-1.8-0.2-1.8-1.5v-12.3
					c0-1.3,0.9-1.5,1.8-1.5h0.2v-0.6h-6.9v0.6h0.2c0.9,0,1.8,0.2,1.8,1.5v12.3c0,1.3-0.9,1.5-1.8,1.5h-0.2v0.6H143.6 M142.9,518.1
					h8.7c0.4,0,1,0.1,1.1,0.7h0.4l-0.3-3.4h-0.5c0,0.8-0.1,1.9-1.4,1.9h-2.6v-10.1c0-1.6,0.8-1.7,1.6-1.7h0.3V505h-6v0.5h0.3
					c1,0,1.6,0.1,1.6,1.7v10.2h-2.7c-1.4,0-1.5-0.6-1.8-1.9h-0.5l0.3,3.4h0.4C141.9,518.2,142.4,518.1,142.9,518.1 M166.5,518.1
					v-0.5c-0.8,0-1.2-0.6-1.6-1l-3.3-5.1v-4.2c0-1.7,0.6-1.8,1.6-1.8h0.3V505h-6v0.5h0.3c1,0,1.6,0.3,1.6,1.6v4l-3.6,5.2
					c-0.6,0.8-1,1.3-1.8,1.3h-0.1v0.5h5.4v-0.5h-0.2c-1,0-1.1-0.6-0.7-1.2l2.8-4.3l2.5,3.9c0.6,0.9,0.7,1.6-0.7,1.6h-0.2l0,0.5
					H166.5 M172.9,512.1c0-3.2,1.4-6.7,4.6-6.7c2.9,0,4.3,2,4.3,6.1c0,3-1.6,6.2-4.6,6.2C173.2,517.7,172.9,513.4,172.9,512.1
					L172.9,512.1z M170.4,511.4c0,3.9,3,6.9,6.7,6.9c4.1,0,7-2.7,7-6.5c0-4.2-2.9-7.2-6.9-7.2C173.3,504.7,170.4,507.5,170.4,511.4
					 M185.7,505v0.5h0.2c0.7,0,1.4,0.1,1.4,1.2v9.8c0,1-0.7,1.2-1.4,1.2h-0.2v0.5h9.2l0-2.8c-0.1,0-0.3-0.1-0.4-0.1
					c-0.1,1.1-0.4,2.2-1.9,2.2h-3v-5.1h2.6c1.1,0,1.2,0.9,1.3,1.5h0.4v-4.2h-0.4c0,0.8-0.2,1.9-1.5,1.9h-2.3v-4.9
					c0-1.2,1-1.2,1.8-1.2h0.2V505H185.7 M49.5,490.9c0,2.4,1,4.8,2.7,6.4c1.6,1.4,3.7,2.2,6,2.2c2.1,0,3.9-0.4,5.6-1.2l0.2-3.8
					l-0.5-0.1c-0.6,2.2-1.7,4.2-5.1,4.2c-3.6,0-5.8-2.8-5.8-7.4c0-4.1,1.8-7.9,6.2-7.9c2.4,0,4.2,0.9,5.5,2.6l0.4-0.8
					c-1.5-1.9-3.8-2.9-6.4-2.9C52.9,482.3,49.5,485.4,49.5,490.9 M85,496l-0.5-10.2c-0.1-2.3,0.6-2.4,2.1-2.5h0.1v-0.6h-5.5v0.6h0.2
					c1.9,0.1,2,1.1,2.1,2.6l0.6,10.4c0.1,1.4-0.7,2.2-2,2.2h-0.2v0.6h4.7c0.1-0.1,5.6-12.5,5.6-12.5s5.2,12.3,5.3,12.5h4.6l0-0.6
					h-0.1c-1.9,0-2.2-0.6-2-2.9l0.6-10.9c0.1-1.3,0.8-1.4,2-1.4v-0.6h-6.8v0.6c0,0,0,0,0,0c1.1,0.1,1.9,0.1,1.9,1.2l0,1.2
					c0,0-0.5,10.5-0.5,10.5s-5.6-13.5-5.7-13.7h-0.5C90.9,482.7,85,496,85,496 M151.1,498.4l0-12.9c0-1.7,0.7-2,2.5-2
					c4.2,0,6.1,3.6,6.1,7.1c0,5.5-2.3,7.9-6.9,7.9C152.3,498.4,151.4,498.4,151.1,498.4L151.1,498.4z M146.2,482.7v0.6h0.2
					c0.9,0,1.8,0.2,1.8,1.5v12.3c0,1.3-0.9,1.5-1.8,1.5h-0.2v0.6l7.4,0c2.7,0,5-0.7,6.6-2.2c1.6-1.5,2.4-3.5,2.4-6
					c0-2.3-0.9-4.5-2.5-6.1c-1.6-1.6-3.9-2.1-6.1-2.1L146.2,482.7 M176.6,483.5v4c0,0.9-0.6,1.3-1.9,1.3h-0.2v0.6h6.3v-0.6h-0.2
					c-0.9,0-1.4-0.5-1.4-1.3l0-4.5c-1.5-0.5-3.5-0.9-5.8-0.9c-5.4,0-8.9,3.5-8.9,9c0,5.8,4.6,8.4,9,8.4c2,0,4-0.4,5.2-0.8l0.3-3.9
					l-0.6,0c-0.7,2.8-1.9,3.9-4.8,3.9c-3.8,0-6.1-2.8-6.1-7.4c0-4.2,2-8.3,6.3-8.3C175,483.1,176,483.3,176.6,483.5 M113,491.7
					c2.1-0.2,3.2-0.6,4.1-1.6c0.7-0.7,1.1-1.7,1.1-2.7c0-2.6-2.4-4.7-5.4-4.7h-8.1v0.6h0.3c0.8,0,1.7,0.4,1.7,1.4v11.9
					c0,1.9-1.1,1.9-1.7,1.9h-0.3v0.6l7.3,0c3.4,0,5.3-1.2,5.3-3.6C117.4,492.9,115.1,492,113,491.7 M109.7,498.5v-6.6h1.2
					c2.3,0,3.5,1.1,3.5,3.2c0,2.3-1.1,3.4-3.3,3.4H109.7L109.7,498.5z M109.7,491.2v-5.8c0-1.6,0.5-2.1,2.2-2.1c2,0,3.5,1.7,3.5,3.9
					c0,2.5-1.5,4-4.1,4H109.7 M71.6,495.8l2.3-6.4h-4.6L71.6,495.8z M71.8,499.2c0,0-5.2-14.2-5.2-14.2c-0.4-1-1.1-1.6-2.1-1.6h-0.1
					l0-0.6h5l0,0.6h-0.2c-1.2,0-2,0.4-1.5,1.9l1.2,3.3h5.2l1.3-3.6c0.4-1.1-0.1-1.7-1.4-1.7H74v-0.6h6.4l0,0.6h-0.1
					c-0.9,0-1.4,0.4-1.8,1.6l-5.4,14.3L71.8,499.2 M108.5,518.1l0-2.8c0,0-0.3-0.1-0.4-0.1c-0.1,1.2-0.4,2.2-2.3,2.2h-2.6v-5.1h2.2
					c1.1,0,1.4,0.6,1.5,1.7h0.4v-4.3l-0.4,0c-0.1,1-0.3,1.8-1.5,1.8h-2.2V507c0-1.3,1.1-1.3,2.3-1.3c2.1,0,3.1,0.1,3.7,2.3
					c0.1,0,0.4-0.1,0.4-0.1l-0.6-2.9h-9.7v0.5h0.2c0.7,0,1.4,0.1,1.4,1.2v9.8c0,1-0.7,1.2-1.4,1.2h-0.2v0.5L108.5,518.1"/>
			</g>
		</g>
	</g>
</g>
</svg>
